<svg xmlns="http://www.w3.org/2000/svg" width="192" height="192" viewBox="0 0 192 192"><path fill="none" d="M0 0h192v192H0z"/><path fill="#FCC934" d="M112.78 167.29l67.3-119.22c6.02-10.55 2.45-24.03-7.98-30.12-10.42-6.09-23.75-2.47-29.77 8.07l-67.84 118.9 38.29 22.37z"/><path fill="#FBBC04" d="M41 102.07l64 35.03c10.65 5.95 14.64 18.79 8.49 29.1-6.15 10.31-19.8 13.88-30.45 7.93L18.77 138.1 41 102.07z"/><path fill="#F29900" d="M40.25 100.88c-10.28-5.94-23.43-2.41-29.37 7.87-5.93 10.28-2.41 23.43 7.87 29.36 10.28 5.94 23.43 2.41 29.37-7.87 5.93-10.27 2.41-23.42-7.87-29.36z"/></svg>