<svg xmlns="http://www.w3.org/2000/svg" width="192" height="192" viewBox="0 0 192 192"><path fill="none" d="M0 0h192v192H0z"/><path fill="#8AB4F8" d="M111.31 176.79L80.76 147l65.61-67L178 111z"/><path fill="#4285F4" d="M111.44 45.08L81 14 14.44 79.93c-8.58 8.58-8.58 22.49 0 31.08L80 177l31-29-49.95-52.53 50.39-50.39z"/><path fill="#8AB4F8" d="M177.56 80.44l-66-66c-8.59-8.59-22.52-8.59-31.11 0s-8.59 22.52 0 31.11l66 66c8.59 8.59 22.52 8.59 31.11 0s8.59-22.52 0-31.11z"/><circle fill="#246FDB" cx="95.5" cy="162.5" r="21.5"/></svg>