<svg version="1.1" id="Ebene_1" xmlns="http://www.w3.org/2000/svg" xmlns:xlink="http://www.w3.org/1999/xlink" x="0" y="0" viewBox="0 0 1920 1680" xml:space="preserve"><style>.st2{fill:#0a4c6f}.st2,.st4{clip-path:url(#SVGID_2_)}.st5{fill:#0b99cc}.st7{fill:#0982b2}.st8{fill:#0a668e}.st9{fill:#0a597f}.st11{fill:#0a4c6f}.st15{clip-path:url(#SVGID_2_);fill:#27b9ed}.st20{fill:#0a3d5d}</style><defs><path id="SVGID_1_" d="M0 0h1920v1680H0z"/></defs><clipPath id="SVGID_2_"><use xlink:href="#SVGID_1_" overflow="visible"/></clipPath><path d="M790.7 543.3c-2.9-4.2 1.7-14-9.9-18.9-7.4-3.2-19.1-8.7-27.3-9.3-21.3-1.7-32.4-5.6-51.2-11.1-3.8-1.1-7.9-2.2-10.9-5-1.6-1.6-2.8-3.6-4.6-5.1-1.9-1.6-4.2-2.4-6.4-3.3-10.6-4-20.3-12.4-31.2-14.9-3.2-.7-6.9-.4-10.1-1.5V471c-1.6.2-3.3.9-4.5 2.1-1.2-2-1.3-6.4-1.5-9-3 .7-5.9 2.9-8 5.3 1.1-5.1 4.3-9.3 7-13.8.3-.1 1.7-.6 2.5-1.5-7.2-1.1-21.1 4.5-23.5 12.1-3.4-2.5-4.9-7.3-4.6-11.6-1.8 3.5-4 8.2-3.4 12.7-2.3-1.1-4.5-2.7-7-3.2v4.8c-1.8-1.4-2.8-3.8-4.5-5.3-4.3 6.1-13.3 2.9-20.8 3.1-13.4-5.5-67.6 1-109.6 2.8-42 1.8-55.5-13.8-98.6-12.3s-21.4 4.5-54.3 6-.6-13.5-47.1-18.2-40 3.2-119.5-16.3-153.6-4.5-153.6-4.5l-17.4 136.6 547.1-23.4c0 .3 34.3-12.1 34.2-11.8-.1.7-.3 1.3-.4 1.9 7.3-2.9 17.8 8.3 25.4 5 .2.1.4.3.6.3 6.4-1.1 7.6 2.3 11.2 3.3 4.7 1.4 8.9 2.3 13.7 3.3 2.7.6 5.3.9 7.9 1.1 11.4.7 19.5-7.4 30.1-7.7 7.5-.2 12.7 7.2 20.8 6.7 11.2-.7 21.5-3.6 32.9-2.8 12.1.8 23.9 3.7 36 4.7 11.4 1 22.3-1.8 33.5 1.5 9.2 2.7 14.4 4.2 24 4.3-.8-.1 3.3-3.4 3-3.9zm191.4 19c-1.8-18.6 27.7-9.9 51.2-15.8 5.2-1.3 13.4-8.3 16.5-10.6 8.5-6.4 13.1-10.4 21-7.6 10.8 3.8 13.7 1.3 22.9-5.4 9.8-7.1 21.7-10.7 33.3-14.2 11.5-3.4 21.4.2 33.1.7 3.8.2 8.3-.8 12-.2-.2 0 6.4.6 4.6 1.7 4.2-2.8 11.1-3.6 16.3-2.5.1-1.5.1-3 .1-4.6.9 1.1 3.4 2.7 3.7 3.7 2.5-5.3 7.4-12.9 13-14.8-3.1 3.6-5 9.3-5.1 14.1-.5.6-.1-.1-.3-.3 5-1 10.6-1.5 15.7-1.7 3.4-.1 6.8-.2 10.4-.6 2.1-.2 5 .9 6.6-.3 2.8-2.1 2.4-5.1 5.3-7.2-.3 1.9-.8 4-.7 6.1 1.1-.5 2.3-.9 3.4-1.2 1.1-3.2 1.6-6.1 2-9.6-.2 1.9.4 8.2 1 8.6 2.7-.4 4.6-1.7 7-3 3.2-1.7 6.8-3.2 10.2-4.8 3-1.3 8.2-4.4 11.3-2.1 1.5 1.1 2 3.2 3.5 4.2 2.3 1.5 5.3 0 8 .3 5.3.6 8 7.9 13.3 8.4 2.9.3 5.6-1.7 8.3-2.6 5.2-1.7 8.5 3.7 12.1 6.5 3.7 3 6.7 4.2 10.7 6.8 6.6 4.2 58.1-6.1 60.3-5.7l-35.7 27.7-49.7 46-253.7-1.9-71.6-18.1z" clip-path="url(#SVGID_2_)" fill="#1d7ba5"/><path d="M1940 645s-18-174.7-18-175c0 .6-58.1-2.4-62-2-7.3.8-14.3 3.1-21.5 4.5-15.5 3-31.4 1.5-47.1.1-29-2.7-58.1-5.4-86-13.7-7.4-2.2-16.9-4.2-21.6 2-.7-.8-1.4-1.5-2.1-2.3-.5-.6-14 1.6-15.9 1.6-5-.1-9.5-.8-14.4-1.8-11.7-2.4-23.3 4.7-35 2.5-23-4.2-46.6-17.4-69.9-15.7-8.5.6-16.6 4.1-24.9 5.9-6.3 1.4-17.8 10.3-43.7 13.5-.2 0-.3.3-.4.5-2.3-.2-4.5.2-5.4-2.6-.8-2.8.3-8.1 2.3-10.1-5.3 1.3-7.4 6.5-10.7 10.7-1.5 1.9-2.9 6.5-5.5 6.7-.5-5.7 2.7-9.7.7-15.5-5.3 4.1-5 8.6-5.7 14.5-2.2-.3-4.3-.8-6.5-1.2-4.5-.8-9.2-.2-13.3 1.8-1.2.6-2.1.9-2.1.9-.2-1.7-4.5-5.7-6.5-7.1-.9 3-2.7 3.6-2.8 6.7-.1 1.5.9 1.7.9 4.2-3.1-1.1-3.9-1.7-7.2-2.5-2.9-.7-14.1 1.9-16.9 2.8 4.7-.2 17.2.4 18.8 4.5-1.8-4.2-26.3 16.5-27.7 18.4-4.9 6.8-8.6 8.6-18.1 9.2-8.3.5-17.1-.6-24.8 3.2-6.2 3.1-10.5 9-16 13.2-13.9 10.3-33.1 7.9-49.9 3.7-2.3-.6-4.6-1.1-6.9-.6-3.3.7-5.6 3.5-8.8 4.7-3.8 1.5-8 .4-12 0s-8.8.5-10.7 4.1c-6.3-5.5-14.7-6.2-22.6-4.5-10.3 2.2-20 6.5-30.5 7.5-8.2.8-16.4.9-24.6 1.5-11 .8-36.4-.9-44.8 7.9-12.6 13.3-47.6 10-136.5 12.3-18.1.5-25.4 13.6-25.7 31.7l-.2 11h-.8s-23.1 3-23.1 16.3v90.1c-2.5 1.2-5.3 2.6-8.6 4-14 6.1-11.3 162.1-11.3 162.1v560L813.6 1481V729.5s1.7-29.1-4.6-41.2c-6.4-12.1-4.3-59.9-6.3-73.2-1.5-10.3-9.7-17-13.3-19.6l.3-53.2s-.7-.3-2.1-.8c-7-.6-14-1.8-20.9-3.2-4.1-.8-7.9-3.6-11.9-4.1-5.4-.8-19.1 2.5-24.3 3.6-7.4 1.7-17.8 2.5-23.4-2.7-5-4.7-5-10.8-35.9-8.4-7.2.6-14.6 7.5-21.5 5.3-8.5-2.7-11.7-3.9-19.8-.4-9.1 4-17.6 4.9-27.4 3-4.7-.9-9-1.8-13.7-3.1-3.8-1.1-5.1-3.7-11.8-3.4-7.6 3.1-18.1-7.4-25.4-4.7-5.5-2.9-21.5-2.6-50 4s-46.5-4.1-73.1-3c-26.6 1-15.4-13-66-2.5s-105.4 1.5-235.9-10.7C-3.8 498.8-11.9 528.9-11.9 528.9l-.2 195.7-51.9 3.5-114 980.4c159.7 4.6 2121 0 2121 0L1940 645z" clip-path="url(#SVGID_2_)" fill="#0a668e"/><path class="st2" d="M673.1 326.1c4.7 3 8.7 7.6 10.9 12.5.9-4.3 9.2-8.4 13.5-8-4.9.5-8.6-2.1-13.8-.6-1.5-3.3-6.7-5.5-10.6-3.9zm-19 29c.4 8.1 6.1-2.3 7.4-3.6 4.7-4.7 13.5-5.3 19.1-3.4-6.1-4.7-21.2-5.2-27 .5-5.1-6.6-18.4-10.3-26-5 4-2 10.2 1 13.9 3.6 3.3 2.3 8.9 8.2 12.6 7.9zm444-38.5c1.5-1.4 5.5-5.4 7.8-5.5 3.8-.1 4.7 4.1 6.6 6.6.2.2.2.2 0 0-3.8-3.1-8.5-3.9-12.9-1.1m40.5-1.5c-1.9-3.9-7.7-5.5-9.5-10-.4 6.1 6.7 7.9 8.8 12.7.3.8.1 1 .8 1.5.4.3 1.4.7 1.4.6.6-1.6.4-3.4 1.4-5.1.8-1.4 1.4-2.5 2.6-3.7 1.5-1.4 5.9-4.7 7.2-5.7-3.7 3.3-11.2 4.2-12.7 9.7z"/><path clip-path="url(#SVGID_2_)" fill="none" stroke="#0982b2" stroke-width="4" stroke-miterlimit="10" d="M1492.6 521.8l160-.5"/><g class="st4"><path class="st5" d="M1514.3 517.4c-8.4 0-16.6.4-25 .9-8.4.5-16.7.5-25.1.9-2.7.1-4.4 3.1-3.5 5.5 1.3 3.4 2.9 6.6 5 9.5-32.5 2.5-65.1 4.3-97.6 5.6-1.1 0-2 .5-2.8 1.1-3.1.4-5.7 1.7-7.3 4.8-1.3 2.6-1 7.7 1.8 9.6-.2.1-.3.2-.4.2-3 1.2-6.2 2.2-9.3 3.3-1.3.5-2.5.9-3.8 1.4-5.3.8-10.7 1.1-15.7 1.7-14.7 1.7-29.5 4.9-44.3 5.8-3.8.2-5.5 2.3-4.6 5.4-2.5 1.1-4.9 2.6-7 4.7-3.1 3-.5 8 3.2 8.7 3.2.7 6.3 0 9.4 0 1.1 1.8 3 3 5.7 2.7 21.7-2.4 43.5-6.6 65-10 11.1-1.8 21.4-.1 27.3-11.6 1.9-3.6-3.5-9.2-3.7-13.3-.2-4.3 20-4.7 29.7-5.5 13.2-1.1 26.4-1.4 39.6-3 5.3-.6 10.6-.4 15.9-1.1 2.7-.2 11.8-1.8 12.6-3.3.8-.5 1.5-1.2 2.1-2 4.7-6.3-1.1-10.9-7.4-13.9 5.6-.7 11.1-.6 16.6-1.4 8.1-1.2 34.2-.6 42.1-3.1 1.9-.6-16.8-3.6-18.5-3.6z"/><path class="st5" d="M1344.2 668.5c-.2-3.6-1.1-7.1-2.5-10-1.3-2.9-2.9-5.2-4.5-7.1-3.2-3.7-6.3-6-9.1-7.8-5.7-3.6-10.6-5.6-15.5-7.5-4.8-1.8-9.5-3.3-14.1-4.7-9.2-2.7-18.2-5.1-27-7.5-8.7-2.4-17.3-5.7-25.7-8.3-9-3.6-13.3-5.1-21.8-9.4-2.3-1.2-4.9-1.5-6.2-4.5-1.4-3.7 15-5.1 42-8.1 24.1-2.7 43.6-6.3 45.7-6.3l-.4-11-.4-11c-1.1 0-26.5 1.9-52.9 5.1-15.8 1.9-28.8 2.3-38.4 5.1-10.2 3-24.4 2.1-29.9 19.4-6.1 19.1 18.5 28 24.8 31.2 9.3 4.8 19 9 28.6 12.7 8.4 4 15.9 7.7 24.3 11.4 8.5 3.7 15.6 8.1 24 11 13.6 4.7 6 12.3 4.1 13.2l-6.1 3.1c-4 2.1-7.1 4.2-11.2 6.2-4.1 2.1-8.1 4.1-12.2 6.1-16.3 8.1-31.7 16.1-48.2 23.8-8.2 3.9-16.5 7.7-24.8 11.5l-12.4 5.6c-4.1 1.8-8.3 3.7-12.3 5.5-.9.4-1.8.9-2.7 1.4-14 7.9-18.9 25.6-11 39.6 7.9 14 25.6 18.9 39.6 11h.1c4.2-2.4 8.2-4.7 12.3-7l12.1-7.1c8-4.7 16-9.5 24-14.3 15.9-9.6 31.7-19.4 47.4-29.4l11.7-7.5c3.9-2.5 7.8-5 11.7-7.6l5.8-3.8c2.1-1.4 4.3-3 6.4-4.6 4.3-3.3 8.7-6.8 13.4-11.7 2.3-2.5 4.7-5.4 7.1-9.5 1.2-2.1 2.3-4.5 3.1-7.4.8-2.8 1.3-6.2 1.1-9.8z"/><path d="M1489.3 518.3c-7.2.7-14.5 1-21.7 1.5l-2.7.2h-.7c-.2 0-.3 0-.5.1-.3.1-.6.2-.9.4-1.1.8-1.6 2.5-1.2 3.7 1.3 3.2 3 6.4 5.1 9.2.4.6.3 1.4-.3 1.8-.2.1-.4.2-.7.3-10 .9-20 1.7-29.9 2.5-10 .8-20 1.7-30 2.3l-15 .9-7.5.4c-2.6.1-5.1 0-7.6.1-2.4 0-4.8.1-7.1.5-1.1.2-2.2.5-3.2.8-1 .4-2 .8-2.8 1.4l-1.2.9c-.4.3-.6.6-.8 1-.4.7-.7 1.6-.9 2.5-.3 1.8.4 3.7 1.5 4.8 1 1 .9 2.5 0 3.5-.2.2-.4.4-.7.5-5.7 2.8-11.9 4.4-18 5.3-6.1.9-12.1 1.5-18.1 2.1-12.1 1.1-24 2-36 3.4-6 .7-12.1 1.2-18.1 1.6l-18 1.5c-12 1-24 2.3-36 3.5 11.9-2.2 23.8-4.1 35.7-5.8 6-.8 12-1.6 18-2.3 6-.8 12-1.4 17.9-2.3 6-.9 12-1.7 18-2.3l18-1.9c11.9-1.6 24.1-2.1 34.4-7.3l-.7 4c-2.4-2.4-3.4-5.8-3-9 .2-1.6.7-3.2 1.6-4.6.5-.7 1-1.4 1.6-1.9.6-.5 1.1-1 1.8-1.4 1.2-.9 2.6-1.4 4-1.9 1.4-.4 2.7-.8 4.1-.9 2.7-.4 5.3-.5 7.9-.5 2.5 0 5 .1 7.4 0l7.5-.3 15-.6c5-.2 10-.5 15-.8l15-.8c10-.5 20-1 30-1.4l-1 2.1c-2.1-3.1-3.7-6.5-4.9-10-.7-2.2.3-4.7 2.1-5.9.5-.3 1-.5 1.5-.6.3-.1.6-.1.8-.1h3.4c7.5-.3 14.7-.1 21.9-.2z" fill="#27b9ed"/></g><g class="st4"><path class="st7" d="M1484.3 539.4l3.4-1.2 54.5 21.6v2.4c-.6-.2-57.9-22.8-57.9-22.8zm4.5-4.1l3.5-1 49.9 19.1v2.1zm53.5 11.9v2.9l-48.7-18.9 2.8-1.1zm-44.4-20.3l3-1.2 41.5 15.1v2.7zm4.5-4.3l3.3-1.2 36.8 13.2v2.9zm4.5-4.2l3.5-1.2 32.2 11v2.7zm4.7-4.6l3.2-1.1 27.9 9.2v2.4zm4.5-4.2l3.5-1.1 23.2 7.3v2.3z"/><path class="st8" d="M1482.7 543.3l59.3 23.3.1-4.4-57.8-22.8zm5-5.1l1.1-2.9 53.4 20.2-.1 4.3zm4.6-3.9l1.3-3.1 48.7 18.9-.1 3.3zm4.1-4.2l1.5-3.2 44.5 16.6-.1 3.7zm4.5-4.2l1.5-3.2 40.1 14.8-.1 3.5zm4.8-4.5l1.2-3 35.7 12.5-.1 3.7zm4.7-4.2l1.2-3.4 31.1 10.5-.1 3.9zm4.4-4.5l1.3-3.1 26.7 8.5-.1 3.8zm4.8-4.2l1.7-3.6 21.6 7.2-.1 3.7z"/><path class="st9" d="M1542.1 562.2l-.1 4.4 59.6-21.7-1.7-3.9zm0-2.3v2.3l57.8-21.2-3.2-1.3zm0 0l.1-4.3 52.8-19.3 1.7 3.4zm.1-4.3v-2.2l50.3-17.9 2.5.8zm.1-5.4l48.6-17.6 1.6 2.9-50.3 17.9z"/><path class="st9" d="M1542.3 550.2v-2.9l45.8-16.4 2.8 1.7zm0-2.9l45.8-16.4-1.5-3.2-44.2 15.8z"/><path class="st9" d="M1542.4 543.5l44.2-15.8-3.2-1.3-41 14.4zm0-2.7l41-14.4-1.5-3-39.4 14.1z"/><path class="st9" d="M1542.5 537.5l39.4-14.1-3.2-1.3-36.2 12.5z"/><path class="st9" d="M1542.5 534.6l36.2-12.5-1.5-2.9-34.6 11.7zm.1-3.7l34.6-11.7-2.8-1.5-31.8 10.4z"/><path class="st9" d="M1542.6 528.1l31.8-10.4-1.5-2.9-30.2 9.5zm.1-3.8l30.2-9.5-2.9-1.4-27.3 8.5zm0-2.4l27.3-8.5-1.9-3.3-25.3 8zm.1-3.8l25.3-8-2.7-1.3-22.6 7zm0-2.3l22.6-7-1.5-3.3-21 6.6z"/><path class="st7" d="M1542.9 512.1l21-6.6-20.8-7.5-21.8 6.9z"/><path class="st8" d="M1526.8 504.1l.5-12.1 15.7 5.2-.2 12.3z"/><path fill="#fff" stroke="#0b99cc" stroke-width=".325" stroke-miterlimit="10" d="M1543 497.2l15.3-4.8-15.1-5.5-15.9 5.1z"/><path class="st11" d="M1542.8 509.5l.2-12.3 15.3-4.8-.1 12.3z"/><path class="st5" d="M1524.5 489.3l18.6 6.2 18.1-5.6-17.9-6.6z"/><path class="st9" d="M1542.7 516.9c.5.7 1.7.5 3.6.1 0 0 .1 0 0 0s-3.6 1.1-3.6 1.1v-1.2zm-.1 6.1c.5.7 1.7.5 3.6.1 0 0 .1 0 0 0s-3.6 1.1-3.6 1.1V523zm-.1 6.6c.5.7 1.7.5 3.6.1 0 0 .1 0 0 0s-3.6 1.1-3.6 1.1v-1.2zm-.1 6.6c.5.7 1.7.5 3.6.1 0 0 .1 0 0 0s-3.6 1.1-3.6 1.1v-1.2zm-.1 6c.5.7 1.7.5 3.6.1 0 0 .1 0 0 0s-3.6 1.1-3.6 1.1v-1.2zm-.1 6.6c.5.7 1.7.5 3.6.1 0 0 .1 0 0 0s-3.6 1.1-3.6 1.1v-1.2zm-.2 12.1c.5.7 1.7.5 3.6.1 0 0 .1 0 0 0s-3.6 1.1-3.6 1.1v-1.2zm.1-6.6c.5.7 1.7.5 3.6.1 0 0 .1 0 0 0s-3.6 1.1-3.6 1.1v-1.2z"/><path class="st11" d="M1532.5 506l3.4 1 .1-5.8-3.4-1z"/><path class="st9" d="M1558.6 507.2l-.1 2 1.2.6v1.9l1.3.5v1.9l1.3.5-.1 1.9 1.3.5v1.9l1.4.6v1.8l1.1.5-.1 1.9 1.5.6-.1 1.9 1.3.5v1.8l1.5.6v1.8l1.1.6v1.8l1.3.7-.1 1.8 1.4.5-.1 1.9 1.6.6v1.8l1.1.6-.1 1.7 1.3.7v1.9l1.3.5-.1 1.9 1.6.5-.1 1.8 1.2.6v1.8l1.3.6-.1 1.9 1.2.6v1.8l-.6-.1-7.3 2.7-26.6-50.1z"/><path class="st8" d="M1560 506.8l30.6 53.8-1.5.6-30.5-54z"/><path class="st11" d="M1558.6 507.2l-.1 2 1.2.6v1.9l1.3.5v1.9l1.3.5-.1 1.9 1.3.5v1.9l1.4.6v1.8l1.1.5-.1 1.9 1.5.6-.1 1.9 1.3.5v1.8l1.5.6v1.8l1.1.6v1.8l1.3.7-.1 1.8 1.4.5-.1 1.9 1.6.6v1.8l1.1.6-.1 1.7 1.3.7v1.9l1.3.5-.1 1.9 1.6.5-.1 1.8 1.2.6v1.8l1.3.6-.1 1.9 1.2.6v1.8l1.4 1 3.8 2.7z"/><path class="st8" d="M1549.4 510l29.2 55-1.5.6-29.2-55.1z"/><path class="st11" d="M1577.1 565.6l-10.8-7.8-1.1-4-2.1-1.7-.6-3.6-1.5-1.8-.4-3.2-1.3-2.1-.5-3.6-1.7-2-.4-3.3-2.1-2-.2-3.5-1.2-2.1-1-3.6-1.4-1.8-1-3.4-1.3-2-.6-3.6z"/><path class="st8" d="M1527 506.8v1.9l-1.2.6v1.8l-1.4.5v1.9l-1.4.5v1.9l-1.3.5v1.8l-1.4.6-.1 1.8-1.1.5v1.9l-1.5.5v1.9l-1.3.5v1.8l-1.5.6-.1 1.8-1.1.5-.1 1.8-1.3.6v1.8l-1.4.6v1.8l-1.5.6-.1 1.8-1.1.5v1.8l-1.3.6v1.8l-1.4.6v1.8l-1.5.5v1.9l-1.2.5v1.8l-1.4.6v1.9l-1.2.5v1.8l.6-.1 7.2 2.9 28.2-49.2z"/><path class="st8" d="M1525.5 506.3l-32.2 52.8 1.5.6 32.2-52.9z"/><path class="st11" d="M1527 506.8v1.9l-1.2.6v1.8l-1.4.5v1.9l-1.4.5v1.9l-1.3.5v1.8l-1.4.6-.1 1.8-1.1.5v1.9l-1.5.5v1.9l-1.3.5v1.8l-1.5.6-.1 1.8-1.1.5-.1 1.8-1.3.6v1.8l-1.4.6v1.8l-1.5.6-.1 1.8-1.1.5v1.8l-1.3.6v1.8l-1.4.6v1.8l-1.5.5v1.9l-1.2.5v1.8l-1.4.6v1.9l-1.2.5v1.8l-1.4.9-3.9 2.6z"/><path class="st8" d="M1536.1 509.8l-30.9 54.1 1.4.6 30.9-54.2z"/><path class="st11" d="M1506.6 564.5l11.1-7.5 1.2-3.9 2.1-1.6.8-3.7 1.5-1.7.6-3.1 1.3-2.2.6-3.5 1.7-1.9.6-3.3 2.1-1.9.3-3.6 1.3-2.1 1.1-3.5 1.5-1.7 1.1-3.4 1.3-2 .7-3.6zm17.9-72.6v-2.6l18.6 6.2-.1 2.6zm18.6 3.6l18.1-5.6-.1 2.5-18.1 5.7z"/></g><path d="M594.7 531.5c-3.6-1-7.9-1.6-11.2-3.1-.1.5-.1 1 0 1.6 2.1 11.8 1.3 24.7.8 36.6-.2 4.9-.6 9.8-.9 14.8-.2 5.5 0 11.2-.4 16.7-.4 5.4-.5 10.8.4 16.2.4 2.3 4.2 2.9 4.5.2.5-4.5.6-9.1.9-13.6.2-3.3-.1-6.6.1-9.9.5-9 1.3-18 1.9-27.1.6-8.8-.1-18.2 1.6-26.9.2-.9.8-2.6 1.8-1.7.5.5.3 2.4.3 3 0 2.2-.3 4.4-.3 6.7.1 4.6-.1 9.3-.2 13.9-.1 9.6-.2 19.2-.1 28.8.1 9.6-.3 19.2-.6 28.8-.4 10-1.5 19.8-.5 29.8.2 2.4 4 2.7 4.4.2 1.5-10.4.8-20.9.9-31.4.2-11.7.5-23.4 1.1-35.1.5-10.5.8-21 1.1-31.6.1-2.2-.6-5.3 1.1-7.1 2.8-3 2.9 5.3 3.3 6.9.5 2.3-.2 4.7.2 7.1 0 1.6-.1 3.2-.1 4.9-.4 15.6-1.7 32.2-.5 47.7.1 1.8 4.9 2 5.2.1 1.9-12.5 1.4-24.9 1.6-37.5.1-6.3.3-9.6.4-15.9v-3.1c1-.5 2.8-1.5 2.9-3.1.3-5.4-1.6-9.8 2-12.7-2.5-.1-5.2-.5-7.9-1-4.9-1-9.2-1.9-13.8-3.2z" clip-path="url(#SVGID_2_)" fill="#0982b2"/><path d="M571.7 484.3s-28-7.4-149.5 5.6c-92.5 9.9-261.1 8-352.5-4.8-91.4-12.8 1.7-26.3 41.3-29.3s30.8-18.5-123.8-10.7" clip-path="url(#SVGID_2_)" fill="none" stroke="#0b99cc" stroke-width="12" stroke-miterlimit="10"/><path class="st15" d="M625.1 526.1c1.1-2.4 1.4-5.4 0-7.6-1.7-2.8-5.2-3.7-8.1-5.2-3.1-1.7-8-4.9-4.3-8.1 3.5-3 8.9-4.7 13.2-6.1 3.2-1 5.9-2.2 6.1-6 .2-3.7-6-5-8.7-5.6-1.5-.3-3.2-.5-4.8-.7-11.9-1.8-19.9-4.4-31.8-5.7-6.7-.7-18.9-3.6-25.6-4.3-1.4 2.2-8.6 9.7-8.9 11.3 9.1 1.3 25.8 4.4 33.4 6.2 2.6.6 9.4.9 12 2 5 2.1 1 2.6-2 4.3-3.4 1.9-11.8 3.5-13.9 6.9-1.3 2 .4 4.9 2.5 5.4 2.2 1.4 10 2.5 11.3 4.5 1.4 2.2-5.2 4.8-6.9 5.8-1.1.6-2.8 1.6-3.2 2.8-.9.4-1.7 1.2-1.9 2.3 3.3 1.6 7.6 2.1 11.2 3.1 4.7 1.3 8.9 2.2 13.7 3.1 2.7.5 5.3.9 7.9 1 .6-.5 1.5-1 2.5-1.4 2.2-.8 5.3-5.9 6.3-8z"/><path d="M623.3 526.1c.9-2.4 1.1-5.4 0-7.6-1.4-2.8-4.3-3.7-6.7-5.2-2.6-1.7-6.7-4.9-3.5-8.1 2.9-3 7.4-4.7 10.9-6.1 2.7-1 4.9-2.2 5.1-6 .2-3.7-5-5-7.2-5.6-1.3-.3-5.7-1.5-6.9-1.7-9.9-1.8-13.5-3.4-23.4-4.7-5.5-.7-25.8-3.6-31.3-4.3-1.1 2.2-12.2 9.5-12.5 11.1 7.5-1.3 37.4 2.6 43.7 4.4 2.2.6 6.9 1.9 9.1 3 4.1 2.1.8 3.6-1.7 5.3-2.8 1.9-9.7 3.5-11.5 6.9-1 2 .3 4.9 2.1 5.4 1.8 1.4 8.3 2.5 9.3 4.5 1.2 2.2-4.3 4.8-5.7 5.8-.9.6-2.3 1.6-2.6 2.8-.8.4-3.5 2.2-3.8 3.3 2.7 1.6 8.5 1.2 11.5 2.2 3.9 1.3 7.4 2.2 11.3 3.1 2.2.5 4.4.9 6.5 1 .5-.5 1.2-1 2.1-1.4 1.8-.9 4.4-6 5.2-8.1z" clip-path="url(#SVGID_2_)" fill="#0b99cc"/><g class="st4"><path class="st5" d="M571.7 484.3c-4.1-.8-8.2-1.1-12.3-1.3l-3.1-.2-3.1-.1-3.1-.1H547c-4.1-.1-8.3 0-12.4.1s-8.3.2-12.4.4c-16.5.7-33 1.9-49.5 3.5-16.5 1.5-32.9 3.3-49.4 5.3-16.5 1.9-33 3.5-49.6 4.5-33.1 2.3-66.3 3.4-99.5 3.9s-66.4.2-99.6-.9l-24.9-1c-8.3-.5-16.6-.8-24.9-1.4l-12.5-.9-6.2-.4-6.2-.6-12.5-1.1-12.4-1.4-6.2-.7-6.3-.8c-4.2-.6-8.4-1.2-12.6-2-4.2-.8-8.5-1.7-12.9-3.1l-1.7-.6-1.7-.6c-.6-.2-1.2-.5-1.8-.8-.7-.3-1.3-.6-2-1l-1.1-.7c-.4-.2-.8-.6-1.2-.9-.4-.3-.8-.7-1.3-1.2l-.7-.7c-.3-.3-.5-.7-.7-1-.4-.6-.9-1.7-1.2-2.7-.3-1.1-.4-2.4-.3-3.6.1-.6.2-1.2.3-1.7.2-.6.3-.9.5-1.4l.3-.6.3-.6c.2-.3.4-.6.7-.9l.3-.4.3-.3.6-.6c.4-.4.8-.7 1.2-1 .2-.1.4-.3.6-.4l.5-.3c.3-.2.7-.5 1-.6.6-.4 1.3-.7 1.9-1 .6-.3 1.2-.6 1.8-.8 2.3-1 4.5-1.7 6.6-2.4 4.3-1.3 8.5-2.4 12.7-3.3 8.4-1.9 16.7-3.3 25-4.6 8.3-1.3 16.6-2.3 25-3.2l6.3-.6 3-.3c1-.1 1.9-.2 2.9-.3 1.9-.2 3.7-.5 5.5-.9.9-.2 1.7-.4 2.5-.6.7-.2 1.5-.4 1.9-.6.1 0 .1-.1.2-.1 0 0-.1.1-.2.1l-.3.2c-.2.1-.3.2-.5.5-.3.3-.6.6-.8 1-.4.5-.7 1.2-.9 1.9-.3.9-.4 1.9-.4 2.8 0 .5.1.9.2 1.4.1.5.3.9.4 1.2.1.3.3.6.4.9.2.3.4.6.5.7.2.3.5.6.7.8.1.1.3.2.4.4l.2.1.1.1s.1.1.2.1c-.1 0-.2-.1-.3-.1-.2-.1-.5-.2-.9-.3-.6-.2-1.5-.4-2.3-.6-3.4-.7-7.3-1.2-11.2-1.5-7.9-.7-16-1-24.1-1.2-16.3-.3-32.7 0-49.1.6s-32.9 1.5-49.3 2.5l-1.1-22c16.6-.6 33.3-1 50-1.2 16.7-.1 33.4 0 50.2.8 8.4.4 16.9 1 25.5 2 4.3.5 8.6 1.1 13.3 2.2 1.2.3 2.4.6 3.7 1 .6.2 1.4.5 2.1.7l1.2.5c.5.2.9.4 1.4.7l.8.5.4.3c.1.1.3.2.5.4.3.3.7.6 1 .8.4.4.9.9 1.3 1.4.2.2.4.6.7 1l.6 1.2c.2.4.4 1 .5 1.6l.3 1.8c.1 1.2-.1 2.5-.5 3.6-.3.9-.8 1.8-1.2 2.6-.4.6-.8 1.1-1.3 1.6-.4.4-.7.7-1.1 1-.4.3-.7.5-.9.7-.3.2-.6.4-.8.5-.5.2-1 .5-1.4.7-.4.2-.9.4-1.2.5-1.5.6-2.8.9-4.1 1.3-1.3.3-2.4.5-3.6.8-2.3.4-4.6.7-6.8.9l-3.3.3-3.2.2-6.1.4c-8.1.6-16.3 1.5-24.3 2.5-8.1 1-16.1 2.2-24 3.7-3.9.8-7.8 1.6-11.4 2.6-1.8.5-3.6 1.1-5.1 1.7-.7.3-1.4.6-1.9.9-.2.1-.2.1-.3.2l-.1.1h-.1s-.1.1 0 0l.1-.1v-.1l.1-.1c.1-.1.1-.2.2-.3 0 0 .1-.1.1-.2.1-.1.1-.2.2-.3.1-.2.1-.4.2-.7.1-.3.2-.6.2-1 0-.3.1-.7 0-1 0-.3-.1-.7-.2-1-.1-.5-.5-1.1-.6-1.3-.1-.1-.2-.3-.3-.4-.1-.1-.1-.1-.1-.2-.1-.1-.2-.2-.2-.1l.1.1c.1.1.2.1.3.2.2.1.5.3.8.4l1 .5 1.2.5 1.2.4c3.4 1.2 7.3 2.1 11.2 3 3.9.8 7.9 1.6 11.9 2.3l6 1 6.1.9 12.2 1.7 12.3 1.4 6.1.7 6.1.6 12.3 1.2c8.2.8 16.4 1.4 24.7 2.1l24.7 1.7c33 2 66 3.1 99.1 3.6 33.1.4 66.1.2 99.2-1.1 16.5-.6 33-1.7 49.5-3.1 16.5-1.5 33-2.9 49.6-3.9 16.5-1.1 33.1-1.9 49.7-2.1 4.1 0 8.3-.1 12.4 0s8.3.1 12.4.3l3.1.1 3.1.2 3.1.2 3.1.2c3.6-.1 7.8.3 11.8 1.2z"/></g><path class="st15" d="M1319.7 267.7h-165.1c6.4-6.4 15-10 24-10h5.1c5.1 0 10.1-1.1 14.8-3.2l13.5-6.1c3.9-1.7 8-2.6 12.2-2.6h1.6c7.2 0 14.3 1.3 21.1 3.7l12.9 4.7c4.4 1.6 9.1 2.5 13.9 2.5h13.8c11.7 0 23 3.9 32.2 11zm-4.4 47.1h133.5c-5.2-5.2-12.1-8.1-19.4-8.1h-4.1c-4.1 0-8.2-.9-11.9-2.6l-11-4.9c-3.1-1.4-6.5-2.1-9.9-2.1h-1.3c-5.8 0-11.6 1-17.1 3l-10.4 3.8c-3.6 1.3-7.4 2-11.2 2h-11.2c-9.4 0-18.6 3.1-26 8.9zm-705-25.6H507.1l10-8.5c5.2-3.2 11.3-4.9 17.4-4.9l17.5.2c3.7 0 7.4.8 10.9 2.3l6.7 2.9c2.3 1 4.7 1.5 7.2 1.5h17.1c5.9-.1 11.7 2.2 16.4 6.5z"/><path class="st15" d="M290.7 251.3h380c-13.8-12.4-30.7-19.2-48.1-19.2H573c-7.1 0-14.1-1.5-20.8-4.3l-19.3-8.3c-10.1-4.3-20.8-6.6-31.5-6.6h-67.6c-12.2-8.6-26.2-13.2-40.6-13.2h-49.6c-7.1 0-14.1-1.5-20.8-4.3l-19.3-8.3c-10.1-4.3-20.8-6.6-31.5-6.6h-38l-2-2c-9.9-9.9-23.2-15.4-37.2-15.4H-2l1.6 17.4h-239.1c-6.3 0-12.6 1.6-18.3 4.6l-20.3 10.7c-6.9 3.7-14.5 5.6-22.1 5.6h-1.9c-13.5 0-6.4 6.3-16 17.5H-31l-17.7 9.4c-6.9 3.7-14.5 5.6-22.1 5.6h-1.9c-13.5 0-6.4 6.3-16 17.5h75.8v31.8h15c-3.6.3-7.1 1.3-10.3 3l-13.5 7.1c-4.6 2.4-9.6 3.7-14.7 3.7h-1.2c-9 0-4.3 4.2-10.6 11.7h505.9c-9.2-8.3-20.4-12.8-32-12.8h-33.1c-4.7 0-9.4-1-13.8-2.9l-12.9-5.5c-6.7-2.9-13.8-4.4-21-4.4h-58.7c-6.7-2-11.7-8.2-11.7-15.5 0-9.1 7.3-16.3 16.2-16.3zm2049.5 85.2c-9.5-11.2-2.5-17.5-16-17.5h-1.9c-7.6 0-15.1-1.9-22.1-5.6l-20.3-10.7c-5.8-3-12-4.6-18.3-4.6h-511.4c-10.8 0-21.4 2.2-31.5 6.6l-19.3 8.3c-6.6 2.9-13.7 4.3-20.8 4.3H1629c-2.7 0-5.4.2-8 .5h-71.4c-5.1 0-10.1.9-14.8 2.6l-9.1 3.3c-3.1 1.1-6.4 1.7-9.8 1.7h-23.3c-8.2 0-16.1 2.7-22.6 7.7h96.1c-8.3 9.1-20.1 14.3-32.4 14.3h-92.3c-3 0-5.9.6-8.6 1.8l-9.5 4.3c-3.3 1.5-6.8 2.2-10.4 2.2h-11c-6.3 0-12.4 2.5-16.9 7l312.5-.3c-5.8-5.2-12.9-8.1-20.2-8.1h-20.9c-3 0-5.9-.6-8.7-1.8l-8.1-3.5c-4.3-1.8-8.7-2.8-13.3-2.8l-26.8-.1h-6.7 656.5l18.9-2.8c-2.3-2.7-3.5-5-4.3-7h76.3z"/><path d="M1323.5 231.1c-15.6 0-28.5 11.1-31.4 25.9 10 .9 19.6 4.6 27.6 10.7h-27.9c2.2 15.5 15.6 27.4 31.7 27.4 17.7 0 32-14.3 32-32s-14.4-32-32-32z" clip-path="url(#SVGID_2_)" fill="#fff"/><path d="M1292.1 256.9c-.4 2-.6 4-.6 6.1 0 1.6.1 3.1.3 4.6h27.9c-8-6.1-17.6-9.8-27.6-10.7z" clip-path="url(#SVGID_2_)" fill="#87e0ff"/><path class="st2" d="M1428.7 670c-.8.1-1.9.2-3 .4-.4-1.6-.9-3.1-1.3-4.7.7.7 1.9.3 2.3-.5.7 1.6 1.3 3.2 2 4.8zm22.7-3.4c-.2-.6-.2-1.1-.3-1.7l-20.4 4.9h.8l19.9-3v-.2zm10.5-1.5c-.1 0-.1.1 0 0 0 .1 0 0 0 0zm607.2 216.6l-33.1 843.2-940.5-6 2.8-873.5s.4 34.8.1-4.4c-.3-39.2-11.7-29.8 18.3-68.7 30-38.9 56.3-38.7 56.3-38.7 2.5-2.8 9.8-3.6 20-.6 0 0 4.1-14.3-2.3-21.3 0 0 13.6 2.9 15.6 14.3 0 0-1.6-15.5 8.7-21.8 0 0-10.1 16.5-1.4 23 0 0 2.7.1 9.3-3.4 6.6-3.5-9.5-8.9 7-5.2s-2.5-15.8-2.5-15.8 10.1 8.5 18.8 14.7c3.3-6.8 11.1-8.5 12.4-8.7h.2c.7-.1 1.6-.2 2.6-.2.1-.5.3-.9.4-1.4-4.9-4-11.7-7.4-17.9-7.9-3.4-.3-6.9.3-9.9 1.8 5.6-2.7 11.2-6.2 17.4-7 3.2-.4 25.5 2.8 22.9 9.6 4.2-9.8.2-20.4.2-20.4 6.7 3.7 7 6.3 7 6.3 1.7.5 3.2 2.3 3.2 2.3 5.6 3.5 4.7 15 4.3 18 3.1-.3 6 0 8.4.4l3.3 1c0-.1 0-.1.1-.2-.1 0-.3-.1-.4-.1.2-1.1.3-2.1.5-3.2.1.3.4.5.8.6 1.8-6.3 2.4-13.4-.1-20.3-10.4-28.5 12.7 19.5 12.7 19.5-1.8 7.2 10.1-5 11.2-6.2 3.4 0 15.8-18.4 18.3-21.4 3.7-2 7.4-4.3 11.4-5.7 0 0 15.5-4.8 30.8 2.4-.2-7-2.5-13.2-5.2-18-.9.4-3.2 1.9-4.1 5.4l-2.1-14.3c-.7-.8-1.1-1.2-1.1-1.2 11.4.9 13.4 4.2 13.4 4.2 2.6-.4 5.8 1.1 5.8 1.1 9.8 1.2 15.7 17.6 17.1 21.9 4-2.4 8.2-3.8 11.7-4.8l10.1-1.5h.2c7.5.1 14 2.7 18.9 5.7.1-2.9.4-5.8.8-8.7l10.4-1.6c-.1.2-.3.4-.6.7-.3.4-.7.5-1.1.5.2.6.3 1.2.4 1.8.7-.9 1.3-1.8 1.8-2.7-.1-.1-.2-.2-.4-.3l.6-.1c2.5-4.9.4-8.6-9.8-9.6-40-4-34-22.6-3.3-21.3 0 0 .7-18.7-9.3-25.4 0 0 17.5-.6 23.4 12.7 0 0-6.7-18.5 3.9-29.2 0 0-7.3 23.2 5.3 28.6 0 0 3.3-.7 10.3-7 7-6.3-14.3-7.9 7-8.5 21.3-.5 1.1-2.1 1.1-2.1s21.1-5.4 11.3-17.3c0 0 4.4-7 13.3-12.6-4.9-.8-10.3-.6-14.6 1-2.9 1.1-5.5 2.9-7.5 5.4 0 0 4.8-11.3 15.5-14.8 0 0 9.5-2.9 18.7 1.5-.1-4.2-1.5-8-3.1-10.9-.5.3-1.9 1.1-2.5 3.3l-1.3-8.7c-.4-.5-.7-.7-.7-.7 6.9.6 8.2 2.6 8.2 2.6 1.6-.2 3.5.6 3.5.6 5 .6 8.4 7.8 9.8 11.6-.8-2.5-2.3-7.3-2.7-8.8 0 0 3.8 4.9 6.9 8.8.2-.1.4-.2.6-.2-1.4-3-3.4-7.5-2.4-8.4 1.1-1 2.3 4.2 4.4 7.7.3-.1.7-.2 1-.3-.4-1.2-.7-2.4-1-3.7-.3-.2-.5-.5-.7-.7-2.3-2-4.8-6.5-.4-3l.3.3c-.9-4.2-1.7-8.5-2.7-12.6 0-.2 0-.4.1-.5-.6-2.5-1.2-4.9-1.7-7.4-.1-.3.2-.4.5-.3-.1-.2-.2-.5-.2-.7-.1-.4.4-.6.6-.2 2.7 8 5.7 16 9.1 23.8.6.8 1.4 2.1 1.9 4 0 0 1.1-3.8.8-5.9 0 0 1.8 3 2.4 6.2.2 0 .5.1.7.1.9-3.2 2.8-9.7 4.6-12.9-.8-1.2-1.6-2.5-2.2-3.8-.7-.9-1.3-1.8-2-2.7l-.8-.8c-.9.2-1.7.4-2.6.4-.3 0-.4-.4-.1-.6.6-.3 1.3-.5 2-.6-.9-.9-1.7-1.8-2.5-2.8-.1.1-.2.1-.3.1-1.3 0-2.4.3-3.6.8-.3.1-.6-.4-.3-.6 1-.8 2.2-1.2 3.5-1.3-.9-1.2-1.8-2.6-2.5-4-.1-.2.1-.3.2-.3-.4-.5-.9-1-1.3-1.6-.3-.4.2-.8.6-.5 3.5 3 6.6 6.8 9.5 10.5.2 0 .4.1.5.4.3.4.5.9.8 1.3v.1c.4.4.7.9 1 1.4.3 0 .5.1.7.3.3.4.6.8.8 1.2 1.2 1.1 2.4 2.3 3.5 3.5 1.5.9 2.9 1.6 3.8 3.2.1.3.1.5 0 .8.1.1.2.1.2.2.2.3.3.5.5.8.6.2 1.2.8 1.7 1.4.5-1.7 1.6-3.9 3.9-4.8 0 0-.5 5.6-1.8 8.1 0 0 .3.1.8.4.8-4.4 2.6-9.6 6.9-12.5l4-2.7s-9-2.9-19.5 4c0 0 6.3-10.6 13.4-9.8 0 0-2.7-9.4-9.3-13 0 0 10.9-1.3 19.6 9 0 0 2.7-8.5 10.3-12.1-4.9-1.9-10.4-2.8-15.3-1.9-3.7.6-7.3 2.3-10.4 5 5.6-4.8 11.1-10.7 17.7-13.3 3.4-1.4 27.8-4 26 4.9 3.1-12.9-2.9-24.4-2.9-24.4.7 1.3 5.7 2.6 7.1 3.7 4.6 3.7 8.9 5.1 10.9 11.8l177.6-.6c14.9-.1 29.5 4.1 42.2 11.9l52-22.2 160.9 384.1zm-502.6-319.1s.4-.3 1.1-.8c0-.2 0-.3.1-.5-.5.5-.8.9-1.2 1.3zm44.1-14.1c-4.8-.3-11.7-.6-11.7.3v-.5c-.7 1.2-.9 2.4-.5 3.4l.8 6.4c.8-1.1 1.5-2 2.2-2.3 1.6-.9.4 1.8-1.7 5.7l.8 6.2 10.3-17c-.8-.6-.9-1.4-.2-2.2zm-5.6-11.4c-1.4.2-2.8.6-4.2 1.1-.1.3-.1.6-.2.9 0 0 1.7-1 4.4-2zm3.3-11.6c-1.2.7-2.3 1.7-3.3 2.9 0 0 .1 0 .1-.1.1 0 .1-.1.2-.1.7-.3 1.6-.7 2.7-1 .2-.8.2-.8.3-1.7zm10.3 12.4c-1.7-.2-3.3-.4-4.7-.5-2.7 1.4-6.1 3.3-9.1 5.4 2.1.7 4.7 2 7.9 4.4.1-.1.3-.1.5-.2l5.4-9.1zm-38.7 23.6c.4.2.6.5.8.8 1.2 1.1 2.5 2.6 3.8 4.6l1-1.2c1.8-2.3 3-4.1 3.9-5.5l.5-6.9c0-.2-6.2 2.1-10 8.2zm-23.1-22.6c0-.1-.1-.1-.1-.2s-.1-.2 0-.3c-1.2-1.4-2.5-2.9-3.7-4.3 1.1 1.8 2.4 3.4 3.8 4.8zm4.2 23.3s2.8-2.6 5.3-4.3c-.5-2.2-1-4.4-1.3-6.6-1.1 3.6-3.4 9-4 10.9zm-9.7-2.6c0 .2.1.3.1.5 0-.1 0-.2.1-.4-.1 0-.1 0-.2-.1zm-97.2 108.6c-.3 2.3-.5 4.7-.6 7 1.5-1.3 2.9-2.6 4.1-3.8 0-1.6-.2-3.2-.8-4.6-.3.8-1.2 1.2-2 .8-.2.3-.4.5-.7.6zm-31.6 18.3c4.9 1 8.9 2 11.4 3 4.5-2.9 9.1-6.1 13.3-9.2-3.7.2-7.3.7-10.8 1.5.3.5.5 1.1.8 1.6.6 1.2-1.4 2.2-2.1 1.1-.4-.7-.7-1.3-1-2v-.1c-4 1-7.8 2.4-11.6 4.1zm-8.7 13.5v.2h.3c-.1-.1-.2-.2-.3-.2zm-165.6 19.1c2.1 1.5 4.1 2.8 5.8 3.7 1.6-2.4 4-3.7 4.6-4 .1-.5.3-1.1.5-1.8-5.2 0-8.7 1-10.9 2.1zm-977.5-21.8c-11.9-26.5-38.2-43.5-67.2-43.5h-6.3l-11.8-52.4c-3-13.4-13.2-24.5-26.7-27-81.5-15-171.4-5.8-171.4-5.8l.8 1142.1 309.6-14.1-4-973.1c-.4-13.2-10-24.2-23-26.2z"/><defs><path id="SVGID_3_" d="M0 0h1920v1680H0z"/></defs><clipPath id="SVGID_4_"><use xlink:href="#SVGID_3_" overflow="visible"/></clipPath><g clip-path="url(#SVGID_4_)"><path class="st11" d="M1064.4 746.5v32l33.7-9.2-33.7-24.7M600.8 437.2c-2.2 1.2-4.3 2-6.2 2.4-12 2.3-28.9 8.9-36 20-2.3 3.6-3.2 7.8-7.4 9.5-3.7 1.5-8.2-.7-11.8.5-7.2 2.3-11.3 14.3-17.3 19.4-4.9 4.2-32.2 5.3-34.7 11.6-3.4 8.9-8.4 20.7-11.3 29.8-2.3 7.3-19.4 13.7-18 21.3.8 4.2 7.9 5.7 6.7 10-.7 2.5 3 7.7 3.3 10.3.6 6.6-.6 13.1 0 20.1.9 9.7 12 17.6 9.6 26.3-.9 3.2 10.4 4.6 9.8 8.1-.8 4.6 1 9.5-.7 14.1-3 7.8-6.2 16.5-6.2 25 0 7.1 5 13 5.5 20 .6 7.7.6 14.6 1.9 21.7.4 2.3-.3 4.9.1 7.2.5 2.9 2.6 5.4 2.2 8.3-.5 3.5-2.7 5.6-1.7 9.7 1.3 5.4 5.2 10.3 8 15.1 2.3 4 4.3 9.9 7.7 13 2 1.8 4.4 1.3 6.4 2.6 1.4 1 2.4 2.7 3.6 4l22 1.1c-.7 22.5-1.1 36.8-1.1 36.8l48-28-1-153c0-11-10-16-10-16v-48.2c0-11.5-4.2-22.7-11.7-31.4-3.6-4.2-6.3-6.9-6.3-6.9l1.6-30c.4-2.4 1-4.8 2-7.1 2.8-6.9 9.5-12.1 13.4-18.8 12-20.6 24.9-26.4 30.5-29.6l-.9 1.1z"/><path class="st20" d="M571.9 810.5s1-97.7 0-137.6c-1-39.9-10-10-10-10s0 77.7-7 78.8c-2.7.4-5.7 1.1-8.4 4.3l-2.5-8.9s1-88 0-124-10-9-10-9 0 70-7 71-16 4.9-16 43c0 42.3-16.2 16.2-16.2 16.2l-10.9-8.1c-29.1 17.1 6.1 71.9 6.1 71.9l48.6-2.1c-2.6 34.3-26.8 5.6-26.8 5.6l-.1-3.2c-29.1 19 6.1 79.8 6.1 79.8l70-3.3-15.9-64.4z"/><path class="st5" d="M571.9 566.1c-.4-2-.8-4.1-1.1-6.1-.3-2-.7-3.9-1.2-5.8-1-3.8-2.2-7.4-3.8-10.8-.8-1.7-1.7-3.4-2.7-5-.9-1.6-2-3.2-3.1-4.7s-2.3-2.7-3.8-4.7c-.7-.9-1.3-1.9-1.9-2.9-.3-.5-.6-1.1-.8-1.6-.1-.3-.3-.6-.4-.9-.1-.2-.1-.3-.2-.5l-.1-.3-.1-.4-.1-.4v-.3l.3-8.2c.2-2.8.3-5.5.5-8.3.3-2.8.5-5.5.8-8.3.3-2.8.7-5.5 1.2-8.3h.4l.5 33v-.1c.6 1.8 1.7 3.6 2.9 5.1 1.2 1.6 2.6 3.1 3.8 4.7 2.4 3.3 4.4 6.9 5.9 10.7 1.5 3.8 2.5 7.8 3 11.8.5 4.1.3 8.1.3 12.2h-.3z"/><path class="st7" d="M562 608.2c-1-.7-2-1.4-2.8-2.1-.9-.7-1.7-1.6-2.6-2.3-.8-.8-1.6-1.6-2.4-2.5-.7-.9-1.5-1.7-2.2-2.6l-.5-.6v-.9c0-3.5-.4-7.1-1-10.5-.6-3.5-1.5-6.9-2.7-10.1-1.2-3.3-2.8-6.4-4.8-9.1-.5-.7-1-1.3-1.5-2-.6-.7-1.2-1.5-1.8-2.4-.6-.8-1.1-1.7-1.6-2.6-.2-.5-.5-.9-.7-1.4-.1-.2-.2-.5-.3-.8l-.1-.4c0-.2-.1-.3-.2-.5v-.4c-.2-4.2-.3-8.4-.4-12.6-.2-4.2-.2-8.4-.3-12.7-.1-4.2-.1-8.4-.2-12.7 0-4.2 0-8.4.1-12.7h.3l3.1 50.5c.5 1.7 1.5 3.3 2.6 4.7 1.1 1.5 2.4 2.8 3.4 4.3 2.2 3 3.9 6.3 5.2 9.8 2.6 6.9 3.8 14.3 3.8 21.7l-.1-.2 7.9 11.1h-.2z"/><path class="st20" d="M1934 630.7c-.2 1 4.4-45.7-7.3-45.6-18.7 0 14.6-183.6-2.8-188.3-7.5-2-54.9 3-97.1 8.1.4-1.4.8-2.6 1-3.4 0 0-1.1 1.4-2.9 3.7-2.8.3-5.6.7-8.4 1 .4-2 .4-3.5-.3-4.1-1.2-1.1-2.5 1.2-4 4.7l-2.1.3c4.4-4.8 7.5-11.5-1.2-4.9 0 0-2.1 2.6-4.5 5.6-1.9.2-3.8.5-5.7.7-.3-1.1-.7-2.1-1.2-2.9 0 0-1.5 1-3.1 3.5-1.6.2-3.2.4-4.7.6-.3-2.2-.5-4.5-.4-6.2 0 0-1.7 2.8-3.3 6.7-2 .3-4 .5-5.8.8-3-10.1-7.7-23.7-11.2-26.1-4.6-3.1 2.9 15.8 7 26.6-1.3.2-2.6.3-3.8.5-3.9-3.2-8.8-6.9-11.8-7.5-4-.9-1.8 4.1 1.6 8.9-.9.1-1.6.2-2.2.3-1.1-.7-2.2-1.3-3.4-2 1.1-3.8 1.6-7.8-1.7-7.3-3 .5-4.3 2.4-4.9 4.9-.6-.1-1.2-.2-1.8-.2 0 0-.7-12.3-9.7-15.8 0 0 1.1 12.6 4.1 18.3 0 0-2.9 1.1-6.8 4.2-.4-1.6-.7-3.2-1.1-4.6-.4-1.4-1.8-8-2.1-15.2-.6-13.9.7-24 .7-24-8.2 11.4-5.4 43.5-4.6 51-.1.1-.1.2-.2.3-.1 0-.1 0-.2.1l-7.8-17.8c-.3 4.8 1.1 12.2 3 19.3-.4.1-.8.3-1.2.4-4.7-12.3-12.1-29.4-17.8-32.5-5.9-3.3 5.7 15.6 15 33.4-.7.2-1.3.4-2 .6-2-2.1-4.5-3.8-7.3-3.8 0 0 2.8 2.6 2.1 5.5-1 .3-2.1.6-3.1 1-1.7-.4-4-.7-5.9.4-.7.4-1.6 1.2-2.7 2.2-4.7 1.4-9 2.8-12.6 3.9-6.5 2-12.1 6.1-16.1 11.6l-58.1 81.7c-9.8 12.8-15.1 28.4-14.9 44.5.3 21.9 0 50.7-3.1 51.3-2.1-7.9-6.1-13.9-6.1-13.9-38.6-53.6-23.8-75.7-23.8-75.7-21.8 13.3-17.8 39-17.1 42.8 0 .2.1.3.1.5 1.4 7.1 7.7 22.4 14.9 38-1.7-2.5-3.5-5.1-5.6-7.8 0 0-22.9-31.3-45-29.2 0 0-6.7-1-11.5.6 0 0-5.5-4.4-27.5-1.5 0 0 .1 0 .1.1-.1 0-.1-.1-.1-.1-5.7.9 14.9 28.2 14.9 28.2-.1-9 6.7-12.8 6.8-12.8 7.9 7.4 15.6 17.4 18.2 29.5-2 .9-4 1.8-6.1 2.8-2.5-2.9-5.2-5.6-8.2-8.3-.2-.2-.4-.4-.5-.6-.5 1.8-1.6 2.7-1.5 4.8-.6-2.4-1-5.1-2.6-7-1.8-2.1-4.3-3.6-6.7-5-3.4-2-7.1-3.4-10.9-4.8-3.2-1.1-7.3-1.5-10.1-3.5 1.6 3.7 2.1 8.2 3.2 12.1-2-4.1-4.7-8.9-6.2-12.6-1.1 1.3-7.5.9-9.2 1-4.7.2-9.7.3-14.4.1-3.6-.2-8.2-1.2-11.6-.7.1.5.3 1.1.4 1.4.8 2 4.6 6 6.3 7.9 1.6 1.8 2.8 3.3 4.4 4.9-4.5-1.2-10.1-4.1-13.5-7.2-1.2-1.1-2.4-2.2-3.5-3.2-.7-.6-2.5-2.1-2.7-2.3-4.2.6-8.3 1.9-12.5 2.7-2.6.5-6.4 2.1-8.1 2.5 1 .9 2.2 3.4 4.1 5.1 1.9 1.9 4.1 4.2 6.5 5.3-3.8-1.2-8.1-2.3-11.6-4-2.7-1.3-4.8-3.7-7.2-5.1-.7 0-3.6 1.4-4.8 1.8-9.2 3.5-18.9 3.6-28.2.6 1.5 1.9 2.4 4.1 4 6 2.8 3.3 5.1 7.3 8.8 9.6 3.7 2.2 8.3 1.4 12.1 3.2-2.5-.3-5.7 1.4-8.9.6 4.8 4.5 12.4 9.4 18.7 11.5 3.1 1 6.2 1.6 9.2 2.7 2.8.9 5.7 2.9 8.6 3.4 3.6.6 1.7-1.8 1.9-4.6.1-1.9 1-3.7.7-5.6 2.3 1.9 3 6.4 4.2 9.1 1.3 2.6 1.8 3.8 3.9 4.9-7.9-.4-13.2.5-13.2.5-30.9 5.6-48.3 35.1-48.3 35.1 11.2-10.6 25-13.9 39.3-13.1 1-4.1 4.5-7.6 5.8-8.7.3-.3.5-.4.5-.4-1.8 3.4-1.9 6.7-1.4 9.6 6.5.8 13 2.3 19.4 4.3-2.3 10.2-8 26.2-45.9 26.2-50.5 0 26 25.3-280.9 35.2-108.1 3.5 112.3 28-186.3 28.6l-295.7-3.2c-1.7-.9-4.7-1.9-8-.7l3.9-4.1s-5.2-1.3-9.7 1.9c0 0 13.2-15.9 6.6-14.2-5.7 1.4-10.1 10.4-10.1 10.4s-2.7-.2-4.8 1.5c0 0 1.5-4.2-.5-8.6 0 0 .8 7.1-2 9.1 0 0-.7-2.6-2.3-3.2-1.4-.5-1.5 1.4-.4 3.2-5.4-.7-8.6 3.1-8.6 3.1s4.3-5.8 9.4-13.5c5.1-7.7 4.6-12.5-2.4-6.4-6.5 5.6-14.1 20.7-15.3 23 1.2.1 2.3.3 3.5.4-13.8.1-27.6-.6-41.3-2.3-11.8-1.4-22.1-2.7-22.7-3.1-1.9-1.3-4.4-.8-6.4-2.6-3.4-3.1-5.4-9-7.7-13-1.9-3.4-4.4-6.7-6.1-10.3l5.5-2-.5-104.4-.1-20.1c1.3-7.1 1.5-14.3.7-22.1-.1-1.1-.4-2.2-.9-3.2v-.4c1-4.9-1.7-9.5-6.6-9.7-.5-.7-.9-1.4-1.2-2.1l.1-10.6c.1-.2.1-.4.2-.6.1-.5.1-.9-.2-1.2l.2-36.2c.2-10.1 5.5-19.1 13.6-24.5 5.4-.6 12.2-3.7 20.9-11.1 6-5.1 10.1-17.1 17.3-19.4 3.6-1.2 8.1 1 11.8-.5 4.3-1.7 5.1-5.9 7.4-9.5 7.2-11.1 24-17.6 36-20 6.5-1.3 16.9-8.6 17.5-15.5-3.1-6.2-7.3-9.6-12.1-11.5-3-1.5-6.6-2.6-10.7-2.5-7.9-1-16.5-1.3-24.7-4.8-6.7-2.9-10.7-7-16.8-9.2-17-16.4-59.7-16.6-69.7-16.6s-9.3 2.3-23.3-5-34.6-6.5-34.6-6.5H314.7c-20.1-4.5-9.9-9.5-42.6-9.8-12.8-.1-26.3.3-38 .8-9.8-3.2-21.8.6-32-1-8.7-1.4-18.4-2.1-26.8-4.6-4.8-1.4-9.2-4.1-14.4-5-18.8-3.1-32.9 4.2-51 7.5-24.5 4.4-48.4.7-72.8-.7-11.8-.7-40.3-3.2-53 3.1L-21.8 1709l1956.5 28-.7-1106.3zm-459.3-52s-.1 0-.1-.1c0 .1 0 .1.1.1zm13.2 8.4c-.2-.1-.4-.3-.5-.4.1.1.3.2.5.4zm-1.8-1.3c-.2-.1-.3-.2-.5-.4.2.1.3.3.5.4zm-1.5-1.1c-.2-.1-.4-.3-.6-.4.2.1.4.3.6.4zm-1.5-1c-.2-.1-.3-.2-.5-.3.1.1.3.2.5.3zm-1.5-1c-.1-.1-.3-.2-.4-.3.1.1.2.2.4.3zm-1.4-.9c-.1-.1-.3-.2-.4-.3.1.2.2.2.4.3zm-1.3-.8c-.1-.1-.3-.1-.4-.2.1.1.2.2.4.2zm-1.2-.6c-.1-.1-.2-.1-.3-.2.1 0 .2.1.3.2zm-.9-.6c-.1-.1-.2-.1-.3-.2.1.1.2.2.3.2zm-.9-.4c-.1 0-.1-.1-.2-.1.1 0 .1 0 .2.1zm-.7-.4c-.1 0-.1-.1-.2-.1.1 0 .1.1.2.1zm13.9 9c.2.1.3.3.5.4-.1-.1-.3-.2-.5-.4zm1.9 1.5c.2.1.3.3.5.4-.2-.2-.4-.3-.5-.4zm1.6 1.4c.2.1.3.3.5.4-.1-.1-.3-.3-.5-.4zm1.8 1.5l.4.4-.4-.4z"/></g></svg>