<svg viewBox="0 0 1920 1800" xmlns="http://www.w3.org/2000/svg" fill-rule="evenodd" clip-rule="evenodd" stroke-miterlimit="10"><path d="M1395.2 431.6h-203.9c7.9-7.9 18.6-12.3 29.7-12.3h6.3c6.3 0 12.5-1.3 18.2-3.9l16.7-7.5c4.8-2.1 9.9-3.2 15.1-3.2h1.9c8.9 0 17.7 1.6 26 4.6l16 5.8c5.5 2 11.3 3 17.1 3h17.1c14.4 0 28.4 4.8 39.8 13.5zm-383.3 26.1h125.5c-4.8-4.8-11.4-7.6-18.3-7.6h-3.9c-3.9 0-7.7-.8-11.2-2.4l-10.3-4.6c-2.9-1.3-6.1-2-9.3-2h-1.2c-5.5 0-10.9 1-16 2.8l-9.8 3.6c-3.4 1.2-6.9 1.9-10.5 1.9h-10.5c-8.9 0-17.5 3-24.5 8.3z" fill="#27b9ed" fill-rule="nonzero"/><path d="M307.3 376.4h-.9.9z" fill="none" stroke="#87e0ff" stroke-width="1.41"/><path d="M192.2 600l101-28.7 43.3 14.4 44.1 2.4 52.9-7.1 35.7-9.6 13.7-1.4c6.1-.6 12-2.3 17.4-5l28.5-14.1c6.7-3.3 14.4-4 21.6-2.1l33.9 9.2s37.7-4.2 69 23.1l11.2-4.2 2.4 7.6s8-7.1 10.4 0c0 0 8.8-11.5 20.9-11.4 0 0-10.4 10.2-7.2 19.2s4.8-4.6 12.8 1.8c8 6.4 28.9.8 42.5 2.4 13.6 1.6 32.5 4.9 67.2 30.5s49.1 31.3 49.1 31.3c18.5 1.9 76.2 9.6 117.1 9.6 40.9 0 301-9.6 346.6-24.1 45.6-14.5 180.3-29.7 214-22.5 31.5 6.8 17.4 10.4 73.2-21.8 8.1-4.7 17.6-6.3 26.8-4.7l59.2 10.5c6 1.1 12.2.1 17.6-2.8l31.5-16.9c1.3-.7 2.6-1.3 4-1.7l74-25c12.9-4.3 27-3.3 39.1 2.9l47.3 24.3c2.9 1.5 6 2.4 9.3 2.8 21.4 2.3 41.6 10.9 58 24.8l19.7 16.7 52.1 16.3 61.8 3.4v1285.7l-2310.1-12.6V658l208.3 14.5L153 604l39.2-4z" fill="#1a8aba" fill-rule="nonzero"/><path d="M994.3 509c.2 5.5 3.4-1.6 4.2-2.5 2.7-3.2 7.6-3.6 10.9-2.3-3.4-3.2-12.1-3.5-15.3.3-2.9-4.5-10.5-7-14.8-3.4 2.3-1.3 5.8.7 7.9 2.5 1.8 1.6 5 5.7 7.1 5.4zm25.5 18.3c1.4-1.3 5.2-5.1 7.3-5.1 3.6-.1 4.4 3.8 6.2 6.2.2.2.2.2 0 0-3.5-2.9-8-3.6-12.1-1.1m25.3-31.6c-1.8-3.7-7.2-5.2-8.9-9.4-.4 5.7 6.3 7.4 8.3 11.9.3.7.1.9.7 1.5.4.3 1.3.7 1.3.6.6-1.5.4-3.2 1.3-4.8.8-1.3 1.3-2.4 2.4-3.4 1.4-1.3 5.5-4.4 6.8-5.3-3.5 2.9-10.6 3.7-11.9 8.9z" fill="#0a4c6f" fill-rule="nonzero"/></svg>