<svg version="1.1" id="Ebene_1" xmlns="http://www.w3.org/2000/svg" x="0" y="0" viewBox="0 0 1920 793.4" xml:space="preserve"><style>.st0{fill:#27b9ed}</style><path class="st0" d="M606.1 116l-.5.4h103.3c-4.8-4.3-10.6-6.6-16.6-6.6h-17.1c-2.4 0-4.9-.5-7.2-1.5l-6.7-2.9c-3.5-1.5-7.2-2.3-10.9-2.3l-17.5-.1c-4.7 0-9.3 1-13.6 2.9-3.1-.6-6.3-.9-9.5-.9H596c-4.7 0-9.4-.8-13.9-2.5l-12.9-4.7c-6.8-2.5-13.9-3.7-21.1-3.7h-1.6c-4.2 0-8.4.9-12.2 2.6l-13.5 6.1c-4.6 2.1-9.7 3.2-14.8 3.2h-5c-9 0-17.7 3.6-24 10h129.1zM1854 8.7c-12.1 0-23.8 4-33.4 11.3h99.4V0c-1.3.4-2.5.8-3.8 1.2l-13.4 4.9c-4.6 1.7-9.5 2.6-14.4 2.6H1854z"/><path class="st0" d="M1920 37.3h-153.4c-15.9 0-31.6 3.3-46.6 9.7l-28.5 12.2c-9.8 4.2-20.2 6.4-30.6 6.4h-73.3c-17.8 0-35.3 4.8-51.1 13.9h-40.2c-4.4 0-8.8.9-12.8 2.8l-14.2 6.4c-4.9 2.2-10.1 3.3-15.5 3.3h-16.4c-9.5 0-18.5 3.8-25.2 10.4h312.3l-17.6 7.6c-8.8 3.8-18.1 5.7-27.5 5.7h-65.8c-17 0-33.7 4.9-48.6 14.1l-1251.5.9c-7-5.3-15.3-8.2-23.7-8.2h-27.5c-3.9 0-7.8-.8-11.5-2.4l-10.7-4.6c-5.6-2.4-11.5-3.6-17.5-3.6H174c-5.6-1.6-9.7-6.8-9.7-12.9 0-7.4 6-13.4 13.4-13.4h315.8c-11.5-10.3-25.5-15.9-40-15.9h-41.3c-5.9 0-11.7-1.2-17.2-3.6l-16.1-6.9c-8.4-3.6-17.3-5.5-26.2-5.5h-56.2c-10.2-7.2-21.8-11-33.7-11h-41.3c-5.9 0-11.7-1.2-17.2-3.6l-16.1-6.9c-8.4-3.6-17.3-5.5-26.2-5.5h-31.5l-1.7-1.7a43.67 43.67 0 0 0-30.9-12.8H0v697.1h145.7c-13.8-12.4-30.7-19.2-48.1-19.2H57.2c-4.4-2.9-7.3-7.9-7.3-13.5 0-8.9 7.2-16.2 16.2-16.2H197c-11.9-10.7-26.5-16.5-41.5-16.5h-42.8c-6.1 0-12.2-1.3-17.9-3.7L78 633.1c-8.7-3.7-17.9-5.7-27.2-5.7h559.9c-3.9.4-7.8 1.4-11.4 3.1l-16.9 7.6c-5.8 2.6-12 3.9-18.4 3.9h-19.4c-11.2 0-22 4.5-29.9 12.4h588.4c-11.5-8.8-25.5-13.6-40-13.6h-41.3c-5.9 0-11.7-1-17.3-3.1l-16.1-5.9c-8.4-3.1-18.1-4.9-27.1-4.9h436.9l4 1c-2.6.5-5.1 1.4-7.6 2.5l-16.9 7.6c-5.8 2.6-12 3.9-18.4 3.9H1340c-11.2 0-22 4.5-29.9 12.4h565.2c-4.4.4-8.8 1.5-12.9 3.3l-10.1 4.3c-3.5 1.5-7.2 2.3-10.9 2.3h-26c-1.5 0-3 .1-4.4.3h-10.2c-8.3 0-16.5 1.8-24 5.1l-12.7 5.7c-5.8 2.6-12 3.9-18.4 3.9h-19.4c-11.2 0-22 4.5-29.9 12.4H1903c5.1 0 9.2 4.1 9.3 9.1.1 5.2-4.1 9.4-9.3 9.4h-28.5c-14.8 0-29.1 4.8-41 13.6l-14.5 10.8h-43.1c-5.3 0-10.5 1.1-15.3 3.3l-16.9 7.6c-5.8 2.6-12 3.9-18.4 3.9H1706c-11.2 0-22 4.5-29.9 12.4h-49.5c-3.1 0-6.2.7-9 1.9l-10 4.5c-3.4 1.5-7.1 2.3-10.9 2.3h-11.5c-6.7 0-13 2.6-17.7 7.3h71.5c6.5 5 14.5 7.7 22.7 7.7h23.5c3.3 0 6.7.6 9.8 1.7l9.1 3.3c4.8 1.7 9.8 2.6 14.9 2.6h197.3c1.3 0 2.6-.1 3.9-.4v-15.1h-4.1c-6.8-5.2-15.1-8.1-23.7-8.1h-24.5c-3.5 0-7-.6-10.2-1.8l-9.5-3.5c-5-1.8-10.2-2.8-15.6-2.8h87.6v-724zm-878 572.3c-3.4 0-6.7.7-9.8 2.1l-10.8 4.9c-3.6 1.6-7.6 2.5-11.6 2.5-2.6-.5-5.2-.8-7.9-.8h-26.4c-3.8 0-7.5-.7-11.1-2l-10.3-3.8c-5.4-2-11.1-3-16.8-3 0 0-17.9-.2-17.2-.2h-54.9c-7.2-6.5-16.1-10-25.2-10h-26c-3.7 0-7.4-.8-10.9-2.3l-10.1-4.3-3-1.2V590h353.6c-2.9.6-5.8 1.5-8.6 2.7l-10.1 4.3c-3.5 1.5-7.2 2.3-10.9 2.3h-26c-9.1 0-18 3.5-25.2 10l-20.8.3z"/></svg>