<svg version="1.1" id="Kugel" xmlns="http://www.w3.org/2000/svg" x="0" y="0" viewBox="0 0 1920 1600" xml:space="preserve"><style>.st1{opacity:.6;fill:#87e0ff}.st2{opacity:.8}.st2,.st3{fill:#fff}.st4,.st7{opacity:.5;fill:#27b9ed}.st7{opacity:.2}.st9{opacity:.3;fill:#5dcbf2}.st15,.st16{opacity:.3;fill:#fff}.st16{opacity:.2}</style><circle cx="960" cy="443.3" r="74.3" opacity=".6" fill="#fff"/><circle class="st1" cx="960" cy="446.2" r="92.3"/><circle class="st2" cx="960" cy="446.2" r="92.3"/><circle class="st3" cx="960" cy="446.1" r="62.9"/><path class="st4" d="M1043.7 484.9c.3-.1.5-.3.8-.4 1.4-.7 2.8-1.4 4.2-2.2l4.2-2.3 2.4-1.5c-.5-2.5-1.2-5-1.9-7.4-.1-.4-.3-.9-.4-1.3l-4.8 3.3c-1.2 4.1-2.7 8-4.5 11.8z"/><path d="M1090.5 425.4c-1.2-7.2-4.8-13.8-9.5-18.8s-10.2-8.9-16-12c-5.8-3-11.8-5.4-18-7.2-3.1-.9-6.2-1.7-9.3-2.4l-4.7-.9c-1.6-.3-3.1-.5-4.7-.8-.3 0-.6-.1-.9-.1 2.9 3.1 5.6 6.4 8 9.9 3 .8 5.9 1.7 8.9 2.7 5.6 1.9 11.1 4.2 16.1 7.1 5 2.8 9.6 6.2 13.3 10.3 3.7 4 6 8.8 6.9 13.8.7 5-.1 10.3-2.3 15.2-2.2 5-5.5 9.6-9.4 13.9-3.4 3.7-7.2 7.1-11.3 10.3 1.2 2.8 2.2 5.7 3.1 8.7.1-.1.2-.1.3-.2 5.3-3.6 10.3-7.7 14.8-12.4s8.6-10.1 11.5-16.4c2.9-6.2 4.2-13.6 3.2-20.7z" opacity=".3" fill="#27b9ed"/><path d="M884 499.5c-6.3-2-12.4-4.5-18.1-7.7-5.7-3.2-11-7-15.1-11.9-1-1.2-2-2.5-2.8-3.8-.9-1.3-1.6-2.7-2.2-4.1-1.3-2.8-2-5.8-2.3-8.8-.5-6 1.4-12.1 4.4-17.5 3.1-5.4 7.3-10.3 12-14.6 3.4-3.1 7-6 10.8-8.6.6-2.3 1.3-4.6 2.1-6.8l.1-2.1c-5.6 3.8-12.5 8.1-17.4 12.9-4.9 4.8-9.3 10.3-12.6 16.5-1.6 3.1-3 6.4-3.8 9.9-.8 3.5-1.1 7.2-.7 10.8.4 3.6 1.5 7.1 3.2 10.3.8 1.6 1.7 3.1 2.8 4.5 1 1.4 2.2 2.8 3.4 4 4.8 5.1 10.6 8.8 16.7 11.8s12.4 5.2 18.9 6.9c1.1.3 2.2.5 3.3.8-.6-.8-1.2-1.6-1.8-2.5-.3.1-.6.1-.9 0z" opacity=".2" fill="#5dcbf2"/><path class="st7" d="M1055.6 480.4c.5 3.1.8 6.2.7 9.2-.1 3-.6 5.9-1.6 8.4s-2.6 4.7-4.5 6.2c-1 .7-2.1 1.3-3.3 1.8-1.3.5-2.5.9-3.9 1.1-2.7.5-5.7.5-8.7.3-1.6-.1-3.2-.4-4.8-.6-1.8 2-3.7 4-5.6 5.9l-1.7 2.5c3.5.7 8 1.6 11.7 1.7 3.6 0 7.3-.2 11-1.1 1.8-.4 3.7-1.1 5.5-1.9 1.8-.9 3.5-1.9 5.1-3.3 3.1-2.8 5.2-6.3 6.4-10 1.2-3.7 1.5-7.4 1.4-11-.1-3.6-.7-7-1.5-10.4-.3-1.4-.7-2.7-1.1-4.1-1.8 1.2-3.6 2.4-5.4 3.5.1.6.3 1.2.3 1.8z"/><path class="st4" d="M1051.9 454.4c-.3 3-.7 5.9-1.2 8.8.9 2.2 1.6 4.4 2.4 6.6.9-.7 1.9-1.3 2.8-2 .6-.5 1.2-.9 1.8-1.4-.9-2.1-1.8-4.3-2.8-6.3-1-2-2-3.8-3-5.7z"/><path class="st4" d="M1055.8 467.8c-.9.7-1.9 1.4-2.8 2 .1.4.3.9.4 1.3.7 2.5 1.4 4.9 1.9 7.4 1.8-1.1 3.6-2.3 5.4-3.5-.9-3-1.9-5.9-3.1-8.7-.6.6-1.2 1-1.8 1.5z"/><path d="M1055.8 467.8c-.9.7-1.9 1.4-2.8 2 .1.4.3.9.4 1.3.7 2.5 1.4 4.9 1.9 7.4 1.8-1.1 3.6-2.3 5.4-3.5-.9-3-1.9-5.9-3.1-8.7-.6.6-1.2 1-1.8 1.5z" opacity=".5" fill="#0b99cc"/><path class="st7" d="M898.1 377.7c-.4-1.6-.7-3.2-1-4.7-.6-3.4-.8-6.7-.6-9.9.2-1.6.4-3.1.9-4.5s1.1-2.7 1.8-3.9c.4-.6.8-1.1 1.3-1.7.5-.5.9-1 1.5-1.4 1.1-.9 2.4-1.5 3.8-2.1 2.9-1.1 6.3-1.5 9.8-1.5 3.5 0 7.1.4 10.7.9 3.6.6 7.2 1.4 10.9 2.3l5.4 1.5c1.8.5 3.6 1.1 5.4 1.6-1.6-1.1-3.2-2-4.8-3-1.7-.9-3.3-1.8-5-2.7-3.4-1.7-7-3.2-10.6-4.5-3.7-1.2-7.5-2.2-11.5-2.7s-8.2-.6-12.5.5c-2.1.6-4.3 1.4-6.3 2.7-1 .6-1.9 1.4-2.8 2.2-.8.8-1.6 1.7-2.3 2.6-1.4 1.9-2.6 3.9-3.3 6.1-.8 2.1-1.3 4.3-1.6 6.5-.6 4.3-.4 8.5.2 12.6.3 2 .7 4 1.2 6 .4 1.9 1 3.7 1.5 5.5 2.4-3 5.1-5.8 7.9-8.4z"/><path class="st9" d="M1040.9 477.6c-10.4 6-21.6 11-33 15.2-11.4 4.3-23.2 7.7-35.2 10.7 12.3-.9 24.6-3 36.7-6.1 11.8-3.1 23.3-7.2 34.4-12.6 1.8-3.8 3.3-7.8 4.5-11.8-2.5 1.7-4.9 3.2-7.4 4.6z"/><path d="M990.9 382c-12.4.8-24.8 2.6-36.8 5.6 12.3-.8 24.6-1.3 36.8-.7 12.2.5 24.3 1.8 36.1 4.2 2.8.6 5.7 1.3 8.4 2-2.4-3.5-5.1-6.8-8-9.9-12.1-1.6-24.3-1.9-36.5-1.2z" opacity=".3" fill="#87e0ff"/><path d="M884.9 499.7c.6.8 1.2 1.7 1.8 2.5 11.9 2.8 24.1 4.1 36.3 4.4-12.9-1-25.8-3.1-38.1-6.9z" opacity=".5" fill="#87e0ff"/><path d="M1033.3 426.5c-8.2-10.4-17.2-20.1-26.8-29.1 9 9.6 17.4 19.8 24.8 30.6 7.4 10.8 14.1 22.1 18.9 34.1.2.4.3.8.5 1.1.5-2.9.9-5.9 1.2-8.8-5.3-9.9-11.7-19.2-18.6-27.9z" opacity=".2" fill="#87e0ff"/><path class="st9" d="M919.1 422.2c-3.9-6.3-7.6-12.6-11-19.1l-1.2-2.4-1.2-2.5c-.8-1.6-1.5-3.3-2.2-5-.8-1.6-1.4-3.3-2-5-.7-1.7-1.2-3.4-1.8-5.1-.5-1.7-1.1-3.4-1.5-5.1 0-.1-.1-.2-.1-.4-2.8 2.6-5.5 5.3-8 8.2 0 .1.1.2.1.3 1 2.9 2 5.7 3.2 8.5-4.6-6.2-8.2-12.8-11.7-19.9-.3-.6-1.3-.3-1.2.3 1.1 11 6.8 21.4 14 29.6 1.2 1.3 2.8 1 3.8 0 .5.9 1 1.9 1.5 2.8 3.8 6.7 8.2 13.1 12.9 19.1 9.4 12.1 20.3 22.9 32.3 32.1-9.1-11.9-18.1-23.8-25.9-36.4z"/><path d="M898.7 441.3c-.5-8 .7-16.3 3.5-23.9 2.9-7.7 7.3-14.8 13.1-20.8 5.7-6 12.7-10.8 20.4-14.1 7.7-3.3 16-4.9 24.4-5 8.3 0 16.7 1.7 24.4 5 7.6 3.3 14.7 8.1 20.4 14.1 5.7 6 10.2 13.1 13.1 20.8 2.8 7.7 4.1 15.9 3.5 23.9-.6-8-2.5-15.9-5.8-23-3.3-7.2-7.9-13.6-13.6-19-11.2-10.8-26.6-17-42-16.8-15.4-.1-30.8 6.1-42 16.8-5.6 5.4-10.3 11.8-13.6 19-3.4 7.1-5.3 14.9-5.8 23z" fill="#87e0ff" opacity=".4"/><path class="st9" d="M1001.9 346.1c-.2-.2-.4-.4-.7-.6-.5-.3-.9-.2-1.5-.1-.3.1-.4.3-.5.5-.1.5-.2.9.1 1.4.1.2.3.4.5.5.5.6 1.4.8 2 .2.7-.4.7-1.3.1-1.9zm10.7 4.2c-.7-.2-1.6 0-2.1.6-1-.2-2.1.3-2.5 1.2-.4 1-.1 2.6 1.1 2.9 1.1.4 2.2.4 3.3-.3.8-.5 1.4-1.4 1.6-2.3.1-.9-.5-1.8-1.4-2.1z"/><path class="st1" d="M1071.6 410.6c-.1-.1-.4-.4-.2-.3 8.3 8.5 10.8 19.2 7.1 29.7-.8 2.2-4.9 12.3 1.7 3.6 6.3-8.4 2-25-8.6-33z"/><path class="st9" d="M989 359.1c-1.6-1.5-3.8-2.6-6-2.5-.6 0-1.2.1-1.8.1-1.7.1-3.2.3-4.7 1.2-.8.4-1.5 1-2.1 1.6-1.3 1.5-2.4 3.5-2.3 5.6.1 2.2.9 4 2.3 5.6.6.7 1.3 1.2 2.1 1.6 1.5.9 3 1.1 4.7 1.2.6 0 1.2.1 1.8.1 1.2 0 2.3-.2 3.3-.7 1.1-.3 2-.9 2.7-1.8.8-.8 1.4-1.7 1.8-2.7.5-1 .8-2.1.7-3.3-.1-2.1-.8-4.4-2.5-6zm-20-14.7c-2.3 0-2.3 3.6 0 3.6s2.3-3.6 0-3.6z"/><path class="st15" d="M877.7 399.2l-.3-2.5c-.4-1.6-1.3-3-2.4-4.2-1.9-1.7-4.1-2.8-6.7-2.8-1.3 0-2.5.2-3.6.8-1.2.4-2.2 1-3 2-.9.9-1.6 1.9-2 3-.6 1.1-.9 2.3-.8 3.6.1.8.2 1.7.3 2.5.4 1.6 1.3 3 2.4 4.2 1.9 1.7 4.1 2.8 6.7 2.8 1.3 0 2.5-.2 3.6-.8 1.2-.4 2.2-1 3-2 .3-.3.6-.6.8-.9l.2-.2c.4-.6.7-1.2 1-1.9.5-1.1.8-2.3.8-3.6z"/><path class="st3" d="M874 404c-.2 0-.2.4 0 .4s.2-.4 0-.4zm1-3.2c-1.7 0-1.8 2.7 0 2.7 1.7 0 1.8-2.7 0-2.7z"/><path class="st2" d="M864 405.1c-3.9 0-3.9 6.1 0 6.1s3.9-6.1 0-6.1z"/><path class="st3" d="M868 420.1c-6.6 0-6.6 10.2 0 10.2s6.6-10.2 0-10.2z"/><path class="st2" d="M976.5 357.2c.1.2.1.4.2.6 2.1 7.2 12.6 7.2 14.7 0 .1-.2.1-.4.2-.6 3.5-12.5-18.7-12.5-15.1 0z"/><path class="st3" d="M1001 366.7c-.7 0-.7 1 0 1s.7-1 0-1z"/><path class="st16" d="M1024 361.6c-7.2 0-7.2 11.2 0 11.2s7.2-11.2 0-11.2z"/><path class="st15" d="M1025 344.2c-2.6 0-2.6 4 0 4s2.6-4 0-4zM872.7 503.5c-.3-.5-.7-1-1.3-1.2-.5-.3-1-.5-1.5-.4-.6 0-1.1.2-1.5.5-.5.2-1 .7-1.3 1.2-.5 1-.6 2.2 0 3.2s1.6 1.6 2.7 1.6 2.2-.6 2.7-1.6c.8-1.1.8-2.3.2-3.3z"/><path class="st3" d="M884 494.6c-7.1 0-7.1 11.1 0 11.1s7.1-11.1 0-11.1zM861.4 471c-2.3 0-2.3 3.6 0 3.6s2.3-3.6 0-3.6z"/><path class="st2" d="M1056.5 438c-3.9 0-3.9 6.1 0 6.1s3.9-6.1 0-6.1z"/><path class="st16" d="M1048.5 413.1c-7.2 0-7.2 11.2 0 11.2s7.2-11.2 0-11.2z"/><path class="st3" d="M1063.2 420.8c-2.3 0-2.3 3.6 0 3.6 2.4 0 2.4-3.6 0-3.6z"/><path class="st3" d="M845.8 472.1c-1.8-3.9-2.8-8.2-2.5-12.6.2-4.3 1.5-8.6 3.5-12.5 1-2 2.1-3.8 3.3-5.6 1.2-1.8 2.5-3.6 3.8-5.3 1.4-1.7 2.9-3.3 4.5-4.8 1.7-1.4 3.6-2.8 5.9-3.5l.5 1.9c-1.9.5-3.6 1.6-5.3 2.9-1.6 1.3-3.1 2.8-4.5 4.4-2.8 3.2-5.3 6.7-7.3 10.4s-3.5 7.8-3.9 12.1c-.4 4.3.4 8.7 2 12.6z" opacity=".6"/></svg>