<svg version="1.1" id="Ebene_1" xmlns="http://www.w3.org/2000/svg" xmlns:xlink="http://www.w3.org/1999/xlink" x="0" y="0" viewBox="0 0 1920 1680" xml:space="preserve"><style>.st1{fill:#0a2e4b}.st2{fill:#0a223e}.st3{fill:#0a3d5d}.st5{fill:#0a4c6f}.st6{fill:#0a668e}.st7{fill:#0982b2}.st8{fill:#0b99cc}.st9{fill:#27b9ed}</style><defs><path id="SVGID_1_" d="M0 0h1920v1680H0z"/></defs><clipPath id="SVGID_2_"><use xlink:href="#SVGID_1_" overflow="visible"/></clipPath><g clip-path="url(#SVGID_2_)"><path class="st1" d="M1685.9 668.8s22.8 35.6 33.9 47.3c0 0-16-32.4-28.5-50.4-12.4-18-6.6 1.2-5.4 3.1zm-5.4 7.4s19.1 30.4 27.8 40.4c0 0-12.1-27.5-21.7-42.8-9.6-15.4-7 .7-6.1 2.4zm-4.4 9.1s14.5 23.5 23 33.7c0 0-7.6-20.5-16.8-36s-7 .6-6.2 2.3zm-5.2 4.8s9.3 16.9 14 24.3c-3.4-11.9-3.2-11.6-8.4-23.5-4.8-11-6.1-2-5.6-.8zm-4.2 10.4s4.1 10.2 7.9 18.2c0 0-.1-7.1-3.5-18.7-3.5-11.5-4.7-.7-4.4.5zm23.9-40.1s26.9 41 38.6 53.6c0 0-19.8-37.4-32.8-57-13.2-19.5-7.1 1.3-5.8 3.4zm4.2-9.9s29.8 46.2 45.3 60.7c0 0-20.8-40.1-38.2-62.5-17.4-22.4-8.8-.6-7.1 1.8zm5.9-8.9s36.2 52.9 53.8 70c0 0-25.8-45.7-45.7-72-19.8-26.3-14.2-4-8.1 2zm4.8-12.1s38.7 58.3 56.4 75.4c0 0-29.3-50.4-48.2-77.4-17.2-24.7-14.1-4.1-8.2 2zm6.4-9.1s38.7 58.3 56.4 75.4c0 0-29.1-50.6-48.2-77.4-15-21-14.6-6.3-8.2 2zm6.1-7.5s40.1 60.1 57.8 77.2c0 0-31.7-51.6-51.5-77.9-19.9-26.3-8.2-2.1-6.3.7z"/><path class="st1" d="M1721.5 608.9s42.7 59.7 60.6 76.5c0 0-34.1-51.3-54.3-77.3-20.3-26-8.2-2-6.3.8z"/><path class="st1" d="M1724.7 605.1s44.1 58.7 62.5 75.1c0 0-35.3-50.5-56.2-76-20.9-25.5-8.3-1.8-6.3.9zm-52.3 61.1s-37.7 6.9-51.9 6.4c0 0 31.8-9.7 51.3-12.5 19.5-2.7 2.6 5.7.6 6.1zm-2.5 8.8s-32 6.2-43.7 6.4c0 0 26.2-9.4 42.3-12.4 16.1-3.2 3 5.6 1.4 6zm-2.6 9.4s-24.6 5-36.4 5.5c0 0 18.7-8 34.8-11.5s3.2 5.6 1.6 6zm-1.2 7.5s-17.1 4.4-24.9 5.8c10.4-5.4 10-5.3 21.3-9.4 10.5-3.7 4.7 3.2 3.6 3.6zm-1.8 8.8s-8.3 5.7-15.1 9.8c0 0 3.9-5.7 12.4-12.8s3.5 2.2 2.7 3zm11.7-43.5s-43.7 7.5-58.9 7.3c0 0 37.4-10.3 58.3-13.7s2.8 5.9.6 6.4zm3.4-9.9s-49 8.7-67.6 7c0 0 39.8-11.3 65.1-13.4 25.3-2 5 6 2.5 6.4zm2.1-10.3s-55.1 8.7-75.9 7.3c0 0 44.9-11.3 73.3-14.3s9.8 7.4 2.6 7zm5.5-11.7s-59.8 10.4-80.4 9c0 0 49.7-11.9 77.9-16 25.6-3.8 9.7 7.2 2.5 7zm6.7-10.2s-62.3 10.2-83.9 8.6c0 0 51.8-12.2 81.2-15.9 22.9-2.9 12.1 6.5 2.7 7.3zm3.9-9.2s-64.4 10.4-86 8.8c0 0 53.8-11 83.2-13.8 29.4-2.9 5.8 4.5 2.8 5z"/><path class="st1" d="M1698.7 600.7s-65.5 8.3-87 6.3c0 0 54.9-9 84.3-11.4 29.3-2.4 5.7 4.7 2.7 5.1z"/><path class="st1" d="M1701.3 596.1s-65.5 6.5-86.9 3.9c0 0 54.9-7.5 84.3-9.1s5.7 4.8 2.6 5.2z"/><path class="st1" d="M1658 718.3c8.7-21.4 17.8-42.7 27.5-63.6 4.9-10.5 9.9-20.9 15.2-31 2.7-5.1 5.5-10.1 8.4-15 1.5-2.4 3-4.8 4.6-7.1 1.6-2.3 3.3-4.5 5.2-6.2l.3-.3c-.1.1 0 0 0 0l.1-.1c.1-.1.2-.1.2-.1.1 0 0 0 .2.1.3.1 1.1.9 1.7 1.8 1.3 2 2.2 4.6 3 7.3v.1c.5 1.8 2.4 2.7 4.1 2.2 1.8-.5 2.7-2.4 2.2-4.1v-.1c-1.1-2.9-2.1-5.9-4.2-8.8-1.1-1.4-2.3-3-4.7-4-1.2-.5-2.8-.5-4.1-.1-.7.2-1.2.5-1.8.9-.3.2-.5.4-.7.6-.3.2-.4.4-.7.8l.3-.3c-2.3 2.4-4 4.8-5.7 7.3-1.6 2.5-3.1 5-4.5 7.6-2.8 5.1-5.4 10.3-7.9 15.6-5 10.5-9.5 21.1-14 31.8-8.7 21.3-16.9 42.9-24.7 64.7z"/><path class="st2" d="M398.5 751.5s43.5 26.7 50.6 39.8c0 0-41.6-28.7-61.6-37.1l11-2.7zM99.2 788.4s26.1-37 43.8-56.4c17.7-19.4 29.5-29.9.6 4.7-28.8 34.7-44.4 51.7-44.4 51.7z"/><path class="st2" d="M440.1 790.2s11.7 23.6 19.1 29.1c7.3 5.5 28.2 18.6 28.2 18.6s-33.5-54.9-47.3-47.7zm-208.8 59.5s5.1-33.6 25.3-75.3c19.1-39.4 37-65.2 37-65.2s24.9-26 20.8 6.2l-39.9 69.5-43.2 64.8zm-23.6-24.4s6.3-29.6 26.4-65.8c18.9-34.2 36.9-55.3 36.9-55.3s22.6-23.3 17.4 5.2l-38.9 60.2-41.8 55.7zm52 21s4.9-29.9 23.2-67c17.3-35.1 34.2-57 34.2-57s21.5-24.3 17.6 4.3l-36 62-39 57.7zm31.7-2.6s-3.7-16.8 14.6-53.9c17.3-35.1 32.2-57.4 32.2-57.4s21.5-24.3 17.6 4.3l-31.6 60.7-32.8 46.3zm41.4 8.2s-8.7-9.1 3.1-48.7c11.2-37.5 19.7-60.3 19.7-60.3s19.6-24 20.6 4.9l-22.7 62.7-20.7 41.4zm-151.5-35.5s8.8-26 28.8-62.2C229 720 247 698.9 247 698.9s24.5-25.7 15.7 2.8l-39.8 59-41.6 55.7zm-21.1-10.9s9.7-24.6 30.7-59c19.9-32.5 38.2-52.8 38.2-52.8s25.2-23.2 15.2 2.2l-41.2 56.3-42.9 53.3zm-16-11s11.5-18.5 30.9-49.5c18.4-29.3 34.3-48.8 34.3-48.8s23-19.9 12.9.6l-38.7 49.6-39.4 48.1zm-17.6-7.3s11.9-15.5 30.5-43.4c17.6-26.4 33.6-42.9 33.6-42.9s23.1-20.3 10.1-2.3L164 743.5l-37.4 43.7zm-20.9 6.2s12.1-15.3 31.3-42.9c18.1-26.1 33.1-41.5 33.1-41.5s23.4-19.9 10.1-2.1l-36.4 43.4-38.1 43.1z"/><path class="st2" d="M438.9 785.2c-13.5-11.9-27.7-22.8-42.3-33.1-14.7-10.3-29.8-19.8-45.5-28.3s-31.9-16.1-48.6-22c-16.7-5.9-34-10.2-51.4-11.7s-35 .1-51.2 5.7c-8.1 2.8-15.8 6.5-23 11.2-3.5 2.3-7.2 4.9-10 7.4-3.2 2.9-6.3 6-9.2 9.1-11.9 12.7-22.4 26.8-29.6 42.1-3.6 7.7-6.3 15.6-7.8 23.7-1.5 8-1.5 16.2-.1 24 .8 4.3-2.1 8.5-6.4 9.3s-8.5-2.1-9.3-6.4v-.2c-1.5-9.9-.9-20 1.1-29.5 2.1-9.5 5.6-18.5 9.9-26.9 8.8-16.8 20.5-31.4 33.6-44.4 3.3-3.2 6.7-6.4 10.2-9.4 4-3.3 7.8-5.7 11.8-8.2 8.1-4.8 16.8-8.6 25.7-11.4 18-5.5 36.9-6.3 55.1-4.1 18.3 2.2 35.9 7.4 52.7 14 16.9 6.7 33 14.9 48.5 24.1 15.5 9.2 30.4 19.4 44.7 30.2 14.3 10.9 28.1 22.4 41.1 34.8z"/><path class="st2" d="M369.2 844.3s-7.5-27.2-3-42.7c7.3-25.1 13.3-37.5 13.3-37.5s22.6-30.2 17.7 6c-4.8 36.2-24 71.9-27.3 75.4l-.7-1.2zm40.9 10.7s-12.7-22.6-12.1-37.3c.9-23.8 3.5-36.1 3.5-36.1s13.3-31.5 17 1.7-4.4 70-6.5 73.8l-1.9-2.1zm37.9 3.8s-17.8-16.8-21.4-31.1c-6-23.1-5.3-33.2-5.3-33.2s3.7-34 16.8-3.3 11.6 55.5 10.6 59.7l-.7 7.9z"/><path class="st2" d="M436.1 775.8s29.2 10.8 49.2 35.8c0 0-27.6-19.9-39.1-24-11.5-4.1-17.2-12.9-10.1-11.8zm-19.7-13.9s6.7-.9 17.4 4.2c10.7 5.1 15.3 10.2 15.3 10.2s-12.4-5.2-29.3-10.9c0 0-6.7-2.6-3.4-3.5zm-15.7-16c1.9.1 20.4 4.4 37.6 17.2 0 0-21.5-5.7-29-6.3-6.7-.6-16.9-11.3-8.6-10.9zm-24.2-17.4c1.8.1 19.5 4.5 36.4 17.3 0 0-20.6-5.8-27.7-6.5-6.5-.6-16.6-11.3-8.7-10.8zM352 716.1c1.3-.1 15.5 1.8 33 10.5 0 0-16.8-2.8-22-2.6-4.6.1-16.6-7.6-11-7.9zm-25.7-14.2c1.1.1 13.6 2.9 30.7 11.6 0 0-15-3.8-19.3-4.2-4.1-.4-16.1-7.6-11.4-7.4z"/><path class="st1" d="M1984.1 75.6l-110.2 36.2c-.2.1-.5.1-.7.2-36.9 12-62.2 46.1-62.7 84.9l-.9 71.4c-33 18.5-53.5 53.5-53.5 91.3l-.1 127.7-13.4 8.4c-14.1 8.8-22.7 24.1-23 40.8l-.6 39.2-15 29 1 156v78c0 26.5-14.5 50.9-37.9 63.5l-58.5 70.9v145.4l364.4 174.3v-267l14-949"/><path class="st3" d="M1482.9 865.3c-72.4-17.3-131.1 6.4-157 31.3 0 0 23.4-10 56.9-8.7-.1-1-.3-2.1-.5-3.2-2.5-15.3 7.6-6.4 6.8-1.5-.2 1.2-.6 3-1 5.1 18.2 1.4 39.1 6.2 60.6 17.6 0 0 5.6-9.4 3.8-17.4-1.8-8.1 12.1-10.8 11.6-.1-.5 10.7-12.2 20.4-12.2 20.4l31.5 18.5 59.8 1.1c-.1-.2 12.1-45.8-60.3-63.1z"/><path class="st1" d="M273.8 580.7s15.2-39.8 14.5-57.2l-12 26.8s8.2-56.2-3.8-74.9c0 0 1.3 14.3-.1 34.1-.7 10.1-2.9 19.6-3.4 21.5-2.1 7.7-3.5 16.7-8.4 31l-4.3 12.6-10.3 18.2.7 9.3 38.3-14.2s-6.8-9.6.9-11.1c0 0-10.5.5-12.1 3.9z"/><path class="st1" d="M375.5 495.2s-7.6-10.6-40 10.4c0 0-60.9 50.5-83.9 106.5 0 0-16 38.4-14.5 57.2 1.5 18.8-.1 1.3-.1 1.3l46.5-39.7c0-.1 7.9-59.6 92-135.7z"/><path class="st1" d="M310.6 569.1s42.3-63 70-77c0 0 20.5-8 28-9.5s6.5-.5 3 14.5-8.2 50.5-8.2 50.5-2.8.5-4.2-22c-1.5-22.5-16.5-13.5-16.5-13.5s-31 42.2-46 70.3-19 38-19 38l-34.1 10.4c-.1 0 6.6-34.1 27-61.7z"/><path class="st2" d="M487.4 754.1s-48.4-57.6-150.5-54.4-135 65.2-135 65.2l-11.5 31.4s22.2-9.9 50.6-16.2c.7-.2 1.4-.3 2.1-.5l1.7-18.1 3.4 12.6s42.4-16.3 55.8-17.7c13.4-1.4 3.4-11.3 3.4-11.3s8.9.9 10.2 8.3l35.3 1.8s22.8-15.8 22.6-25.9c0 0 1.2 18.6-11.3 25.4 0 0 9.2-.6 17.6.4 8.4 1 18 5.9 29.6.7 0 0 10.8-18.7 10.5-29.3 0 0 9.3 21.2 4.6 31.7.2 0 35.1-12.4 60.9-4.1z"/><path class="st1" d="M486.3 756.5s-34.7-65.3-128.7-80.3-134.3 40.1-134.3 40.1l-15.7 28.9s21.9-5.8 49-7c.7 0 1.4-.1 2-.1l4.5-17.5 1 13s41.5-8.5 54-7.5 5-10.5 5-10.5 8 2.5 8 10l32 8s23.5-11.5 25-21.5c0 0-2 18.5-14.5 23 0 0 8.5 1 16 3.5s15.5 9 27 6c0 0 13-16.5 14.5-27 0 0 5 22.5-1 32-.1.1 33.9-5.8 56.2 6.9z"/><path class="st2" d="M268.4 973.3c7.1-2.2 16.3-3.6 27.9-3.9 54.2-1.7 135-8.2 160-16.5.4-.1.7-.2 1.1-.3 8.3-2.8 63-23.4 65.1-80.7 0 0-27.1 53.3-174.6 36.7 0-.1-85.2-6-79.5 64.7z"/><path class="st1" d="M312 767.1C272.6 750 183.7 733 134.5 741.2s-96.1 51.3-96.1 51.3l34.6 1.2 20.4-19.1-9.7 19 66.1 2.1c24.8 6 70.5-29.5 70.5-29.5-1.7 8.3-27.9 31.8-27.9 31.8l89 16.6c27.6 2.3 52.1-22.7 52.1-22.7.7 9.7-15.9 31.8-15.9 31.8 3.9 1 7.8 1.8 11.7 2.6 4.6-4.5 7.6-8.8 7.6-8.8-.4 3.6-1.5 6.9-2.7 9.7C394.5 837 448 817 448 817s-96.6-32.8-136-49.9z"/><path class="st1" d="M440.5 814.5c2.1.7 3.8 1.3 5 1.7.3-.1.5-.2.5-.2l-5.5-1.5z"/><path class="st2" d="M336.8 817.5s-3 4.4-7.6 8.8c-3.9-.7-7.8-1.6-11.7-2.6 0 0 16.7-22.1 15.9-31.8 0 0-24.5 25.1-52.1 22.7l-89-16.6s26.3-23.6 27.9-31.8c0 0-45.7 35.5-70.5 29.5l-66.1-2.1 9.7-19L73 793.7l-34.6-1.2c9.4 2.5 22.7 15.2 22.7 15.2l15.1-8.8-8.2 13c40 6.9 78.9 12.5 78.9 12.5 16.1-2.6 25.3-20.1 25.3-20.1 2.3 7.7-6.9 22.8-6.9 22.8 41.6 3.7 84.5 20.9 84.5 20.9 18.3-5.6 34-15.7 34-15.7 3.6 9.2-16 22.3-16 22.3 42.9 1 109.6-17.1 150.1-29.6-21.2 4.2-51.5 7.4-83.7 2.2 1.2-2.7 2.2-6 2.6-9.7z"/><path class="st1" d="M1446 908.5c3.1-1.2 6.3-2.3 9.6-3.4 0 0-7-4.5-15-4.5 0 0 3.1 2.4 5.4 7.9z"/><path class="st3" d="M504.6 891.1s-63.2 10.7-83.1 55.5c0 0-16 32.8-33.7 39.3-17.7 6.5-139.1.8-24.3-86.1 0 0 48.7-37.5 81.4-24.6 0 0 10.7 1.5 17.2 5.9 0 .1 10.4-4.2 42.5 10z"/><path class="st1" d="M504.6 891.1s-19.2 3.2-39.8 13.7c0 0 8.9 8.8 4.7 22.6 0 0 43.4-32.4 35.1-36.3z"/><path class="st2" d="M212.3 697.9s36.8-19.1 56.8-20.2V669l3.1 6.8c41.7-7.9 33.1-8.6 54.3-8.5 0 0-2.5-12.3 3.7-20.5 0 0 5.6 18.5 6.9 21.7 5.9-2.4 61.1-9.2 75.5 0l-2.5-18.6s11.2 11 14.3 18.6c0 0 55.6-16.9 86.7-5.9 0 0-61.6-44.4-64.5-43.8-2.9.6-61.8-19.4-61.8-19.4h-33.4s-66.7 12.7-69.9 15.1c-3.1 2.4-22 14.2-22 14.2l-47.2 69.2z"/><path class="st1" d="M331.5 638.4zm174 10.6s-11.9-31.2-89.8-52.4-145.3 11.2-145.3 11.2c-65.5 37.4-60.5 94.8-58 91.1 13-19.5 53-34.9 53-34.9-3.7-5-2.5-21.2-2.5-21.2 1.9 5 8.7 15.6 8.7 15.6 9.4-4.4 44.9-14.3 44.9-14.3-4.4-6.2 4.4-24.9 4.4-24.9-1.2 10.4 10.1 19 10.6 19.3 0-.1 1.3-.5 20.6-1.9 20.6-1.5 28-3.5 49.3 0 2.5-10-10.6-28.7-10.6-28.7 8.7 6.2 15 16.2 15 16.2 4.4 12.5 10.6 13.1 10.6 13.1 4.4-.2 9.2-.1 14 .3-2.3-4.5-4.7-7.8-4.7-7.8 4.9 2.2 8.4 5.8 10.4 8.3 22.3 2.5 45.9 9.4 54.5 12.3 11.2 3.7 20.6 11.2 20.6 11.2-2-7.5-5.7-12.5-5.7-12.5z"/><path class="st2" d="M348.4 1101.8s39.6-15.5 52.1-27.7l-27.9 9.2s47.1-31.7 52.9-53.2c0 0-9.7 10.6-25.3 22.9-8 6.3-16.5 11-18.2 11.9-7.1 3.6-14.7 8.7-28.6 14.6l-12.2 5.3-20.5 4.6-6.5 6.8 36.3 18.8s2.5-11.5 8.8-6.7c.2-.1-7.3-7.5-10.9-6.5z"/><path class="st5" d="M292.5 967.2c-7.8 13.4 1.6 43.3 14.4 52.5l28.3-17.1c10.8-9.5 14.1-33.5 16-47 3.6 9.6 5.3 24.6 1.7 34 6.1-10.9 16-20.6 22.9-31.6 5.1-8.1 9.9-15.4 16.1-22.6 16.2-18.9 23.1-36.5 25.7-61.6 1 13.4 5.6 29.1 1.6 42.5 5-7.2 17-12 24.1-17.1 10.6-7.7 22.7-17.5 31.2-27.4 4.7-5.4 4.6-7.8 4.6-14.8 0-6.2-2.8-15.1-.1-20.7 1.2 3.9 4.4 6.4 6.3 9.9 2.7 5 1.3 11.1 7.5 6.9 5-3.4 8.7-9.7 13.1-13.9 4.8-4.7 10.1-8.6 14.9-13.2 9.9-9.5 19.8-25.4 24.8-38.1-5.3 4.3-13 3.9-17.3 6.8 5.6-6.7 14.9-9.3 19.8-16.8s5.6-17.1 7.9-25.8c1.3-4.9 1.1-9.9 2.2-14.8-14.8 13.9-33 22.4-53.3 23.9-2.7.2-9.3.3-10.7.9-3.2 4.7-5.1 11.1-8.9 15.9-5.1 6.4-12.1 12.3-18.1 17.9 3.4-4.3 5.6-10.6 7.5-15.8 1.8-4.9 1.9-10.7 3-13.2-3.5.8-12.1 1.1-17.4 2.6-8.4 2.3-17.4 3.5-25.7 6.1-.3.7-2.2 4.9-3 6.8-1.2 2.9-2.4 6.1-3.7 9.1-3.8 8.9-11.5 19.3-19 25.4 1.7-4.6 2.5-8.3 3.9-13.2 1.5-5 5-16 4.8-20.3 0-.8-.2-1.9-.5-3-6.8 2.1-14.5 8.1-21 11.7-8.5 4.7-18.1 8.9-27 12.7-3.1 1.4-14.9 7.8-18.1 6.3.5 8.3-.4 19.7-.4 29.2-1.4-8.2-4.5-17.1-4.8-25.5-3.4 6.2-10.7 10.6-15.7 15.6-5.9 5.9-11.5 11.9-16.1 18.7-3.2 4.7-6.7 9.7-8.1 15.3-1.3 5.1.4 10.5 1.5 15.4-1.8-4-4.6-4.8-7.1-7.7-.1.5-.2 1-.4 1.6-6.6 16.4-11.5 32-13 50.7-1 12.2 6.4 16.1 6.3 15.8 0 0-9.2 13.8-5.3 22.7 1.1 3 4.6 4.3 4.6 4.3z"/><path class="st6" d="M288.2 965.3c.1.4.3.8.4 1.2 1.3 2.9 4.5 4 4.5 4s-3.2-1.5-4.9-5.2z"/><path class="st5" d="M365.8 869.6c27.3-20.4 55.3-31.6 85.6-47.6 61-34.9 100.7-78.5 103.6-81.8l.2-.2c-14.8 13.9-33 22.4-53.3 23.9-2.7.2-9.3.3-10.7.9-3.2 4.7-5.1 11.1-8.9 15.9-5.1 6.4-12.1 12.3-18.1 17.9 3.4-4.3 5.6-10.6 7.5-15.8 1.8-4.9 1.9-10.7 3-13.2-3.5.8-12.1 1.1-17.4 2.6-8.4 2.3-17.4 3.5-25.7 6.1-.3.7-2.2 4.9-3 6.8-1.2 2.9-2.4 6.1-3.7 9.1-3.8 8.9-11.5 19.3-19 25.4 1.7-4.6 2.5-8.3 3.9-13.2 1.5-5 5-16 4.8-20.3 0-.7-.2-1.9-.5-3-6.8 2.1-14.5 8.1-21 11.7-8.5 4.7-18.1 8.9-27 12.7-3.1 1.4-14.9 7.8-18.1 6.3.5 8.3-.4 19.8-.4 29.2-1.4-8.2-4.5-17.1-4.8-25.5-3.4 6.2-10.7 10.6-15.7 15.6-5.9 5.9-11.5 11.9-16.1 18.7-3.2 4.7-6.7 9.7-8.1 15.3-1.3 5.1.4 10.5 1.5 15.4-1.8-4-4.6-4.8-7.1-7.7-.1.5-.2 1-.4 1.6-6.6 16.4-11.5 32-13 50.7-1 12.2 6.4 16.1 6.3 15.8-.2.3 19.8-31.6 75.6-73.3zm-72.2 75.8c-7.6 9.5-7.4 16-5.4 20-2.4-8.3 5.4-20 5.4-20z"/><path class="st6" d="M317.5 949c20.3-25.1 20.3-44.9 123-110.3 4.2-2.7 107.5-76.8 116.6-98.2-29.9 34.8-101.8 78.6-101.8 78.6h-1.1c-30.3 16-57.2 27.1-84.5 47.6-55.7 41.6-75.7 73.5-75.7 73.5s-8.4 12.5-5.8 21.3c1.9 3.9 5.3 5.6 5.3 5.6s3.7 7 24-18.1z"/><path class="st1" d="M306.6 939.3c21.4-24.2 22.3-44 127.7-104.8 4.3-2.5 110.8-72 120.8-93-31.4 33.4-107.1 76.3-107.1 76.3-36.9 16.4-103.7 45.8-133.3 66-57.6 39.2-31.2 45.6-31.2 45.6s-8.9 12.2-6.7 21.1c1.7 4 5 5.8 5 5.8s3.4 7.2 24.8-17z"/><path class="st7" d="M313.1 949.7c20.4-24.8 15.8-49 119.9-114.6 4.2-2.7 113-71.9 121.9-92.9-30.1 34.4-101.9 77.5-101.9 77.5l-2.1 1c-30.7 16.1-58.1 27.5-85.8 47.9-56.4 41.7-76.3 73.1-76.3 73.1s-8.3 12.4-5.6 20.9c2 3.7 5.5 5.3 5.5 5.3s4 6.6 24.4-18.2z"/><path class="st1" d="M128.4 915.6zm307.8 64.1s-12-73.8-145.1-140-262.9-7.8-262.9-7.8c-128 70.3-135.8 202.2-130.3 194.3 28.9-41.4 104.9-67.5 104.9-67.5-5.2-12.2 1.8-48.9 1.8-48.9 1.9 11.8 11 37.5 11 37.5 18-7.8 84.4-22.4 84.4-22.4-6-15.2 15.1-55.9 15.1-55.9-5.2 23.4 12.5 45.6 13.2 46.5 0-.2 2.4-.8 37.4.5 37.2 1.4 51.1-1.6 88 11.3 7.4-22.2-10.5-67.8-10.5-67.8 13.8 16.2 22 40.4 22 40.4 4.1 29.4 15.1 32.3 15.1 32.3 8 .5 16.4 1.9 25 3.9-2.7-10.8-6.1-18.8-6.1-18.8 8 6.2 13.2 15.2 16.1 21.4 39.2 10.9 79.2 31.9 93.7 40.4 19 11.1 33.5 30.3 33.5 30.3-1-17.5-6.3-29.7-6.3-29.7z"/><path class="st5" d="M1673.5 968.4s7.3-44.6 8.3-70.9c1-26.2 0-42-3.8 2.9-3.7 44.9-4.5 68-4.5 68z"/><path class="st7" d="M1429.2 730.7s-24.9 8.6-34 7.4c-9.1-1.2-33.2-6.5-33.2-6.5s62.4-15.8 67.2-.9z"/><path class="st5" d="M1536.3 919.5s19.9-27.5 34.7-71.4c14-41.5 19.3-72.5 19.3-72.5s.5-36-19.1-10.2l-20.3 77.6-14.6 76.5zm34-.9s16.3-25.5 27.3-65.4c10.5-37.7 12.5-65.3 12.5-65.3s.2-32.5-16-8.5l-14.4 70.2-9.4 69zm-51.8-21.5s17.5-24.7 30.4-64c12.3-37.1 15.6-64.6 15.6-64.6s1.7-32.4-15.6-9.3l-17.7 69.4-12.7 68.5zm-20.8-24s14.4-9.4 27.4-48.7c12.3-37.1 17.3-63.5 17.3-63.5s1.7-32.4-15.6-9.3l-20 65.4-9.1 56.1z"/><path class="st6" d="M1462.5 849.9s12.6-.3 32-36.9c18.3-34.6 28.2-56.8 28.2-56.8s2.9-30.8-18.1-10.9l-27.8 60.6-14.3 44z"/><path class="st7" d="M1479.4 811.9l28.3-58.4c4.8-3.9 10.2-20.9-3.1-8.3l-27.8 60.6-14.3 44.1s.5 0 1.5-.3l15.4-37.7z"/><path class="st5" d="M1595.3 930.8s12-24.7 23.1-64.6c10.5-37.7 12.5-65.3 12.5-65.3s.5-35.5-13.2-9l-13 69.9-9.4 69zm22.7 7s10.3-24.3 19.5-63.6c8.6-37.2 9.8-64.4 9.8-64.4s-1.7-34.2-12.3-9.1l-10.1 69-6.9 68.1zm19.1 3.4s4.8-21.3 12.6-57c7.4-33.8 9.7-58.9 9.7-58.9s-2.5-30.3-9.6-8.6l-7.1 62.5-5.6 62zm17.7 7.1s2.4-19.4 8.7-52.3c6-31.2 6.1-54.1 6.1-54.1s-2.2-30.7-5.6-8.7l-5.3 57.8-3.9 57.3zm10.6 19.1s2.1-19.4 7.8-52.5c5.4-31.3 5.4-52.8 5.4-52.8s-2.7-30.6-5.8-8.6l-4.5 56.5-2.9 57.4z"/><path class="st6" d="M1433.5 727.9c17.9 1 35.7 3.2 53.4 6.1 17.6 3 35.1 6.8 52.3 11.7 17.2 4.9 34 10.9 50.1 18.4 16 7.5 31.4 16.6 44.8 27.7 13.5 11.1 24.9 24.6 32.6 39.9 3.8 7.7 6.7 15.8 8.5 24.1.9 4.1 1.7 8.5 1.9 12.3.2 4.3.3 8.7.2 13-.4 17.4-2.9 34.8-8.4 50.8-2.8 8-6.4 15.6-11 22.4-4.6 6.8-10.2 12.6-16.7 17.2-3.6 2.5-4.5 7.5-2 11.1s7.5 4.5 11.1 2c.1 0 .1-.1.2-.1 8-6 14.7-13.6 19.9-21.8 5.2-8.3 9-17.1 11.8-26.2 5.5-18.1 7.4-36.7 7.2-55.2-.1-4.6-.3-9.2-.7-13.9-.5-5.1-1.6-9.5-2.7-14.1-2.4-9.1-5.9-17.9-10.4-26.1-9-16.5-21.9-30.4-36.5-41.6-14.6-11.2-30.7-19.9-47.4-27-16.7-7-34-12.5-51.5-16.8-17.5-4.3-35.2-7.5-53-9.8-17.8-2.3-35.7-3.8-53.7-4.1z"/><path class="st7" d="M1441.8 818.9s24.4-14.1 32-28.3c12.4-23.1 16.8-36.1 16.8-36.1s5.1-37.4-16.9-8.1-33.3 68.1-33.4 72.9l1.5-.4zm-36.7-21s24.9-7.2 34.8-18.1c16.1-17.6 22.8-28.1 22.8-28.1s4.5-11.4 2.6-16c-1.3-3.1-5.5-3.2-15.9 5.3-26 21-45.9 53-47.1 57.2l2.8-.3zm-29.7-23.8s24.5.5 37.1-7.1c20.4-12.3 27.1-19.9 27.1-19.9s21.2-26.8-9.7-14.1c-30.9 12.7-47.1 31.4-49.4 35.1l-5.1 6z"/><path class="st6" d="M1442.1 723.2s-28.3-12.8-60.1-9c0 0 33.6 5.1 44.7 10.3s21.2 2.9 15.4-1.3zm23.8 3.9s-4.1-5.3-15.4-9.2c-11.2-3.9-18-3.5-18-3.5s12.5 5 28.5 12.8c0 0 6.7 2.9 4.9-.1z"/><path class="st5" d="M1488.3 726.6c-1.4-1.2-17.7-11.2-38.9-14.1 0 0 19.3 11 25.1 15.9 5.2 4.3 20.1 3.8 13.8-1.8zm29.5 4.6c-1.3-1.2-17.1-10.5-38.1-13.1 0 0 18.8 10.3 24.3 14.8 5 4.1 19.8 3.5 13.8-1.7zm26.2 8.4c-.8-.9-12.3-9.6-30.9-15.7 0 0 13.9 9.8 17.5 13.6 3.2 3.3 17.1 6.3 13.4 2.1zm28.2 7.9c-.8-.7-11.8-7.5-30-13.3 0 0 13.4 7.8 16.7 10.6 3.2 2.6 16.9 5.8 13.3 2.7z"/><path class="st6" d="M1378.2 953.1s18.5-28.5 77.5-48c0 0-7-4.5-15-4.5 0 0 21.5-13.5 46-10 0 0-4.5-11.5-14.5-13.5 0 0 34.5-10.5 59.5 8.5 0 0-3.5-13-22-20.5 0 0 112-3 158.5 127.5l8.5 43s-2.2 11.2-6 0c-3-8.9 0-31.5-7.5-49 0 0 1.9 17.8-.5 32.4-1 5.8-3.6 11.3-7.5 15.7 0 0-17-7.8-35.5-11.2-13-2.4-10.5-6.9-8.5-11.4s6.5-15.5.5-36.5c0 0 .8 33.4-14 41 0 0-20.5-11.9-45-16.5 0 0-7.5-.5-3-15.5s1.5-33 0-36c0 0-2 26-13.5 38l-4 4s-18-22.5-46-34.5l-7-3.6s11.5-20.4 20-25.4c0 0-15.2 5.7-24.4 16.8-2.5 3-6.5 4.4-10.3 3.6-16.6-3.8-59.7-11.1-86.3 5.6z"/><path class="st7" d="M1649 951.3c-88.6-85.2-193.4-46.3-193.4-46.3s135.5-31 207 79c0 0 14 33.6 1 88 0 0-1 7.5 6.5 6 0 0 9 .5 8.5-17.5 0 0 4.5-60-22.5-101l-7.1-8.2z"/><path class="st1" d="M-14.3 35.8L87.3 54.3a80.99 80.99 0 0 1 49.8 46.8l22.1 10.2c11.5 5.3 19.4 16.3 20.7 28.9l25.2 241 34 39 3 98 15 29-1 156v78c0 26.5 14.5 50.9 37.9 63.5l62.1 33.5 90.6 135.9-458.6 233.8V968.1l-5.4-923.3 3-9z"/><path class="st3" d="M460.7 986.2s2.7-8.5-18.5-.5-90.4 16.3-136.8 19.6-46.5 23.8-35 44.9l16.3 15.9s-9-21.7 76.9-28.6c85.9-6.9 79-29.1 116.8-47.1 0 0 4.8-4.2.4 9 0 0 15.1-23.1-14.1-14.5l-6 1.3z"/><path class="st1" d="M448.4 1012.2s5.9-8.7 10.7 10.1c0 0 3.2 5.2 9.6 8.3 2 1 4.3-.6 4.2-2.8-.4-5.7.1-15.8 6.4-24.8.1-.1 21.4-42.9-30.9 9.2z"/><path class="st2" d="M1695.1 1052.2c-14.1-25.5-56.2-59.7-56.2-59.7-68.5-54.5-150.7-20.9-150.7-20.9-61.3 26.3-83.3 95.8-83.3 95.8 18.1-27.3 45.2-40.8 75.1-45.9.2-8.9 5.7-17.8 7.8-20.9.5-.7.8-1.1.8-1.1-2.1 7.9-.8 14.9 1.6 20.5 19.9-2.2 40.6-1.1 60.6 1.8-4.5-8.3-4.2-12.9-4.2-12.9 7.3 5.4 9.3 9.4 11.5 14 21.5 5 39.1 8.3 50.1 11-1.5-9.4-4.7-15.4-4.7-15.4 3.6 4.8 6.3 10.7 8.3 16.3 14.2 3.7 26.1 8.3 51.2 19.9 0 0 4.1-8.9-.6-24.3-4.3-14-11.1-21.4-11.1-21.4 25.5 18.9 42.4 69.4 42.4 69.4 21.1 5.7 1.4-26.2 1.4-26.2z"/><path class="st3" d="M1689.2 1007.7c-17.9-23-64.8-50.2-64.8-50.2-76.2-43.2-152.2 2.9-152.2 2.9-56.5 35.5-67.4 107.6-67.4 107.6 13.6-29.8 38.3-47.3 67-57.1-1.2-8.8 2.9-18.5 4.5-21.8l.6-1.2c-.8 8.1 1.6 14.8 4.8 20 19.3-5.3 39.9-7.4 60.1-7.7-5.8-7.5-6.1-12.1-6.1-12.1 8 4.2 10.6 7.8 13.5 12.1 22 1.6 39.9 2.1 51.2 3-2.9-9.1-7.1-14.5-7.1-14.5 4.3 4.1 7.9 9.6 10.7 14.8 14.6 1.5 27.1 4.1 53.7 11.7 0 0 2.6-9.5-4.4-23.9-6.4-13.1-14.3-19.4-14.3-19.4 28.2 14.7 52.7 62 52.7 62 21.9 2.3-2.5-26.2-2.5-26.2z"/><path class="st8" d="M505.8 838.9c3.6-4.2 7.8-7.8 11.7-11.7 1.9-2 3.8-3.9 5.7-5.9 1.9-2 3.7-4 5.4-6.1 3.4-4.2 6.4-8.7 8.9-13.3 1.2-2.3 2.4-4.8 3.3-7.2 1-2.5 1.2-3.1 1.9-5.7l2.5.9c-2.9.9-4.5 2.4-7.4 3.4-1.4.5-2.8 1.1-4.2 1.6-1.4.6-2.7 1.2-3.8 1.8l-14.6 9.2 11.1-13.1c2.1-2.4 4.5-4.3 7-6 2.4-1.6 4.9-3.1 7.1-4.6 2.2-1.6 4.1-3.3 5.6-5.3s2.7-4.5 3.7-7 1.7-5.2 2.4-7.9 1.3-5.5 2.2-8.3l.7-2.1c.2-.6.4-1.3.6-2 .3-1.3.6-2.7.8-4.1.4-2.8.9-5.7 1.7-8.4l.3.1c-.6 2.8-.8 5.6-1.1 8.4-.1 1.4-.3 2.8-.6 4.2-.3 1.4-.7 2.8-1 4.2-1.3 5.5-2.1 11.2-4 16.6-.9 2.7-2.1 5.3-3.7 7.7-1.6 2.4-3.8 4.3-6.1 6-4.6 3.4-9.8 6-13.4 10.4l-.4-.4c1.3-.9 2.8-1.5 4.2-2.1 1.4-.6 2.9-1.2 4.3-1.7 2.9-1.1 5.9-2 8.8-3l.5-.1-.1.5c-1.4 5.3-3.5 10.5-6.2 15.3-1.3 2.4-2.9 4.7-4.5 7-1.6 2.2-3.4 4.4-5.2 6.5-3.7 4.1-7.6 8-11.7 11.7-4.1 3.7-8.4 7.1-12.4 10.9v-.4z"/><path class="st3" d="M252.1 819.2c.5 9.1 2 18.1 4.4 26.8 1.2 4.3 2.7 8.6 4.6 12.7 1.9 4 4.2 7.9 7.1 11.2 2.9 3.3 6.3 6.1 10.3 7.8 3.9 1.8 8.2 2.4 12.6 2.3 4.6-.1 9.3 0 14 .9 2.3.5 4.7 1.2 7 2.4 1.1.6 2.2 1.4 3.1 2.4.9.9 1.7 2.1 2.3 3.2 1.2 2.4 1.7 4.9 1.9 7.3.2 2.4.1 4.8 0 7.1-.3 4.6-.7 9.1-1 13.6-.2 4.5-.3 9 0 13.4s1.2 8.7 2.5 13c1.2 4.3 2.9 8.4 4.9 12.5 1.9 4.1 4.1 8 6.6 11.8 2.4 3.8 5 7.5 7.8 11.1 1.4 1.8 2.8 3.6 4.3 5.3 1.5 1.7 2.9 3.5 4.5 5.1-6.8-6-12.9-13-18.2-20.4-5.3-7.5-9.9-15.6-12.8-24.4-1.5-4.4-2.5-9-3-13.7-.4-4.6-.5-9.3-.3-13.9s.6-9.2.8-13.6c.1-2.2.2-4.4 0-6.6-.2-2.1-.6-4.1-1.4-5.8-.8-1.7-2.2-3-3.9-4-1.7-1-3.7-1.6-5.8-2.1-4.2-.9-8.7-1.1-13.2-1.2-4.7.1-9.6-.8-13.9-2.9-4.3-2.1-8.1-5.2-11-8.9-3-3.7-5.2-7.8-7-12-1.8-4.3-3.1-8.7-4.2-13.1-1-4.5-1.7-9-2.2-13.5-.6-4.7-.9-9.2-.8-13.8z"/><path class="st3" d="M211.1 812.8c1 5.1 2.3 10.2 3.7 15.2 1.4 5 2.9 10 4.5 14.9 1.7 4.9 3.5 9.8 5.6 14.5 2 4.8 4.3 9.4 6.9 13.9 2.6 4.5 5.5 8.7 8.9 12.5 3.4 3.8 7.3 7.1 11.7 9.3 2.2 1.1 4.6 1.8 7 2.2l.9.1.9.1c.6.1 1.2.1 1.8.1h3.9c5.3 0 10.7.3 16 1.8 2.6.8 5.3 1.8 7.7 3.5 2.4 1.6 4.4 3.8 5.8 6.3 1.4 2.5 2.4 5.2 3 7.8.6 2.7.9 5.3 1.2 8 .5 5.3.7 10.5.9 15.7l.2 3.9c.1 1.3.2 2.6.3 3.8.3 2.5.8 5 1.4 7.4 1.3 4.9 3.3 9.6 5.8 14.1s5.3 8.8 8.4 12.9c6.2 8.3 13.4 15.8 21.3 22.7-4.3-3-8.2-6.4-12.1-10-3.8-3.6-7.5-7.3-10.9-11.4-6.7-8.1-12.6-17.1-15.8-27.4-.8-2.6-1.4-5.2-1.7-7.9-.2-1.4-.3-2.7-.4-4l-.3-3.9c-.4-5.2-.6-10.4-1.1-15.5-.3-2.5-.6-5.1-1.2-7.5-.6-2.4-1.3-4.7-2.5-6.8-1.1-2-2.7-3.8-4.6-5.1-1.9-1.3-4.1-2.3-6.5-3-4.7-1.4-9.9-1.9-15-2H263c-.7 0-1.4 0-2.1-.1l-1-.1-1-.2c-2.7-.5-5.4-1.4-7.8-2.6-4.9-2.5-9-6.2-12.5-10.2-3.5-4.1-6.3-8.6-8.9-13.2-5-9.3-8.7-19.2-11.7-29.2-3-10.1-5.3-20.3-6.9-30.6zm123.1 107c.2 3.6.8 7.1 1.6 10.5.8 3.5 1.9 6.8 3.1 10.1 2.6 6.6 6.1 12.8 10.5 18.2 4.4 5.5 9.7 10.1 15.5 13.9 5.9 3.8 12.3 6.6 18.9 8.7l-1.3 3.8c-6.8-2.5-13.4-5.8-19.3-10s-11.2-9.4-15.4-15.2c-4.3-5.8-7.6-12.3-9.9-19.1-1.2-3.4-2.1-6.9-2.7-10.4-.6-3.4-1-6.9-1-10.5z"/><path class="st1" d="M1724.5 876.2c.8-8.7 1-17.3.8-26-.2-8.7-.8-17.4-1.8-26.2-2.1-17.5-5.9-35.2-12.2-52.4-6.3-17.2-15.2-34-27.5-48.6-12.1-14.7-27.7-26.9-44.6-35.3-17-8.5-35.1-13.5-53-16s-35.8-3.2-53.4-2.7c-35.2 1.2-69.4 7.2-102.6 15.1 33.4-7.4 67.6-12.9 102.8-13.6 17.6-.3 35.4.6 53.2 3.4 17.7 2.7 35.5 7.8 51.9 16.4 16.4 8.4 31.3 20.4 42.8 34.8 11.6 14.3 20.1 30.7 26 47.5 5.9 16.8 9.4 34.1 11.1 51.2.9 8.6 1.3 17.2 1.4 25.7 0 8.5-.3 17-1.2 25.2l6.3 1.5z"/><path class="st1" d="M1722.2 856.4c-3.7-1.5-6.9-1.7-10-1.5-3.1.1-5.6 1.8-8.3 2.8-2.8 1-5.5 2-8.2 3.2-2.7 1.2-5.4 2.3-8 3.6l.3.8c3.1 0 6.2-.3 9.2-.4 3.1-.2 6.1-.5 9.1-.8 3-.3 6.3 0 8.9-1.2 2.7-1.2 5.2-2.7 7.3-5.5l-.3-1zm2.6-10.8c-4.4-1.1-8.1-.8-11.8-.3-3.7.5-6.6 2.6-9.8 3.9-3.2 1.4-6.5 2.8-9.7 4.3-3.2 1.6-6.4 3-9.5 4.7l.4.8c3.7-.4 7.3-1.1 10.9-1.6 3.6-.6 7.2-1.3 10.7-2 3.5-.7 7.4-.8 10.5-2.4 3.2-1.6 6.2-3.4 8.6-6.6l-.3-.8zm-2-11.3c-4.6-.6-8.5 0-12.2.9-3.8.9-6.7 3.3-9.9 5-3.3 1.7-6.5 3.5-9.7 5.4-3.2 1.9-6.4 3.7-9.5 5.7l.4.7c3.8-.8 7.4-1.8 11.2-2.8 3.7-1 7.4-2 11-3.1 3.6-1.1 7.6-1.5 10.8-3.5 3.2-1.9 6.2-4.1 8.5-7.6l-.6-.7zm-1.2-12.5c-4.6-.1-8.5 1-12.1 2.3-3.7 1.3-6.3 4.1-9.4 6.2-3.1 2.1-6.1 4.3-9.2 6.6-3 2.3-6 4.5-8.9 6.9l.5.7c3.7-1.3 7.2-2.7 10.9-4.1 3.6-1.4 7.1-2.9 10.6-4.5 3.5-1.5 7.4-2.4 10.4-4.8 3-2.3 5.7-4.9 7.7-8.7l-.5-.6zm-2.5-9.9c-4.8.2-8.7 1.5-12.4 3.1-3.8 1.6-6.4 4.6-9.6 6.9-3.2 2.4-6.3 4.8-9.3 7.3-3 2.6-6.1 5-9.1 7.6l.5.7c3.8-1.5 7.4-3.2 11.1-4.9 3.7-1.7 7.3-3.4 10.9-5.2 3.6-1.8 7.6-3 10.6-5.6 3-2.5 5.8-5.4 7.8-9.4l-.5-.5zm.2-12.3c-2.6.2-4.9.8-7.2 1.5-2.2.7-4.3 1.5-6.4 2.5-2 1-3.9 2.2-5.6 3.6-1.7 1.4-3.3 2.9-5.1 4.2-3.5 2.6-7 5.4-10.4 8.1-3.4 2.8-6.8 5.6-10.1 8.5l.5.7c4.1-1.8 8.1-3.8 12.2-5.7l12-6c2-1 4-1.9 6.1-2.9 2-1 3.9-2.1 5.6-3.5 1.7-1.4 3.3-2.9 4.8-4.6 1.5-1.7 2.9-3.5 4-5.6l-.4-.8zM1657 698.2c-3.3 1.7-6 3.9-8.5 6.3s-4.6 5-6.6 7.7c-1.9 2.7-3.5 5.7-4.6 8.9l-3.3 9.6c-1.2 3.2-2.3 6.4-3.3 9.6-1 3.3-1.9 6.5-2.8 9.8-1.7 6.6-3 13.3-3.9 20.2l1.2.5c2.8-6.1 5.5-12.1 8.6-17.9 1.5-2.9 3-5.8 4.6-8.7 1.5-2.9 3.1-5.7 4.8-8.5 1.6-2.8 3.5-5.5 5.3-8.2 1.8-2.7 3.4-5.5 4.6-8.6 2.4-6.1 4.4-12.5 5-20l-1.1-.7zm12 10c-3.3 1.3-6.1 3.4-8.6 5.6-2.4 2.3-4.6 4.7-6.5 7.3-1.9 2.6-3.4 5.5-4.5 8.6-1.1 3.1-2 6.2-3.2 9.2l-3.3 9.1-3 9.2c-1.9 6.2-3.7 12.4-5.2 18.7l1.2.6c3.4-5.4 6.5-10.9 9.8-16.3l9.6-16.3c1.6-2.7 3.4-5.3 5.2-7.8 1.8-2.6 3.2-5.3 4.4-8.2 1.2-2.9 2.2-5.9 3-9 .8-3.2 1.6-6.3 2-10l-.9-.7zm11.6 14.5c-6.1 2.5-10.6 6.4-14.7 10.7-2 2.1-3.7 4.6-5.1 7.2-1.4 2.6-2.7 5.3-4.1 7.8-2.9 5.1-5.6 10.3-8.1 15.7-2.4 5.4-4.8 10.7-6.9 16.3l.9.6c3.6-4.6 6.9-9.3 10.5-13.9 1.7-2.3 3.5-4.6 5.3-6.8 1.7-2.3 3.5-4.5 5.3-6.8 1.8-2.2 3.8-4.4 5.7-6.5 1.9-2.1 3.6-4.4 5.1-6.9 2.9-5 5.4-10.2 6.9-16.6l-.8-.8zm-35.7-33c-3.1 1.9-5.4 4.3-7.7 6.8-2.2 2.5-4.1 5.2-5.7 8-1.7 2.8-3 5.8-4 9s-1.9 6.4-3 9.5l-3.1 9.4-2.8 9.5c-1.7 6.4-3.4 12.8-4.9 19.2l1 .4c1.5-2.9 3-5.8 4.4-8.7l4.4-8.7 8.7-17.3c1.5-2.9 3.1-5.6 4.7-8.4 1.6-2.8 2.9-5.7 4-8.7 2.1-6.1 3.9-12.4 4.8-19.4l-.8-.6zm-12.5-5.4c-3 1.8-5.3 4.2-7.4 6.7a53.2 53.2 0 0 0-5.5 7.9c-1.6 2.8-2.9 5.7-3.8 8.8-1 3.1-1.8 6.2-2.8 9.3l-2.9 9.2-2.6 9.3c-1.6 6.3-3.3 12.5-4.7 18.8l1 .4c1.5-2.8 2.9-5.6 4.3-8.5l4.3-8.5 8.4-16.9c1.4-2.8 3-5.5 4.6-8.2 1.5-2.7 2.8-5.6 3.9-8.6 2-6 3.6-12.2 4.3-19.1l-1.1-.6zm-12.5-5.4c-3 1.8-5.2 4.2-7.2 6.6-2 2.4-3.8 5-5.3 7.7-1.6 2.7-2.8 5.6-3.7 8.6-.9 3-1.7 6.1-2.6 9.1l-2.8 9-2.5 9.1c-1.5 6.1-3.2 12.2-4.5 18.4l1 .4c2.9-5.5 5.5-11 8.4-16.5l8.2-16.6c1.4-2.7 2.9-5.4 4.4-8.1 1.5-2.7 2.7-5.5 3.7-8.4 1.9-5.9 3.3-12 3.9-18.7l-1-.6zm70.2 55.3c-3 1-5.6 2.6-8 4.2-2.4 1.7-4.5 3.5-6.5 5.5s-3.7 4.2-5.1 6.7c-1.4 2.4-2.7 4.9-4.2 7.3l-4.3 7.2-4.1 7.3c-2.6 5-5.2 9.9-7.6 15l.9.6c1.9-2 3.8-4.1 5.6-6.2l5.6-6.2 11-12.5c1.8-2.1 3.8-4 5.8-6 1.9-2 3.6-4.1 5.1-6.5 2.9-4.7 5.4-9.7 6.7-15.8l-.9-.6zm8.2 14.1c-3.1.5-5.6 1.6-8.1 2.8-2.4 1.2-4.7 2.7-6.8 4.3-2.1 1.6-3.9 3.5-5.5 5.5-1.6 2.1-3 4.3-4.7 6.3l-4.8 6.1-4.6 6.3c-3 4.3-5.9 8.6-8.6 13l.8.7c4-3.3 7.9-6.8 11.9-10.1l11.7-10.2c1.9-1.7 4-3.2 6.1-4.8 2-1.6 3.9-3.4 5.5-5.4 3.2-4.1 6-8.4 7.8-13.9l-.7-.6zm7.6 11.3c-3.1.4-5.8 1.3-8.3 2.3-2.5 1.1-4.9 2.4-7.1 3.8-2.2 1.5-4.2 3.2-5.9 5.2-1.7 2-3.3 4-5.1 5.9l-5.2 5.8-5 6c-3.3 4-6.5 8.1-9.5 12.3l.8.7c4.3-3 8.4-6.2 12.6-9.3l12.4-9.3c2.1-1.6 4.3-3 6.4-4.4 2.2-1.4 4.1-3.1 5.8-5 3.4-3.8 6.6-7.9 8.8-13.3l-.7-.7zm6.8 28.8c-5.4.1-9.6 1.7-13.6 3.5-2 1-3.7 2.2-5.2 3.7s-3 3.1-4.6 4.5l-4.8 4.2-4.7 4.4c-3.1 3-6.2 5.9-9.2 9l.7.8c4-1.8 8-3.7 11.9-5.6l5.8-3 5.7-3.1c1.9-1 3.9-1.9 5.9-2.9 2-1 3.7-2.2 5.3-3.6 3.1-3 5.8-6.4 7.5-11.1l-.7-.8zm-4.3-14.4c-5.5.8-9.9 2.9-13.8 5.4-2 1.2-3.7 2.8-5.2 4.5-1.5 1.7-3 3.5-4.6 5.2l-4.8 4.9-4.7 5c-3.1 3.4-6.3 6.8-9.4 10.2l.7.8c4.2-2.2 8.3-4.6 12.3-7l6-3.7 5.8-3.9c1.9-1.3 4-2.5 6-3.7 2-1.2 3.8-2.7 5.3-4.4 3-3.5 5.8-7.4 7.2-12.5l-.8-.8zm-247-95.7c-1.5.3-2.7.9-3.8 1.6-1.1.6-2.1 1.4-3.1 2.2-1.9 1.6-2.8 4-4.1 6-1.3 2-2.6 4.1-3.9 6.2-1.2 2.2-2.5 4.2-3.6 6.4l.5.4c1.9-1.5 3.8-3.2 5.6-4.8 1.8-1.6 3.6-3.3 5.4-5 1.8-1.7 4-3 5.1-5.2.6-1.1 1.2-2.2 1.6-3.4.4-1.2.7-2.5.8-4.1l-.5-.3zm-13.9 2.6c-1.5.4-2.8 1.1-3.8 1.9-1.1.8-1.5 2.2-2.2 3.3-.7 1.1-1.4 2.3-2.1 3.4-.6 1.2-1.4 2.3-2 3.6l.3.3 3.3-2.4c1.1-.8 2.1-1.7 3.1-2.6 1-.9 2.3-1.6 2.9-2.8.3-.6.6-1.3.8-2 .2-.7.3-1.5.1-2.5l-.4-.2zm24.1-4.7c-1.6.8-2.9 1.9-4.1 2.9-1.2 1.1-2.3 2.3-3.2 3.5-2 2.4-2.9 5.6-4.3 8.4-1.4 2.8-2.7 5.7-4 8.6-1.3 2.9-2.6 5.8-3.8 8.8l.5.4c2.1-2.4 4-4.9 6-7.3l5.7-7.5c1.9-2.5 4.2-4.7 5.4-7.7.6-1.4 1.2-3 1.6-4.6.4-1.6.8-3.2.8-5.1l-.6-.4zm12.7-1.7c-1.9.8-3.4 1.8-4.9 3-1.5 1.1-2.8 2.4-4 3.8-2.5 2.7-3.8 6.2-5.3 9.6-1.5 3.4-2.7 6.8-3.7 10.3-1 3.5-2.1 7-2.9 10.6l.6.3c1.7-3.1 3.4-6.3 5.2-9.4 1.7-3.1 3.5-6.2 5.3-9.1 1.8-2.9 4.4-5.3 6.1-8.4 1.7-3.1 3.2-6.3 4.1-10.2l-.5-.5zm122 .8c-2.3 1.9-4.1 4.1-5.8 6.4-1.7 2.3-3.2 4.6-4.5 7.1-1.3 2.5-2.4 5.1-3.2 7.8-.8 2.7-1.6 5.5-2.4 8.2l-2.5 8.1-2.3 8.2c-1.4 5.5-2.7 11.1-3.8 16.7l.8.3c2.4-5.1 4.5-10.2 7-15.2l7.1-15.1c1.2-2.5 2.5-4.9 3.9-7.4 1.3-2.4 2.4-5 3.3-7.7.9-2.7 1.6-5.4 2.2-8.2.6-2.8 1.1-5.7 1.2-8.8l-1-.4zm-10.3-2.1c-2.5 1.7-4.5 3.8-6.3 6-1.8 2.2-3.3 4.6-4.7 7-1.4 2.5-2.5 5.1-3.3 7.8-.8 2.7-1.5 5.5-2.4 8.2-1.7 5.4-3.2 10.8-4.6 16.3-1.3 5.5-2.7 11-3.8 16.6l.8.3 13.8-30.3c1.2-2.5 2.5-4.9 3.8-7.3 1.3-2.4 2.4-5 3.3-7.6.9-2.6 1.7-5.3 2.3-8 .7-2.7 1.3-5.5 1.7-8.5l-.6-.5zm-14.7-2c-2.3 1.9-4 4.3-5.5 6.7-1.5 2.4-2.7 4.9-3.8 7.5-2.2 5.2-2.7 11-3.7 16.6l-1.5 8.4-1.2 8.4c-.7 5.7-1.4 11.3-1.9 17l.8.3c1.8-5.3 3.4-10.6 5.2-15.9l5.1-15.8c.9-2.6 1.9-5.2 2.9-7.7 1-2.6 1.8-5.2 2.3-7.9 1.1-5.5 1.9-11 2-17l-.7-.6zm-13.1-.5c-2.3 1.9-3.8 4.2-5.3 6.6-1.4 2.4-2.6 4.8-3.6 7.4-1 2.5-1.7 5.2-2.2 8-.5 2.8-.8 5.5-1.3 8.3l-1.4 8.2-1.2 8.2c-.7 5.5-1.4 11-1.8 16.6l.8.3c1.8-5.1 3.3-10.4 5.1-15.5l4.9-15.5c.8-2.6 1.8-5.1 2.8-7.6.9-2.5 1.7-5.1 2.2-7.8 1-5.4 1.6-10.8 1.7-16.7l-.7-.5zm-12.8-.2c-2 1.9-3.5 4-4.8 6.2-1.3 2.2-2.5 4.5-3.4 6.8-1 2.4-1.6 4.8-2.1 7.4-.4 2.6-.8 5.2-1.2 7.7-.5 2.5-.9 5.1-1.3 7.7-.3 2.6-.7 5.1-1 7.7-.5 5.2-1 10.4-1.2 15.6l.8.2c1.5-4.9 2.8-9.8 4.5-14.5 1.5-4.8 3.1-9.6 4.7-14.4 1.6-4.8 4-9.2 4.8-14.2.5-2.5.9-5 1-7.7.2-2.6.3-5.3 0-8.2l-.8-.3zm-11-.4c-2.2 1.6-4.1 3.5-5.7 5.5-1.6 2-3 4.3-4.2 6.6-1.2 2.3-2.1 4.8-2.7 7.4-.6 2.6-1 5.2-1.6 7.8-1.1 5.1-2 10.3-2.7 15.6-.6 5.3-1.1 10.5-1.4 15.9l.8.2c.8-2.5 1.5-4.9 2.2-7.4.8-2.4 1.5-4.9 2.4-7.3.8-2.4 1.6-4.9 2.5-7.2.8-2.4 1.7-4.8 2.5-7.2.9-2.4 2-4.6 3-6.9 1.1-2.3 1.9-4.6 2.6-7 .7-2.4 1.3-4.9 1.8-7.5.5-2.6 1-5.1 1.1-8l-.6-.5zm-11.8.4c-4.8 2.5-8 6.7-10.4 11-2.5 4.3-3.1 9.5-4.4 14.2-1.3 4.8-2.4 9.6-3.6 14.4-1 4.9-2.2 9.7-3.2 14.6l.8.4c2.2-4.3 4.2-8.8 6.3-13.2l3-6.6 2.9-6.7c1-2.2 2.1-4.4 3.2-6.5 1.1-2.1 2-4.3 2.7-6.6.7-2.3 1.3-4.6 1.9-7 .6-2.4 1.2-4.7 1.6-7.4l-.8-.6zm-14.8.3c-2.1 1.4-3.7 3.1-5.2 4.9-1.5 1.8-2.8 3.7-3.9 5.7s-2 4.1-2.6 6.4c-.6 2.3-1.1 4.5-1.8 6.8-.7 2.2-1.3 4.5-1.9 6.7-.5 2.3-1.1 4.5-1.6 6.8-.9 4.6-1.8 9.2-2.5 13.9l.8.3c1.9-4.2 3.6-8.4 5.6-12.5 1.9-4.1 3.8-8.2 5.8-12.3 1.9-4.1 4.7-7.7 5.9-12.2.7-2.2 1.2-4.4 1.6-6.8.4-2.3.7-4.7.6-7.4l-.8-.3zm-12.4 2.9c-2.2.9-4 2.3-5.6 3.8-1.6 1.5-3 3.2-4.1 5-1.2 1.8-2 3.8-2.6 5.9l-1.7 6.3c-1.2 4.1-2.2 8.3-3 12.6-.8 4.3-1.6 8.5-2.1 12.8l.8.3 5.2-11.4c.9-1.9 1.7-3.8 2.6-5.7.9-1.9 1.7-3.8 2.7-5.6.9-1.9 2-3.6 3-5.4 1-1.8 1.9-3.6 2.6-5.5.7-2 1.3-3.9 1.7-6 .5-2.1 1-4.2 1.2-6.6l-.7-.5zm-11.4.3c-3.7 1.7-6.7 4.7-8.9 8-2.3 3.3-3.1 7.3-4.3 11-.6 1.9-1.1 3.8-1.7 5.7l-1.4 5.8c-.8 3.9-1.6 7.7-2.2 11.7l.6.2c.8-1.8 1.5-3.5 2.3-5.3l2.3-5.3c1.6-3.5 3.1-7 4.7-10.4 1.6-3.4 3.9-6.5 5.2-10 .7-1.7 1.4-3.5 2-5.3.6-1.8 1.4-3.5 1.8-5.7l-.4-.4z"/><path class="st5" d="M277.1 1044c4-7.2 8.1-13.8 13.3-20.1 2.5-3 4.4-6.1 7.8-8.1 2.6 3.2 4.6 8.1 6.4 12-.8-4.8-1.6-11-.4-15.9 5.1-1.7 10.5-7.7 15.3-10.6 6.4-3.9 13.8-10 21-11.9-.7 6.3 1.2 14.1 2.6 20.1.5-7.9 3.5-15.7 5.2-23.4 1.4-6 2.3-6.1 7.4-9.9 5.3-4 10-8 15.9-11 5.2-2.6 11.3-4.7 15.5-8.8-1.1 5.6-.2 11.6-.8 17.3 6.6-7.1 7.4-19.1 10.3-28.1 3.8.4 7.7-2.5 11.7-2.9 5.7-.6 11.4-2.1 16.8-3.7 3.8-1.2 8.1-2.5 11.3-5-.5 5.1-2.1 11.3-3.5 14.7 3-3.2 5.5-3.8 8.3-7.2 2.6-3.2 3.1-6.4 4.9-9.5 5.5 2.1 22.1-8.6 28.1-11.6 3.8-1.9 8.2-4.5 11-7.6-3.2 10.7-6.5 21.2-11.6 31.9s-14.7 19.7-22.6 28.5c-3.2 3.6-6.6 8.3-11.1 10.4-1.2-2.3-2.6-6.4-1.1-8.7-2.3 3.5-3.8 8-4.2 12.1-4.2 2.7-8.6 6.8-12.3 10.1-8 7.2-15.9 13-22.5 21.6-.7-1.2-2.4-3.5-2-5.2-.7 3.1-1.4 7.9-2 9.9-3.2 11.5-14.3 18.3-22.3 27.1-2.4 2.7-9.8 10.3-12.1 10.6-1.3-3.6-5.3-7-6-10.6.2 4.7.1 8.1.7 12.6.6 3.9-10.9 9.6-14.7 12.1-6.5 4.3-14.8 7.7-22.2 10.1-6.6 2.1-13.8 2.4-20.6 3.7-2.5.5-4.9 1.3-7.5.8 0 0-23.7-8.6-15.7-19.2 5.2-6.9 3.4-4.5-2.5-7.8-4.5-2.3.1-11.4 4.2-18.8z"/><path class="st6" d="M438.8 955.7c-24.2 7.3-46.8 25-66.3 41-20.2 16.5-36.1 39.9-59.1 52.4-10.1 5.5-21 7.9-31.7 11.5-5.5 1.9-13 7.8-3.5 11 8.6 2.9 24-7.4 31.1-11.4 13.2-7.4 25.9-16.6 36.3-27.7 13.7-14.7 28.1-28.9 43.3-42.3 13.6-12.1 31.2-29 49.9-34.5z"/><path class="st8" d="M485.3 912.9c-1.7 7-3.5 13.9-6 20.7-1.2 3.4-2.5 6.7-4 10-1.4 3.3-3.3 6.5-5.3 9.5-4.2 5.9-9.2 11.2-14.2 16.3-2.5 2.6-5 5.1-7.4 7.7-1.2 1.3-2.5 2.6-3.9 3.8-1.4 1.2-2.9 2.2-4.5 2.9 3.1-1.8 5.5-4.5 7.7-7.3s4.6-5.5 7-8.2c4.8-5.3 9.6-10.5 13.7-16.3 2-2.9 3.8-5.9 5.2-9.1 1.5-3.2 2.9-6.5 4.2-9.8 2.8-6.7 5.1-13.4 7.5-20.2z"/><path class="st3" d="M278.8 832.2c-.2 1.9-.2 4-.1 6.1.1 2 .3 4.1.6 6.1.7 4 1.8 8 3.7 11.7.9 1.8 2.1 3.5 3.4 5.1.6.8 1.4 1.5 2.1 2.3.8.7 1.5 1.4 2.4 2 .8.6 1.7 1.1 2.6 1.7.9.5 1.8 1 2.8 1.3 1.9.8 4 1.3 6 1.7-2.1-.3-4.2-.7-6.1-1.4-1-.3-2-.8-3-1.2-.9-.5-1.9-.9-2.8-1.6-.9-.5-1.7-1.2-2.6-1.9-.8-.7-1.6-1.4-2.3-2.2-1.5-1.6-2.8-3.3-3.9-5.1-2.2-3.7-3.7-7.8-4.6-12-.5-2.1-.8-4.2-1-6.4-.2-2.2-.3-4.3-.3-6.5l3.1.3z"/><path class="st6" d="M290.6 881.6c2.8-.2 5.7-.4 8.6-.3 2.9.1 5.8.4 8.6 1.2 2.8.8 5.7 2.2 7.7 4.7 1 1.2 1.7 2.6 2.2 4.1.5 1.5.8 3 .9 4.5.3 3 .2 5.9.1 8.8l-.6 8.5c-.4 5.7-.5 11.3-.2 16.9.2 2.8.6 5.5 1.2 8.3.6 2.7 1.4 5.4 2.3 8.1 1.9 5.3 4.3 10.4 7.1 15.4 2.8 4.9 5.9 9.7 9.3 14.2 3.4 4.5 7 9 11 13.1-4.2-3.8-8.1-8-11.8-12.4-3.7-4.4-7-9.1-10-14s-5.6-10.1-7.7-15.5c-1-2.7-1.9-5.5-2.6-8.3-.7-2.8-1.1-5.7-1.4-8.6-.6-5.8-.4-11.6-.1-17.3l.7-8.5c.2-2.8.4-5.6.2-8.3-.2-2.7-.8-5.3-2.3-7.4-1.5-2.1-3.9-3.5-6.4-4.4-5.3-2-11.1-2.4-16.8-2.8z"/><path class="st7" d="M300.6 844.3c11.1 5.6 21.8 11.9 32.3 18.6 10.5 6.7 20.7 13.8 30.5 21.4 9.8 7.7 19.2 15.8 28 24.6 4.4 4.4 8.6 9 12.7 13.7 4 4.7 7.8 9.7 11.4 14.7l-.2.2c-4.1-4.7-8.1-9.4-12.4-13.9l-3.2-3.3-1.6-1.7-1.7-1.6-3.3-3.2-3.4-3.2c-4.6-4.2-9.1-8.4-13.8-12.3-4.7-4-9.4-7.9-14.3-11.7-4.8-3.8-9.8-7.5-14.8-11.1-5-3.7-10.1-7.1-15.1-10.7-10.2-7-20.6-13.7-31.1-20.3v-.2z"/><path class="st3" d="M373.9 919.1c0-1-.4-1.9-1.1-2.7-.7-.7-1.7-1.1-2.7-1.1-2.1.1-3.7 1.6-3.8 3.8v1c-.1 2 1.8 3.9 3.8 3.8 2-.1 3.9-1.7 3.8-3.8v-1zM353.1 905c-2.7 0-2.7 4.1 0 4.1s2.7-4.1 0-4.1zm15.1 31.7c0-.5-.2-.9-.6-1.3-.6-.6-1.7-.4-2.2.2-.2.3-.3.6-.3 1-.2.2-.3.5-.2.8.3.8 1.2 1.3 2 1 .1 0 .1-.1.1-.1.4 0 .8-.1 1-.4.3-.4.3-.8.2-1.2zm898.8-36.2c-.8 0-1.5.9-1.4 1.7.1.9.8 1.4 1.7 1.4.8 0 1.5-.9 1.4-1.7-.1-.9-.9-1.4-1.7-1.4zm5.9 19.1c0-.4-.2-.7-.4-1-.2-.8-1-1.4-1.9-1.1-.4 0-.8.1-1.1.3-1 .5-1.5 1.5-1 2.5v.1c.1.6.6 1.1 1.2 1.2.4.2.8.3 1.3.3 1.3-.2 2.1-1.1 1.9-2.3zm-73.2-45.8c-1.1-.1-1.3 1.6-.3 1.6.6 0 1 .5 1 1.1 0 .7-.6 1.1-1.3 1.1-.8-.1-1.5-.7-1.6-1.5-.1-.9.4-1.8 1.1-2.4v-.1c-1.1.5-1.9 1.7-1.7 2.9.1 1.3 1.3 2.1 2.5 2.2 1.3.1 2.5-.8 2.6-2.2 0-1.2-1-2.5-2.3-2.7zm38.6 79.7c-.1-.2-.1-.3-.2-.5.1-.2 0-.5 0-.7-.1-.1-.1-.2-.2-.3-.4-.6-1.2-.7-1.8-.6-.7.2-1.2.9-1.3 1.6v.5l.1.4v-.2c0 .4.1.7.2 1.1.2.9 1.5 1.4 2.3 1.1.7-.5 1.2-1.5.9-2.4zm20.9-8.5c-.5-.6-1.6-.1-1.5.7.1.8.9.9 1.4.6.1 0 .1-.1.2-.1.6-.2.4-1-.1-1.2zm-759.1 3.7c-3.9 0-3.9 6 0 6s3.9-6 0-6z"/><path class="st1" d="M523.4 926.5c-2.5 0-2.5 3.8 0 3.8s2.5-3.8 0-3.8zm1001-129.8s10.9-31.6 62.6-64.1c0 0-7.7-2.6-15.4-.8 0 0 17.3-18 41.5-20.4 0 0-7-9.9-17-9.5 0 0 30.5-18.2 58.8-5.9 0 0-6.4-11.6-25.8-14.4 0 0 106.2-29.3 181.4 84.3l18.3 39s.5 11.2-5.7 1.4c-5-7.8-7.4-30.1-18.7-45 0 0 6 16.5 7.1 31.1.5 5.8-.7 11.6-3.4 16.8 0 0-18.1-3.4-36.5-2.3-13 .8-11.7-4.1-10.8-8.9.8-4.8 2.5-16.3-8.1-35 0 0 8.6 31.7-3.7 42.4 0 0-22.4-6.5-46.9-5.1 0 0-7.3 1.3-6.5-14.1.8-15.4-6.4-31.9-8.5-34.4 0 0 4.2 25.3-3.9 39.5l-2.9 4.8s-22.5-17.2-52.1-22.1l-7.5-1.8s6.2-22.1 13.1-28.9c0 0-13.2 9-19.3 21.8-1.7 3.5-5.1 5.7-9 5.8-16.7.4-59.6 3.5-81.1 25.8z"/><path class="st3" d="M1760.6 510.8v385.4c-6.4-6.4-10-15-10-24v-15.6c0-5.1-1.1-10.1-3.2-14.8l-6.1-13.5c-1.7-3.9-2.6-8-2.6-12.2V624c0-7.2 1.3-14.3 3.7-21.1l4.7-12.9c1.6-4.4 2.5-9.1 2.5-13.9v-33.2c.1-11.6 3.9-22.9 11-32.1z"/><path class="st2" d="M1820.9 308.6v759.2c11.2-9.5 17.5-2.5 17.5-16v-1.9c0-7.6 1.9-15.1 5.6-22.1l10.7-20.3c3-5.8 4.6-12 4.6-18.3V478c0-10.8-2.2-21.4-6.6-31.5l-8.3-19.3c-2.9-6.6-4.3-13.7-4.3-20.8v-49.6c0-17.5-6.7-34.4-19.2-48.2zM77.8 195.6v672.2c9.9-8.4 15.5-2.2 15.5-14.1V852c0-6.7 1.7-13.4 4.9-19.5l9.5-17.9c2.7-5.1 4.1-10.6 4.1-16.2V345.5c0-9.5-2-19-5.8-27.9l-7.3-17.1c-2.5-5.9-3.8-12.1-3.8-18.4v-43.9c-.1-15.5-6-30.4-17.1-42.6z"/><path class="st2" d="M1480.4 1058s49.7-82.2 179.3-98.3c129.6-16.1 183.3 55.6 183.3 55.6l20.7 37.4s-29.9-8.1-67.1-10.5c-.9-.1-1.9-.1-2.8-.2l-5.7-22.5-1.8 16.6s-56.8-12.2-74-11.3c-17.2.9-6.6-13.6-6.6-13.6s-11.1 2.9-11.3 12.5l-44.2 9.2s-31.9-15.5-33.7-28.3c0 0 2.2 23.7 19.2 29.8 0 0-11.7 1-22.1 3.9-10.4 2.9-21.6 11-37.3 6.8 0 0-17.4-21.5-19.1-35 0 0-7.6 28.6.4 40.9.2.1-46.3-8.5-77.2 7z"/><path class="st1" d="M1482.3 1060.8s31-89.3 146.7-126.7 177.4 24.2 177.4 24.2l25.5 33.4s-28.8-2.9-63.2.9c-.9.1-1.7.2-2.6.3l-9.1-21.2 1.3 16.6s-54.1-2.5-69.6 1.2c-15.6 3.7-8.4-12.3-8.4-12.3s-9.6 4.7-8.1 14.2l-38.8 16.4s-31.9-9.9-35.8-22.2c0 0 6.2 23 22.8 26.2 0 0-10.5 2.9-19.5 7.6-9 4.6-17.8 14.4-32.9 12.9 0 0-19.7-18.3-23.6-31.2 0 0-1.9 29.4 7.6 40.2 0-.1-44.1-.9-69.7 19.5z"/><path class="st3" d="M1821.1 312.5l.2 119.3-.2 119.3h-.4l-.5-7.5-.4-7.5-.8-14.9-.6-14.9c-.2-5-.3-9.9-.4-14.9-.3-9.9-.4-19.9-.6-29.8l-.2-29.8.2-29.8c.2-9.9.3-19.9.6-29.8.2-9.9.6-19.9 1-29.8l.8-14.9.4-7.5.5-7.5h.4zm-22.8 96.3l.2 118.1v.2l-5.5 12.2c-1.8 4.1-3.5 8.2-4.9 12.4-2.8 8.5-4.6 17.3-5.3 26.1-.4 4.4-.4 8.9-.4 13.4v40.2h-.4l-.5-6.7-.4-6.7-.7-13.4c-.2-4.5-.4-8.9-.6-13.4-.2-4.4-.3-9-.1-13.6.4-9.2 2.1-18.3 4.9-27 .7-2.2 1.4-4.4 2.3-6.5.8-2.1 1.8-4.3 2.7-6.3l5.4-12.3-.3 1.5c-.1-9.8.1-19.7.1-29.5l.2-14.8c.1-4.9.1-9.8.3-14.8l.4-14.8.6-14.8.8-14.8.4-7.4.5-7.4h.3zM138.2 153.2l.2 118.1v-.2l4.5 10.2c1.5 3.4 3.1 6.8 4.3 10.3 2.6 7 4.5 14.3 5.7 21.7.6 3.7 1 7.4 1.2 11.2.2 3.7.2 7.5.2 11.2v22.4l-.1 89.5h-.4l-.6-22.4-.5-22.4c-.3-14.9-.7-29.8-.9-44.8l-.3-22.4c0-1.9 0-3.8-.1-5.6-.1-1.8-.2-3.6-.3-5.5-.3-3.6-.8-7.2-1.5-10.8-1.3-7.1-3.3-14.2-5.9-20.9-.7-1.7-1.3-3.4-2.1-5-.7-1.6-1.5-3.4-2.3-5.1l-4.6-10.2-.3-.7v-.8c-.1-9.8.1-19.7.1-29.5l.2-14.8c.1-4.9.1-9.8.3-14.8l.4-14.8.6-14.8.8-14.8.4-7.4.5-7.4h.5z"/><path class="st9" d="M1378.1 735.9c-1.4-.1-2.8-.2-4.2-.4l-4.2-.6c-2.8-.4-5.5-1-8.3-1.6l-6.7-1.5 6.8-2.1c2.8-.9 5.6-1.7 8.5-2.4 2.9-.7 5.7-1.4 8.6-2 2.9-.6 5.8-1.1 8.7-1.6 2.9-.4 5.8-.8 8.8-1.1 5.9-.5 11.8-.8 17.8-.2 3 .4 6 .8 8.9 2 1.4.6 2.9 1.3 4.1 2.3.6.5 1.2 1.1 1.6 1.8.4.7.7 1.4.8 2.2l-.3.1c-.2-.7-.6-1.3-1-1.9-.5-.5-1-1-1.6-1.4-1.2-.8-2.6-1.3-3.9-1.7-2.8-.8-5.7-1.1-8.6-1.2-5.8-.2-11.6.3-17.4.9-5.8.7-11.5 1.6-17.3 2.6-5.7 1.1-11.4 2.2-17.1 3.6v-.4c5.3 1.6 10.7 3.1 16.2 4.3l-.2.3zm51.8-2.9c-4.7 2-9.3 4.1-13.8 6.6-2.3 1.2-4.4 2.5-6.6 3.8-2.1 1.4-4.3 2.7-6.4 4.2-4.2 2.9-8.2 6-12 9.4-1.9 1.7-3.8 3.4-5.5 5.3-1.8 1.8-3.5 3.7-4.9 5.8l-5.1 6-.2-.3c3 0 6-.1 9-.3 3-.2 6-.5 9-.9v.3c-2.9.9-5.9 1.5-8.9 2-1.5.3-3 .5-4.5.6-1.5.2-3 .3-4.6.4l-3.9.2 2.5-3.3 2.4-3.2c.8-1.1 1.6-2.1 2.4-3.2l-.2.3.6-1 .6-.8c.4-.6.8-1.1 1.2-1.6.8-1 1.7-2 2.6-3 1.8-1.9 3.7-3.7 5.6-5.5 1.9-1.8 4-3.4 6-5 1-.8 2.1-1.5 3.1-2.3 1-.8 2.1-1.5 3.2-2.2 2.2-1.4 4.4-2.8 6.7-4l3.5-1.8c.6-.3 1.1-.6 1.7-.9l1.8-.8c4.7-2.2 9.6-3.8 14.6-5.2l.1.4z"/><path class="st7" d="M1442.1 723.2c-2.5-.7-4.9-1.4-7.4-1.9-2.5-.6-5-1.2-7.4-1.8-1.2-.2-2.5-.5-3.7-.8l-3.7-.7c-2.5-.5-5-1-7.5-1.3-5-.8-10-1.4-15-1.8l-3.8-.3-3.8-.2c-2.6-.3-5.1-.1-7.7-.3v-.2c5.1-.5 10.2-.9 15.3-.7h1.9l1.9.1 3.8.3c2.5.3 5.1.5 7.6 1 5.1.8 10.1 1.9 15 3.3s9.8 3 14.5 5v.3z"/><path class="st8" d="M1465.2 735.7c-.4-.9-1.1-1.6-2-1.7-.9-.2-1.9 0-2.8.3-1.8.6-3.5 1.6-5.1 2.6-3.3 2.1-6.2 4.6-9.2 7.2-5.9 5.1-11.3 10.6-16.5 16.4-5.2 5.8-10.1 11.8-14.7 18-2.3 3.1-4.5 6.3-6.7 9.6l-1.6 2.4-1.5 2.5c-.9 1.7-2 3.4-2.6 5.1l-.3-.1c.4-2 1.3-3.8 2-5.6.8-1.8 1.7-3.5 2.6-5.3 1.9-3.4 3.9-6.8 6.1-10.1l1.6-2.5c.6-.8 1.1-1.6 1.7-2.4 1.1-1.6 2.3-3.2 3.5-4.7 1.2-1.6 2.4-3.1 3.7-4.6 1.2-1.5 2.5-3 3.8-4.5l2-2.2 2.1-2.1c1.4-1.4 2.7-2.8 4.2-4.2 1.4-1.3 2.9-2.7 4.4-4 1.5-1.3 3-2.6 4.6-3.8l2.4-1.8c.8-.6 1.6-1.2 2.4-1.7 1.6-1.1 3.3-2.2 5.1-3.2 1.8-.9 3.6-1.8 5.7-2.2 1-.2 2.1-.3 3.2 0s1.9 1.3 2.1 2.3l-.2.3z"/><path class="st6" d="M1527.1 751.7c-.5 5.8-1.5 11.5-2.4 17.1-.6 2.8-1.1 5.6-1.7 8.4l-1.9 8.4c-1.3 5.6-2.7 11.1-4.3 16.6-1.5 5.5-3.2 10.9-4.9 16.4l.2-.7c-.8 4.7-1.7 9.3-2.7 13.9l-1.5 6.9-1.7 6.9-.8 3.5-.9 3.4c-.6 2.3-1.2 4.6-1.9 6.9-1.4 4.6-2.8 9.1-4.5 13.6l-.6-.1c1.4-9.3 2.9-18.7 4.4-28l4.5-28c3.3-10.9 6.7-21.8 10.1-32.7l5-16.3 5.1-16.3.5.1z"/><path class="st1" d="M1539.4 1152.6s16.3-125 90-165.7c82.2-45.4 86.7-24.9 86.7-24.9l66.8 1.8c68.4 1.8 106.9 79.5 66.9 135-60.7 84.2-157.9 163-282.7 77.3l-27.7-23.5z"/><path class="st5" d="M1592.4 949.9c-8.8 4.8-17.3 10-25.7 15.6-8.3 5.6-16.4 11.5-24.2 17.8-7.8 6.3-15.3 13-22.3 20.1-7 7.2-13.4 14.9-19.2 23.1l-.2-.1c5.1-8.7 11.2-16.8 18-24.3 6.9-7.4 14.3-14.3 22.2-20.6 2-1.6 4-3.1 6-4.6 2-1.6 4-3 6.1-4.5 2.1-1.5 4.1-2.9 6.2-4.3 2.1-1.4 4.2-2.8 6.3-4.1 8.5-5.3 17.4-10.2 26.6-14.2l.2.1zm-38.6 173.9c0-1 .4-1.9 1.1-2.7.7-.7 1.7-1.1 2.7-1.1 2.1.1 3.7 1.6 3.8 3.8v1c.1 2-1.8 3.9-3.8 3.8-2-.1-3.9-1.7-3.8-3.8v-1z"/><path class="st3" d="M1559.5 1110.9c2.7 0 2.7 4.1 0 4.1-2.6.1-2.6-4.1 0-4.1zm-3.2 21.3c0-.5.2-.9.6-1.3.6-.6 1.7-.4 2.2.2.2.3.3.6.3 1 .2.2.3.5.2.8-.3.8-1.2 1.3-2 1-.1 0-.1-.1-.1-.1-.4 0-.8-.1-1-.4-.3-.3-.4-.8-.2-1.2z"/><path class="st7" d="M1561.4 939.3c-2.6.1-5.2.2-7.9.3-1.3 0-2.6.2-3.9.3l-3.9.4c-2.6.1-5.2.5-7.8.9-1.3.2-2.6.3-3.9.5l-3.8.7-3.8.7-3.8.8-3.8.8-3.8 1c-1.3.3-2.5.6-3.8 1l-3.7 1.1c-2.5.7-5 1.6-7.4 2.4-1.2.4-2.5.8-3.7 1.3l-3.7 1.3c-2.4 1-4.8 1.9-7.2 2.9-1.2.5-2.4 1-3.6 1.6-1.2.5-2.4 1.1-3.5 1.6-1.2.6-2.3 1.2-3.5 1.7-1.2.6-2.2 1.2-3.3 1.9-4.4 2.7-8.7 5.7-12.8 8.9-4.2 3.2-8 6.7-11.9 10.2l-.1-.1c7.1-7.7 15.2-14.6 24-20.3 2.2-1.5 4.5-2.7 6.9-3.9 1.2-.6 2.4-1.2 3.5-1.7 1.2-.6 2.4-1.1 3.6-1.6 2.4-1.1 4.8-2 7.3-3l3.7-1.4c1.2-.5 2.5-.9 3.7-1.3 19.9-6.7 41-10 62-9.1l-.1.1z"/><path class="st9" d="M1421 919.5c9.1-5.9 18.9-10.7 29.2-14.4 2.6-.9 5.1-1.8 7.8-2.6 2.6-.7 5.2-1.5 7.9-2.2 1.3-.3 2.7-.6 4-.9 1.3-.3 2.7-.6 4-.9 2.7-.5 5.4-1.1 8-1.5 2.7-.3 5.4-.8 8.1-1.1 2.7-.2 5.4-.5 8.1-.7l8.2-.3c2.7-.1 5.4 0 8.2 0 10.9.3 21.7 1.5 32.3 3.8v.3c-10.7-1.2-21.5-1.8-32.2-1.7-10.8.1-21.5 1-32.1 2.7-10.6 1.6-21.1 4.1-31.4 7.4-10.2 3.3-20.2 7.5-29.8 12.4l-.3-.3z"/><path class="st3" d="M1719.5 964.3c-19.9 10.2-39.4 21.4-58.3 33.3-9.4 6-18.7 12.3-27.6 19-4.4 3.4-8.8 6.8-13.1 10.4-4.2 3.6-8.3 7.4-12.1 11.4-3.8 4-7.4 8.2-10.5 12.8-3.1 4.5-5.7 9.4-7.5 14.5-3.7 10.3-3.6 21.6-1.3 32.3.6 2.7 1.3 5.4 2 8 .8 2.6 1.6 5.4 2.1 8.2.5 2.8.8 5.7.7 8.6-.1 2.9-.7 5.8-1.8 8.5s-2.6 5.2-4.2 7.5c-1.7 2.3-3.4 4.5-5.1 6.7-3.4 4.4-6.3 9.2-8.3 14.5.8-2.7 1.9-5.3 3.1-7.8 1.3-2.5 2.8-4.9 4.3-7.3 3.1-4.7 6.6-9.1 8.5-14.2 1.9-5.1 1.7-10.7.4-16-.6-2.7-1.5-5.2-2.4-8-.9-2.7-1.6-5.4-2.3-8.2-1.3-5.5-2.1-11.2-2-17 .1-5.7 1.1-11.5 3-17s4.6-10.6 7.9-15.3c3.2-4.7 6.9-9.1 10.9-13.1 8-8.1 16.7-15.2 25.8-21.8 9.1-6.6 18.5-12.8 28.1-18.6 4.8-2.9 9.6-5.8 14.5-8.6s9.8-5.4 14.8-8.1c10.2-4.9 20.2-10 30.4-14.7z"/><path class="st3" d="M1594.7 1151.1c3-3.9 5-8.3 6.4-12.9 1.4-4.6 2.1-9.4 2.3-14.1.2-4.8-.1-9.6-.9-14.3-.2-1.2-.4-2.4-.6-3.5l-.7-3.6c-.4-2.5-.6-5-.7-7.5-.2-5 .3-10 1.2-14.9.9-4.9 2.1-9.7 3.7-14.4 1.6-4.7 3.5-9.3 5.8-13.7 1.2-2.2 2.5-4.4 4.2-6.4 1.6-1.8 3.3-3.6 5-5.4 6.7-7.2 13.6-14.1 21-20.6 7.3-6.5 15.1-12.5 23.2-18s16.6-10.4 25.4-14.7c4.4-2.2 8.8-4.2 13.3-6.1 4.5-1.9 9.1-3.6 13.7-5.2-9.1 3.5-18 7.5-26.6 12.1-8.6 4.5-16.9 9.7-24.8 15.3-15.9 11.2-30.1 24.6-43.1 39l-4.9 5.4c-1.4 1.7-2.6 3.8-3.7 5.9-2.2 4.2-3.9 8.7-5.4 13.3-3 9.1-4.8 18.7-4.7 28.2.1 2.4.2 4.7.6 7.1l.7 3.6c.2 1.2.4 2.4.6 3.7.3 2.5.5 4.9.6 7.4.1 2.5 0 5-.2 7.5-.4 5-1.5 9.9-3.4 14.5-.9 2.3-2 4.5-3.3 6.6-1.4 2-2.9 4-4.7 5.7zm-9.4-96c-2.4 6.8-5.4 13.3-7.1 20.1-.9 3.4-1.4 6.8-1.5 10.3-.1 1.7 0 3.5.1 5.2.1 1.7.3 3.5.6 5.2.3 1.7.6 3.4 1 5.2.4 1.7.8 3.4 1.3 5.1l1.6 5.1c.6 1.7 1 3.5 1.4 5.3.3 1.8.5 3.7.3 5.6-.1 1.9-.6 3.8-1.5 5.4-.9 1.7-2.1 3.1-3.1 4.5-1.1 1.4-2 2.9-2.2 4.8-.1-1.8.7-3.6 1.6-5.1.9-1.6 1.9-3 2.6-4.6 1.3-3.2 1.1-6.7.2-10-.4-1.7-.9-3.3-1.6-5-.6-1.6-1.3-3.4-1.9-5.1-.6-1.7-1.1-3.5-1.6-5.2-.5-1.8-.9-3.6-1.2-5.4-.7-3.6-.9-7.3-.7-11 .2-3.7.9-7.4 2-10.9s2.6-6.8 4.3-10c1.7-3.3 3.5-6.5 5.4-9.5z"/><path class="st3" d="M1539.2 1152.6c.2-2.6.5-5.1.8-7.7.3-2.6.7-5.1 1.2-7.6.8-5.1 1.8-10.2 2.8-15.2 2.2-10.1 4.9-20.1 8-30 6.2-19.7 14.5-38.9 25.4-56.7 5.5-8.8 11.7-17.3 18.8-25 7.1-7.7 15-14.7 23.9-20.3 4.4-2.8 9-5.3 13.6-7.6s9.2-4.6 13.9-6.8c4.7-2.1 9.4-4.2 14.2-6.2 2.4-1 4.8-1.9 7.2-2.8 2.4-.9 4.9-1.7 7.3-2.5l.1.3c-9.6 3.7-18.9 8-28.1 12.6-4.6 2.3-9.1 4.7-13.7 7.1-4.5 2.4-9 5-13.3 7.8-8.5 5.7-16.2 12.6-23.1 20.3-6.9 7.6-13 15.9-18.4 24.7-10.9 17.4-19.2 36.4-25.8 55.8-6.5 19.5-11.6 39.5-14.7 59.8h-.1z"/><path class="st5" d="M1550.2 1104.2c1.8-7.2 4-14.4 6.3-21.5 2.5-7.1 5.2-14 8.2-20.9 3-6.9 6.4-13.6 10.1-20.1 3.7-6.5 7.8-12.9 12.2-18.9 9.1-12 19.7-23 32.3-31.3 1.5-1.1 3.2-2 4.8-3 1.6-1 3.3-1.8 4.9-2.7 3.3-1.7 6.6-3.4 10-5.1 6.7-3.2 13.5-6.4 20.4-9.2l.1.2c-6.8 3.1-13.4 6.5-20 10s-13.2 6.9-19.3 11.2c-6.1 4.2-11.8 9.1-17.1 14.3-5.2 5.3-10.1 11-14.5 16.9-8.9 12-16.3 25-22.5 38.5-6.3 13.5-11.4 27.5-15.7 41.8l-.2-.2z"/><path class="st3" d="M1606.8 1020.6c2.7 0 2.7 4.1 0 4.1s-2.7-4.1 0-4.1zm-13.5 6.8c2.7 0 2.7 4.1 0 4.1-2.6 0-2.6-4.1 0-4.1zm36-23.9c6.4-4.5 12.9-8.8 19.6-12.9 6.7-4.1 13.4-8.1 20.3-11.8 6.9-3.7 13.9-7.2 21.1-10.4 7.2-3.1 14.6-5.9 22.2-8.1l.8 3.1c-7.5 1.9-14.8 4.4-22.1 7.2-7.2 2.9-14.3 6.2-21.3 9.6-7 3.5-13.8 7.2-20.6 11.1-6.7 3.9-13.4 7.9-20 12.2z"/><path class="st6" d="M1612.3 1032.5c-4.8 5.2-9.5 10.5-13.5 16.2-4 5.7-7.4 11.9-9.4 18.6-2.1 6.6-2.8 13.6-2.4 20.6.4 7 1.8 13.9 3.6 20.8-2.5-6.6-4.5-13.5-5.2-20.6-.1-1.8-.3-3.6-.3-5.4l.1-2.7c0-.9 0-1.8.2-2.7.2-1.8.3-3.6.8-5.3l.6-2.6c.2-.9.5-1.7.8-2.6 2.1-6.9 5.7-13.2 10.1-18.9 4.2-5.7 9.2-10.8 14.6-15.4z"/><path class="st2" d="M382.6 512.1s16.1-20.2 24.7-23.5c0 0 3.3-4 .6 8.7s-7.4 40-7.4 40-2.6-34.5-17.9-25.2z"/><path class="st6" d="M470.8 448.9c-1.4.1-2.5 1.1-2.7 2.4-.1.1-.1.3-.1.5.1 1.5 1.5 2.7 3 2.6 1.6 0 2.6-1.4 2.5-2.9 0-1.4-1.2-2.6-2.7-2.6zm-1.2 2.8c0-.1 0-.1 0 0 0-.1 0-.1 0 0 .1 0 .2.1.3.1 0 .1.2.2.3.1h.4c-.2.1-.2.4-.1.6.1.1.1.2.2.3-.6-.1-1.1-.5-1.1-1.1zm13.1-9c-.5 0-.4.8.1.8s.5-.8-.1-.8zm-1.3-.7c-.1-.1-.1-.2-.2-.3-.1-.4-.7-.5-.8 0-.1.1-.1.2-.2.3 0 .1-.1.2-.1.3-.1.9 1.4 1 1.3 0v-.3zm.7-1.4c-.6 0-.6 1 .1 1 .6 0 .5-1-.1-1zm-77.3-42.1c-.2-.1-.3-.1-.5 0-.2 0-.4.1-.6.2-.5.2-.2 1 .3.8 0 0 .1 0 .2-.1h.4c.2 0 .4-.2.4-.4v-.1c.1-.1 0-.4-.2-.4zm291.3 20c0-.6-.4-1.4-1.1-1.4-.4 0-.9-.1-1.3-.1-.9-.1-1.7.4-1.7 1.4 0 .5.2.9.5 1.1.2.7.8 1.4 1.8 1.4 1.1 0 1.6-.8 1.6-1.6.1-.3.2-.6.2-.8zm-12 20.2c-.5 0-.4.8.1.8s.4-.8-.1-.8zm5.3 1.1c-.8 0-.7 1.2.1 1.2.8 0 .7-1.2-.1-1.2zm-6-28.8c-.3-.2-.6-.3-.9-.1-.4 0-.8.1-1.1.4-.6.5-.8 1.4-.2 2.1.5.6 1.6.6 2.1 0 .3-.4.4-.8.5-1.2 0-.4-.1-.9-.4-1.2zm-286 27.1c-.4 0-.3.6.1.6.3 0 .3-.6-.1-.6zm13.4-30.3c-.2-.1-.3-.1-.5-.2-.3-.2-.7-.3-1.1-.2-1 .2-1.5 1.2-1.2 2.1.3 1 1.6 1.6 2.5 1.1.6-.3 1.1-.9 1-1.6 0-.5-.2-1-.7-1.2zm255.3 522.4c-2.8 0-2.8 4.4 0 4.4s2.8-4.4 0-4.4z"/><path class="st5" d="M633.6 930.9c-.3.1-.6.3-.8.4-.8.3-.8 1.5-.3 2s1.6.5 2-.3c.1-.3.3-.6.4-.8.4-.9-.4-1.7-1.3-1.3zm782.3 40.1c-.9.6-1.6 1.4-1.8 2.4-.3 1-.1 2.1.4 3 .5.8 1.4 1.6 2.4 1.8 1 .2 2.1.2 3-.4.9-.6 1.6-1.4 1.8-2.4.3-1 .1-2.1-.4-3-.5-.8-1.4-1.6-2.4-1.8-1-.2-2.1-.2-3 .4z"/><path class="st7" d="M1414.8 972.1c-.3 1 .4 2.2 1.4 2.4 1.1.2 2.1-.3 2.4-1.4.3-1-.4-2.2-1.4-2.4-1.1-.3-2.2.3-2.4 1.4z"/><path class="st5" d="M1429.7 967.2c-.3.1-.6.3-.8.4-.8.3-.8 1.5-.3 2s1.6.5 2-.3c.1-.3.3-.6.4-.8.4-.9-.4-1.7-1.3-1.3z"/><path class="st2" d="M-71.6 318.7s-.1 1.1-.2 3.1c16.7-18.9.2-3.1.2-3.1z"/><path class="st2" d="M237.7 800.4c9.8 9.4 28 20.9 26 10.8-1.9-10.1-23.3-33.2-23.3-33.2 13.8 4.8 69.1 29.5 62.3 19-6.9-10.5-71.3-29-71.3-29 16.3.7 36.4-9.5 36.4-9.5-9.3.6-25.9-4.4-25.9-4.4 15.9-2.8 22.3-10.7 22.3-10.7-5.4-3.3-15.9-4.9-15.9-4.9 9-5.6 23.3-15.6 23.3-15.6 15.7-17.7-4.3-8.2-13.5.9s-26 20.3-26 20.3l-4.8-10.3c11.9-13.8 49.9-18.2 44.8-24.3-5.1-6.1-48.8 13.3-48.8 13.3 18.2-12.5 50.7-30.1 50.7-30.1-9.4 2-45.8 7.3-45.8 7.3l22.7-15.6-33.5 9c-.2-1.9-.6-4-1.2-6.1 1.2-3.2 2.6-6.2 4.3-8.6 7.7-10.7 26.4-16.5 40.6-13.5-7.8-5.2-10.4-23.9-22.3-24.6 6.6-.6 17-18.6 21.1-26.8 7.9-15.8 10.7-35 12.7-52.5-14.3 21.2-24.2 38.1-50 46.1 4.5-4.5 8.4-11.9 11.2-18 5.7-12.3 17.7-31.3 16.6-45.1-5.8 15-14.3 35.1-27.1 45.1 2.7-6.1 6.5-12.8 7.8-19.3-4.7 2.1-11 3.3-15.1 5.9 1.5-5.2 4.3-9.8 7.4-14.1-10.7-4-21.2-6.7-33.4-7.2-14.9-.6-30 3.9-44.7 2.4-10.7-1.1-18.4-6.7-27.9-9.9-9.6-3.2-18.8-1.9-28.6-3.8.7-1.3.6-2.5 1.1-3.8-8.1-3.4-13.2-1.8-22-1.2 1-5.5 4.6-9.4 8.7-13 .8-.2 1.6-.3 2.3-.4 6.9-1 7.3-4.2 6.2-7.1.6-.6 1.2-1.3 1.7-1.9-1-.1-2-.3-3-.4-1-1.5-2.1-2.6-2.1-2.6s8.9.7 10.6 8.4l35 .8s21.6-17.3 20.8-28c0 0 2.3 19.5-9.6 27.1 0 0 9-.9 17.4-.1 8.4.8 18.2 5.7 29.4-.1 0 0 9.6-20 8.7-31.2 0 0 10.5 22 6.5 33.2 0 0 33.8-14 59.8-6.1 0 0-51.3-59.2-152.1-52.8-34.3 2.2-60.3 11.3-79.6 22.3 1.3-1.4 2.7-2.8 4.1-4.2 17.6-17.2 26.1-33.8 30.8-58.3-.2 13.2 2.9 29.1-2.2 41.9 5.6-6.6 17.9-10.3 25.3-14.7 11.1-6.6 23.9-15.2 33.3-24.2 5.1-4.9 5.2-7.3 5.8-14.2.5-6.1-1.5-15.1 1.7-20.4.9 3.9 3.8 6.7 5.4 10.3 2.3 5.1.3 11.1 6.9 7.4 5.3-2.9 9.4-8.8 14.1-12.6 5.2-4.2 10.7-7.6 15.9-11.7 10.6-8.4 21.8-23.2 27.9-35.3-5.7 3.7-13.2 2.7-17.7 5.1 6.1-6.1 15.5-7.8 21-14.7 5.5-7 7-16.3 10.1-24.7 1.7-4.7 1.9-9.6 3.4-14.4-15.9 12.3-34.6 19.1-54.8 18.9-2.7 0-9.2-.6-10.6-.1-3.5 4.3-6 10.4-10.2 14.8-5.6 5.8-13.1 11-19.5 16 3.8-3.9 6.4-9.9 8.8-14.9 2.2-4.7 2.8-10.4 4.1-12.7-3.5.4-12 0-17.5 1-8.5 1.5-17.5 1.9-25.9 3.7-.3.6-2.7 4.6-3.6 6.4-1.5 2.7-2.9 5.8-4.4 8.7-4.5 8.4-13.1 17.9-21 23.4 2-4.4 3.2-8 5-12.6 1.9-4.8 6.3-15.3 6.5-19.6 0-.7 0-1.9-.2-3-7 1.5-15 6.7-21.8 9.7-8.9 3.9-18.6 7.2-27.8 10.1-3.2 1.1-15.4 6.3-18.4 4.7-.3 8.2-2.1 19.4-3 28.7-.6-8.2-2.9-17.2-2.5-25.5-3.9 5.8-11.5 9.5-16.9 14-6.4 5.3-12.4 10.7-17.6 16.9-3.6 4.4-7.5 9-9.4 14.3-1.7 4.9-.5 10.3.1 15.3-1.4-4.1-4.1-5.1-6.4-8.2-.1.5-.3 1-.6 1.6-8 15.6-14.1 30.4-17.2 48.7-1.4 8 1.3 12.6 3.2 14.7l-2.1.8-4.7-21c-3.2-30.4 1.4-117.6 2.3-135l-.1.1c-16.9 19-20.7 110.6-20.7 110.6l-11.3-44.2c-5.6 26.5 7.1 91.4 7.1 91.4-1.7-5.6-17.7-9.1-17.7-9.1 7.9 2.9.8 35.9-4.4 56.6-.3.3-.7.6-1 .9l-.4 4.4c-1.8 6.7-3.1 11.2-3.1 11.2l2.2-.8-81.7 894s242.2-104.1 288.1-176.3c3.6-5.7-10.9 32.4 16.3 33.5-5.3 28.6 3.2-91 6.7-32l9.1-17s25.2 51.2 71.9 49.5c0 0 2.6-32.4-12.4-49.9 0 0 37.6 11.7 53.7-4.6 0 0-11.4-14.7-37-25.1 0 0 22.6-2.3 30.3-13.6 0 0-17.8-9.7-39.6-1.1-.2.1-.4.1-.6.2-2-6.3-8.6-26.6-14.6-36 0 0 22.7 4.1 41.7-11.6 0 0-36.2-12.4-46.1-13.1 0 0 45.8-19.3 58.4-38.4 0 0-8.8-1.8-21.2-2.9l-4.2-.3c-1.1-4.9-4-13.3-11.6-21.2 0 0 9.2-.8 28.3 1.9s25.4-8.6-.1-10.6c0 0-19.1-1.3-29.7 1.6 0 0 22.5-19.2 22.4-27.6 0 0-16.3-8.3-32.3 27l-22-9.7s18.3-16.3 22.8-27c.5-1.1 1.4-3.2 1.4-4 3.6 1 31.3 4.5 39.1-8.9.9-1.5.3-3.5-1.2-4.4-9.4-5.8-31.9-10.3-55.5-9.5 4-2.8 35.9-12 39-15.8 34.8-43.6-28 2.8-28 2.8s23.7-29.8 34.9-54.2c41.4-27.3 28.8-31.9 4.6-12.2 1.2-4.5 1.6-8.5.8-11.6-1.8-7-.1-14.9-.1-14.9 6.8-5 14 2.7 14 2.7.4-12.7-20-23-20-23 45.6-25.3 33.2-79 33.2-79zM-9.5 498.9c0-.1.1-.3.1-.4 0 .1.1.2.1.4h-.2zM139 1081.1l.4-3.6c.9.2 1.7.3 2.7.4.1 0-1.3 1.1-3.1 3.2zm27.8 12c.5-1.3 3-6.3 3-6.3s6.7 6.3 14.7 10.8c-6.9 0-14.3.5-21.4 1.6 1.6-2 2.9-4 3.7-6.1z"/><path class="st2" d="M-281.7 928.7s33.4-44.8 56-68.1 37.4-36 .6 5.8-56.6 62.3-56.6 62.3zm420.9 13.7s13.7 29.6 22.6 36.6c8.9 7 34.3 23.9 34.3 23.9s-39.7-69-56.9-60.5zm-259.8 66.4s7.4-41.4 33.8-92.1c24.9-48 47.9-79.3 47.9-79.3s31.6-31.3 25.4 8.3l-51.6 84.5-55.5 78.6zm-28.4-30.9s8.8-36.3 34.7-80.4c24.5-41.6 47.4-67.1 47.4-67.1s28.7-28 21.3 7l-50.1 73-53.3 67.5zm63.6 27.6s7-36.7 30.9-81.9c22.5-42.7 44.1-69.3 44.1-69.3s27.3-29.3 21.6 5.9l-46.6 75.3-50 70zm39.2-2.1s-4-20.9 19.8-66.1c22.5-42.7 41.6-69.8 41.6-69.8s27.3-29.3 21.6 5.9l-41.1 73.8-41.9 56.2zm50.8 11.5s-10.5-11.5 5.4-60.1C25 908.9 36.4 881 36.4 881s25-29 25.2 6.7l-30.1 76.7-26.9 50.5zm-185.9-48.8s11.7-31.8 37.7-75.9c24.5-41.6 47.4-67.1 47.4-67.1s31.2-30.9 19.3 4l-51.1 71.5-53.3 67.5zm-25.6-14.2s12.8-30 39.9-71.9c25.6-39.5 48.9-63.9 48.9-63.9s31.9-27.9 18.7 3.2l-52.8 68.1-54.7 64.5zm-19.4-14.1s14.8-22.5 39.9-60.1c23.7-35.6 44-59.1 44-59.1s29.1-23.8 15.9 1.1l-49.5 59.9-50.3 58.2zm-21.5-9.6s15.2-18.7 39.1-52.6c22.6-32 42.9-51.9 42.9-51.9s29.2-24.3 12.5-2.4l-46.9 54.2-47.6 52.7zm-26.1 6.9s15.5-18.5 40-51.9c23.2-31.6 42.3-50.1 42.3-50.1s29.6-23.8 12.6-2.2l-46.4 52.4-48.5 51.8z"/><path class="st2" d="M137.9 936.1c-16.2-15.1-33.4-29-51.2-42.2-17.8-13.2-36.2-25.4-55.2-36.5-19.1-11-38.8-20.9-59.3-28.8-20.4-7.8-41.6-13.7-63.1-16.1-21.4-2.4-43.2-1.1-63.4 5.3-10.1 3.2-19.7 7.6-28.7 13.1-4.4 2.7-9 5.8-12.6 8.9-4 3.5-7.9 7.2-11.7 11-15.1 15.3-28.5 32.4-38 51-4.7 9.3-8.4 19.1-10.4 29-2.1 9.9-2.5 19.9-.9 29.6.8 5.4-2.8 10.4-8.2 11.3-5.4.8-10.4-2.8-11.3-8.2v-.4c-1.5-12.3-.5-24.7 2.4-36.4s7.5-22.7 13.2-32.9c11.4-20.5 26.3-38.1 42.9-53.7 4.2-3.9 8.4-7.7 12.9-11.3 5-3.9 9.8-6.8 14.9-9.7 10.1-5.7 21-10.1 32.1-13.2 22.4-6.1 45.8-6.6 68.2-3.2 22.5 3.4 44.1 10.3 64.6 19.1 20.6 8.8 40.2 19.6 59 31.4C52.9 865 70.9 878 88.2 891.9c17.3 13.9 34 28.5 49.7 44.2z"/><path class="st2" d="M49.8 1006.7s-8.3-33.8-2.2-52.8c9.9-30.8 17.7-45.9 17.7-45.9s28.9-36.6 21.7 8-32 88-36.2 92.2l-1-1.5zm50.1 14.7S85 993.1 86.2 975c1.9-29.4 5.5-44.4 5.5-44.4s17.4-38.5 21 2.6c3.6 41.1-7.8 86.3-10.5 90.9l-2.3-2.7zm46.7 5.9s-21.4-21.4-25.4-39.1c-6.6-28.7-5.5-41.2-5.5-41.2s5.7-41.8 20.9-3.5c15.1 38.4 12.4 68.9 11.1 74l-1.1 9.8z"/><path class="st2" d="M134.7 924.4s35.6 14.3 59.5 45.8c0 0-33.4-25.5-47.4-30.9-14-5.4-20.8-16.5-12.1-14.9zm-23.8-17.8s8.2-.9 21.3 5.8c13.1 6.7 18.5 13.1 18.5 13.1s-15.2-6.8-35.8-14.4c0 0-8.2-3.5-4-4.5zm-18.8-20.3c2.3.2 25.1 6.1 45.9 22.5 0 0-26.4-7.8-35.6-8.7-8.4-1-20.6-14.6-10.3-13.8zM62.8 864c2.2.2 24 6.2 44.3 22.6 0 0-25.3-7.9-34-8.9-8-1-20.1-14.6-10.3-13.7zm-29.9-16.1c1.6-.1 19.1 2.7 40.4 14.1 0 0-20.7-4-27.1-4-5.7 0-20.3-9.9-13.3-10.1zM1.6 829.5c1.3.1 16.7 4.1 37.5 15.3 0 0-18.4-5.2-23.8-5.8-4.9-.6-19.5-10-13.7-9.5zm316.5 250.6s12.4-7.2 23.6 5.4c0 0 2.6 2.2 5.9 4.1 0 0-20.9 11.1-34.9 7.8l-45.6-16.4s20.6-56.9 9.2-5c0 0 25.1-45 20.5-18.2l-1.6 12.7s7.6-30 16.8-41.4c0 0 1.3 24.3-10.3 52.1 0 0 24.5-24.4 40-30.7 15.5-6.3 13.6 2.2.3 12.3s-23.9 17.3-23.9 17.3z"/><path class="st2" d="M-65.9 1345.1l34-1112s60-12 97 67 0 134 68 181 34 137 40 243l2 80s147 111 124 191c-36.4 126.8-14 79 47 101 39.7 14.3 40.4 22.3 36.1 26.1-2.7 2.4-6.8 2.5-9.8.5l-53.7-2.4-67.5 34.5s-387.6 200.8-44.1 154.3C264.3 1301.3 34 1457 1.2 1555l-67.1-209.9z"/><path class="st2" d="M363.7 667.7c-100.5-29.8-166.5 10.6-166.5 10.6l-42 22.8 12 103s22.6-18 50.8-37.9c-3.7-2.7-14.2-11.7-11.8-24.1 3-15 18-30 22-10 3.8 19-6.8 12.8-1.9 28.3 26.2-18.1 55.6-36.6 75.8-43.6 44.8-15.7 103.3-4.2 103.3-4.2-16.3-31.4-41.7-44.9-41.7-44.9z"/><path d="M1752.9 968c.1 0 .1 0 .2.1v-.5c-.1.2-.2.3-.2.4z" fill="none"/><path class="st2" d="M1937.5 1107.3l.8-4.8c-.3-.5-.7-1-1-1.5 0-28.7 1.8-74 13.1-75.2 0 0-22-.7-26.1 6 0 0 38.2-80.3 39.7-116.8l-29.4 53.9s25.6-120.5 9.9-151c0-.1-.1-.1-.1-.2-4.6 23.1-27.8 138.2-42 176.7l-13.1 25.7-2.5-1.8c3.2-2.1 8.1-7.3 9-18.1 2-24.8-1-46.2-6.2-69.2-.2-.8-.3-1.5-.2-2.2-3.9 3.2-7.8 3.6-11 8.5 2.4-6.3 5.8-12.9 5.2-19.9-.6-7.6-4.2-14.9-7.4-21.8-4.7-9.9-10.7-18.9-17.3-27.9-5.5-7.6-14.2-14.9-17.3-23.8-2.2 11-8.2 21.9-11.7 32.4 2-12.4 3.3-27.6 5.7-38.4-4.6 1.2-18.6-9.8-22.5-12.2-10.9-6.9-22.6-14.5-32.8-22.5-7.9-6.1-16.7-15.6-25.2-19.9-.6 1.4-1.1 2.8-1.3 3.8-1.2 5.7 1 20.8 1.9 27.7.9 6.7 1.2 11.7 2.4 18.1-8.5-9.7-16.5-24.9-19.5-37.4-1.1-4.3-1.8-8.7-2.9-12.8-.7-2.6-2.3-8.6-2.6-9.5-10.4-5.2-22-8.7-32.5-13.5-6.7-3.1-17.9-5.4-22.4-7.2 1 3.5-.2 11.1 1.1 18 1.4 7.2 2.9 15.9 6.5 22.3-6.7-8.7-14.7-17.9-20-27.3-4-7.2-5.2-15.9-8.3-22.7-1.7-1.1-10.4-2.6-13.9-3.4-26.4-6.4-48.6-21.5-65.1-42.8.4 6.7-1 13.1-.3 19.9 1.2 12 0 24.6 4.9 35.5 4.8 10.9 16.5 16.3 22.5 26.2-5.1-4.6-15.2-5.8-21.3-12.6 3.9 17.7 13.5 40.7 24.6 55.3 5.4 7.1 11.5 13.4 16.8 20.5 4.9 6.5 8.3 15.5 14.2 21.1 7.3 6.9 6.7-1.5 11.4-7.4 3.3-4.1 8-6.8 10.4-11.6 2.3 7.9-3.3 19.1-4.6 27.1-1.5 9.2-2.1 12.3 2.8 20.4 9.2 14.9 23 30.4 35.3 42.7 8.2 8.2 23 17.1 28.1 27.6-2.4-18.5 7-38.1 11.1-55.4-2.1 33.5 3.4 58 20.6 86.3 1.4 2.3 2.7 4.6 4 6.8l154.1 102.1 24.4 6.2zm-133.6-79.6c.1-.1.2-.3.2-.4v.5c-.1 0-.1 0-.2-.1zm-133.1-110l41.2 27.2c-11.1-9.6-24.6-19-41.2-27.2z"/><path class="st2" d="M1511.7 923.1c32-3.2 67.9 20.9 67.9 20.9-2-13.9 15.2-37 15.2-37-3.6 12.7 2.9 38.1 2.9 38.1 11.6 9.3 24.1 5.9 34 6.9 9.9 1 20.1 4.1 20.1 4.1-12-11.5-4.9-33.6-4.9-33.6-3.4 12.2 17.7 37.2 17.7 37.2l40.7 7.2c3.8-8.5 14.3-7.3 14.3-7.3s-1.5 1-3.1 2.5c-1.2-.1-2.4-.2-3.6-.2.4.9 1 1.8 1.5 2.7-2 3-2.2 6.9 5.5 9.6.8.3 1.6.6 2.5 1 2.1 2.8 4.1 5.6 5.4 8.7l199.4 39.7-140-82.2-41.2-27.2c-13.3-6.6-28.5-12.4-45.9-17-115.3-30.9-188.4 25.9-188.4 25.9z"/><path class="st2" d="M1929.4 375.1s-60-12-97 67 0 134-68 181-34 137-40 243l1 80s-112.5 86.9-107.4 165.5c7.5 113.2 5.8 151.9-54.4 115.2-36-21.9-50.5 32.1-48.3 37.4 4.7 11.9 9.2 16.5 13.5 21.9 62.3 77.6 7.5-49 202.1 137.2-22.7-27.9-46.7-55-70.5-81.9-21.5-24.3-45.6-46.3-70.4-67.3-12.2-10.4-24.6-18.5-33.4-31.8 8.9-.2 18.8 8.1 26 12.9 25.2 16.6 63.6 37.4 88.2 55.1 52.2 37.5 84.5 65.8 129.3 102 .9.7-3.6 5.4-1.8 6.7 7.9 5.6 15.8 11.8 23.6 18.3 46 9.8 96.3 25 136.5 48.9l5 1-34-1112.1z"/></g></svg>