<svg viewBox="0 0 1920 1800" xmlns="http://www.w3.org/2000/svg" fill-rule="evenodd" clip-rule="evenodd" stroke-miterlimit="10"><path fill="#0b99cc" d="M0 0h1920v1800H0z"/><path d="M307.3 376.4h-.9.9z" fill="none" stroke="#87e0ff" stroke-width="1.41"/><path d="M802.2 432.6c7.2 0 14.2 2.4 19.8 6.7H720.1c3.9-3.9 9.3-6.1 14.8-6.1h3.2c3.1 0 6.2-.7 9.1-2l8.4-3.8c2.4-1.1 5-1.6 7.6-1.6h1c4.4 0 8.8.8 13 2.3l8 2.9c2.7 1 5.6 1.5 8.6 1.5h8.4v.1zm978.5-76.2l10.3-4.6c3.5-1.6 7.3-2.4 11.2-2.4h11.8c6.8 0 13.4-2.7 18.2-7.6h-61.1c-7.3-5.6-16.2-8.6-25.4-8.6h-26.3c-3.7 0-7.5-.7-11-1.9l-10.2-3.7c-5.3-2-11-3-16.7-3H2145c-12.3-9.5-27.4-14.6-42.9-14.6h-44.3c-6.3 0-12.6-1.1-18.5-3.3l-17.3-6.3c-9-3.3-18.6-5-28.2-5H1621c-5.6 0-11.2 1.2-16.4 3.5l-18.1 8.1c-6.2 2.8-12.9 4.2-19.7 4.2H1546c-12 0-23.6 4.8-32.1 13.3h-53.1c-3.3 0-6.6.7-9.7 2.1l-10.7 4.8c-3.7 1.7-7.7 2.5-11.7 2.5h-12.3c-7.1 0-14 2.8-19 7.9h76.7c7 5.4 15.6 8.3 24.4 8.3h25.2c3.6 0 7.2.6 10.5 1.9l9.8 3.6c5.1 1.9 10.5 2.8 16 2.8h211.6c3 0 6.2-.7 9.1-2zm304.1 62.1c-5.5 0-11-1-16.2-2.9l-15.1-5.5c-7.9-2.9-16.3-4.4-24.7-4.4h-189.2l-3.5-2.9c-7.5-4.6-16.1-7-24.9-6.9l-31.4.2c-5.3 0-10.6 1.1-15.5 3.2l-9.5 4.1c-3.3 1.4-6.7 2.1-10.2 2.1h-24.5c-1.4 0-2.8.1-4.2.3h-9.6c-7.8 0-15.5 1.6-22.6 4.8l-11.9 5.4c-5.4 2.4-11.3 3.7-17.3 3.7h-18.3c-10.6 0-20.7 4.2-28.1 11.7h242.3c4.8 0 8.6 3.8 8.7 8.6.1 4.9-3.8 8.9-8.7 8.9h-26.8c-13.9 0-27.4 4.5-38.5 12.7l-13.6 10.1H1940l-6-37.9 227.2-2.4c-10.8-8.3-24-12.8-37.6-12.8h-38.8v-.1zm-14.9-545.2L2045.8 223l-47.1-13.2-4-2.5H1846c7.5-7.5 17.6-11.7 28.1-11.7h18.3c6 0 11.8-1.3 17.3-3.7l15.9-7.1c4.5-2 9.4-3.1 14.3-3.1l-217.7-.2h-46.5l-156.7.2c8.4 0 16.8 1.5 24.7 4.4l15.1 5.5c5.2 1.9 10.7 2.9 16.2 2.9h38.8c13.6 0 26.8 4.5 37.6 12.8h-553.1c7.5-7.5 17.6-11.7 28.1-11.7h18.3c6 0 11.8-1.3 17.3-3.7l15.9-7.1c3.4-1.5 7-2.5 10.8-2.9H662.4c8.7 0 17.4 1.8 25.6 5.3l15.7 6.7c5.4 2.3 11.1 3.5 16.8 3.5h40.3c14.1 0 27.8 5.5 39 15.6H676.6c-8.4 0-15.2 6.8-15.2 15.2 0 6.6 4.2 12.2 10 14.3h29.7c17.8 0 35.2 5.7 50.4 16.4h83.8c13.3 0 26.6 2.8 39.1 8.1l24 10.3c8.2 3.5 17 5.4 25.7 5.4h61.6c21.6 0 42.5 8.4 59.6 23.8h-405c-11.1 0-20.1 9-20.1 20.1 0 9.1 6.1 16.8 14.5 19.2h72.8c8.9 0 17.7 1.8 26.1 5.4l16 6.9c5.5 2.4 11.3 3.6 17.2 3.6h41c14.4 0 28.3 5.6 39.7 15.8H299.7c-7.8 2.8-13.3 10.2-13.3 18.9 0 7.7 4.4 14.4 10.8 17.8H345c10.1 0 20.2 2.1 29.6 6.2l18.2 7.8c6.2 2.7 12.9 4.1 19.5 4.1H459c2.5 0 5 .2 7.5.5h67.1c4.8 0 9.5.8 13.9 2.5l8.5 3.1c2.9 1.1 6 1.6 9.2 1.6h21.9c7.7 0 15.2 2.5 21.2 7.2H518c7.8 8.6 18.9 13.4 30.4 13.4h86.7c2.8 0 5.6.6 8.1 1.7l9 4c3.1 1.4 6.4 2.1 9.8 2.1h10.3c6 0 11.7 2.4 15.9 6.6H433.5c.1-.1.3-.2.4-.3h-39.4c5.5-4.9 12.1-7.6 19-7.6h19.6c2.8 0 5.6-.6 8.2-1.7l7.6-3.3c4-1.7 8.2-2.6 12.5-2.6l-585.7-.1-17.7-2.6c2.1-2.5 3.3-4.7 4-6.6h-71.6c9-10.5 2.3-16.4 15-16.4h1.8c7.2 0 14.2-1.8 20.8-5.2l19-10c5.4-2.9 11.3-4.3 17.2-4.3h65.9v-34.5h-51.9V266.4H-181c11.8-13.9 3.1-21.7 19.8-21.7h2.3c9.4 0 18.8-2.3 27.4-6.9l15.1-7.9h-97.5v-.9h-95.7c9-10.5 2.3-16.4 15-16.4h1.8c7.2 0 14.2-1.8 20.8-5.2l19-10c5.4-2.9 11.3-4.3 17.2-4.3h22V129l162.2-6.1 8.1-361.3 2008.4-9 105 120.7zM1018.3 167.2a49.45 49.45 0 0 0-30.2-10.3h-13c-4.4 0-8.9-.8-13-2.3l-12.1-4.4c-6.4-2.3-13.1-3.5-19.8-3.5h-1.5c-4 0-7.9.8-11.5 2.5l-12.7 5.7c-4.4 2-9.1 3-13.9 3h-4.8c-8.5 0-16.6 3.4-22.6 9.4l155.1-.1zm813-20.3h-337.7c2.8.5 5.5 1.4 8.1 2.5l9.5 4.1c3.3 1.4 6.7 2.1 10.2 2.1h24.5c8.6 0 16.9 3.3 23.7 9.4l67.8.2c5.4 0 10.7.9 15.8 2.8l9.7 3.5c3.3 1.2 6.8 1.8 10.4 1.8h24.9c2.5 0 5 .2 7.4.7 3.7 0 7.4-.8 10.9-2.4l10.1-4.6c2.9-1.3 6-2 9.2-2l19.7.1c6.7-5.8 15.2-9.8 23.5-9.8h24.5c3.5 0 6.9-.7 10.2-2.1l9.5-4.1c2.6-.9 5.3-1.7 8.1-2.2z" fill="#27b9ed" fill-rule="nonzero"/></svg>