<svg version="1.1" id="Ebene_1" xmlns="http://www.w3.org/2000/svg" xmlns:xlink="http://www.w3.org/1999/xlink" x="0" y="0" viewBox="0 0 1920 1800" xml:space="preserve"><style>.st0{clip-path:url(#SVGID_2_)}.st1{fill:#0982b2}.st2{fill:#27b9ed}.st3{opacity:.8;clip-path:url(#SVGID_2_)}.st4{fill:#0a4c6f}.st5{fill:#0a668e}.st6{fill:#0a3d5d}.st7{fill:#fff}.st8{fill:#0b99cc}.st9{fill:#0a2e4b}.st10{fill:#0a223e}.st11{fill:#87e0ff}</style><defs><path id="SVGID_1_" d="M0 0h1920v1800H0z"/></defs><clipPath id="SVGID_2_"><use xlink:href="#SVGID_1_" overflow="visible"/></clipPath><g class="st0"><path class="st1" d="M-198.2 609.7c166-16.8 193.9 50.6 240.6 21.2 70.5-44.3 107.1-44.1 107.1-44.1 49.9 12.3 212.2 93.7 237.6 86.6 113.8-31.9 62 0 94.4-13.3 32.5-13.3 73.8 10.7 99.1 18.2 25.3 7.5 54.1.5 60.6-4.1 6.4-4.6 9.2 3.4 9.2 3.4 1.6-14 14-18.8 14-18.8-6 4.9-3.2 17.4-3.2 17.4 5.6-5.4 13.2-6.2 13.2-6.2-5.6 6.9-2 11.5-2 11.5 10-3.6 14.8 1.2 14.8 1.2l6.4-.8c-.4-11.2 13.2-16.7 13.2-16.7-4.8 9 1.6 15.1 1.6 15.1 9.6-.3 24.9 3.7 24.9 3.7 4.8-11-8.4-14.1-8.4-14.1 10-7.9 17.2-.9 17.2-.9 4.8-14.4 13.2-14.3 13.2-14.3-8 10.2-3.2 19.3-3.2 19.3 3.2-4.6 7.2-4.1 7.2-4.1-1.6 5.7-1.6 9.1 7.2 4.1s17.6-5 17.6-5c6-6 3.6-6.4 11.2-9.1 7.6-2.7 12 2.1 12 2.1 4.4-4.6 10.4-10.2 13.2-5 2.8 5.2 12.8 4.4 28.5.8 15.6-3.6 46.5-3 46.5-3s-1.6 3.4 0-1.9 4.4-9.1 4.4-9.1l3.2 5.2s45.3 3.6 89.4-15c44.1-18.6 52.9-30.8 63.8-28 10.9 2.8 22.8 11.6 49.6 8.3s33.2 6.1 33.2 6.1c57.5 15.2 120.6 14.3 137.9 3.1 17.3-11.2 26.3-10.9 26.3-10.9-.9-5.7 6.1-11.7 6.1-11.7-3.6 7.9 1.3 12.9 1.3 12.9 2.1-6.1 7.9-5.9 7.9-5.9-3.6 2.8 0 5.9 0 5.9 25.7 5.5 83.7 1.4 91.8-2.9 8-4.3 11.6-6.4 11.6-6.4 93.8 2.9 71.5-3.7 127.6 9.8 230.5 55.6 358.6 16.3 358.6 16.3s23.5-17.8 63.2-13.1c39.7 4.7 43.3 11.5 70.4 0s40.2-39.9 69.7-41c29.5-1.2 0 1379.4 0 1379.4H-198.2V614.6"/></g><g class="st0"><path class="st2" d="M1079.2 695.1s-114.7 3.5-146.8 4.3c-32.1.8-42.6 10.3 9.5 24.7 53 14.6 59.5 23.9-49.6 32.6s-146.8 8.2-123.5 49.8 26.5 57.8-67.4 54.9c-93.8-2.9-208.5-19.8-142.8 149.5s96.3 237.4 96.3 237.4l326.5-101.9 106.4-37.7s-262.9-103.5-309.4-125.9c-46.5-22.5-20.9-33.7 38.5-39.3 59.4-5.6 127.5-23.2 82.6-94.5-39.2-62.3-19.8-51.8 28.9-62.1 51.6-11 209.2-25.7 65-63.9 0 0-109.9-18.3 89.9-20.2l-4.1-7.7z"/></g><g class="st3"><path class="st4" d="M1314.2 715.8S927.1 817.5 926.7 817.6c-.1.3-12.8 28.1-28.2 61.9 1.8-2.3 4.4-3.8 7.3-4.4l1.3-.3-19.8 43-1.3-5.6c-.4-1.8-.4-3.6 0-5.4-7 15.4-17.9 38.7-24.1 52.4v.1l.6 2.8c.4 1.7.2 3.6-.5 5.2l-6.2 13.8c-1.1 2.4-3.3 4.2-5.9 4.7-.1 0-.1.1-.2.1-5 11-4.7 10.6-5.4 12.2 1.4 1.1 5.8 5.9 5.9 8.3.5 8.9-10.9 4.7-16.3 9-6.7 5.2-13.3 10.5-20 15.7l-16.3 12.6-16.6 3.8-15.1 11.7 6.7 4.3 3.1 27.1 36.5 22.6 58.1-13.6 56.1-31.8 15.7-3.9 15.1-11.7-6.7-4.1c11.5-8.9 22.9-17.7 34.4-26.6 16.1-12.4 29.3-19.3 48.1-25.7 8.4-2.9 16.7-6.1 24.9-9.7 11.2-4.9 22.5-9.8 33.7-14.7 63.1-27.4 126.2-54.9 189.3-82.3 42-18.3 86-34.6 127.3-54.9 10.5-5.1 20.8-10.6 30.8-16.3 0 .2-124.8-102.1-124.8-102.1z"/></g><g class="st0"><path class="st1" d="M933 800.5l14.6-5.4 237.6 89.9v10.5c-2.3-.9-252.2-95-252.2-95zm19.4-18.1l15.1-4.9 217.6 79.6v9.3zm232.7 48v12.5l-212.3-78.7 12-4.8zm-193.8-85.1l12.9-5.4 180.9 62.6v11.7zm19-18.9l14.1-5.7 160.7 54.8v12.8zm19.2-18.7l15-5.6 140.6 45.5v11.8zm20.3-20.1l13.7-5.1 121.6 38.2v10.1zm19-18.5l15.2-5.3 101.1 30.3v10.1z"/></g><g class="st0"><path class="st5" d="M926.4 817.5l258.7 96.7v-18.7l-252.1-95zm21.2-22.4l4.8-12.7 232.7 84V885zm19.9-17.6l5.3-13.3 212.3 78.7v14.2zm17.3-18.1l6.5-14.1 193.8 68.9v16.2zm19.4-18.5l6.1-14 174.8 61.4v15.2zm20.2-20.2l5.1-13 155.6 51.7v16.1zm20.1-18.6l5.3-14.5 135.3 43.2v16.8zm19-19.6l5.3-13.4 116.3 35.1v16.5zm20.5-18.7l6.9-15.7 94.2 29.8v16.2z"/></g><g class="st0"><path class="st6" d="M1185.1 895.5v18.7l257-98-7.9-16.7z"/></g><g class="st0"><path class="st5" d="M1185.1 885.2v10.3l249.1-96-13.9-5.4z"/></g><g class="st0"><path class="st6" d="M1185.1 885.2v-18.6l227.7-87.2 7.5 14.7z"/></g><g class="st0"><path class="st5" d="M1185.1 866.6v-9.3l216.7-81.2 11 3.3z"/></g><g class="st0"><path class="st6" d="M1185.1 843.1l209.6-79.5 7.1 12.5-216.7 81.2z"/></g><g class="st0"><path class="st5" d="M1185.1 843.1v-12.5l197.5-74 12.1 7z"/></g><g class="st0"><path class="st6" d="M1185.1 830.6l197.5-74-6.8-13.9-190.7 71.5z"/></g><g class="st0"><path class="st5" d="M1185.1 814.2l190.7-71.5-14.2-5.3-176.5 65.1z"/></g><g class="st0"><path class="st6" d="M1185.1 802.5l176.5-65.1-6.6-13-169.9 63.7z"/></g><g class="st0"><path class="st5" d="M1185.1 788.1l169.9-63.7-14.1-5.3-155.8 56.4z"/></g><g class="st0"><path class="st6" d="M1185.1 775.5l155.8-56.4-6.5-12.5-149.3 52.8z"/></g><g class="st0"><path class="st5" d="M1185.1 759.4l149.3-52.8-12.1-6.3-137.2 47z"/></g><g class="st0"><path class="st6" d="M1185.1 747.3l137.2-47-6.8-12.7-130.4 43.2z"/></g><g class="st0"><path class="st5" d="M1185.1 730.8l130.4-43.2-12.9-5.8-117.5 38.9z"/></g><g class="st0"><path class="st6" d="M1185.1 720.7l117.5-38.9-8.1-14.3-109.4 36.7z"/></g><g class="st0"><path class="st5" d="M1185.1 704.2l109.4-36.7-12.1-5.5-97.3 32.1z"/></g><g class="st0"><path class="st6" d="M1185.1 694.1l97.3-32.1-6.4-13.9-90.9 29.8z"/></g><g class="st0"><path class="st2" d="M1185.1 677.9l90.9-29.8-90.8-31-94.3 31z"/></g><g class="st0"><path class="st5" d="M1114.8 644.5l1.2-52.8 68.7 21.8v53.2z"/></g><g class="st0"><path class="st5" d="M1185.1 677.9l-.4-47.7 66.1 14.7-14.4 16.2z"/></g><g class="st0"><path class="st7" d="M1184.7 613.5l66.1-21.8-66.1-23.1-68.7 23.1z"/><path class="st8" d="M1184.7 614.2l-.2-.1-70.7-22.4 71-23.9.2.1 68 23.9-68.3 22.4zm-66.4-22.5l66.4 21 64-21-63.9-22.4-66.5 22.4z"/></g><g class="st0"><path class="st6" d="M1184.7 666.7v-53.2l66.1-21.8v53.2z"/></g><g class="st0"><path class="st2" d="M1104 580.4l80.9 25.6 77.9-25.6-77.8-27.3z"/></g><g class="st0"><path class="st4" d="M1184.9 617.2l-.2 11.1-69-21v-12z"/></g><g class="st0"><path class="st9" d="M1184.7 628.3l66.1-21.3-.5-11.3-65.4 21.5z"/></g><g class="st0"><path class="st10" d="M1204.6 659.8v-26.5l12-4.1v26.9z"/></g><g class="st0"><path class="st10" d="M1223.8 653.6v-26.5l12.1-4.1v26.9z"/></g><g class="st0"><path class="st1" d="M1184.7 699c2.2 2.9 7.5 2.1 15.7.1.1 0 .3-.1.2 0l-15.5 5.2-.4-5.3z"/></g><g class="st0"><path class="st1" d="M1184.7 672.8c2.2 2.9 7.5 2.1 15.7.1.1 0 .3-.1.2 0l-15.5 5.2-.4-5.3z"/></g><g class="st0"><path class="st1" d="M1184.7 725.3c2.2 2.9 7.5 2.1 15.7.1.1 0 .3-.1.2 0l-15.5 5.2-.4-5.3z"/></g><g class="st0"><path class="st1" d="M1184.7 754c2.2 2.9 7.5 2.1 15.7.1.1 0 .3-.1.2 0l-15.5 5.2-.4-5.3z"/></g><g class="st0"><path class="st1" d="M1184.7 782.6c2.2 2.9 7.5 2.1 15.7.1.1 0 .3-.1.2 0l-15.5 5.2-.4-5.3z"/></g><g class="st0"><path class="st1" d="M1184.7 808.7c2.2 2.9 7.5 2.1 15.7.1.1 0 .3-.1.2 0l-15.5 5.2-.4-5.3z"/></g><g class="st0"><path class="st1" d="M1184.7 837.4c2.2 2.9 7.5 2.1 15.7.1.1 0 .3-.1.2 0l-15.5 5.2-.4-5.3z"/></g><g class="st0"><path class="st1" d="M1184.7 889.6c2.2 2.9 7.5 2.1 15.7.1.1 0 .3-.1.2 0l-15.5 5.2-.4-5.3z"/></g><g class="st0"><path class="st1" d="M1184.7 861c2.2 2.9 7.5 2.1 15.7.1.1 0 .3-.1.2 0l-15.5 5.2-.4-5.3z"/></g><g class="st0"><path class="st1" d="M1114.8 644.5l-6.2 9.1 76.5 24.3v-11.2z"/></g><g class="st0"><path class="st2" d="M1185.1 730.5l-134.8-42.7 13.7-5.5-5.7 4.3z"/></g><g class="st0"><path class="st2" d="M1164.6 752.4l-135.3-45 14.2-5.5-6.2 4.3z"/></g><g class="st0"><path class="st2" d="M1145.3 773.7L1010 726.5l14.1-5.5-6.2 4.2z"/></g><g class="st0"><path class="st2" d="M1126.7 793.1L991.4 745l13.2-5-5.2 3.7z"/></g><g class="st0"><path class="st2" d="M1107.6 812.3l-135.3-48.2 13.2-5-5.2 3.8z"/></g><g class="st0"><path class="st2" d="M1087.7 830.7l-135.3-48.2 13.2-5-5.2 3.8z"/></g><g class="st0"><path class="st2" d="M1068.8 851.6l-135.4-51.2 13.3-5-5.3 3.8z"/></g><g class="st0"><path class="st2" d="M1185.4 704.1L1068.7 669l15.3-5.3-5.7 4.3z"/></g><g class="st0"><path class="st11" d="M1139.7 652.1V627l14.7 4.3v25.9z"/></g><g class="st0"><path class="st7" d="M1139.7 652.1l14.6-5.5.1-15.3-14.7-4.3z"/></g><g class="st0"><path class="st2" d="M1138.4 653.1l-14.6 5.4 26.5 7.8 3.1-6.8z"/></g><g class="st0"><path class="st9" d="M1204.6 633.3l12-4.1v26.9l-12-4z"/></g><g class="st0"><path class="st9" d="M1223.8 627.4l12.1-4.1v26.9l-12.1-4z"/></g><g class="st0"><path class="st4" d="M1252.7 655.9v8.5l5.1 2.7v7.9l5.8 2.3v8l5.8 2.4v7.9l5.5 2.4v8.1l6.2 2.4v8l4.7 2.2v8.2l6.4 2.4-.1 8 5.6 2.3v8l6.7 2.4v7.9l5 2.5v7.8l5.6 2.6-.2 7.9 6 2.3-.1 8 6.7 2.6.1 7.8 5 2.4-.3 7.6 5.6 2.9v8l6 2.3-.3 8.2 6.8 2.2-.3 7.9 5.3 2.4-.1 7.7 5.8 2.7-.2 8.2 5.2 2.4v8l-2.7-.6-31.3 12.2-118.9-215.3z"/><path class="st1" d="M1259.1 653.9l136 231.1-6.5 2.6-135.9-231.7z"/><path class="st6" d="M1252.7 655.9v8.5l5.1 2.7v7.9l5.8 2.3v8l5.8 2.4v7.9l5.5 2.4v8.1l6.2 2.4v8l4.7 2.2v8.2l6.4 2.4-.1 8 5.6 2.3v8l6.7 2.4v7.9l5 2.5v7.8l5.6 2.6-.2 7.9 6 2.3-.1 8 6.7 2.6.1 7.8 5 2.4-.3 7.6 5.6 2.9v8l6 2.3-.3 8.2 6.8 2.2-.3 7.9 5.3 2.4-.1 7.7 5.8 2.7-.2 8.2 5.2 2.4v8l6 4 16.6 11.3z"/><path class="st6" d="M1366 872.3l-33 13.7-4.2-7.7 37.2-14zm-10.8-21.3l-34.5 12.9-3.5-6.5 38.1-14.1zm-4.8-17.9l-38.8 14.1 3.6 6.4 34.8-12.7z"/><path transform="rotate(-19.231 1274.193 740.153)" class="st6" d="M1253.2 736.6h41.8v7h-41.8z"/><path transform="rotate(-18.933 1268.864 728.914)" class="st6" d="M1248.7 725.7h40.7v6.6h-40.7z"/><path transform="rotate(-20.446 1338.052 854.434)" class="st6" d="M1317.8 851.3h40.6v6.6h-40.6z"/><path transform="rotate(-20.339 1332.237 844.073)" class="st6" d="M1312.1 840.8h40.6v6.6h-40.6z"/><path transform="rotate(-20.249 1327.445 833.752)" class="st6" d="M1307.1 830.4h40.5v6.6h-40.5z"/><path transform="rotate(-20.099 1321.077 823.293)" class="st6" d="M1300.6 820h40.5v6.6h-40.5z"/><path transform="rotate(-19.993 1315.41 812.928)" class="st6" d="M1295 809.6h40.5v6.6H1295z"/><path transform="rotate(-19.888 1309.428 802.377)" class="st6" d="M1289.3 799.1h40.4v6.6h-40.4z"/><path transform="rotate(-19.352 1303.922 791.611)" class="st6" d="M1283.4 788.3h41.3v6.6h-41.3z"/><path transform="rotate(-19.651 1297.76 781.547)" class="st6" d="M1277.7 778.3h40.4v6.6h-40.4z"/><path transform="rotate(-19.524 1292.493 771.258)" class="st6" d="M1272.1 767.9h40.3v6.6h-40.3z"/><path transform="rotate(-19.415 1286.707 760.807)" class="st6" d="M1266.4 757.5h40.3v6.6h-40.3z"/><path transform="rotate(-19.678 1280.858 750.314)" class="st6" d="M1259.4 746.6h42.4v7.5h-42.4z"/><path transform="rotate(-18.522 1257.623 708.514)" class="st6" d="M1237 704.6h41.1v7.5H1237z"/><path transform="rotate(-19.352 1263.273 719.214)" class="st6" d="M1242.8 715.5h40.8v7.5h-40.8z"/><path transform="rotate(-18.54 1251.695 698.309)" class="st6" d="M1231.5 694.5h40.6v7.5h-40.6z"/><path transform="rotate(-18.223 1246.042 687.84)" class="st6" d="M1225.5 684h41v7.5h-41z"/><path transform="rotate(-18.72 1240.372 677.564)" class="st6" d="M1219.7 673.9h41.1v7.5h-41.1z"/><path transform="rotate(-20.561 1343.175 865.01)" class="st6" d="M1323.3 861.8h40v6.6h-40z"/><path transform="rotate(-18.432 1234.508 666.356)" class="st6" d="M1214.7 662.1h40.1v8.5h-40.1z"/><path class="st5" d="M1213.1 668.6l130.5 236.5-6.5 2.6-130.4-237.1z"/><path class="st6" d="M1337.1 907.7l-47.2-33.3-5.3-17.2-9.1-7-3-15.9-6.5-7.4-2.1-13.8-5.6-9.2-2.4-15.4-7.3-8.5-2.3-14.4-9-8.4-1.1-15.6-5.4-9-4.7-15.4-6.4-7.6-4.5-14.7-5.6-8.6-2.9-15.7z"/><path class="st2" d="M1260.6 652.7l87.8 153.1-90.2-151.7z"/><path class="st8" d="M1222.6 678.9l31.6-13.1 3.6 1.3"/><path class="st1" d="M1224.8 689.9l36.6-13 2.7.9"/></g><g class="st0"><path class="st8" d="M1282.4 662l12.1 5.5-21.2 7.1"/></g><g class="st0"><path class="st8" d="M1303 682l12.1 5.4-27.5 9.3"/></g><g class="st0"><path class="st8" d="M1322.2 700.8l12.1 5.4-36.7 13.1"/></g><g class="st0"><path class="st8" d="M1341.7 719.1l12.5 5.4-42.6 16.2"/></g><g class="st0"><path class="st8" d="M1362.4 737.4l12.5 5.5-51 19.2"/></g><g class="st0"><path class="st8" d="M1383.8 757.8l12.6 5.5-59.3 21.9"/></g><g class="st0"><path class="st8" d="M1402.2 775.4l10.2 4-63.8 24.7"/></g><g class="st0"><path class="st8" d="M1420.3 794.1l14.2 6-73.2 27.5"/></g><g class="st0"><path class="st6" d="M1104.6 886.4s-4-5.1-10.9-1.7c0 0-1.5.5-3.2.7 0 0 6.9 8.2 13.4 9.1l21.9.7s.9-27.4-3-3.7c0 0-3-23.2-5.6-11.1l-1.5 5.6s1.8-13.9-.1-20.3c0 0-4.6 10-4.4 23.7 0 0-6.2-14.4-11.7-19.6-5.5-5.2-6.1-1.3-2.2 5.1 4 6.6 7.3 11.5 7.3 11.5z"/></g><g class="st0"><path class="st6" d="M1002 852.4s-2-9.7-1.6-15.8c.4-6.1-.6-6.1 2.5-9.6 0 0-3.3 2.1-6.4 5.6l-1.4 8.3-6.2-9.6-2.5 2.7-.7-6.2s-11.3.5-16.2-6.4c0 0 4.1 9.5 7.7 14.5 0 0-13.3-6.2-24.4-5.4 0 0 7.1 5.2 7.8 9.1l7.2-2.6s-2.7 1.5-3.7 4.9c0 0 7 3.4 9.3 9 .1.2 10.7 4.2 28.6 1.5z"/></g><g class="st0"><path class="st4" d="M1115.9 655.9v8.5l-5.1 2.7v7.9l-5.8 2.3v8l-5.7 2.4v7.9l-5.6 2.4v8.1l-6.2 2.4v8l-4.7 2.2v8.2l-6.4 2.4.2 8-5.7 2.3.1 8-6.7 2.4v7.9l-5.1 2.5.1 7.8-5.7 2.6.2 7.9-6 2.3.2 8-6.8 2.6-.1 7.8-4.9 2.4.3 7.6-5.7 2.9v8l-5.9 2.3.3 8.2-6.8 2.2.2 7.9-5.2 2.4.1 7.7-5.8 2.7.2 8.2-5.3 2.4v8l2.7-.6 31.3 12.2 119-215.3z"/><path class="st5" d="M1109.6 653.9L973.5 885l6.5 2.6 135.9-231.7z"/><path class="st6" d="M1115.9 655.9v8.5l-5.1 2.7v7.9l-5.8 2.3v8l-5.7 2.4v7.9l-5.6 2.4v8.1l-6.2 2.4v8l-4.7 2.2v8.2l-6.4 2.4.2 8-5.7 2.3.1 8-6.7 2.4v7.9l-5.1 2.5.1 7.8-5.7 2.6.2 7.9-6 2.3.2 8-6.8 2.6-.1 7.8-4.9 2.4.3 7.6-5.7 2.9v8l-5.9 2.3.3 8.2-6.8 2.2.2 7.9-5.2 2.4.1 7.7-5.8 2.7.2 8.2-5.3 2.4v8l-5.9 4-16.7 11.3z"/><path class="st6" d="M1002.6 872.3l33 13.7 4.3-7.7-37.3-14zm10.9-21.3l34.4 12.9 3.5-6.5-38-14.1zm4.7-17.9l38.8 14.1-3.5 6.4-34.9-12.7z"/><path transform="rotate(-70.762 1094.515 740.133)" class="st6" d="M1091 719.3h7v41.8h-7z"/><path transform="rotate(-71.065 1099.563 729.025)" class="st6" d="M1096.3 708.7h6.6v40.7h-6.6z"/><path transform="rotate(-69.543 1030.64 854.583)" class="st6" d="M1027.3 834.3h6.6v40.6h-6.6z"/><path transform="rotate(-69.659 1036.328 844.162)" class="st6" d="M1033 823.9h6.6v40.6h-6.6z"/><path transform="rotate(-69.751 1041.27 833.71)" class="st6" d="M1038 813.5h6.6V854h-6.6z"/><path transform="rotate(-69.891 1047.866 823.317)" class="st6" d="M1044.5 803h6.6v40.5h-6.6z"/><path transform="rotate(-70.001 1053.348 812.86)" class="st6" d="M1050.1 792.6h6.6v40.5h-6.6z"/><path transform="rotate(-70.117 1059.054 802.426)" class="st6" d="M1055.8 782.2h6.6v40.4h-6.6z"/><path transform="rotate(-70.652 1064.513 791.581)" class="st6" d="M1061.3 770.9h6.6v41.3h-6.6z"/><path transform="rotate(-70.354 1070.827 781.58)" class="st6" d="M1067.5 761.4h6.6v40.4h-6.6z"/><path transform="rotate(-70.471 1076.246 771.144)" class="st6" d="M1073.1 751h6.6v40.3h-6.6z"/><path transform="rotate(-70.585 1082.067 760.773)" class="st6" d="M1078.8 740.6h6.6v40.3h-6.6z"/><path transform="rotate(-70.318 1088 750.306)" class="st6" d="M1084.2 729.1h7.5v42.4h-7.5z"/><path transform="rotate(-71.482 1111.072 708.405)" class="st6" d="M1107.3 687.8h7.5v41.1h-7.5z"/><path transform="rotate(-70.646 1105.464 719.204)" class="st6" d="M1101.7 698.8h7.5v40.8h-7.5z"/><path transform="rotate(-71.464 1116.891 698.245)" class="st6" d="M1113.1 677.9h7.5v40.6h-7.5z"/><path transform="rotate(-71.784 1122.628 687.786)" class="st6" d="M1118.9 667.3h7.5v41h-7.5z"/><path transform="rotate(-71.277 1128.352 677.592)" class="st6" d="M1124.6 657h7.5v41.1h-7.5z"/><path transform="rotate(-69.434 1025.282 865.046)" class="st6" d="M1022 845.1h6.6v40h-6.6z"/><path transform="rotate(-71.573 1133.905 666.358)" class="st6" d="M1129.6 646.3h8.5v40.1h-8.5z"/><path class="st5" d="M1155.6 668.6l-130.5 236.5 6.4 2.6 130.4-237.1z"/><path class="st6" d="M1031.5 907.7l47.3-33.3 5.2-17.2 9.1-7 3.1-15.9 6.5-7.4 2-13.8 5.6-9.2 2.5-15.4 7.2-8.5 2.3-14.4 9-8.4 1.1-15.6 5.4-9 4.8-15.4 6.3-7.6 4.5-14.7 5.7-8.6 2.8-15.7z"/><path class="st1" d="M1161 671l-89 149 84.1-151.8z"/><path class="st8" d="M1109.3 654l-2.5 4.9-2.5 4.9-5.1 9.8-10.5 19.3c-3.5 6.5-7.2 12.8-10.7 19.2l-11 19-11.2 18.9c-3.8 6.3-7.5 12.6-11.5 18.8l-11.7 18.6-6 9.2-3 4.6-3.1 4.6-.2-.1 44.3-76 44.6-75.9.1.2zm5.2 11.8l-3.7 1.3 34.8 11.9.4-1.5z"/><path class="st1" d="M1107.2 676.9l-2.7.9 37.5 12.9-12.4-4.9z"/></g><g class="st0"><path class="st5" d="M623.7 706.6h-3l-27 5.4 14.4-12.4 32.3-7.7 8.3 1.3-2.2-1.7c-6.7-5.2-15.2-7.6-23.7-6.5l-13-25.8-11.5.5-13.2-17.9-5.6 3.8s-1.3-4.9 5.6-9c0 0-9.4-2.3-17.5 11.5l-3.1-14.7s-16.9 4.7-24.4 18.8c0 0-3.1-17.4 10.7-25.5 0 0-20.4 5.7-31.8 20.8 0 0-7-18.2-19.5-22.6 0 0 5.8 35.1-8.9 27.3 0 0-4.9-14.1-21.1 0-16.3 14.1-26.2 30.8-44.3 27.5 0 0-2.1 14.3 17.3 13.6h.1s1.1 13.1-11.7 14.3c0 0 16.7 6.9 23.6-7.5 0 0-3.8 15.6 10 20 0 0-1.9-11.4 13.8-1 15.7 10.4-11.5 8.7 0 9 11.5.2 13.8 7.7 19.4-5.5 5.6-13.2-1.7 11.6 13.2 2.4l.1-.1c-10.8 18.5-18 37.4-22.7 54.4-2.8 8.6-5.1 17.3-7 26.2-.6 2.6-1 5.3-1.5 8s-.9 5.4-1.3 8c-.4 2.7-.7 5.4-1 8.1-.2 1.4-.3 2.7-.4 4.1-.1.7-.1 1.4-.2 2.1 0 .7-.1 1.4-.1 2.2h10.3v-7.6c0-2.6.2-5.2.3-7.8.1-1.8.3-3.6.4-5.3l1.7.9c.4-.8 1-1.8 1.5-2.7.6-1 1.2-1.9 1.7-2.9l1.8-2.8 1.9-2.8c1.3-1.9 2.7-3.7 4-5.6 1.4-1.8 2.8-3.6 4.2-5.5 4.9-6.1 10-11.9 15.4-17.6 1.7-1.6 3.5-3.3 5.4-5.1-.5 7.9-.6 15.3-.6 22.1l-.1.1c-5.2 6.4-10.1 12.9-14.7 19.8-1.5 2.4-3.1 4.7-4.6 7.2l-2.2 3.6c-.7 1.2-1.4 2.5-2.1 3.7-.7 1.2-1.4 2.5-2 3.8-.6 1.3-1.3 2.5-1.9 3.8-.6 1.3-1.3 2.6-1.8 3.9-.3.7-.6 1.3-.9 2-.3.7-.6 1.3-.9 2.2l2.2.7 5.4 1.7 2.2.7c.1-.5.4-1.2.5-1.7.2-.6.4-1.2.6-1.9.4-1.2.9-2.5 1.4-3.7.5-1.3 1-2.5 1.5-3.7.5-1.2 1.1-2.5 1.6-3.7.6-1.2 1.1-2.5 1.7-3.7l1.8-3.6c1.2-2.5 2.6-4.8 3.9-7.2 2.6-4.6 5.3-9.1 8.2-13.6.1 8.5.6 17.1 1.6 25.6.5 3.3.9 6.7 1.5 10l1 5c.2.8.3 1.7.5 2.5l.6 2.5c.4 1.7.8 3.3 1.2 5 .5 1.6.9 3.3 1.4 5 .6 1.6 1.1 3.3 1.7 4.9l1 2.5.5 1.3.3.6.4.7 2.1-1.1 4.9-2.7 2.1-1.1-.2-.4-.3-.5-.5-1-1-2.1c-.7-1.4-1.2-2.9-1.8-4.3-.6-1.5-1.1-3-1.6-4.5-.6-1.5-1-3.1-1.5-4.6l-.7-2.3c-.2-.8-.4-1.6-.6-2.3l-1.2-4.7c-.8-3.1-1.4-6.3-2.1-9.5-2-10.6-3.1-21.4-3.7-32.3v-.5c.3-.4.5-.7.8-1.1 9.9-12.9 22.9-27.4 39.6-42.4.2 0 9.8 1.5 16.3-5.4l39.2 8.4c2.8-11.7-4.4-23.4-16.1-26.1l-20.8-4.7 18.7-3.7c10.6-2.1 21.5-2.6 32.3-1.5-2.5-7.4-8.9-12.7-16.5-14.3zm-82.4 25.8c.6-.4 1.2-.7 1.9-1.1 10.7-5.6 7.5-1.9 5.6 5.6 0 0-10.6 5.8-1.2 9.5-5.5 4.4-10.6 8.7-15.3 12.8.6-6.5 1.5-13.4 2.6-20.5 1-1.8 2.9-4.1 6.4-6.3zm-15.2 32.4c-4.1 3.7-7.9 7.3-11.4 10.7-5.4 4.9-10.7 9.9-15.8 15.2-1.6 1.7-3.3 3.5-4.9 5.2l-4.5 5.1c1-6.5 2.2-12.9 3.7-19.3 4.4-16.3 11.2-34.5 21.4-52.4-1.4 3.1-2.7 7.9 2.5 10.1 0 0-7-8.2 6.3-8.7 0 0 5.2-1.5 5.2 10.9-1 8.1-1.9 15.9-2.5 23.2zm4.5 23.1c.1-6.4.4-13.2.9-20.4 8.3-7.5 18.2-15.7 29.8-24.6 3.7-1.4 7.9-.5 10.8 2.3-17.3 15-30.9 29.5-41.5 42.7z"/></g><g class="st0"><path class="st5" d="M1422.9 486.7c10.7 1.2 21.2 4 31.1 8.3l17.4 7.5-21.3.2c-11.9.1-21.5 10-21.2 21.9l39.9.2c4.9 8 14.5 8.7 14.7 8.7 13.1 18.1 22.6 35 29.5 49.7.2.4.3.8.5 1.2 0 .2-.1.3-.1.5-2.8 10.4-6.2 20.7-10.4 30.6-1.3 2.9-2.6 5.9-4 8.8-3.4 7-7 14.4-12 20.4-4.7 5.7-11.5 12.1-17.4 16.3 2.7.6 6.5 18.4 6.9 18 7-7.4 26.4-42 30.2-51.3 1.3-3.1 2.4-6.3 3.6-9.4 2.8-8.1 5.1-16.3 7-24.6 1.9 4.9 3.6 9.9 5.1 14.9.8 2.6 1.6 5.2 2.2 7.8l1 3.9c.3 1.3.6 2.6.9 4 .3 1.3.6 2.6.8 4 .2 1.3.5 2.6.7 4l.6 3.9c.1.6.2 1.3.2 1.9.1.6.1 1.3.2 1.8l2.3-.2 5.6-.5 2.3-.2c-.1-.9-.2-1.5-.4-2.3-.1-.7-.3-1.4-.4-2.2-.3-1.4-.6-2.8-1-4.2-.3-1.4-.7-2.8-1.1-4.1-.4-1.4-.8-2.7-1.2-4.1-.4-1.4-.8-2.7-1.3-4.1l-1.4-4c-.9-2.7-1.9-5.3-2.9-7.9-3-7.6-6.4-15.1-10.1-22.3 0 0 0-.1-.1-.1 1.5-6.6 2.9-13.8 4.1-21.6 1.5 2.1 2.8 4.1 4.1 6.1 4 6.7 7.8 13.5 11.3 20.4 1 2.1 2 4.1 3 6.2.9 2.1 1.9 4.2 2.7 6.3l1.3 3.2 1.2 3.2c.4 1.1.7 2.1 1.1 3.2.3 1 .7 2.2.9 3l1.9-.5c-.2 1.8-.5 3.5-.7 5.3-.4 2.6-.8 5.1-1.3 7.7-.2 1.3-.5 2.5-.8 3.8-.1.6-.3 1.3-.4 1.9-.1.6-.3 1.2-.4 1.8l2.3.5 4.5 1 3.3.7c.1-.8.2-1.4.3-2.1.1-.7.2-1.4.3-2 .2-1.4.4-2.7.5-4.1.3-2.7.5-5.4.7-8.1.2-2.7.3-5.4.5-8.1.1-2.7.2-5.4.2-8.1.1-9-.3-18-1.2-27-1-17.5-3.9-37.4-10.5-57.7v.1c12.6 12.2 10.7-13.5 13.4.5 2.7 14 6.5 7.2 17.7 9.4s-15.5-1.9 1.9-8.7c17.4-6.8 13.2 3.9 13.2 3.9 14.3-1.4 14-17.3 14-17.3 3.7 15.5 21.4 12.3 21.4 12.3-12.1-3.9-8.3-16.4-8.3-16.4h.1c18.7 4.8 19.7-9.6 19.7-9.6-18.3-.6-24.4-19-37.3-36.1-12.9-17.2-20.6-4.5-20.6-4.5-16 4.5-2.9-28.4-2.9-28.4-13.1 1.6-23.8 17.8-23.8 17.8-7.9-17-26.6-26.9-26.6-26.9 11.7 10.8 5 27 5 27-4.3-15.3-19.8-23.5-19.8-23.5l-6.2 13.7c-5-15.1-14.6-14.9-14.6-14.9 5.8 5.5 3.6 10 3.6 10l-4.7-4.9-16.6 14.6-11.1-2.9-18.1 22.3c-8-2.8-16.8-2.3-24.4 1.3l-2.5 1.2 8.4.5 29.7 14.3 11.4 15.2-25.1-11-2.9-.7c-7.7-.5-15 3.3-19.3 9.7zm99 40c-.4 7.2-1 14-1.8 20.5-3.7-5-7.8-10.2-12.2-15.7 9.9-1.6.8-9.5.8-9.5-.2-7.8-2.5-12 6.7-4.3.6.5 1.1 1 1.6 1.5 2.9 2.8 4.3 5.4 4.9 7.5zm5.3 3.9c2.6-12.1 7.4-9.5 7.4-9.5 12.9 3.3 4.3 9.8 4.3 9.8 5.5-1 5.3-6 4.5-9.3 6.2 19.5 8.9 38.7 9.8 55.5.1 6.5-.1 13-.5 19.5-1-2-2.2-3.9-3.3-5.9-1.2-2-2.4-4.1-3.7-6.1-3.8-6.2-7.9-12.2-12.2-18.1-2.6-4-5.6-8.3-8.8-12.8 1.2-7.2 2-14.9 2.5-23.1zm-42.9-5.6c3.4-2.1 7.7-2 11 .1 9.4 11 17.2 21.2 23.8 30.2-1 7.1-2.1 13.8-3.4 20-7.6-15-17.7-32.1-31.4-50.3z"/></g><g class="st0"><path class="st5" d="M616.8 896s9.4-12.5 18.6-23.1c4.4-5 16.2-10.2 35.9 10.2l2.5 3 3.6-1.8c4.1-2.1 9-1.4 12.4 1.7l10.4 9.4-83.4.6z"/></g><g class="st0"><path class="st5" d="M718.3 858.8s8.1-2.6 8.8-9.9c0 0 3.1 1 4.4 8.2 0 0 5.8-11.5 5.4-22.3 0-.6-.1-1.3-.2-1.9-1.6-11.3 6.6 13.3 5.6 24.2 0 0 5.3-3.4 8.4-8.8 3.1-5.4 1.9 0 1.9 0s-1.6 6.5-8.5 15.3c0 0-26.5 1.1-14.6-1.3 7.8-1.5-7.5-.7-16.4-.9.1 0-22.1 0 5.2-2.6z"/></g><g class="st0"><path class="st1" d="M702.6 878.7s.1 2.4-4.5 5.4c0 0 3.8.4 9.8-.5 4.1-.6 8.5-1.6 14.1-4 0 0-3.2-1.1-9.7-1.1-6.6 0-3.8.1-9.7.2z"/></g><g class="st0"><path class="st1" d="M617.8 895.1s-57.9 41.2 32.3 10l7.3-2.3.6 1.4c.6 1.6 6.5 1.1 14.7-1.3l25.3-7.3-80.2-.5z"/></g><g class="st0"><path class="st1" d="M905.8 875l1.3-.3-19.8 43-1.3-5.6c-.4-1.8-.4-3.6 0-5.4-3.4 7.4-7.7 16.6-11.9 25.8 31-10.8 50.5-31.1 32.3-70.7-2.5 5.6-5.2 11.5-8 17.5 1.9-2.1 4.5-3.7 7.4-4.3zm-13.4 12l8.5-18.4-.6.1c-1.7.3-3.1 1.5-3.9 3.1l-4.2 9.4c-.5 1.1-.6 2.3-.3 3.4l.5 2.4z"/><path class="st1" d="M893.6 896.5l15.1-32.8-.7.1c-2 .4-3.7 1.7-4.1 3.6l-10.1 22.3c-1 1.3-1.2 2.7-.9 4l.7 2.8zm-5.4 11.1l4.6-10-.5.1c-1.4.3-2.6 1.2-3.2 2.6l-1.1 2.6c-.4.9-.5 1.9-.3 2.8l.5 1.9z"/></g><g class="st3"><path class="st4" d="M859.8 962.3l-4.6 10 .5-.1c1.4-.3 2.6-1.2 3.2-2.6l1.1-2.6c.4-.9.5-1.9.3-2.8l-.5-1.9z"/></g><g class="st3"><path class="st4" d="M856.2 966.6l8-17.4c.1-.2-.1-.4-.3-.3-1.8.4-3.3 1.6-4 3.2l-4.2 9.2c-.5 1.1-.6 2.4-.4 3.5l.4 1.7c.1.3.4.3.5.1z"/></g><g class="st0"><path class="st6" d="M954.6 1028.4s4.9-23.4 3.9-38 1.4-14.6-6.1-23.1c0 0 8 5.2 15.5 13.6l3.3 20 14.8-23.3 6 6.6 1.7-15s27.3 1.2 39-15.4c0 0-10 23-18.5 35.1 0 0 32.2-15 59-13.1 0 0-17.1 12.7-18.9 22.1l-17.3-6.2s6.6 3.6 8.9 11.9c0 0-16.9 8.2-22.6 21.7 0 0-25.6 9.7-68.7 3.1z"/></g><g class="st0"><path class="st4" d="M1349.3 852.8c.4 1.7.8 3.3 1.4 4.6l-1.4-4.6zm6.1-89.6c-4.4 4.7-7.3 26.4-8.8 41.3 0-21.7.2-39.9-3.7-33.8-7.5 11.7 3 70.4 3 70.4l3.5 11.6c-1.9-8.3-2.5-21.3-2.7-34.5 3.5-24.1 14.1-60.9 8.7-55z"/></g><g class="st0"><path class="st6" d="M1303.2 821.3c7.5-.8 15-.4 22.4 1.1l13 2.7-14.5 3.4c-8.1 1.9-13.2 10.5-11.2 18.9l27.2-6.1c4.5 5 11.2 3.9 11.3 3.9 11.6 10.9 20.6 21.4 27.5 30.8.2.3.4.5.5.8v.3c-.4 7.9-1.2 15.7-2.5 23.4-.5 2.3-.9 4.6-1.4 6.9l-.8 3.4c-.1.6-.3 1.1-.4 1.7l-.5 1.7c-.3 1.1-.6 2.2-1 3.3-.4 1.1-.7 2.2-1.1 3.3-.4 1.1-.8 2.1-1.3 3.2l-.7 1.5-.4.7-.2.4-.1.3 1.4.8 3.4 2 1.4.8.2-.5.2-.5.4-.9.7-1.8 1.2-3.6c.4-1.2.7-2.4 1-3.6l.9-3.6.4-1.8.3-1.8.7-3.6c.4-2.4.7-4.9 1-7.3.7-6.2 1.1-12.4 1.1-18.6 2 3.2 3.9 6.5 5.7 9.9.9 1.7 1.9 3.5 2.7 5.2l1.3 2.6 1.2 2.7c.4.9.8 1.8 1.1 2.7.4.9.7 1.8 1.1 2.7.3.9.7 1.8 1 2.7.1.5.3.9.4 1.4.1.4.3.9.4 1.3l1.6-.5 3.7-1.2 1.6-.5c-.2-.6-.4-1.1-.6-1.6l-.6-1.5c-.4-1-.8-1.9-1.3-2.9-.4-1-.9-1.9-1.3-2.8-.4-.9-.9-1.8-1.4-2.7l-1.5-2.7-1.5-2.6c-1-1.8-2.1-3.5-3.2-5.2-3.2-5-6.6-9.8-10.2-14.4 0 0 0-.1-.1-.1 0-5-.1-10.3-.4-16.1l3.7 3.7c3.7 4.1 7.3 8.4 10.7 12.8 1 1.3 2 2.6 2.9 4 .9 1.4 1.9 2.7 2.8 4l1.3 2 1.3 2.1 1.2 2.1c.4.7.8 1.4 1 2l1.2-.7.3 3.9c.1 1.9.2 3.8.2 5.7v5.5h7.1c0-.6-.1-1.1-.1-1.6s-.1-1-.1-1.5l-.3-3c-.2-2-.4-3.9-.7-5.9-.3-2-.6-3.9-.9-5.8-.4-1.9-.7-3.9-1.1-5.8-1.3-6.4-2.9-12.8-4.8-19-3.3-12.3-8.2-26.1-15.7-39.5v.1c10.4 6.7 5.3-11.3 9.2-1.7 3.9 9.6 5.5 4.1 13.5 4 7.9-.2-10.9 1 0-6.5 10.9-7.6 9.6.7 9.6.7 9.6-3.2 7-14.5 7-14.5 4.8 10.5 16.4 5.5 16.4 5.5-8.8-.9-8.1-10.4-8.1-10.4 13.4.5 12-9.9 12-9.9-12.5 2.4-19.4-9.7-30.7-20s-14.7 0-14.7 0c-10.2 5.7-6.2-19.8-6.2-19.8-8.7 3.2-13.6 16.4-13.6 16.4-7.9-10.9-22.1-15.1-22.1-15.1 9.6 5.9 7.4 18.5 7.4 18.5-5.2-10.2-17-13.7-17-13.7l-2.2 10.7c-5.7-10-12.2-8.4-12.2-8.4 4.8 3 3.9 6.6 3.9 6.6l-3.9-2.8-9.1 13-8-.3-9 18.7c-5.9-.8-11.8 1-16.4 4.7l-1.5 1.2 5.8-1 22.4 5.6 10 9-18.7-3.9h-2.1c-5.1 1.2-9.5 5.1-11.5 10.3zm73.3 13.2c.8 5.2 1.4 10.1 1.8 14.9-3.3-3-6.8-6.1-10.6-9.3 6.5-2.7-.8-6.9-.8-6.9-1.3-5.5-3.5-8.2 3.9-4.1.5.3.9.5 1.3.8 2.3 1.5 3.7 3.2 4.4 4.6zm4.2 1.9c0-9 3.6-7.9 3.6-7.9 9.3.4 4.4 6.3 4.4 6.3 3.6-1.6 2.7-5.1 1.7-7.3 7.1 13 11.8 26.2 14.9 38 1 4.6 1.9 9.3 2.6 14-1-1.3-2.1-2.5-3.1-3.7-1.1-1.3-2.3-2.5-3.4-3.8-3.5-3.8-7.2-7.5-11-11-2.4-2.5-5-5.1-7.9-7.8-.4-5.2-1-10.8-1.8-16.8zm-30.1 2.7c2-2 4.9-2.6 7.5-1.6 8 6.4 14.9 12.4 20.7 17.9.4 5.2.6 10.2.6 14.8-7.3-9.7-16.8-20.2-28.8-31.1z"/></g><g class="st0"><path class="st4" d="M1092.8 936.6s16.2 33.8 8.6 114.6h-9.6c-2.2 0-3.6-2.3-2.6-4.2 4.7-9.3 17.1-45.8-.3-107l3.9-3.4z"/><path class="st4" d="M1084.8 957.4c-1.3-1.8-25.2-35.1-37.7-38.3 0 0 8.3-4.1 17.9-4 9.5.1 21 26.9 30.7 45.3 9.6 18.3-10.9-3-10.9-3z"/><path class="st4" d="M1047.1 919.1s3.2 7.6 3.3 14.3c.2 6.8 7.1-5.5 6.7-8.1 0 0-7.2-6.3-10-6.2zm52.6 33.6c1.4-.8 28.1-16.2 37.6-14.5 0 0-4.4-5.4-11-8.3s-22.7 11.9-35 21.4c-12.3 9.6 8.4 1.4 8.4 1.4z"/><path class="st4" d="M1137.3 938.2s-4.5 4.2-6.7 8.8c-2.2 4.6-3.2-6-2.1-7.6.1 0 6.9-2.1 8.8-1.2zm-44.3 23.5s-16.9-60.9-20.7-69.2c0 0 7.6.6 17-.4 9.4-1.1 4.5 9.8 6.6 24.1 2 14.3 5.4 47.9 5.4 47.9l-8.3-2.4z"/><path class="st4" d="M1072.3 892.6s-2.7-.8-1.4 21.5c0 0 3.5-9 5.7-9.1 0 0-2.4-8-4.3-12.4zm-14.6 49.3l-8.3 8.1s20.7-2.7 33.8 7.2l7.7-4.3s-16.6-12.1-33.2-11z"/><path class="st4" d="M1049.4 950.1l9.5 8.2-.4-9.2zm41 5.3s9.3-41.8 24.1-47l9 2.3s-10 5.5-17.5 25.7c-9.2 24.8-15.6 19-15.6 19z"/><path class="st4" d="M1123.5 910.8s-5.7 8.4-4 10.6l-3.7-3.1c-.1-.1 4.9-7 7.7-7.5zm-24 40.8s15.4-7.8 27.1-3l2 4s-21.1-3.7-37.9 5.4l8.8-6.4z"/></g><g class="st0"><path class="st6" d="M1519.8 911.9h-4l-35.4 7.1 18.9-16.3 42.3-10.1 10.9 1.8-2.9-2.2c-8.8-6.8-19.9-9.9-31-8.6l-17-33.8-15 .6-17.2-23.5-7.4 5s-1.6-6.4 7.4-11.8c0 0-12.3-3-23 15.1l-4.1-19.3s-22.2 6.2-32 24.6c0 0-4.1-22.8 14-33.4 0 0-26.8 7.5-41.7 27.2 0 0-9.2-23.8-25.6-29.6 0 0 7.6 46-11.7 35.7 0 0-6.4-18.5-27.7 0s-34.4 40.3-58 36c0 0-2.7 18.8 22.6 17.9h.1s1.4 17.1-15.3 18.8c0 0 21.9 9 30.9-9.9 0 0-4.9 20.4 13.1 26.2 0 0-2.4-14.9 18.1-1.3s-15 11.4 0 11.8c15 .3 18.1 10.1 25.4-7.1 7.4-17.2-2.3 15.2 17.3 3.1l.1-.1c-14.2 24.2-23.5 49.1-29.7 71.3-3.6 11.2-6.7 22.7-9.1 34.3-.7 3.5-1.3 7-2 10.5-.6 3.5-1.2 7-1.7 10.5s-1 7.1-1.3 10.6c-.2 1.8-.4 3.6-.5 5.4-.1.9-.2 1.8-.2 2.7-.1.9-.1 1.8-.2 2.8h13.6c0-.7 0-1.6-.1-2.4v-2.5c0-1.7 0-3.4.1-5.1.1-3.4.3-6.8.4-10.2.2-2.3.4-4.7.5-7l2.3 1.2c.5-1 1.3-2.4 2-3.6.7-1.2 1.5-2.5 2.3-3.8l2.4-3.7 2.5-3.7c1.7-2.5 3.5-4.9 5.3-7.3 1.9-2.4 3.7-4.8 5.6-7.1 6.4-8 13.2-15.6 20.2-23.1 2.2-2.2 4.6-4.4 7-6.7-.6 10.4-.8 20.1-.8 29 0 .1-.1.1-.1.2-6.8 8.3-13.2 16.9-19.2 25.9-2 3.1-4.1 6.2-6 9.4l-2.9 4.8c-.9 1.6-1.8 3.2-2.7 4.9-.9 1.6-1.8 3.3-2.7 4.9-.8 1.7-1.8 3.3-2.6 5-.8 1.7-1.7 3.4-2.4 5.2-.4.9-.8 1.7-1.1 2.6-.4.9-.7 1.7-1.1 2.9l2.9.9 7.1 2.2 2.9.9c.2-.6.5-1.5.7-2.3.3-.8.6-1.6.8-2.4.5-1.6 1.2-3.3 1.8-4.9.6-1.6 1.4-3.3 2-4.9.7-1.6 1.4-3.2 2.2-4.9.8-1.6 1.5-3.2 2.2-4.8l2.4-4.8c1.6-3.2 3.4-6.3 5.1-9.5 3.4-6 7-12 10.8-17.8.1 11.2.8 22.4 2.1 33.5.7 4.4 1.2 8.8 2 13.2l1.3 6.6c.2 1.1.4 2.2.7 3.3l.8 3.3c.5 2.2 1 4.4 1.6 6.5.6 2.2 1.2 4.3 1.9 6.5s1.4 4.3 2.2 6.5l1.3 3.2.7 1.7.4.8.5 1 2.7-1.5 6.5-3.6 2.7-1.5-.3-.5-.3-.6-.7-1.3-1.3-2.7c-.9-1.8-1.6-3.8-2.4-5.7-.7-1.9-1.4-3.9-2.1-5.9-.7-2-1.3-4-1.9-6l-.9-3c-.3-1-.5-2-.8-3.1l-1.6-6.1c-1-4.1-1.8-8.3-2.7-12.5-2.6-13.9-4.1-28-4.8-42.3v-.6c.3-.5.7-.9 1-1.4 13-16.9 30-35.9 51.9-55.6.3 0 12.8 1.9 21.4-7l51.4 11c3.7-15.3-5.8-30.7-21.1-34.1l-27.3-6.2 24.5-4.8c13.9-2.7 28.2-3.4 42.3-2-4.2-9.6-12.5-16.6-22.5-18.6zm-108 33.8c.8-.5 1.6-.9 2.5-1.4 14-7.4 9.9-2.6 7.4 7.4 0 0-13.9 7.6-1.6 12.4-7.2 5.8-13.9 11.4-20.1 16.8.9-8.5 2-17.5 3.4-26.8 1.3-2.6 3.8-5.6 8.4-8.4zm-19.9 42.3c-5.4 4.9-10.4 9.6-14.9 14-7.1 6.4-14.1 13-20.7 19.9-2.2 2.2-4.3 4.6-6.4 6.8-1.9 2.2-3.9 4.4-5.8 6.7 1.3-8.5 2.9-16.9 4.8-25.3 5.8-21.4 14.7-45.2 28.1-68.6-1.9 4-3.5 10.4 3.2 13.2 0 0-9.2-10.8 8.3-11.4 0 0 6.9-2 6.9 14.3-1.6 10.7-2.7 20.8-3.5 30.4zm5.9 30.3c.1-8.4.5-17.3 1.2-26.7 10.9-9.8 23.9-20.6 39-32.2 4.8-1.8 10.3-.7 14.1 3-22.6 19.6-40.4 38.7-54.3 55.9z"/></g><g class="st0"><path class="st8" d="M1090 1108.3l-189.8-74.5c-54.4-22-104-42.5-121.8-51.1-33.3-16.1-29.6-26.4-3-33 0 0-51.8 7.6-42.4 31.6 9.4 24-41.7 32.6-101.7-13.4-53.9-41.3-100.2-56.1-53.1-95.5 5.4-4.5 19.8-9.7 19.8-9.7-51 9.1-80.6 42.1-39.4 148.2 7.5 19.3 90.7 224.4 95 235.7l99.2-28.8 337.2-109.5z"/><path class="st8" d="M702.8 989.7l87.8 50.6-.3-2.8c-.9-8.6-6-16.3-13.6-20.6l-44.9-25.4c-5.1-2.9-11-4-16.8-3.3l-12.2 1.5z"/><path class="st2" d="M627.7 966l106.9 61.6-.4-3.5c-1.1-10.5-7.3-19.9-16.5-25.1L663 968c-6.2-3.5-13.4-4.9-20.5-4l-14.8 2z"/><path class="st2" d="M580.8 942.7l59.8 39.5-.1-2c-.3-6.1-3.5-11.8-8.7-15.1l-30.6-19.9c-3.5-2.3-7.6-3.3-11.7-3l-8.7.5z"/><path class="st8" d="M599.5 949.6l26.6 17.6v-.9c-.1-2.7-1.6-5.2-3.9-6.7l-13.6-8.8c-1.5-1-3.4-1.5-5.2-1.4l-3.9.2zm3.5-7l16.1 10.6v-.9c-.1-2.7-1.6-5.2-3.9-6.7l-3.2-1.9c-1.5-1-3.4-1.5-5.2-1.4l-3.8.3z"/></g><g class="st0"><path class="st8" d="M653.7 1246.5s17.9 88.4-29.1 203c-67.7 165.1-218.1 369-218.1 369l738.7-4.3s201.4-656.1-55.3-705.9c-256.6-49.8-436.2 138.2-436.2 138.2z"/></g><g class="st0"><path class="st4" d="M1322.4 1192.9c-41.4-2.2-83 1.5-124.3-1.9-59-4.7-238.1-41.7-258.1-29.7 0 0-220.8 17.6-281.8 13.4-76.2-5.3-229.3-22.1-250.1-25.5-52.5-8.7-125.5-17.6-176.4-7.9-100.4 19.2-156-17.2-193.6-33.8-37.6-16.6-78.6-11-78.6-11l-33 1000.7 2000.9-7.5-10.5-901.8 6-153.1s-77.3-2.6-109.2 17-31.1 56.2-173 36.9c-39.7-5.4-109.1-16.5-147.1 2.8-25.7 13.1-27.5 23.4-46 45.1-16.5 19.4-34.3 52.2-34.8 55-.4 2.7-63.6 3-84 1.6-2.1-.1-4.3-.2-6.4-.3z"/></g><g class="st0"><path class="st4" d="M1367.3 1165.1s-14.6-18.6-39.4-6.2c0 0-5.3 1.8-11.5 2.7 0 0 25.2 29.6 48.7 33.2l79.6 2.7s3.1-99.5-11.1-13.3c0 0-11.1-84.1-20.4-40.3l-5.3 20.4s6.6-50.5-.4-73.5c0 0-16.8 36.3-15.9 85.8 0 0-22.6-52.2-42.5-71.2s-22.1-4.9-8 18.6c14.3 23.4 26.2 41.1 26.2 41.1z"/></g><g class="st0"><path class="st4" d="M1503.6 1089.6l-5.6-23 10.3 15.8s-5.9-25-7.1-31.4c0 0 14.4 22.6 22.7 35.2 0 0-12.6-30.1-8.3-33.5 4.3-3.4 6.6 22.6 15.9 31l7.2-3.1s-7.4-11.7-13.5-18.1c-6.1-6.4-12.3-20.2-.4-9.2 0 0 6.6 9.9 10.3 16.2 0 0 1.3-7.1 3.7-10.8 0 0 5.3 4.5 7 15.4 0 0 3.7-11.2 3.5-17.6 0 0 6.7 13.9 5.9 25 0 0 13.8-43.6 21.1-48.1 7.3-4.5-10.6 32.8-14.1 42.1 0 0 16.2-14.2 23.2-15.3 6.9-1.1-1.3 11-7.9 17.6 0 0 13.4-10.6 23.1-10.5 0 0 1.9-16.3 13.5-20.3 0 0-2.4 16.7-6.6 24 0 0 14.8 7 23.7 30.9 0 0 7.4-13.7 16.1-13.2 0 0-5.4 4.7-2.1 9.5 0 0 6.1-2.7 10.2.2 4 2.9 21.2 1.9 21.2 1.9s16.3-2.5 34.9 26.4c18.6 28.9 41.7 56.3 41.7 56.3l-309.3-16.5c-.2-.2 43.5-75.9 59.7-76.9z"/></g><g class="st0"><path class="st4" d="M320.5 1145.9l8.4-25.7-13.1 17.1s8.8-27.9 10.7-35.2c0 0-18.3 24.4-28.8 38.1 0 0 16.9-33.2 12.3-37.4-4.6-4.2-9.5 25.2-20.7 33.9l-7.9-4.1s9.4-12.6 16.9-19.4c7.5-6.8 15.7-21.9 1.2-10.4 0 0-8.4 10.7-13.1 17.5 0 0-.9-8.2-3.3-12.6 0 0-6.4 4.7-9.3 16.9 0 0-3.3-13.1-2.5-20.3 0 0-8.8 15.2-8.8 27.9 0 0-11.9-50.8-19.9-56.6-7.9-5.8 9.2 38.2 12.4 49.1 0 0-17.2-17.5-25-19.4s.5 12.7 7.4 20.7c0 0-14.3-13.2-25.4-13.9 0 0-.7-18.7-13.6-24.3 0 0 1.3 19.2 5.5 27.9 0 0-17.4 6.8-29.6 33.1 0 0-7.3-16.3-17.2-16.4 0 0 5.7 5.8 1.5 11 0 0-6.8-3.6-11.6-.6s-24.2.4-24.2.4-18.4-4.2-41.9 27c-23.6 31.3-52.2 60.5-52.2 60.5l353.2 7.5c.1.1-43.1-89.7-61.4-92.3z"/></g><g class="st0"><path class="st8" d="M949.1 749.3c-7.6 1.1-15.2 1.9-22.9 2.7-15.3 1.6-30.6 2.8-45.9 3.9-15.3 1.2-30.7 2.2-46 3.5-7.7.7-15.3 1.4-23 2.3-7.7.9-15.3 2-22.9 3.6-3.8.8-7.6 1.8-11.3 3.2-3.7 1.4-7.4 3.1-10.5 5.7-1.6 1.3-3 3-4 4.8-1 1.9-1.6 4-1.8 6-.2 2.1 0 4.1.4 6.1s1 3.9 1.7 5.7c1.4 3.7 3.2 7.2 5.1 10.5 1.9 3.3 3.7 6.7 5.5 10.1 1.7 3.4 3.4 6.8 4.8 10.3 1.4 3.5 2.5 7.1 2.8 10.8l.1 1.4c0 .4 0 .9-.1 1.3 0 .9-.2 1.8-.4 2.6-.1.4-.3.8-.4 1.2-.1.4-.3.8-.5 1.2l-.6 1.2c-.2.4-.5.7-.8 1-2.2 2.8-5.5 4.6-8.9 6-3.5 1.3-7.2 2.2-10.9 2.9-3.7.6-7.5 1.2-11.3 1.5-15.2 1.4-30.6 2.3-46 2v.6c1.9.4 3.8.8 5.7 1.1 1.9.4 3.8.7 5.8 1 3.9.6 7.7-.3 11.6.2 7.8 1 15.6-.8 23.6-.7 12.9 0 29.4-1.3 38.6-11.9 8.3-9.5 7.2-17 3.4-28.2-1.4-4.2-3.1-8-4.8-11.8-1.7-3.7-3.4-7.3-5.3-10.8-1.8-3.4-7.4-11.5-4.3-15.2.3-.4.8-.9 1.3-1.5l11.5 25.1.7-1.3c2.2-4 2.4-8.8.4-12.9-3.9-8.1 1.4-15.6 9.3-19.8 9.9-5.2 28.6-7.1 54.7-10.5 26.1-3.4 49.4-6.9 78.7-10 11.3-1.2 42.7-4.4 45.5-12.4 0 0-6.4 3.5-6.4 3.4.5.6-17.7 3.4-22.2 4.1z"/></g><g class="st0"><path class="st5" d="M1104 591.6v-11.2l80.9 25.6v11.2z"/></g><g class="st0"><path class="st11" d="M1104 580.4l81-27.3 77.9 27.3s-63.3-15.9-78.2-16.1c-14.9-.2-80.7 16.1-80.7 16.1z"/></g><g class="st0"><path class="st6" d="M1184.9 606l77.9-25.6v11.2l-77.9 25.6z"/></g><g class="st0"><path class="st2" d="M1131.3 588.4l.9 5.8s.2-3.8 1.9-4.3-2.8-1.5-2.8-1.5zm5 .4l.7 10.2s.2-6.7 1.5-7.5c1.5-.8-2.2-2.7-2.2-2.7z"/><path class="st5" d="M1133.9 590.1l3.9-1.6-1.9 3.3z"/></g><g class="st0"><path class="st1" d="M1219.8 594.2l-.7 3.1s-.6-2.1-1.9-2.4 2.6-.7 2.6-.7z"/></g><g class="st0"><path class="st1" d="M1217 593.9l-.6 7s-.1-4.3-1.2-4.9c-1.1-.6 1.8-2.1 1.8-2.1z"/></g><g class="st0"><path class="st1" d="M1230.9 590.6l-.9 4.9s-.2-2.9-1.9-3.4c-1.6-.4 2.8-1.5 2.8-1.5z"/></g><g class="st0"><path class="st1" d="M1234.6 588.3l-.3 8.8s-1.1-5.8-2.5-6.6c-1.4-.8 2.8-2.2 2.8-2.2z"/></g><g class="st0"><path class="st2" d="M1211.9 597.1l28.7-9.4s-8.4-2.3-8.6-2.2-24.1 4.5-24.1 4.5l4 7.1z"/></g><g class="st0"><path class="st6" d="M1218.5 595.5l-3.5-1.2 2 2.1z"/></g><g class="st0"><path class="st6" d="M1236.8 589.1l-4.9-1.2 2.9 2.4z"/></g><g class="st0"><path class="st6" d="M1232.1 590.6l-3.2-1.2 2 3.1z"/></g><g class="st0"><path class="st2" d="M763.7 1051.5l-52.7-30.3.2 1.7c.6 5.2 3.6 9.8 8.1 12.4l27 15.3c3.1 1.7 6.6 2.4 10.1 2l7.3-1.1z"/></g><g class="st0"><path class="st4" d="M1296.2 967.9s15.4-21 2.4-28c-7.3-3.9-6.5 14.8-2.4 28zm-11.8-17.1c-1.3 2.4 14.2-23.9-2-26.1-6.4-.9-4.2 14.4 2 26.1zm-7.3-3.4s-21.8 2.2-18.8-9.4c1.3-5.1 12 1.3 18.8 9.4zm26.9 47.1s-.6 21.9-11.8 17.4c-4.8-1.9 2.9-11.7 11.8-17.4zm-.8-14.1s21-12.8 12.7-25.1c-4.8-7.1-11.5 11.4-12.7 25.1zm8.4 14.5s12.6 7.1 16.5-.6c2.3-4.6-9.1-2.7-16.5.6zm-15.1-19.6s-23.8 11.3-28.4-2.8c-2.5-7.8 16-3.6 28.4 2.8zm-9.3-13.7s-27.1 5.7-24.9-9.1c1-6.5 15.3-.1 24.9 9.1zm13.6 23.2s-14.7 20.1-26.3 10.9c-6.8-5.3 12.3-10.7 26.3-10.9zm-30.5-46.8s-.7-12.7-9.7-16.1 2.1 10 9.7 16.1zm37.8 51.3s12-.8 15.3-10.7c3.3-10-9.5 2.3-15.3 10.7z"/><path class="st4" d="M1270.3 937c5.4 6 10.3 12.5 14.8 19.2 4.5 6.7 8.6 13.7 12.3 20.8l1.4 2.7c.5.9.9 1.8 1.3 2.7l2.6 5.5c1.5 3.7 3.2 7.4 4.5 11.2 2.9 7.5 12.2 35.6 14 43.3l.3 1.4c2.9 2.1 5.5-.2 4.9-2.5v-.1c-2.3-7.9-12.2-36.1-15.5-43.6-1.5-3.8-3.4-7.4-5.2-11.1l-2.9-5.4-1.5-2.7-1.6-2.6c-4.1-7-8.7-13.8-13.6-20.3-4.8-6.5-10-12.8-15.8-18.5z"/><path class="st4" d="M1323.8 1045.2c-.8 0-1.7-.3-2.6-.9-.1-.1-.2-.2-.2-.3l-.3-1.4c-1.8-7.6-11.1-35.6-14-43.3-.9-2.7-2-5.3-3.1-7.8-.5-1.1-.9-2.2-1.4-3.3l-2.5-5.4c-.2-.3-.3-.6-.5-1-.3-.6-.5-1.2-.8-1.7l-1.4-2.7c-3.7-7.1-7.8-14.1-12.3-20.8-5-7.4-9.8-13.7-14.8-19.2-.2-.2-.2-.5 0-.7.2-.2.5-.2.7 0 5.3 5.3 10.5 11.3 16 18.5 4.9 6.5 9.5 13.3 13.6 20.4l1.6 2.6c.3.6.7 1.2 1 1.8.2.3.3.6.5.9l2.9 5.4c.5 1.1 1.1 2.2 1.6 3.3 1.2 2.6 2.5 5.2 3.6 7.9 3.4 7.7 13.3 36.1 15.5 43.6v.2c.3 1.3-.2 2.6-1.3 3.4-.5.3-1.1.5-1.8.5zm-1.8-1.6c1.1.7 2.3.8 3.1.2.8-.5 1.1-1.5.9-2.3v-.1c-2.2-7.5-12.1-35.8-15.5-43.5-1.1-2.7-2.4-5.3-3.6-7.8-.5-1.1-1.1-2.2-1.6-3.3l-2.9-5.4c-.2-.3-.3-.6-.5-.9-.3-.6-.6-1.2-1-1.7l-1.6-2.6c-4.1-7-8.7-13.8-13.6-20.3-1.5-1.9-2.9-3.8-4.4-5.6 1.3 1.9 2.7 3.8 4.1 5.8 4.5 6.7 8.7 13.7 12.4 20.9l1.4 2.7.9 1.8c.1.3.3.6.5 1l2.6 5.5c.5 1.1.9 2.2 1.4 3.3 1.1 2.6 2.2 5.2 3.1 7.9 3 7.7 12.2 35.8 14.1 43.4l.2 1z"/></g><g class="st0"><path class="st1" d="M900.2 1033.9c-18.8-7.6-37.1-15.1-53.6-21.9-3.7 1.3-9.4.7-12.8 3.4-6.7 5.2-13.3 10.5-20 15.7l-16.3 12.6-16.6 3.8-15.1 11.7 6.7 4.3 3.1 27.1 36.5 22.6 58.1-13.6 56.1-31.8 15.7-3.9 11.7-9.1-53.5-20.9z"/></g><g class="st0"><path class="st5" d="M703 878.7s4.7-3 6.5-7.2c0 0 4.2-.2 7.6 1.5 2.4 1.2 4.3 2.7 4.3 6.4 0 0-4.9 1.1-10.5.5-5.5-.8-2.9-.6-7.9-1.2z"/></g><g class="st0"><path class="st1" d="M1149.5 594l1.3-.7 1.9 1.7s.7-.8 2.2.2l1.9-2s1 2.2.3 3.2c0 0 3.2-1.5 5.6.8 2.4 2.3 3.4 2.1 3.1.6v-2.5s1.1 3.8 2.1 4.6 0 .6 0 .3.2-13.8 5-22.2c0 0-3.3 11.1-3 20.5 0 0 1.7-3 3.5-3.3 0 0-1.1 1.8-.5 5l1.7 2.7s13 5.4-12.4-2.1 3-.3-12.3-5c-15.4-4.8-7.5-3.7-.4-1.8z"/></g><g class="st0"><path class="st1" d="M1161.5 659.4l.9-.5 1.3 1.2s.5-.6 1.5.1l1.3-1.4s.7 1.5.2 2.3c0 0 2.2-1.1 3.9.5s2.4 1.5 2.1.4v-1.7s.8 2.7 1.5 3.2 0 .4 0 .2-1.1-4.4 2.2-10.2c0 0-1.1 2.5-.9 9 0 0 1.2-2.1 2.5-2.3 0 0-.7 1.2-.3 3.5l1.2 1.9s9.1 3.8-8.7-1.5c-17.8-5.2 2.1-.2-8.6-3.5-10.6-3.3-5.1-2.6-.1-1.2z"/></g><g class="st0"><path class="st1" d="M1156.5 599s5.4 1.4 6.2 5.2c1 5.1 1-2.5 7.2-1.3 5.1 1-13.4-3.9-13.4-3.9z"/></g><path clip-path="url(#SVGID_2_)" fill="none" d="M0 0h1920v1800H0z"/></svg>