<svg version="1.1" id="Ebene_1" xmlns="http://www.w3.org/2000/svg" x="0" y="0" viewBox="0 0 1920 1680" xml:space="preserve"><style>.st0{fill:#0982b2}.st1{fill:#0b99cc}.st2{fill:#5dcbf2}.st4{fill:#0a4c6f}.st5{fill:#0a668e}.st6{fill:#0a223e}.st7{fill:#0a3d5d}.st8{fill:#0a2e4b}.st9{fill:#87e0ff}.st11{opacity:.8}.st12{fill:#27b9ed}.st13{fill:#fff}</style><path class="st0" d="M478.1 827.1s50 .7 114 2 101.3-2 161.3 0 78 1.3 138.7.3 159.3.9 215.3 1c56 0 57.3 4.7 78.7-1.3s6.7 1.7 32 .9c25.3-.9 120.7 2.2 120.7 2.2l108.7-2.7s-32.5-46.7-38.5-57c-.7-1.3-3-2.5-4.7-5.4-.9-1.6-.9-4.4-2-6.3-13.2-23.3-39.3-69.9-39.3-69.9l-5.1-.7c-4.8-.7-7-6.3-3.9-10l1.1-1.3-4.6-8.4-3-.9.3-5.2-12.2-15.4c-1-1.2-1.8.6-2.5-.8l.1-4.8-12.1-20.1-48.3-78.8c-208 1.6-208 1.6-237.3 1.1-17.4-.3-98.7-2.6-98.7-2.6l-262.4-1.2c-1.8 0-3.5.9-4.5 2.4l-21.1 32.4-.6 4.2-4.8 2.2-7 12.8-1.7 6-4.3 1.9-21.4 31.2 1.4 7.3-7.7 2.6-11.3 15.2-14 20.3-.8 4.4-6.1 4.4-92.4 138z"/><path class="st1" d="M1409 772.4c-.7-1.3-3-2.5-4.7-5.4-.9-1.6-.9-4.4-2-6.3-13.2-23.3-39.3-69.9-39.3-69.9l-5.1-.7c-4.8-.7-7-6.3-3.9-10l1.1-1.3-4.6-8.4-3-.9.3-5.2-12.2-15.4c-1-1.2-1.8.6-2.5-.8l.1-4.8-12.1-20.1-48.3-78.8c-208 1.6-208 1.6-237.3 1.1-17.4-.3-98.7-.6-98.7-.6l-169.7-2.7c-11 11.3-27.8 27.8-34 43.4-7.4 18.5-13.8 39.8-16.9 59.5-.9 5.6-1.1 18.5-5 22.4-1.6-3.7-.7-12.2-6-12.4-3.3 9.1.5 23.2 2.8 32.4 5.2 20.8 12 40.7 22.6 59.6 2.1 3.7 3.9 7.6 6.9 10.6-.4-2.7-.3-5.5.3-8.2 0-.1 0-.2-.1-.3h.2c.3-1.2.7-2.4 1.2-3.6l1.5-1.2c7.8 19.8 39.2 52.6 39.2 52.6l-1.8.2c-5.9.4-11.7-1.5-16.2-5.1.9.9 1.7 1.9 2.3 2.7 3.3 4.5 6.5 8.5 9.4 13.2 4.6 7.4 16.8 19 18.5 21.5.1.1 0 .3 0 .5 33.1.6 54.6 0 100-.7 60.7-1 159.3.9 215.3 1 56 0 57.3 4.7 78.7-1.3s6.7 1.7 32 .9c25.3-.9 120.7 2.2 120.7 2.2l108.7-2.7s-32.5-46.7-38.4-57z"/><path class="st2" d="M1412.9 777.2c-.8-1.2-3.6-4-4.1-4.8-.8-1.3-3.3-2.5-5.1-5.4-1-1.6-1-4.4-2.2-6.3-2-3.2-3.8-7-5.6-11.1-13.8-24.5-33-58.8-33-58.8l-5.1-.7c-4.8-.7-7-6.3-3.9-10l1.1-1.3-4.6-8.4-3-.9.3-5.2-12.2-15.4c-1-1.2-1.8.6-2.5-.8l.1-4.8-12.1-20.1-48.3-78.8c-208 1.6-208 1.6-237.3 1.1h-2.1c-3.5.1-6.7.1-9.6.1-4.7 3.3-19.7 10.1-30.3 19.1-26.3 22.2-36 40.8-40.4 60.8-4 18.2-4.6 35.1.5 52.8 1.1 3.6 10.7 31.7 46.1 60.2 6.4 5.2 14.9 11.2 22.5 14.8.1.5 4.1 1.6 4.2 2.1 15.9 7.6 28.4 13.2 46.1 17.9 26.2 6.9 48.8 14.1 75 20.9 6.9 1.8 13.5 2.9 21.5 4.8-1-3.4-6.5-4-10-5.1.3-3.6 9.8.5 12.7 1.2 9.4 2.2 19.4 3.7 28.8 5.8 7.7 1.7 15.6 1.8 23.4 3.3 25.3 4.7 52.3 3.8 78 1.8 32.9-2.5 66.3-9.4 96.4-21.4 3.2-1.3 10-5 14.7-7.4z"/><path class="st2" d="M1358.1 735.4c.5-.2 12.7-5.5 24.1-10.6-10.1-18-19.1-34.1-19.1-34.1l-5.1-.7c-4.8-.7-7-6.3-3.9-10l1.1-1.3-4.6-8.4-3-.9.3-5.2-12.2-15.4c-1-1.2-1.8.6-2.5-.8l.1-4.8-12.1-20.1-48.3-78.8c-159.1 1.2-159.1 1.2-218.6 1.2l-.8 2c-18.6 9.3-32.2 23.5-45.5 38.3-9.5 10.6-16.8 23-22.3 36.2-1.1 2.6-3.4 7.5-2.4 10.3 1.5-1.2 2.1-4.3 4.3-3.8-1 3-.9 6.3-.9 9.7-.1 6.6-2.1 12.9-1.8 19.6.4 8.1 3.6 14.8 6.1 22.3.8 2.5 2.4 6.4 4.2 8.4l.6 1.4c4.1 6.1 13.4 18.1 24.9 26.5 4.6 3.4 14.7 11.3 21 11.1l-.4.4c30.8 12.6 65 16.9 97.2 25.1 12.8 3.3 22.6 4.6 35.4 6.7 5.2.8 8.5 1.9 12.8 1.5 9.5-.9 18.9.9 28.4-.1 18.5-1.8 39.8-.1 57.2-6.2-3.7-3.3-13.9.1-15.4-5.3 12.8-.4 27.2-.7 39.6-3.7 1.8-.4 16.4-4 9.9 2-1.1 3.9 7.1 1.1 10.6.1 8.3-2.4 17-4 25.2-7 5.2-2 10.3-3.8 15.9-5.6z"/><g opacity=".5"><path class="st4" d="M600.6 807.1c7.2-.3 14.4.5 21.4-.1 7.1-.6 14.2-1.3 21.4-1.9 7.2-.8 14.4-.5 21.6-.6 7.1 0 14.2-1 21.4-1.6 7.2-.7 14.4-.5 21.6 0 7.2.5 14.3 1.4 21.4 1.6 3.6.1 7.1.1 10.6-.2 1.8-.2 3.6-.3 5.4-.4 1.8 0 3.7.1 5.5.3 3.6.5 7.1 1.1 10.6 1.5 1.8.2 3.6.3 5.3.2 1.8 0 3.6-.2 5.3-.7-3.4 1.2-7.1 1.4-10.7 1.3-3.6-.1-7.2-.5-10.7-.8-1.8-.1-3.5-.4-5.3-.3-1.8 0-3.5.2-5.3.4-3.6.3-7.2.3-10.8.2-7.2-.2-14.3-1-21.5-1.6-7.1-.6-14.2-.8-21.3 0-7.1.7-14.3 1.7-21.5 1.7-7.2.1-14.3-.2-21.4.6-7.2.7-14.3 1.4-21.4 2-3.6.1-7.2-.2-10.8-.5-3.7-.6-7.2-1-10.8-1.1zm-53.5-29.5c8.9-.3 17.9-.5 26.8-.8h26.8c8.9.1 17.9.5 26.8.5 9-.1 17.9 1.3 26.8 1 2.2-.1 4.4-.3 6.6-.6 2.2-.3 4.5-.5 6.7-.6 4.5-.2 9 0 13.5.4 8.9 1 17.8 1.6 26.7 1.5 4.4 0 8.9-.3 13.3-.7l13.3-1.3c4.5-.3 8.9-.5 13.4-.7s9-.3 13.4 0c-4.5 0-8.9.4-13.4.8-4.4.4-8.9.9-13.3 1.4l-13.3 1.3c-4.5.4-9 .7-13.4.7-9 .1-17.9-.6-26.8-1.5-4.4-.4-8.9-.6-13.3-.4-2.2.1-4.4.3-6.6.6-2.2.3-4.5.5-6.8.6-9 .2-17.9-1.2-26.8-1-9 0-17.9-.4-26.8-.5-8.9-.1-17.9 0-26.8 0-8.9-.2-17.9-.4-26.8-.7zm133-218c.6-.3 1.1-.7 1.8-.9.6-.2 1.2-.5 1.9-.7 1.3-.2 2.6-.3 3.9-.3 2.6-.1 5.2.1 7.7.4 2.6.2 5.1.5 7.6.8 1.3.1 2.5.2 3.8.3l3.8.9c-1.3.3-2.6.5-3.9.6-1.3-.1-2.6-.2-3.8-.3-2.6-.3-5.1-.6-7.6-.8s-5.1-.4-7.6-.4c-1.3 0-2.5.1-3.7.3-.6-.1-1.3 0-1.9 0-.7 0-1.3 0-2 .1zm-14.5 10.5c3.1-.3 6.3-.5 9.4-.8h9.4c6.3 0 12.5-.1 18.8-.3 3.1-.1 6.3-.2 9.4-.4 3.1-.2 6.3-.1 9.5 0 3.1.1 6.3.1 9.3 0 3.1.1 6.2-.1 9.2-1-2.8 1.5-6 2.1-9.2 2.5-3.2.2-6.3.1-9.5 0-3.1-.1-6.2-.2-9.3 0-3.1.1-6.3.3-9.4.4-6.3.2-12.5.3-18.8.3H675c-3.1-.2-6.3-.4-9.4-.7zm-18.5 10c1.5.1 3 0 4.4-.1 1.4.1 2.9.1 4.4 0 2.9-.1 5.9-.4 8.9-.5s6-.1 8.9-.1h4.4c1.5.2 3 .4 4.4.8-1.5.3-3 .5-4.4.8h-4.4c-3 0-5.9-.1-8.9.1-2.9.1-5.9.4-8.9.5-1.5.1-3 .1-4.5 0-1.4-.4-2.9-.8-4.3-1.5zm-12 21c1.8-.5 3.7-.9 5.5-1.2 1.9-.1 3.7-.1 5.6-.1 3.7 0 7.4 0 11.1-.1l11.1-.3 5.6-.1c1.9.2 3.7.4 5.6.7-1.9.3-3.7.5-5.6.8l-5.6.1-11.1.3c-3.7.1-7.5.1-11.1.1-1.9 0-3.7 0-5.5.1-1.9-.2-3.7-.3-5.6-.3zm-24.5 41c1.7-.9 3.7-1.3 5.6-1.6 1.9 0 3.8 0 5.7-.1.9-.1 1.8-.2 2.7-.4s1.8-.4 2.8-.7c1.9-.5 3.9-.8 5.9-.7 3.8.4 7.6.5 11.4.5h5.7c1.9.3 3.8.4 5.7.8l-5.7.7h-5.7c-3.8 0-7.7-.2-11.5-.5-1.8-.1-3.6.1-5.4.6-.9.2-1.9.5-2.8.7-1 .2-2 .3-2.9.4-2 .1-3.9 0-5.8.1-1.9-.1-3.8-.1-5.7.2zm-20 19.5c1.3-.9 2.9-1.3 4.5-1.7 1.6-.1 3.1-.2 4.7-.2 3.1 0 6.2.2 9.2.1 3.1-.1 6.2-.2 9.3-.2 1.6 0 3.1 0 4.7.1 1.5.3 3.1.5 4.6.9-1.6.2-3.1.4-4.7.6-1.5 0-3.1-.1-4.6-.1-3.1 0-6.1.1-9.3.2-3.2.1-6.2-.1-9.3-.1-1.5 0-3.1 0-4.6.2-1.4-.1-2.9-.1-4.5.2zm-13.5 22l4.8-.9 4.8-.1 9.5-.2c3.1-.1 6.3-.5 9.5-.7 1.6-.1 3.2-.1 4.8-.1 1.6.3 3.2.7 4.7 1.4-1.6-.1-3.2-.1-4.7.1-1.5-.1-3.1 0-4.7 0-3.1.2-6.3.6-9.5.7l-9.5.2-4.8.1c-1.7-.1-3.3-.3-4.9-.5zm-26.5 57.5c6.1-.6 12.3-.8 18.4-.9 6.2 0 12.3 0 18.5.2l18.4.9c6.1.3 12.3.6 18.4 1l36.8 2.4c6.1.4 12.3.7 18.4 1 3.1.2 6.1.2 9.3.5 3.1.3 6.2 1.1 9.1 2.4l2.4 1.1-2.7.3c-5.3.6-10.6.2-15.7.8-5.1.6-10.1 2.3-15.4 3.2-2.6.4-5.4.6-8 .4-2.6-.2-5.2-.3-7.9-.4-5.2-.2-10.5-.4-15.7-.5l-15.7-.2-7.9-.1c-2.6 0-5.3-.1-7.9-.2-2.6-.1-5.3-.3-7.9-.4-2.6-.1-5.3-.3-7.9-.7-2.6-.3-5.2-.7-7.8-.7l-2-.1c-.7 0-1.3-.1-2 0l-2 .2-1 .1h-.4.5-.6.4l1-.2 2-.3c.7-.1 1.3-.1 2-.1h2c2.6-.1 5.3.2 7.9.4 2.6.2 5.2.3 7.8.4 2.6.1 5.2.1 7.9.1l31.5.4c5.3.1 10.5.2 15.8.5 2.6.1 5.3.3 7.9.4 2.6.2 5.1.1 7.7-.4 5.1-.8 10.1-2.5 15.5-3.2 5.3-.6 10.6-.2 15.7-.8l-.2 1.4c-2.7-1.3-5.6-2-8.6-2.3s-6.1-.4-9.2-.5c-6.1-.3-12.3-.6-18.4-1l-36.8-2.4c-6.1-.4-12.3-.7-18.4-1-6.1-.3-12.3-.7-18.4-.9-6.1-.3-12.3-.7-18.4-.9-6.1-.2-12.3-.2-18.4.1zm25.5-11c5.4-.3 10.9-.4 16.3-.5 5.4.2 10.9.4 16.3.6 10.9.4 21.7 1 32.6 1.3 5.4.2 10.9.3 16.3.3 5.4.1 10.9 0 16.3-.3 5.4-.2 10.9-.5 16.3-.7 5.6 0 10.8 1.7 16.3 1.8-5.5.6-10.9-.7-16.3-.3-5.4.2-10.9.5-16.3.7-5.4.2-10.9.3-16.4.3l-16.3-.3c-10.9-.4-21.8-.9-32.6-1.3-5.4-.2-10.9-.4-16.3-.6-5.3-.4-10.8-.7-16.2-1zm99 30.5c2.1-.3 4.2-.6 6.2-.8l6.3-.1 12.5-.1 12.5-.1 6.3-.1c2.1.2 4.2.4 6.3.7-2.1.3-4.2.5-6.2.8l-6.2.1-12.5.1-12.5.1-6.2.1c-2.3-.2-4.4-.4-6.5-.7z"/><path class="st1" d="M968.1 646.4c6.5-.1 13-.1 19.5 0l19.5.1c3.3 0 6.5.1 9.7.2l9.7.2c3.2 0 6.5.3 9.7.1 1.6-.1 3.1-.4 4.5-1.1 1.4-.6 2.6-1.5 3.7-2.6l.1 1.1c-.7-.5-1.5-.9-2.4-1.1-.9-.2-1.8-.3-2.8-.5s-2.1-.4-3-1c-1-.5-1.8-1.3-2.4-2.2l-.3-.4.3-.4c.7-.9 1.6-1.6 2.6-2.1s2-.7 3.1-.8c2.1-.3 4.1-.1 6.1.1s3.9.6 5.9.9c1 .2 1.9.3 2.9.5.9.1 1.9.2 2.9.2 7.8.4 15.7-.2 23.5-.5 7.9-.4 15.8-.6 23.6-.8 3.9-.2 7.9 0 11.8.1s7.9.2 11.8.4l-11.8.5c-3.9.2-7.9.4-11.8.4-7.9.2-15.7.4-23.6.8-7.9.4-15.7.9-23.7.5-1-.1-2-.1-3-.2s-2-.3-3-.5c-1.9-.3-3.9-.7-5.8-.9s-3.9-.3-5.7-.1c-1.8.2-3.6.9-4.6 2.3v-.8c.5.7 1.1 1.3 1.9 1.8.7.4 1.6.6 2.6.8.9.2 1.9.3 3 .5 1 .2 2.1.7 2.9 1.4l.7.5-.6.6c-1.2 1.2-2.6 2.3-4.2 3s-3.3 1-5 1.2c-3.4.2-6.6-.1-9.8 0l-9.8-.2c-3.3 0-6.5-.1-9.7-.3l-19.5-.8c-6.5-.4-13-.7-19.5-.9zm54 13.7c6-.8 12-.9 18-1 6 .2 12 .4 18 .1 12-.4 24-1.9 36.1-1.3 12 .5 24 .8 36 .9h4.5c1.5 0 3 0 4.5-.1 3-.1 5.9-.5 8.9-.8 3-.2 6-.3 9.1-.2 3 .1 6.1.6 8.9 1.8-2.9-.9-5.9-1.1-8.9-1s-6 .5-8.9.9c-3 .3-6 .6-9 .8-1.5.1-3.1.1-4.5.1h-4.5c-12-.1-24.1-.5-36.1-.9-12-.6-23.9.9-36 1.3-6 .2-12.1 0-18.1-.1-6-.4-12-.7-18-.5zm-32 18.1c3-.3 5.9-.6 8.9-1.1 3-.2 5.9-.5 8.8-1 2.9-.4 5.8-1.2 8.9-1.2 1.5 0 3.1.1 4.6.3l2.2.4c.7.1 1.4.2 2.2.3 5.8.7 11.8.3 17.8.8 3 .3 5.9.5 8.8.4 2.9.2 5.9.1 8.8-.6-2.7 1.2-5.8 1.7-8.8 2.1-3 .1-6.1-.1-9-.4-5.9-.4-11.9-.1-17.9-.8-.8-.1-1.5-.2-2.2-.3l-2.2-.4c-1.4-.2-2.9-.4-4.3-.3-2.9.1-5.8.8-8.7 1.2-3 .5-6 .8-8.9 1-3.1 0-6-.1-9-.4zm-34-51.1c3-.3 5.9-.6 8.9-1.1 3-.2 5.9-.5 8.8-1 2.9-.4 5.8-1.2 8.9-1.2 1.5 0 3.1.1 4.6.3l2.2.4c.7.1 1.4.2 2.2.3 5.8.7 11.8.3 17.8.8 3 .3 5.9.5 8.8.4 2.9.2 5.9.1 8.8-.6-2.7 1.2-5.8 1.7-8.8 2.1-3 .1-6.1-.1-9-.4-5.9-.4-11.9-.1-17.9-.8-.8-.1-1.5-.2-2.2-.3l-2.2-.4c-1.4-.2-2.9-.4-4.3-.3-2.9.1-5.8.8-8.7 1.2-3 .5-6 .8-8.9 1-3 0-6-.1-9-.4zm22.7-17.4l21.7-.6c7.2-.2 14.4-.5 21.7-.5 7.2-.1 14.4-.1 21.7-.3 1.8 0 3.6-.1 5.4-.1s3.6 0 5.4-.1c3.5-.1 7.2-.6 10-2.4l-.3.9c-.3-.7-.5-1.5-.5-2.3s.3-1.7.9-2.4c1.1-1.3 2.7-1.8 4.1-2.1 2.9-.6 5.7-.6 8.5-.5s5.6.3 8.4.5h2l2.1-.1 4.2-.2c5.6-.3 11.2-.6 16.8-.8 2.8-.2 5.6 0 8.4 0l8.4.3-8.4.6c-2.8.2-5.6.5-8.4.5-5.6.2-11.2.5-16.8.8l-4.2.2-2.1.1c-.7 0-1.5.1-2.2 0-2.8-.1-5.6-.4-8.4-.5s-5.6-.1-8.2.5c-1.3.3-2.6.8-3.3 1.6-.7.8-.6 2-.1 3.2l.2.6-.5.3c-1.6 1-3.5 1.6-5.3 2s-3.7.5-5.5.6-3.6.1-5.4.1-3.6.1-5.4.1l-21.7.3c-7.2.2-14.4 0-21.7-.1-7.1.1-14.3 0-21.5-.2zm59.3-17.6l10.1-.9c3.4-.1 6.7-.2 10.1-.4 6.7-.3 13.5-.6 20.2-.7 3.4 0 6.8-.1 10.1 0 1.7 0 3.4.1 5.1.2 1.7.1 3.4.3 5.1.4 3.3.3 6.7.5 10 .5 1.7.1 3.3.2 5 .1l1.2-.1 1.2-.2 1.2-.3c.4-.1.7-.4 1.1-.5-1.3 1.1-3 1.6-4.7 2-1.7.3-3.4.5-5.1.6-3.4 0-6.8-.3-10.2-.5-1.7-.1-3.4-.3-5-.4-1.7-.1-3.3-.2-5-.2-3.4-.1-6.7-.1-10.1 0-6.7.1-13.5.4-20.2.7l-10.1.4c-3.2-.3-6.6-.4-10-.7zm165.5 82c12.1.2 24-1.8 36-2.4 6-.3 12.1-.2 18.1.4 6 .6 12 1.3 18 1.4 3 0 6-.1 8.9-.5 1.5-.2 2.9-.5 4.4-.8 1.5-.2 3-.5 4.5-.7 6-.8 12-1.2 18.1-1.3 6-.1 12.1.1 18.1.3 5.9.1 11.8-1.1 17.8-2.2l.3 1.5c-5.9 1-11.9 2.2-18 2.1-6-.3-12-.6-18-.5-6 0-12 .3-18 1.1l-4.5.6c-1.5.3-3 .5-4.5.7-3 .4-6.1.5-9.1.4-6.1-.2-12-1-18-1.6-6-.7-12-.9-18-.6-12.1.5-24 2.3-36.1 2.1zm151 5.2c-1.3-.4-2.6-.3-4-.3-1.3 0-2.6.2-4 .3-2.6.3-5.3.7-7.9 1.1-2.6.4-5.2.9-7.9 1.3-1.3.2-2.6.5-4 .7-1.3.2-2.7.3-4 .4-2.7.2-5.3.1-7.9.4l-7.9 1c-5.3.6-10.6 1.1-15.9 1.5s-10.7.6-16 .6c-2.7 0-5.3.1-7.9.3-2.6.3-5.2.7-7.9 1.1-2.6.4-5.2.9-7.9 1.3-1.3.2-2.6.4-4 .5s-2.7.2-4 .2c-2.7.1-5.3.2-7.8.7-1.2.3-2.5.7-3.6 1.2-1.1.6-2.1 1.4-3 2.2l-.3-1.2c2.5 1 5.2 1.5 7.9 1.7 2.7.2 5.5.1 8.2-.2 5.5-.5 10.9-1.6 16.4-2.7 5.5-1.1 11.1-1.6 16.7-1.7 5.6-.1 11.2.3 16.7.5 5.5.3 11.1.4 16.7.4h8.3c2.8 0 5.6.1 8.4.4 2.8.2 5.5.5 8.3.6 1.4.1 2.8 0 4.1 0 1.4-.1 2.7-.2 4.1-.4 5.6-.6 11.2-.4 16.7-.3-5.6.2-11.1.3-16.6 1.1-1.4.2-2.8.5-4.2.6-1.4.1-2.8.2-4.2.2-2.8 0-5.6-.1-8.4-.3s-5.5-.4-8.3-.4h-8.4c-5.6 0-11.1-.1-16.7-.4-5.6-.3-11.1-.6-16.6-.5s-11 .6-16.5 1.6c-5.5 1.1-10.9 2.2-16.5 2.7-2.8.3-5.6.4-8.5.2-2.8-.2-5.7-.7-8.4-1.8l-1-.4.7-.8c1-1 2.1-1.9 3.4-2.6 1.3-.6 2.6-1.1 3.9-1.4 2.7-.6 5.4-.7 8.1-.8 1.3 0 2.6-.1 3.9-.2 1.3-.1 2.6-.3 3.9-.5 2.6-.4 5.2-.8 7.9-1.3 2.6-.4 5.3-.8 7.9-1.1 2.7-.3 5.4-.4 8-.3 5.3 0 10.6-.3 15.9-.6 5.3-.4 10.6-.9 15.9-1.5l7.9-1c2.7-.3 5.4-.3 8-.4 1.3 0 2.6-.1 3.9-.2 1.3-.1 2.6-.3 3.9-.5 2.6-.3 5.3-.7 7.9-1s5.3-.6 8-.7c1.3-.1 2.7-.1 4-.1 2 .3 3.4.3 4.6.8zm-128 32.3c1.2-.9 2.6-1.5 4.1-1.8s3-.4 4.5-.5 3-.1 4.4-.3c1.5-.2 2.9-.5 4.4-.7 3-.4 6-.9 9-1 1.5-.1 3.1 0 4.5.1 1.5.1 3 .1 4.5.1 6 .1 11.9-.2 17.9-.7 3-.3 5.9-.6 8.9-1s6.1-.5 9.1-.3c6 .3 12 1.4 17.9 1.9 5.9.4 11.7-1 17.5-2.3 2.9-.7 5.9-1.3 8.9-1.8 3-.4 6.1-.6 9.1-.5 2.9.2 6 .2 9 .3 1.5.1 3 .2 4.5.4s3 .4 4.4 1c-1.4-.5-2.9-.6-4.4-.6-1.5-.1-3 0-4.5 0-3 .1-6 .3-9 .4-5.9-.4-11.7.9-17.6 2.2-5.8 1.3-11.8 2.7-18 2.3-6-.5-11.9-1.6-17.8-1.9-3-.2-5.9-.1-8.8.3-3 .4-6 .8-9 1-6 .5-12 .8-18 .7-1.5 0-3 0-4.5-.1s-3-.1-4.4-.1c-2.9.1-5.9.5-8.8 1-1.5.2-3 .3-4.5.4-1.5.1-3 0-4.5 0s-3-.1-4.4.1c-1.7.2-3.1.5-4.4 1.4zm49-59.5c4.8 0 9.6-.4 14.4-1.1 4.8-.6 9.5-1.4 14.3-1.9 2.4-.3 4.8-.4 7.2-.5 1.2 0 2.4-.1 3.6 0h1.8c.6 0 1.2-.1 1.8-.1 2.4-.2 4.8-.5 7.2-.7l3.6-.3h1.9c.3 0 .6 0 1 .1.2 0 .3.1.6.1.2.1.5.1.8.6l-1.3.7c.2.2.2.1.1.1s-.2-.1-.3-.1c-.3 0-.5-.1-.8-.1h-1.8c-1.2 0-2.4.1-3.6.2-2.4.2-4.8.4-7.2.5-.6 0-1.2.1-1.8.1-.6 0-1.2 0-1.8-.1-1.2-.1-2.4-.1-3.6-.1-2.4 0-4.8.1-7.2.3-4.8.4-9.6 1.1-14.4 1.6-4.9.5-9.7.8-14.5.7zm-2.5-24c.9-.4 1.9-.7 2.8-1l2.9-.9 3-.4 3-.3c4-.4 8-.6 12-.7 4-.1 8-.1 11.9 0l6 .1c2 .3 4 .5 6 .8-2 .3-4 .5-6 .7l-6-.1c-4 0-7.9-.1-11.9 0s-7.9.3-11.8.7l-2.9.3-2.9.4-3 .2c-1.1 0-2.1.1-3.1.2z"/><path class="st5" d="M800.1 776.1c-2.2-.1-4.4 0-6.6-.1-1.1-.1-2.2-.1-3.3-.3s-2.2-.5-3.3-1.1l-.4-.3.3-.5c.5-.8 1.3-1.3 2.1-1.6s1.6-.5 2.4-.6c1.6-.2 3.2-.3 4.8-.1 3.2.3 6.3.8 9.3 1.2.8.1 1.5.2 2.3.2l2.3.1 4.7.2c3.1.1 6.2.2 9.3.2s6.2 0 9.3-.1 6.3 0 9.4.1c6.2.2 12.5.4 18.6-.5 3-.4 6.1-1.1 9.2-1.6 3.1-.5 6.4-.7 9.5-.2 6.3.8 12.2 3.1 18.3 3.9 6.1.8 12.4.8 18.6.8 6.2.1 12.5 0 18.7.3-6.2.3-12.5.8-18.7 1.1-1.6.1-3.1.1-4.7.1s-3.1 0-4.7-.1c-3.1-.1-6.3-.3-9.4-.7-6.3-.8-12.2-3.2-18.3-3.9-3-.4-6.1-.3-9.1.2s-6.1 1.2-9.2 1.6c-6.3.9-12.6.7-18.8.5-3.1-.1-6.2-.2-9.3-.1-3.1.1-6.3.1-9.4.1-3.1 0-6.3-.1-9.4-.2l-4.7-.2-2.3-.1c-.8 0-1.6-.1-2.4-.2-3.1-.4-6.2-1-9.2-1.2-1.5-.1-3.1-.2-4.5-.1-1.5.1-3 .5-3.8 1.5l-.1-.7c.8.6 1.8.9 2.9 1.2 1 .3 2.1.4 3.2.5 2 .3 4.2.4 6.4.7zm117-6c2.4.2 4.8.3 7.1.3 2.3.2 4.7.3 7.1.3 4.7 0 9.5-.2 14.2-.5 2.4-.1 4.7-.3 7.2-.4 2.4-.1 4.8 0 7.2 0s4.8.1 7.1 0c2.4.1 4.7.3 7.1-.2-1.1.5-2.3.8-3.5 1.1s-2.4.4-3.6.6c-2.4.1-4.8 0-7.2 0s-4.8-.1-7.1 0-4.7.3-7.1.4c-4.8.3-9.5.6-14.3.5-2.4 0-4.8-.1-7.2-.3-2.4-.5-4.7-1-7-1.8zm9.5-18.5c1.7-.8 3.6-1.2 5.4-1.6 1.8-.4 3.7-.7 5.6-.9 3.8-.2 7.5-.1 11.3 0l5.6.2c1.8.1 3.7.1 5.6 0 3.7-.1 7.4-.3 11.2-.4 7.5-.3 15-.1 22.5.3 3.7.2 7.4.4 11.2.4 3.7.3 7.4.4 11.2.5-3.7.5-7.4.8-11.2 1-3.8 0-7.5-.2-11.2-.4-7.4-.4-14.9-.6-22.3-.3-3.7.1-7.5.3-11.2.4h-5.6l-5.6-.2c-3.7-.1-7.4-.2-11.1 0-4 0-7.8.1-11.4 1zm61.5 32c2.5-.3 5-.3 7.4-.3 2.5.2 4.9.4 7.3.6 2.4.1 4.9.2 7.3 0 2.4-.2 4.8-.6 6.9-1.6l.4-.2c.1-.1.2-.1.3-.2.2-.1.4-.3.6-.5.4-.4.7-.9 1.1-1.4.4-.5.8-1 1.5-1.5.7-.4 1.3-.6 2-.7 2.6-.4 5.1.1 7.5 0h7.4c2.5.3 4.9.4 7.4.8-2.5.3-4.9.5-7.4.8h-7.4c-2.5 0-5-.4-7.2-.1-.5.1-1.1.3-1.5.5s-.7.7-1.1 1.1c-.4.5-.7 1-1.2 1.5-.2.2-.5.5-.8.7-.1.1-.3.2-.5.3l-.4.2c-2.4 1.1-4.9 1.5-7.4 1.7s-5 .2-7.5 0c-2.5-.1-4.9-.4-7.4-.6-2.4-.4-4.8-.8-7.3-1.1zm-1.5 14c1.5.6 3.1.7 4.7.6 1.6 0 3.2-.2 4.7-.4 3.2-.4 6.3-1 9.5-1.4 6.4-.3 12.8-.6 19.2-.7 3.2 0 6.4 0 9.6.1 3.2.2 6.3 0 9.5-.2s6.5-.4 9.7-.2l9.6.6c3.2.2 6.3.2 9.5.1 1.6-.1 3.1-.2 4.7-.4s3.2-.3 4.8-.4c6.4-.5 12.8-.4 19.2-.4h9.6c3.2 0 6.4.1 9.6.2 6.4.4 12.8.8 19.1 1.1-6.4.3-12.8.3-19.2.4-3.2-.1-6.4-.2-9.6-.2h-9.6c-6.4 0-12.8 0-19.1.4-1.6.1-3.2.3-4.7.4-1.6.2-3.2.4-4.8.4-3.2.2-6.5.1-9.7-.1l-9.6-.6c-3.2-.2-6.3-.1-9.5.2-3.2.2-6.4.4-9.7.2-3.2-.1-6.4-.2-9.5-.1-6.4.1-12.8.4-19.1.7-3.1.2-6.3.6-9.5.7-1.6.1-3.2.1-4.8 0-1.5-.1-3.2-.3-4.6-1zm-56.5 5.5c-1.4.1-2.7.3-3.8.8-.2.2-.5.2-.7.4-.2.1-.3.3-.4.5-.1.1 0 .2-.1.3v.3c0 .2.1.5.2.7.3.8 1.6 1.1 2.9 1.1h3.1l1 .1c2.7.4 5.3.8 8 .9 2.6.1 5.2-.1 7.4-1.2l.2-.1h.1c.4.1.7.3.9.5.3.2.4.5.7.7-.3-.1-.6-.3-.9-.3-.3-.1-.6-.1-.8-.1l.3-.1c-.4.6-1 1.1-1.7 1.5-.3.2-.7.4-1 .4-.4.1-.7.2-1.1.2-1.4.2-2.8.2-4.2.2-2.7-.1-5.4-.5-8.1-.9l-1-.1h-3c-.7 0-1.4-.1-2.2-.4-.7-.2-1.6-.7-2-1.6-.2-.4-.3-.8-.3-1.2v-.7c.1-.2.1-.5.2-.7.2-.4.5-.8.9-1.1s.7-.5 1.1-.5c1.6-.4 3-.1 4.3.4z"/><path class="st5" d="M935.1 799.1c-4.9.1-9.9-.5-14.7.2-2.4.4-4.8 1.1-6.4 2.8l-.6.6-.5.7c-.2.2-.3.5-.4.7-.1.3-.3.5-.4.8-.2.5-.3 1.1-.4 1.6 0 .5 0 1 .1 1.5.3.9 1 1.7 2 2.3s2.1 1 3.2 1.3c2.3.6 4.7.9 7.2 1 4.9.3 9.8.5 14.8.7 9.8.4 19.7.5 29.5.4 4.9-.1 9.8-.3 14.7-.6 2.5-.2 4.9-.3 7.4-.6 1.2-.1 2.5-.2 3.6-.4 1.2-.2 2.3-.5 3.5-.9 2.3-.7 4.8-1.5 7.4-1.6 2.5-.2 5-.3 7.5-.3 5 0 9.9.3 14.8.4 9.9.1 19.7.3 29.6.6l29.6.6c9.9.4 19.7.7 29.6 1.1-9.9.3-19.7.4-29.6.4l-29.6-.6-29.6-.6c-5-.1-9.9-.4-14.8-.4-2.5 0-4.9 0-7.3.3-2.4.1-4.7.8-7.1 1.6-1.2.3-2.4.7-3.7.9s-2.5.3-3.7.4c-2.5.2-4.9.4-7.4.6-4.9.3-9.9.5-14.8.6-9.9.2-19.8 0-29.6-.4-4.9-.2-9.9-.4-14.8-.7-2.5-.2-5-.4-7.5-1.1-1.2-.3-2.5-.8-3.6-1.5s-2.3-1.7-2.7-3.2c-.2-.7-.2-1.4-.1-2.1.1-.7.3-1.3.6-1.9.1-.3.3-.6.4-.9.2-.3.3-.6.5-.8l.6-.8.7-.7c.5-.5 1.1-.8 1.6-1.1.6-.3 1.2-.6 1.8-.8s1.2-.4 1.8-.5 1.2-.2 1.9-.3c5.1-.4 10 .5 14.9.7zm59.5-236.5c-6-.6-12.1-.7-18.1-.4-6 .2-12 .9-18 1.4-3 .2-6 .5-9.1.6-3 .1-6.1.2-9.1.2-6.1 0-12.1-.1-18.1-.1h-4.5c-1.5 0-2.9.2-4.4.4s-3 .5-4.5.7c-.8.1-1.6.1-2.3.1-.8 0-1.6-.1-2.3-.1-1.5-.2-3-.4-4.4-.3-.7 0-1.4.1-2.2.2-.3.1-.8.1-1.2.1s-.8 0-1.2.1c-3.1 0-6.1-.2-9.1-.4-6-.4-12-.9-18-.9-3 0-6 .1-8.9.6-1.4.2-2.9.6-4.2 1.1-1.3.6-2.3 1.5-2.5 2.6l-.3-.7c1.5 1.1 3.1 1.8 4.9 2.2 1.8.4 3.6.4 5.5.3 1.9-.1 3.8-.2 5.8-.1 1.9.1 3.9.3 5.8.6s3.8.6 5.6.8c.9.1 1.9.1 2.8.1h2.9c3.9 0 7.8.7 11.5 1.7l1 .3-.6.9c-1 1.4-2.3 2.7-3.9 3.5-1.6.8-3.4 1-5 1.1-1.7.1-3.3.1-4.9.2l-4.9.3c-6.5.4-13 .9-19.6.8-1.7 0-3.3-.1-4.9-.1-1.6 0-3.2.1-4.8.2-3.2.2-6.5.6-9.8.6-1.6 0-3.3-.1-4.9-.3-1.6-.2-3.2-.6-4.8-.8-1.6-.3-3.2-.5-4.8-.5s-3.3.3-4.7 1c1.4-.8 3.1-1.2 4.7-1.2 1.6-.1 3.3.1 4.9.3 1.6.2 3.2.5 4.8.6s3.2.1 4.8.1c3.2-.2 6.4-.7 9.7-1 1.6-.2 3.3-.4 4.9-.4 1.7-.1 3.3 0 4.9.1 6.5.1 13-.4 19.5-.8l4.9-.3c1.6-.1 3.3-.1 4.9-.2 1.6-.1 3.1-.3 4.5-1 1.3-.6 2.4-1.7 3.3-3l.4 1.2c-3.6-1-7.3-1.6-11.1-1.6h-2.9c-1 0-2-.1-2.9-.2-1.9-.2-3.8-.5-5.7-.8s-3.7-.5-5.6-.6c-1.9-.1-3.7 0-5.7.1-1.9.1-3.9.1-5.9-.3-2-.4-3.8-1.3-5.4-2.5l-.4-.3.1-.4.2-.7.1-.3.2-.3.4-.6.5-.5c.6-.6 1.4-1 2.1-1.4 1.5-.7 3-1 4.5-1.3 3.1-.5 6.1-.6 9.2-.6 6.1 0 12.1.5 18.1.9 3 .2 6 .4 9 .4h1.1c.4 0 .7-.1 1.1-.1.8-.1 1.5-.2 2.3-.2 1.6-.1 3.1.1 4.6.3 2.9.4 5.8-.2 8.8-.7 1.5-.2 3.1-.4 4.6-.4h4.5c6.1 0 12.1.1 18.1.1s12-.3 18-.9c6-.4 12.1-.7 18.1-.7 6-.1 12 .2 18 1.2z"/><path class="st5" d="M818.6 570.6c1.7-.3 3.4-.5 5.1-.8h5.2c3.4 0 6.9.2 10.3.5 3.4.3 6.8.7 10.2.9 1.7.1 3.4.1 5.1-.1 1.7.1 3.4.1 5.1 0-1.6.7-3.3 1.2-5 1.5-1.7.1-3.5.1-5.2.1-3.5-.1-6.9-.5-10.3-.9-3.4-.3-6.8-.4-10.2-.5h-5.1c-1.8-.2-3.5-.4-5.2-.7zm-78.5 163c4.8-.3 9.5-.5 14.3-.8l14.3-.1c9.5-.1 19-.1 28.6 0 9.5.1 19 .4 28.6.9 2.4.2 4.7.2 7.2.5 2.4.3 4.7.6 7.1.9 2.3.4 4.6.5 7 .2 2.3-.2 4.9-.5 7.1.4-1.1-.3-2.3-.3-3.5-.2s-2.3.3-3.5.6c-2.4.5-4.8.6-7.2.5-2.4-.2-4.8-.6-7.1-.9-2.3-.2-4.7-.3-7.1-.5-9.5-.5-19-.8-28.5-.9-9.5-.1-19-.1-28.5 0l-14.3.1c-5-.2-9.7-.4-14.5-.7zm193.5 2c-.1-.1-.3-.1-.4-.1-.1 0-.1.1-.2.1v-.1c.2 0 .5-.2.8-.3l1.8-.6c1.2-.4 2.4-.7 3.6-1.1 2.5-.4 5-.7 7.5-1 5-.6 10-1 15-1.3s10-.5 15-.5c2.5 0 5 .2 7.5.3 2.5.4 4.9.7 7.4.9-2.5.4-5 .5-7.5.6-2.5-.1-5-.3-7.4-.3-5 0-9.9.2-14.9.5s-9.9.7-14.9 1.3c-2.5.3-5 .6-7.4 1-1.2.1-2.5.2-3.7.4l-1.9.2c-.3 0-.6.1-1 0 0 0-.1 0-.1-.1 0 0-.1-.1 0-.2 0-.1.1-.1.1-.1.1 0 .2-.1.3-.1.1.3.3.3.4.5zm-168.5 21c2.4-.2 4.7-.6 6.9-1.2 2.3-.4 4.5-1 6.8-1.6s4.7-1.1 7.1-1.1h1.8c.6 0 1.2.1 1.8.2.6.1 1.2.2 1.8.4.6.1 1.2.3 1.7.4 4.5 1.2 9.2 1.5 13.8 1.6 2.3.1 4.7 0 7 0 2.4.2 4.7.4 7.1.7-2.4.3-4.7.5-7.1.8h-7.1c-4.7-.1-9.5-.5-14.2-1.7-.6-.2-1.2-.3-1.7-.4-.5-.1-1.1-.3-1.7-.3-.6-.1-1.1-.2-1.7-.2-.6 0-1.1-.1-1.7 0-2.3.1-4.5.5-6.8 1.1s-4.6 1.2-6.9 1.6c-2.1.2-4.6.1-6.9-.3zm-3.9 19.8c1.9-.2 3.8-.4 5.6-.7.9-.1 1.9-.1 2.9-.1 1 .1 2 .3 2.9.5 1.9.4 3.7.8 5.6 1.4 1.8.5 3.6 1.1 5.4 1.6 1.8.5 3.6.7 5.5.8s3.8.2 5.7.4 3.8.3 5.6.4c1.9.4 3.7.6 5.6.9-1.9.3-3.8.4-5.7.6-1.9-.1-3.8-.3-5.7-.4-1.9-.2-3.8-.3-5.6-.4-1.9-.1-3.9-.4-5.7-.9-1.9-.5-3.7-1.1-5.5-1.6s-3.6-.9-5.5-1.3c-.9-.2-1.8-.4-2.7-.4-.9-.1-1.8 0-2.7.1-1.9-.2-3.8-.5-5.7-.9zM886 798.2c-.2-.8-.8-1.5-1.5-1.9-.7-.5-1.4-.8-2.2-1-1.6-.5-3.2-.8-4.9-1.1-.8-.1-1.6-.4-2.5-.6-.8-.2-1.7-.4-2.5-.6-.8-.2-1.7-.5-2.5-.9s-1.7-.9-2.3-1.7l-.5-.7.8-.4c1.3-.6 2.7-.9 4.1-.9 1.4 0 2.7.2 4 .4l3.9.6 3.9.3c2.6.1 5.2.2 7.8.1 2.6-.1 5.1-.4 7.8-.8 5.2-.7 10.5-1.2 15.7-1.5 5.3-.4 10.6.1 15.8.7-5.3.1-10.5.6-15.7.7-5.2.3-10.4.8-15.6 1.5-2.6.4-5.3.7-7.9.8-2.7.1-5.3 0-7.9-.1-1.3-.1-2.6-.2-4-.3-1.3-.1-2.6-.4-3.9-.6-2.5-.4-5.1-.6-7.3.4l.3-1.1c.4.5 1 .9 1.7 1.2s1.5.6 2.3.8l2.4.6c.8.2 1.7.3 2.5.6 1.6.5 3.3 1 4.8 1.8.8.4 1.5.8 2.2 1.4.6.6 1.1 1.4 1.2 2.3zm-113.9 6.9c2.3-.9 4.8-1.1 7.2-1 2.5.1 4.9.4 7.3.7 2.4.4 4.7.9 7.1 1 2.4.1 4.8.2 7.2.2 9.6-.1 19.3-1.4 29-1.9 2.4-.1 4.9-.2 7.3-.2l7.3.1c4.8 0 9.7 0 14.5-.1 4.8-.2 9.7-.4 14.4-1 2.4-.2 4.8-.4 7.1-.9 1.2-.3 2.3-.6 3.4-1.1.5-.3 1.1-.6 1.5-1s.7-1 .6-1.6c.1.6-.1 1.3-.4 1.7-.4.5-.9.9-1.4 1.2-1.1.6-2.2 1.1-3.4 1.5-2.3.7-4.7 1.2-7.2 1.7-4.8.6-9.7.8-14.6 1-4.9.1-9.7.2-14.6.2l-7.3-.1c-2.4-.1-4.8 0-7.2.2-9.6.5-19.3 1.8-29 1.9-2.4 0-4.9 0-7.3-.2-2.5-.2-4.9-.6-7.3-1.1-2.4-.5-4.7-1.1-7.1-1.4-2.3-.4-4.7-.4-7.1.2z"/><path class="st1" d="M1321.1 775.1c-7.1.2-14.2.9-21.3 1.5-3.6.3-7.1.7-10.7.9s-7.1.3-10.7.3h-5.4l-5.4-.3c-3.6-.2-7.1-.4-10.6-.4s-7.1.2-10.5.8c-1.7.3-3.4.7-4.9 1.4-.8.3-1.5.8-2.1 1.3s-1.2 1.1-1.6 1.8l-.4-1.1c3.1.9 6.2 1.6 9.5 1.9 3.2.4 6.4.6 9.7.6 6.5.1 13-.3 19.5-.6s13.1-.5 19.7-.1c6.5.3 13 .3 19.5.1 13-.3 26.1-1.3 39.2-1.6 3.3 0 6.5-.1 9.8 0s6.5.4 9.8.4c6.5 0 13.1-.4 19.6 1-6.5-1-13-.3-19.5 0-3.3.2-6.6.1-9.8.1h-9.8c-13 .2-26.1 1.2-39.2 1.6-6.5.2-13.1.2-19.7-.1-6.5-.4-13-.2-19.5.1s-13.1.7-19.6.6c-3.3 0-6.6-.3-9.9-.6-3.3-.4-6.5-1.1-9.7-2l-.9-.3.5-.8c.5-.9 1.2-1.6 1.9-2.2.8-.6 1.6-1.1 2.5-1.4 1.7-.8 3.5-1.2 5.3-1.6 3.6-.6 7.2-.8 10.8-.8 3.6 0 7.2.2 10.7.4 1.8.1 3.6.2 5.3.3 1.8 0 3.5.1 5.3 0 3.6 0 7.1-.2 10.7-.4l10.7-.5c6.9-.2 14.1-.5 21.2-.3zm-27.5-5.5c2-1 4.2-1.7 6.5-2.1 2.2-.4 4.5-.6 6.8-.8 4.5 0 9 .3 13.5.5 2.2.1 4.4.1 6.6-.1 2.2-.2 4.4-.7 6.6-1.2s4.4-.9 6.7-1.2c2.3-.2 4.6-.1 6.9.2s4.5.7 6.7 1c1.1.2 2.2.3 3.3.6 1.1.2 2.2.5 3.3.6 1.1.2 2.1.2 3.2.1.2 0 .5-.1.7-.1s.4-.1.6-.2c.4-.2.9-.5 1.3-.8.5-.3 1-.7 1.6-.9l.9-.3c.3-.1.6-.1.9-.2 1.2-.2 2.4-.2 3.5-.2 2.3.1 4.6.4 6.8.6 2.1.2 4.4-.1 6.6-.2 2.3-.1 4.5-.1 6.8 0 1.1 0 2.3.1 3.4.3s2.3.4 3.3 1c-1-.5-2.2-.5-3.3-.5-1.1 0-2.2 0-3.3.1-2.2.2-4.5.5-6.7.8-1.1.1-2.2.2-3.4.2-1.1.1-2.3.1-3.5 0-2.3-.2-4.5-.5-6.7-.6-1.1 0-2.2 0-3.2.1-.3 0-.5.1-.8.1-.2.1-.4.1-.7.2-.4.2-.9.5-1.3.8-.5.3-.9.7-1.5 1-.3.1-.6.3-.9.4-.3.1-.6.1-.9.2-1.2.1-2.4 0-3.6-.1-1.1-.2-2.3-.4-3.3-.6l-3.3-.6c-2.2-.4-4.4-.8-6.6-1s-4.4-.4-6.6-.2-4.4.7-6.6 1.1c-2.2.5-4.4.9-6.7 1.2-2.3.3-4.6.2-6.9.1-4.5-.2-9-.5-13.5-.5-4.4-.3-8.9-.3-13.2 1.2zM1016 750.2c1.4-.4 2.9-.6 4.3-.8l4.3.1 8.7.2c2.9 0 5.8.1 8.6 0 1.4 0 2.9-.1 4.3-.2 1.4.1 2.9.2 4.3.1-1.3.6-2.8 1.1-4.2 1.4-1.5.1-2.9.2-4.4.2-2.9.1-5.8 0-8.7 0l-8.7-.2c-1.4 0-2.9-.1-4.3-.1l-4.2-.7zM991.6 732l2.7-.9h8.1l5.4.1h2.7c.9.2 1.8.5 2.7.8-.9.3-1.8.5-2.7.7h-2.7l-5.4-.1H997c-.9 0-1.8 0-2.7.1-.9-.2-1.8-.4-2.7-.7zm-32.5-54.7c10.4-.1 20.7.7 31 .9-10.3.3-20.7 0-30.9.6l-.1-1.5zm103-113.7c9.4-.7 18.7 1.6 28 2.3 2.3.2 4.6.4 6.9.4s4.6-.1 7-.3c2.3-.1 4.7-.3 7-.3 2.3-.1 4.7-.2 7-.3s4.7-.2 7.1-.2c.6 0 1.2 0 1.8.1h5.2c1.2 0 2.4.1 3.6.2 1.2.2 2.4.3 3.6.9.3.1.7.4.9.6.2.2.5.4.7.7.4.5.9 1 1.1 1.8.1.4.1.9-.1 1.3s-.5.7-.7 1c-.6.5-1.2.7-1.8 1-2.4.8-4.8.9-7.1 1.1-2.4.1-4.7.2-7.1.2-4.7 0-9.4-.2-14.1-.3-18.7-.2-37.5-.9-56.2-.3l-7 .3c-2.4.1-4.7 0-7.1-.1-4.7-.3-9.3-1.1-14-1.2-2.3-.2-4.6-.2-6.9 0-2.3.1-4.6.7-6.9 1.1-2.3.4-4.6.8-7 1.1-1.2.1-2.4.2-3.5.1-1.2-.1-2.4-.2-3.4-.7 1.1.4 2.3.5 3.4.5 1.2 0 2.3-.2 3.5-.3 2.3-.4 4.6-.9 6.9-1.4 2.3-.5 4.5-1.2 6.9-1.4 2.4-.3 4.7-.4 7.1-.4 4.7.2 9.4.9 14 1.2 2.3.2 4.6.2 6.9.1l7-.3c18.8-.5 37.5.1 56.3.3 4.7.1 9.4.3 14 .3 2.3 0 4.7-.1 7-.2 2.3-.2 4.7-.3 6.7-1 .5-.2 1-.4 1.3-.7s.4-.5.3-.8-.4-.8-.7-1.1l-.6-.6c-.2-.2-.3-.3-.6-.4-.9-.4-2-.6-3.1-.8-1.1-.1-2.3-.2-3.4-.2h-5.3c-.6 0-1.2 0-1.7-.1-2.3 0-4.6.1-7 .2-2.3.1-4.7.3-7 .4-2.4 0-4.6.1-7 .3-2.3.1-4.7.3-7.1.3s-4.7-.1-7.1-.4c-4.7-.6-9.3-1.6-13.9-2.4-4.5-1-9.1-1.6-13.8-1.6zm68 164.9c9.9-.6 19.8-.9 29.7-.9 9.9 0 19.8-.1 29.7.3l29.7.9c9.9.3 19.8.6 29.7 1l59.3 2.4c9.9.4 19.8.7 29.7 1 4.9.2 9.9.2 14.9.5s10 1 14.8 2.4l4.1 1.2-4.3.3c-7.1.5-14.2.3-21.2.6-7 .2-13.9 1.4-20.9 2.4s-14.1 1.8-21.2 1.4c-7-.3-14.1-.5-21.1-.6-7-.2-14.1-.2-21.2-.3l-10.6-.1c-3.5 0-7.1-.1-10.6-.2-14.1-.3-28.2-.7-42.3-1.3 14.1.2 28.2.1 42.3 0 3.5 0 7.1-.1 10.6-.1l10.6.1 21.2.3c7.1.2 14.1.3 21.2.6 7 .4 14-.3 20.9-1.4 7-1 14-2.2 21.1-2.4 7.1-.3 14.1-.1 21.1-.6l-.2 1.5c-9.4-2.8-19.4-2.6-29.3-2.9-9.9-.3-19.8-.6-29.7-1l-59.3-2.4c-9.9-.4-19.8-.7-29.7-1l-29.7-.9c-9.9-.2-19.8-.7-29.7-.9-9.8-.1-19.7-.1-29.6.1zm-9 22c5.4-.3 10.9-.4 16.3-.5 5.4.2 10.9.4 16.3.6 10.9.4 21.7 1 32.6 1.3 5.4.2 10.9.3 16.3.3 5.4.1 10.9 0 16.3-.3 5.4-.2 10.9-.5 16.3-.7 5.6 0 10.8 1.7 16.3 1.8-5.5.6-10.9-.7-16.3-.3-5.4.2-10.9.5-16.3.7s-10.9.3-16.4.3l-16.3-.3c-10.9-.4-21.8-.9-32.6-1.3-5.4-.2-10.9-.4-16.3-.6-5.4-.4-10.8-.7-16.2-1z"/></g><path class="st6" d="M585.6 1125c-.5-8.2-1-97.8-1-102.3.2-17.7 1.5-35.3 1.5-53.1 0-21.3.5-42.4.5-63.6v-27.2c0-7-1.8-15.8.4-22.1-8.9-9.7-25.2-14.2-34.4-.1 0 23.1-2 45.7-2 68.7 0 30.5-1 61.3-2.4 91.4-.5 11.9-1.1 23.7-1.1 35.7 1 1.3.2 72.5-.2 77.5 16.2 10.5 32.2 6.9 38.7-4.9z"/><path class="st7" d="M552.7 996.3c2.7-11.6 8.4-22.5 12.6-33.8 6.3-17.3 8.4-35.7 6.9-53.8-.5-6.2-1.9-19-11.7-17.1-3.5.7-6.8 4.1-9.5 8.3-.2 4.4-.3 8.8-.3 13.2 0 25.7-1 51.8-2.4 77.3-.5 9.8-1.1 19.4-1.1 29.3 3.3-6.9 4.5-19.3 5.5-23.4z"/><path class="st4" d="M1338.8 832.1s-95.3-3-120.7-2.2c-25.3.9-10.7-6.9-32-.9s-22.7 1.4-78.7 1.3c-56 0-154.7-2-215.3-1-60.7 1-78.7 1.7-138.7-.3s-97.3 1.3-161.3 0-114-2-114-2l-.4 25.1c0 1.9 1.5 3.4 3.4 3.4 19-.2 111.7-1.2 127.6-2.5 32-2.5 435 4 435 4s128.2-.6 143.5-3c22-3.5 259 1 259 1v-25.6l-107.4 2.7z"/><path class="st7" d="M792.1 830.1c-11.1-.2-23.6-.5-38.6-1-60-2-97.3 1.3-161.3 0s-114-2-114-2l-.4 25.1c0 1.9 1.5 3.4 3.4 3.4 19-.2 111.7-1.2 127.6-2.5 13.5-1.1 81.4-.6 168.7.3-.5 0 13.3.1 14 .2-.1 0 .3-18.6.6-23.5z"/><path class="st8" d="M1357.6 853.7l-3.5 144.9-2.8 95.7 35.3 13.3 4.5-253.4z"/><path class="st4" d="M1388.8 896.1s-6.8 39-16.1 58-9.7 65 5.6 64c0 0 9.2 2 9.1-44.5l1.4-77.5z"/><path class="st6" d="M1390.8 895.4c-16.2 6.6-16.5 4.4-30 14.3l1.2-55.3 34.6-.2-5.8 41.2z"/><path class="st6" d="M1392.1 855.1s-13 2.4-26 46.4-12 64.3-12 64.3l3-110.7h35z"/><path class="st1" d="M972.3 595.8s10.6-15.7 19.3-21.7l-2.1-.4c-3.7-.7-7.5.6-10 3.4l-5.6 6.3c-2.7 3.1-3.7 7.3-2.5 11.3l.9 1.1zM994 727.7s-18.3-16.7-23.3-27.2l-.8.7c-1.4 3.9-.7 8.2 1.9 11.4l9.5 10.6c2.8 3.5 7.3 5.3 11.8 4.7l.9-.2z"/><path class="st2" d="M1134.7 785.2s25.5 6.9 40.7 11.4l-.2-.1c-2.9 2.9-7.2 3-11.2 2l-13.6-3.2c-4.4-1.1-13-3.3-14.3-7.7l-1.4-2.4z"/><path class="st1" d="M1160.8 792.8l6.3 1.4 18 4.4s66.6 14.8 83.6 9.6l-27.1-2.5c-10.8-1.3-38.2-6.4-48.8-8.9-8.1-1.9-16.7-4-19.2-4.5-.8-.2-1.6-.3-2.2-.5-3.4-.7-6.9-.1-10.3.9l-.3.1z"/><ellipse class="st4" cx="1189.1" cy="629" rx="70" ry="26.2"/><ellipse class="st1" cx="1189.1" cy="626" rx="70" ry="26.2"/><ellipse class="st0" cx="1189.2" cy="619" rx="55.1" ry="20.2"/><path class="st0" d="M1135.4 618.7l-15.3 5.7s-.7 6.7.7 7.7c1.3 1 22-7 22-7l-7.4-6.4z"/><path class="st2" d="M1235.7 609l-7.9-6 26.6-33c2.8-3.5 4.3-7.8 4.1-12.1-1.7-60-13.6-105.4-18.6-122.2-.8-2.6-2.8-4.7-5.4-5.6l-20.3-7.3 3.5-9.2 20.3 7.3c5.6 2 9.9 6.5 11.5 12.1 5.1 17.1 17.2 63.5 18.9 124.6.2 6.6-2 13.2-6.3 18.4l-26.4 33z"/><path class="st1" d="M1167.1 579.6c-23 6-24 18.8-24 18.8v16c0 9.5 20.6 17.3 46.1 17.3s46.1-7.7 46.1-17.3v-16s-1.1-12.8-24-18.8"/><path class="st1" d="M1189.1 615.6c25.5 0 46.1-7.7 46.1-17.3 0 0-1.1-12.8-24-18.8h-44.1c-23 6-24 18.8-24 18.8-.1 9.6 20.6 17.3 46 17.3z"/><path class="st4" d="M1189.1 631.6c25.5 0 46.1-7.7 46.1-17.3v-16c0 9.5-20.6 17.3-46.1 17.3s-46.1-7.7-46.1-17.3v16c0 9.6 20.7 17.3 46.1 17.3z"/><path class="st2" d="M1143.2 598.4c.1 1.1.5 2.1 1.1 2.9.6.9 1.2 1.6 2 2.3 1.6 1.3 3.4 2.4 5.3 3.2 1.9.9 3.9 1.6 5.9 2.2 2 .6 4.1 1.1 6.2 1.6 4.2.8 8.4 1.5 12.6 1.8a137.058 137.058 0 0 0 25.6 0c4.3-.3 8.5-1 12.6-1.8 4.1-.9 8.3-2 12.1-3.7 1.9-.9 3.7-1.9 5.3-3.2.8-.7 1.5-1.4 2-2.3.6-.9 1-1.8 1.1-2.9h.3c0 2.3-1.2 4.3-2.7 5.9-1.5 1.6-3.4 2.9-5.3 3.9-3.9 2.1-8 3.5-12.3 4.6-8.5 2.2-17.3 3-26 3.1-8.7 0-17.5-.9-26-3.1-4.2-1.1-8.4-2.5-12.3-4.6-1.9-1.1-3.7-2.3-5.3-3.9-1.5-1.6-2.7-3.6-2.7-5.9l.5-.1zm116 27.6c0 3.4-1.8 6.5-4.1 8.9-2.3 2.4-5.1 4.3-8 5.9-5.8 3.2-12.2 5.4-18.6 7-12.9 3.3-26.2 4.6-39.4 4.6-13.3-.1-26.6-1.4-39.4-4.6-6.4-1.7-12.7-3.8-18.6-7-2.9-1.6-5.7-3.5-8-5.9s-4.1-5.5-4.1-8.9h.3c.1 1.6.7 3.2 1.5 4.5.8 1.4 1.8 2.6 3 3.7 2.4 2.2 5.1 3.8 8 5.2 5.8 2.9 12.1 4.8 18.4 6.2 6.4 1.3 12.8 2.4 19.3 3s13 1 19.6.9c6.5 0 13.1-.3 19.6-.9 3.2-.3 6.5-.7 9.7-1.2 1.6-.3 3.2-.5 4.8-.8l4.8-.9c6.3-1.4 12.6-3.3 18.4-6.2 2.9-1.4 5.7-3.1 8-5.2 1.2-1.1 2.2-2.3 3-3.7s1.4-2.9 1.5-4.5l.3-.1z"/><path class="st4" d="M1247.3 465.9c-2.1-9.9-4.6-19.7-7.5-29.4-.6-2.4-2.1-4.4-4.3-5.5-1-.5-2.3-.9-3.5-1.3l-3.6-1.3-14.3-5.1c-.3-.1-.5-.4-.4-.7l3.4-9.2c.1-.3.5-.5.8-.4l12.4 4.4 6.2 2.2c2 .7 4.3 1.6 6.1 2.9 3.8 2.6 6.6 6.6 7.7 10.9 1.3 4.2 2.5 8.5 3.7 12.7 4.6 17 8.2 34.3 10.6 51.8l.9 6.6.8 6.6.4 3.3.3 3.3.6 6.6c.6 8.8 1.1 17.6 1.2 26.4l.1 6.6c0 2.3-.5 4.5-1.1 6.6-1.4 4.3-3.6 8.2-5.9 11.9-4.7 7.5-10.4 14.3-16.1 21-.1.2-.4.2-.6 0-.2-.1-.2-.4-.1-.5 2.6-3.6 5.3-7 7.8-10.7 2.5-3.6 4.9-7.3 7-11 2.1-3.8 4-7.7 5.1-11.6.3-1 .5-2 .6-2.9.1-.5.1-.9.1-1.4v-1.4l-.7-6.6c-1.8-17.4-4.2-34.7-7.2-51.8-1.5-8.6-3.3-17-5.1-25.5-.9-4.2-1.9-8.5-3-12.6l-3.2-12.6c-1.1-4.2-2.3-8.4-3.5-12.6l-.2-.8-.2-.5c-.1-.3-.2-.6-.4-.9-.3-.6-.6-1.2-1-1.8-.4-.6-.8-1.1-1.3-1.6s-1-1-1.6-1.4-1.2-.8-1.8-1.1c-.3-.2-.6-.3-1-.5l-1.5-.6-6.1-2.4c-4.1-1.6-8.2-3.2-12.3-4.9l7.5-3.5-3.9 9-3.2-7c4.7 1.9 9.4 3.9 14 5.9l3.5 1.5 1.7.8c.5.2 1.4.6 2.2 1.1 1.6.9 3 2.2 4 3.7.5.7 1 1.6 1.3 2.4.2.4.3.9.4 1.3l.1.3v.2l.1.5c.5 2.5 1 5 1.5 7.6.5 2.5.9 5 1.2 7.6.4 2.5.7 5.1 1 7.6s.5 5.1.7 7.6c0 .2-.1.4-.4.4.2.1 0 0 0-.2z"/><path class="st0" d="M1241.1 614.1l2-3.7-7.7-4.3"/><ellipse class="st0" cx="1189.3" cy="583.3" rx="25" ry="8.8"/><ellipse class="st5" cx="1189.3" cy="567.8" rx="22.5" ry="8.4"/><path class="st4" d="M1211.8 567.8c0 4.7-10.1 8.4-22.5 8.4s-22.5-3.8-22.5-8.4v12.1c0 4.7 10.1 8.4 22.5 8.4s22.5-3.8 22.5-8.4v-12.1z"/><path class="st9" d="M1195.4 577.5h-12.6c-22 0-40-18-40-40v-16c0-22 18-40 40-40h12.6c22 0 40 18 40 40v16c0 22-18 40-40 40z"/><g class="st11"><path class="st12" d="M1225.5 495.7c-5.5-8.6-16.7-14.9-29.5-14.9h-13.7c-12.8 0-25.7 8.5-32 17.7 7.6 4.1 21.9 6.6 38.8 6.6s28.8-5.2 36.4-9.4z"/></g><path class="st4" d="M1148.2 478.4v9.3c0 6.8 18.3 12.2 41 12.2 22.6 0 41-5.5 41-12.2v-10.3l-82 1z"/><path class="st5" d="M1169.5 463.1c-20.4 4.2-21.4 14.3-21.4 14.3v1c0 6.8 18.3 12.2 41 12.2 22.6 0 41-5.5 41-12.2v-1s-.9-10.1-21.4-14.3h-39.2z"/><ellipse class="st5" cx="1189.3" cy="450.5" rx="28.8" ry="10.8"/><path class="st4" d="M1218.1 450.5c0 6-12.9 10.8-28.8 10.8s-28.8-4.8-28.8-10.8V466c0 6 12.9 10.8 28.8 10.8s28.8-4.8 28.8-10.8v-15.5z"/><path class="st5" d="M1167.1 424.7c-23 6-24 18.8-24 18.8 0 9.5 20.6 17.3 46.1 17.3s46.1-7.7 46.1-17.3c0 0-1.1-12.8-24-18.8"/><path class="st2" d="M1166.1 421.4l.6 2.6-.6-2.6zm.6 2.6l.5 1.8z"/><path class="st13" d="M1175.7 520.5s-3.8 14.7 3.8 24.5c8.6 11.3 6.9 4.6 2.2-5.8 0 0-.9-4.9 4.7 1.8s3.1-2.4 10.6 3.7 11.9 0 2.2-14.7-6.3-13.8-6.6-18.3c-.3-4.6-1.3.6-1.3.6s-4.7 5.2-3.1 11.9-1.6 13.8-6.6-6.4-5.9 2.7-5.9 2.7zm52-16.8c-1.3-3-5.5-.1-3.2 2.2 3.2 3.2 4.3 9.3 5.4 13.6 0 .2.4.2.4 0 2-5.9-.4-10.5-2.6-15.8z"/><path class="st8" d="M1167.6 467.2c-.7 0-1.5-1.1-1.7-2.8-.1-.8.1-1.6.4-2.2.1-.3.5-.8.9-.8.8 0 1.6 1.1 1.7 2.8.2 1.7-.5 3-1.3 3z"/><path class="st7" d="M1167.3 462c.3 0 1.1.8 1.2 2.3s-.5 2.4-.9 2.4c-.3 0-1.1-.8-1.2-2.3 0-1.4.5-2.4.9-2.4m0-1c-1.2.1-2 1.6-1.9 3.5.1 1.8 1.1 3.2 2.2 3.2h.1c1.1-.1 1.9-1.6 1.8-3.5-.1-1.8-1.1-3.2-2.2-3.2z"/><path class="st8" d="M1188.7 471.6c-1.6 0-2.9-1.3-2.9-2.9s1.3-2.9 2.9-2.9 2.9 1.3 2.9 2.9c0 1.6-1.3 2.9-2.9 2.9z"/><path class="st7" d="M1188.7 466.4c1.3 0 2.4 1.1 2.4 2.4s-1.1 2.4-2.4 2.4-2.4-1.1-2.4-2.4 1.1-2.4 2.4-2.4m0-1c-1.9 0-3.4 1.5-3.4 3.4s1.5 3.4 3.4 3.4 3.4-1.5 3.4-3.4-1.5-3.4-3.4-3.4z"/><path class="st8" d="M1177 470c-1.2 0-2.2-1.3-2.2-2.9s1-2.9 2.2-2.9 2.2 1.3 2.2 2.9-1 2.9-2.2 2.9z"/><path class="st7" d="M1177 464.7c.9 0 1.7 1.1 1.7 2.4s-.8 2.4-1.7 2.4c-.9 0-1.7-1.1-1.7-2.4s.8-2.4 1.7-2.4m0-1c-1.5 0-2.7 1.5-2.7 3.4s1.2 3.4 2.7 3.4 2.7-1.5 2.7-3.4-1.2-3.4-2.7-3.4z"/><path class="st8" d="M1210.5 467.2c-.9-.1-1.6-1.4-1.5-3 .1-1.5.9-2.7 1.8-2.7 1 .1 1.7 1.4 1.6 3-.1 1.5-.9 2.7-1.9 2.7z"/><path class="st7" d="M1210.9 462c.5 0 1.2 1 1.1 2.4s-.8 2.3-1.3 2.3-1.1-1-1-2.4c-.1-1.4.7-2.3 1.2-2.3m0-1c-1.2 0-2.2 1.4-2.3 3.2-.1 1.9.7 3.4 2 3.5h.1c1.2 0 2.2-1.4 2.3-3.2 0-1.8-.8-3.4-2.1-3.5z"/><path class="st8" d="M1201 470c-1.2 0-2.2-1.3-2.2-2.9s1-2.9 2.2-2.9 2.2 1.3 2.2 2.9-1 2.9-2.2 2.9z"/><path class="st7" d="M1201 464.7c.9 0 1.7 1.1 1.7 2.4s-.8 2.4-1.7 2.4c-.9 0-1.7-1.1-1.7-2.4s.8-2.4 1.7-2.4m0-1c-1.5 0-2.7 1.5-2.7 3.4s1.2 3.4 2.7 3.4 2.7-1.5 2.7-3.4-1.2-3.4-2.7-3.4z"/><ellipse class="st2" cx="1189.3" cy="567.8" rx="22.5" ry="8.4"/><ellipse class="st9" cx="1189.2" cy="569.4" rx="20.8" ry="7.8"/><path class="st4" d="M1218.1 409.1c0 6-13 10.9-29.1 10.9s-29.1-4.9-29.1-10.9v15.6c0 6 13 10.9 29.1 10.9s29.1-4.9 29.1-10.9v-15.6z"/><ellipse class="st5" cx="1189" cy="409.1" rx="29.1" ry="10.9"/><ellipse class="st5" cx="1189.1" cy="407.9" rx="32.9" ry="12.3"/><path class="st4" d="M1148.2 615.4c0 1.4-1.5 2.3-2.8 1.7-7.5-3.4-20.7-17.2-20.9-17.3-8.6-8.9-19-21.9-19.9-33.1-.8-9.2 5.6-42.3 12.4-70.3 11.7-48.6 19-63.1 23.1-66.7 8.2-7.2 18.6-10.9 23-12.2 1.1-.3 2.2.3 2.5 1.4l1.7 6.6-1.1-4.3.6 2.5c.2 1-.3 2-1.3 2.3-3.7 1.1-12.6 4.3-19.3 10.2-3.3 2.9-11.1 23.6-20.4 62.2-7.4 30.8-12.8 60.5-12.2 67.5 1.2 14.6 27.3 39.5 33.5 42.9.6.3 1.1 1 1.1 1.7v4.9z"/><path class="st2" d="M1135.1 464.5c-3.8 12.8-7.1 25.7-10.1 38.7s-5.8 26-8.1 39.2c-1.2 6.6-2.3 13.1-2.9 19.8-.1 1.7-.2 3.3.1 4.9.3 1.6.8 3.2 1.4 4.7 1.2 3.1 2.9 5.9 4.7 8.7 3.7 5.5 8 10.6 12.6 15.5 2.3 2.4 4.7 4.7 7.1 7l3.6 3.5c1.2 1.1 2.4 2.4 3.7 3.2l-.2.4c-1.6-.7-2.9-1.9-4.3-2.9l-3.9-3.1c-2.7-2-5.3-4.2-7.8-6.4-5-4.6-9.8-9.5-13.9-15.1-2.1-2.8-4-5.8-5.5-9.2-.7-1.7-1.4-3.6-1.8-5.6-.1-.5-.2-1-.2-1.6l-.1-.8v-3.5c.2-3.6.6-6.9 1.1-10.3.5-3.4 1-6.7 1.5-10 1.3-6.6 2.6-13.2 4.1-19.7l2.4-9.8c.4-1.6.8-3.2 1.3-4.9l1.4-4.8c3.7-12.9 7.9-25.7 13.4-38l.4.1z"/><path class="st7" d="M1167.2 424.8s-16.6 10.8-22 22.9c0 0-12.1-11.8 22-22.9z"/><g class="st11"><path transform="rotate(-44.368 1174.759 411.732)" class="st4" d="M1166 410.8h17.7v2H1166z"/></g><g class="st11"><path transform="rotate(-48.921 1189.046 413.07)" class="st4" d="M1179.1 412.1h19.9v2h-19.9z"/></g><path class="st7" d="M1195.6 406.6h-2v-8.5c0-3.6 2.9-6.5 6.5-6.5 2.5 0 4.5-2 4.5-4.5v-5.8c0-9.2-7.5-16.8-16.8-16.8s-16.8 7.5-16.8 16.8v5.8c0 2.5 2 4.5 4.5 4.5 3.6 0 6.5 2.9 6.5 6.5v8.5h-2v-8.5c0-2.5-2-4.5-4.5-4.5-3.6 0-6.5-2.9-6.5-6.5v-5.8c0-10.3 8.4-18.8 18.8-18.8s18.8 8.4 18.8 18.8v5.8c0 3.6-2.9 6.5-6.5 6.5-2.5 0-4.5 2-4.5 4.5v8.5z"/><path class="st5" d="M1224 560.5c-6 0-13-1.2-21.3-3.5-10.1-2.8-17.6-5.6-23.1-8.6-1.8-1-3.5-1.8-5.2-2.6-3.4-1.6-6.7-3.1-10-5.7l-3.6-2.7c-8-5.8-17-12.5-20-22.2-.5-.6-.2-1.4.6-3.1l.1-.2.9.4-.9-.5 1.3-.4c.6.3.7.8.3 1.6-.4.8-.5 1.2-.6 1.4 2.7 9.2 11.5 15.7 19.3 21.4l3.6 2.7c3.2 2.4 6.3 3.9 9.7 5.5 1.7.8 3.5 1.6 5.3 2.6 5.3 2.9 12.7 5.6 22.7 8.4 11.1 3.1 19.9 4.1 26.7 3l.3 2c-1.8.4-3.9.5-6.1.5z"/><path class="st5" d="M1157.2 560.9c-4.1 0-9.5-1.3-11.4-4.1-.6-.9-1.1-2.4.1-4.3l1.7 1c-.7 1.1-.4 1.7-.1 2.1 1.5 2.3 7.9 3.6 11.8 3 9.9-1.5 19.3-3.9 28.1-7.1 18.3-6.6 31-14.1 41.3-24.3.2-.2.5-.4.7-.7 2-1.9 6.6-6.3 6.5-8.9 0-.4-.1-.7-.4-1-.3-.1-.5-.3-.8-.5s-.9-.7-1.2-.8l.2-1.6-1.1-2.1 3.9 3.2c.9.7 1.3 1.6 1.4 2.7.1 3.6-4.6 8.1-7.1 10.5l-.7.7c-10.5 10.3-23.5 18-42.1 24.7-8.9 3.2-18.5 5.7-28.5 7.2-.6.2-1.4.3-2.3.3z"/><path class="st9" d="M1233.3 508.7s2.3 6.8 2.2 10.2l-3.1.5c0-.1-3.6-9.7.9-10.7zm-88.3 42.1l3 5.3s4-1.5 3.2-2.2c-.8-.6-6.2-3.1-6.2-3.1z"/><path class="st2" d="M1336.1 391.1c-3.2 0-2.7 4.9.5 4.9s2.7-4.9-.5-4.9zm52.7-112.1c-.2.1-.5.1-.7.1-.9.1-1 1.5-.1 1.6.2 0 .5 0 .7.1.6.3 1.3-.2 1.4-.8.1-.7-.6-1.3-1.3-1z"/><path class="st12" d="M1011.3 491.1c-2.4 0-2.1 3.8.3 3.8s2.1-3.8-.3-3.8zm207.7-184c-2 0-1.7 3.1.3 3.1s1.7-3.1-.3-3.1zm12.4 15c-2.5 0-2.1 3.8.4 3.8 2.4 0 2-3.8-.4-3.8z"/><path class="st1" d="M1268.6 414.6c-2.2 4.4-3.9 11.8 1.9 11 1.6-.2 11.4-3.4 7.4-5.5-2-1.1-5.3.6-7.2 1-.3-1.9-.8-3.7-1.6-5.4"/><path class="st2" d="M1296.8 471.7c-.7 2.7-2.3 6.2-.8 8.7 2.6-.6 7.1-.1 8.2-3-1.4-.9-3.4-1.5-5.1-1.4.1-1.3-.5-1.8-.7-3-.7-.1-.8-.5-1-.7"/><path class="st9" d="M1073.6 411.1c-3.2 0-2.7 4.9.5 4.9 3.2.1 2.7-4.9-.5-4.9z"/><path class="st12" d="M1099 444.6c-2.6 1.8-4.8 3-5.5 6.3 2.6.8 5.6-2.7 6.4-5 .3 2-.1 6.4 4 6.4 2-1.9.4-4.9-1.9-7.1 1.8.6 9.9 4.4 6.7.9-1.4-1.5-8.1-2.9-9.3-1.3.7.1.2-.4.6-.6"/><ellipse transform="rotate(-3.954 1100.534 444.519) scale(.99998)" class="st12" cx="1100.6" cy="444.5" rx="1.7" ry="1.6"/><ellipse class="st12" cx="1099.5" cy="443.3" rx="1" ry="1"/><path class="st2" d="M1013 321c-1.2 0-1 1.8.2 1.8s1-1.8-.2-1.8z"/><path class="st4" d="M1539.3 637.7c-.5-2-3.5-.8-3 1.1.6 1.9 3.6.8 3-1.1z"/><path class="st5" d="M1528.1 653.6c-.6-2.4-4.2-1-3.6 1.3.7 2.4 4.3 1 3.6-1.3z"/><path class="st0" d="M1466.1 639.7c-1.2 0-1 1.8.2 1.8s1-1.8-.2-1.8z"/><path class="st8" d="M1626.1 572.9c0 2.2-.6 5.1 1 6.7 1.8-.9 5.3-1.4 5.7-3.7-1.2-.4-2.9-.5-4.1-.1-.2-1-.7-1.3-1.1-2.2-.5.1-.7-.3-.9-.4"/><path class="st4" d="M1009.3 747.2s-2.5-.5-6.2 2l-46.3 34.6s-6.8 12.6 11.3 6.3l41.2-42.9z"/><path class="st5" d="M1197.6 777.9l-152-87.9c-10.8 2.6-8.5 18-8.5 18s-.4 29.2-.9 52.8c10.3 4.4 19.7 9.4 32.1 12.7 16.5 4.4 31.2 7.9 46.9 12.8 31.4-1.9 62.2-1.6 69.8-2.4 15.1-1.8 12.6-6 12.6-6z"/><path class="st4" d="M1036.2 760.7c0 3 .1 5.5.2 7.3.8 12-2.1 20.9 23.8 19.9 15.6-.6 38.1-.7 54.9-1.7-15.6-4.8-30.3-8.4-46.9-12.8-12.3-3.3-21.7-8.3-32-12.7z"/><path class="st2" d="M1194.8 778.4h-137.3c-4.4 0-8.3-3.6-8.7-8l-6.6-75.5c-.4-4.4 2.9-8 7.3-8h121.3c4.4 0 8.3 3.6 8.7 8l22.6 75.5c.4 4.4-2.9 8-7.3 8z"/><path class="st13" d="M1051.3 697l7.3 67.8c.1 1.1 1 1.9 2.1 1.9l127.4-.3c1.4 0 2.3-1.3 2-2.6l-18.9-67.5c-.2-.9-1.1-1.5-2-1.5h-115.8c-1.2-.1-2.2 1-2.1 2.2z"/><path class="st9" d="M968.1 791.7l44.4-41.3s-.4 2.3.9-1.1c1.3-3.3-2.7-3.3-2.7-3.3l-49.1 39.3c0 .1-1.5 7.4 6.5 6.4z"/><path class="st5" d="M964.4 787.1l-5.3 3.8s-1 3.6 3 2.9l3.7-4.3c0-.1 1.5-2.8-1.4-2.4z"/><path transform="rotate(-40.324 1014.78 745.979)" class="st4" d="M1013 745.2h3.6v1.5h-3.6z"/><ellipse class="st5" cx="1125.6" cy="772" rx="4.5" ry="3.1"/><ellipse class="st2" cx="1123.6" cy="773.9" rx="5.1" ry="3"/><path class="st9" d="M1048 763.6l-4.7-53.6-1.2-13.4c-.1-1.1-.3-2.2-.1-3.4.2-1.1.6-2.2 1.2-3.2 1.3-1.9 3.6-3.1 5.8-3.2h26.9l53.8-.1h40.4c2.3-.1 4.6.7 6.4 2.2 1.7 1.5 2.9 3.7 3.1 6l22.5 75.5-.3.1-3.2-9.3-3.1-9.3c-2.1-6.2-4.3-12.4-6.2-18.7l-6-18.7c-2-6.3-4.1-12.5-6-18.8l-.1-.2v-.3c-.1-1.6-1-3.2-2.3-4.2-.6-.5-1.4-1-2.1-1.2l-1.2-.3c-.4-.1-.7-.1-1.3-.1l-13.5.1-26.9.2-53.8-.4c-4.5 0-9-.2-13.5-.2l-13.4-.3c-1.7 0-3.4.8-4.4 2.2-.5.7-.8 1.5-1 2.4-.1.4-.1.9-.1 1.3l.1 1.7c.3 4.5.7 8.9 1 13.4l1.8 26.9.9 13.4.8 13.4-.3.1z"/><path class="st5" d="M1190 763.9l-1.9-5.6-1.8-5.6-3.6-11.2-6.9-22.6c-1.2-3.8-2.3-7.5-3.4-11.3l-3.1-10.8-21.5.2-23.6-.2-11.8-.1-5.9-.1-5.9-.1-23.6-.6-11.8-.5-5.9-.2-5.9-.3c-.1 0-.1-.1-.1-.1 0-.1.1-.1.1-.1l94.3-.1h20.6c.5 0 1-.1 1.5.1s1 .5 1.3 1 .3 1 .5 1.4l.4 1.4.8 2.8 1.6 5.7 3.2 11.4 12.6 45.4c0 .1 0 .1-.1.2-.1 0-.1-.1-.1-.1z"/><path class="st12" d="M1069.8 713.9c-.4.1-.9.1-1.3.1-.7 0-1.7 0-2.2-.6s-.4-.7-.5-1.5c-.1-.9-.2-2.5-.4-3.6h-1.4c0-.5-.1-1-.1-1.5h1.4c-.1-.8-.2-1.6-.2-2.4.7-.1 1.4-.3 2.2-.4.1.9.2 1.9.3 2.8h1.6c0 .5.1 1 .1 1.5h-1.6c.1 1 .2 2.2.3 3.1 0 .4 0 .5.3.8.2.3.6.2.8.2h.6c0 .5.1 1 .1 1.5zm8.1-.1h-2.2c-.1-1.1-.3-2.5-.4-3.5s-.3-1.8-1.3-1.8-1.2.7-1.1 1.7.3 2.5.4 3.6h-2.2c-.3-3.3-.7-6.7-1-10h2.2c.1 1.3.3 2.6.4 3.8.4-.6 1.2-1 2-1 .8.1 1.3 0 2 .7s.8 1.4.9 2.6c0 .9.2 2.9.3 3.9zm8.2-1.4c-1 1-1.5 1.7-3.4 1.6-1.9 0-3.9-1.5-4-3.7s1-3.6 3.3-3.6 3.6 1.6 3.9 3.7v.4h-5.1c.2.9 1 1.4 1.9 1.4s1.3-.4 1.7-1c.6.5 1.1.8 1.7 1.2zm-5.4-2.9h3c-.2-.8-.7-1.4-1.6-1.3-.9 0-1.3.5-1.4 1.3zm14-2c-.2-1.2-.3-2.4-.4-3.6h2.2c.4 3.3.7 6.7 1.1 10h-2.2c0-.2-.1-.4-.1-.6-.7.5-1.1.9-2.1.8-2.1-.1-3.4-1.6-3.6-3.7-.2-2.1.9-3.5 2.9-3.7 1-.1 1.5.3 2.2.8zm-1.5.8c-1.1 0-1.5 1-1.4 2s.7 2 1.8 2c1.2 0 1.5-1 1.4-2 0-.9-.6-2-1.8-2zm7.4-2.4h-2.2c-.1-.7-.2-1.4-.2-2.1h2.2c0 .7.1 1.4.2 2.1zm.9 8h-2.2c-.3-2.3-.5-4.7-.8-7h2.2c.2 2.3.5 4.6.8 7zm3.5.1c.4.8.8 1.1 1.7 1.1 1 0 1.5-.5 1.4-1.6v-.5c-.7.5-1 .8-2.1.7-1.9-.1-3.4-1.5-3.6-3.5s.9-3.4 2.8-3.5c.9-.1 1.5.3 2.2.8 0-.2 0-.4-.1-.6h2.2c.2 1.9.5 4.5.7 6.2.3 2.8-1.1 3.5-3.4 3.6-2.2.1-3.2-.7-4-2.5.8-.1 1.5-.2 2.2-.2zm.9-5.7c-1.1 0-1.5.9-1.4 1.9s.7 1.9 1.8 1.9 1.5-.9 1.4-1.9c-.1-.9-.7-1.9-1.8-1.9zm7.4-2.4h-2.2c-.1-.7-.2-1.4-.2-2.1h2.2c0 .7.1 1.4.2 2.1zm.9 8h-2.2c-.3-2.3-.5-4.7-.8-7h2.2c.3 2.3.5 4.6.8 7zm6.1 0c-.4.1-.9.1-1.3.1-.7 0-1.7 0-2.2-.6s-.4-.7-.5-1.5c-.1-.9-.3-2.5-.4-3.6h-1.4c-.1-.5-.1-1-.2-1.5h1.4l-.3-2.4c.7-.1 1.4-.3 2.1-.4.1.9.2 1.9.3 2.8h1.6c.1.5.1 1 .2 1.5h-1.6c.1 1 .3 2.2.4 3.1.1.4.1.5.3.8.2.3.6.2.8.2h.6c.1.5.1 1 .2 1.5zm7.1-1.8c.1.5.2.6.4.6.2.1 0 0 .2 0 0 .4.1.8.1 1.2-.4.1-.6.1-1 .1-.5 0-1-.3-1.4-.6 0 0 .2-.1-.1 0-.3.2-1 .7-1.9.6-1.3-.1-2.6-.7-2.8-2.2-.1-.8.1-1.2.7-1.6.5-.4 1-.4 1.7-.5.3-.1 1-.2 1.3-.2s.4-.2.4-.3v-.1c-.2-.6-.5-.8-1.2-.8s-1.1.3-1.1 1h-2c-.1-1.8 1.3-2.5 3-2.4 1.7 0 2.9.4 3.3 2.2.2.7.3 2.1.4 3zm-2.2-1.4c-.3.1-.5.2-.8.2-.1 0-.3.1-.5.1s-.5.1-.7.2c-.2.1-.3.3-.2.6.1.6.5.8 1.2.8s1.1-.3 1.1-1.1c0-.2-.1-.6-.1-.8zm6.4 3.2h-2.2c-.4-3.3-.8-6.7-1.2-10h2.2c.4 3.3.8 6.6 1.2 10zm-63.4 6.8h-2.2c-.1-.7-.1-1.4-.2-2.1h2.2c.1.7.2 1.4.2 2.1zm.8 7.9h-2.2c-.2-2.3-.5-4.7-.7-7h2.2c.3 2.3.5 4.7.7 7zm8.6 0h-2.2c-.1-1.1-.3-2.5-.3-3.5-.1-1-.3-1.8-1.3-1.8s-1.2.7-1.2 1.7c.1 1 .3 2.5.4 3.6h-2.2c-.2-2.3-.5-4.7-.7-7h2.2c0 .3.1.6.1.9.4-.7 1.2-1.1 2-1s1.3 0 2 .7.8 1.4.9 2.6c0 .7.2 2.8.3 3.8zm5.9.1c-.4.1-.9.1-1.3.1-.7 0-1.7 0-2.2-.6s-.4-.7-.5-1.5c-.1-.9-.2-2.5-.4-3.6h-1.4c0-.5-.1-1-.1-1.5h1.4c-.1-.8-.2-1.6-.2-2.4.7-.1 1.4-.3 2.2-.4.1.9.2 1.9.3 2.8h1.6c.1.5.1 1 .2 1.5h-1.6c.1 1 .2 2.2.3 3.1 0 .4 0 .5.3.8.2.3.6.2.8.2h.6c-.1.4 0 .9 0 1.5zm7.9-1.6c-1 1-1.5 1.7-3.4 1.6-1.9 0-3.9-1.5-4-3.7s1-3.6 3.3-3.6 3.6 1.6 4 3.7v.4h-5.1c.2.9 1 1.4 1.9 1.4s1.3-.4 1.7-1c.5.6 1 .9 1.6 1.2zm-5.4-2.8h3c-.2-.8-.7-1.4-1.6-1.3-.8-.1-1.3.5-1.4 1.3zm9.1 4.3h-2.2c-.4-3.3-.7-6.7-1.1-10h2.2c.4 3.3.8 6.7 1.1 10zm4 0h-2.2c-.4-3.3-.7-6.7-1.1-10h2.2c.4 3.3.8 6.7 1.1 10zm3.1-7.9h-2.2c-.1-.7-.2-1.4-.2-2.1h2.2c0 .7.1 1.4.2 2.1zm.9 7.9h-2.2c-.3-2.3-.5-4.7-.8-7h2.2c.2 2.3.5 4.7.8 7zm3.5.2c.4.8.8 1.1 1.7 1.1 1 0 1.5-.5 1.4-1.6v-.5c-.7.5-1 .8-2.1.7-1.9-.1-3.4-1.5-3.6-3.5s.9-3.4 2.9-3.5c.9-.1 1.5.3 2.2.8 0-.2 0-.4-.1-.6h2.2c.2 1.9.5 4.5.7 6.2.3 2.8-1.1 3.5-3.4 3.6s-3.2-.7-4-2.5c.7-.2 1.4-.2 2.1-.2zm.9-5.7c-1.1 0-1.5.9-1.4 1.9s.7 1.9 1.8 1.9 1.5-.9 1.4-1.9c0-1-.7-1.9-1.8-1.9zm12.8 4c-1 1-1.5 1.7-3.4 1.6-1.9 0-3.9-1.5-4-3.7s.9-3.6 3.2-3.6c2.3 0 3.6 1.6 4 3.7v.4h-5.1c.2.9 1 1.4 1.9 1.4s1.3-.4 1.7-1c.6.6 1.1.9 1.7 1.2zm-5.4-2.8h3c-.2-.8-.7-1.4-1.6-1.3-.9-.1-1.4.5-1.4 1.3zm13.7 4.3h-2.2c-.1-1.1-.3-2.5-.4-3.5s-.3-1.8-1.3-1.8-1.2.7-1.1 1.7.3 2.5.4 3.6h-2.2c-.3-2.3-.6-4.7-.8-7h2.2c0 .3.1.6.1.9.4-.7 1.2-1.1 2-1s1.3 0 2 .7.8 1.4.9 2.6c.1.7.3 2.8.4 3.8zm8.2-1.7c-.7 1.3-1.4 1.9-3.2 1.9-2.1-.1-3.9-1.4-4.2-3.6-.3-2.3 1.2-3.6 3.2-3.7 2 0 2.7.7 3.8 2.1l-1.8.6c-.5-.7-.7-1.2-1.7-1.2s-1.4 1-1.3 2c.2 1 .6 2 1.8 2 .8 0 1.1-.4 1.3-1 .7.4 1.4.6 2.1.9zm7.9.2c-1 1-1.5 1.7-3.4 1.6-1.9 0-3.9-1.5-4.1-3.7s.9-3.6 3.2-3.6c2.3 0 3.6 1.6 4 3.7v.4h-5.1c.2.9 1 1.4 1.9 1.4s1.3-.4 1.7-1c.7.6 1.2.9 1.8 1.2zm-5.4-2.8h3c-.2-.8-.8-1.4-1.6-1.3-.9-.1-1.4.5-1.4 1.3zm-64.4 17.6c-1 1-1.5 1.7-3.4 1.6-1.9 0-3.9-1.5-4-3.7s1-3.6 3.3-3.6 3.6 1.6 4 3.7v.4h-5.2c.2.9 1 1.4 1.9 1.4s1.3-.4 1.7-1c.6.5 1.2.9 1.7 1.2zm-5.3-2.8h3c-.2-.8-.7-1.4-1.6-1.3-.9-.1-1.4.5-1.4 1.3zm12.2-2.7c-.6 1.1-1.3 2.2-1.9 3.3 1 1.2 1.9 2.5 2.9 3.7h-2.5l-1.5-2.1c-.4.7-.7 1.4-1.1 2.1h-2.4c.7-1.3 1.4-2.5 2.1-3.8-.9-1.1-1.7-2.2-2.6-3.2h2.5c.4.6.8 1.1 1.2 1.7.3-.6.5-1.1.8-1.7h2.5zm4 6.4l.3 3.3h-2.2c-.3-3.2-.7-6.5-1-9.7h2.2c0 .2.1.4.1.6.6-.5 1.1-.9 2.1-.8 2.1.1 3.5 1.6 3.7 3.7.2 2.1-.8 3.5-2.9 3.7-1 0-1.6-.3-2.3-.8zm1.5-.9c1.2 0 1.5-1 1.4-2s-.7-2-1.8-2c-1.2 0-1.5 1-1.4 2 0 1 .6 2 1.8 2zm12 0c-1 1-1.5 1.7-3.4 1.6-1.9 0-3.9-1.5-4-3.7s1-3.6 3.3-3.6 3.6 1.6 4 3.7v.4h-5.2c.2.9 1 1.4 1.9 1.4s1.3-.4 1.7-1c.6.5 1.1.9 1.7 1.2zm-5.4-2.8h3c-.2-.8-.7-1.4-1.6-1.3-.9-.1-1.3.5-1.4 1.3zm8.3-2.7c0 .3.1.6.1 1 .3-.8 1.1-1.1 1.9-1.1h.3c.1.7.2 1.4.2 2.1-.2 0-.5-.1-.7-.1-.8.1-1.2.3-1.3 1-.1.3 0 .5 0 1 .1 1 .2 2.2.4 3.2h-2.2c-.3-2.3-.5-4.7-.8-7 .6-.1 1.4-.1 2.1-.1zm8.7 7c-.4.1-.9.1-1.3.1-.7 0-1.7 0-2.2-.6s-.4-.7-.5-1.5-.3-2.5-.4-3.6h-1.4c-.1-.5-.1-1-.2-1.5h1.4l-.3-2.4c.7-.1 1.4-.3 2.2-.4.1.9.2 1.9.3 2.8h1.6c.1.5.1 1 .2 1.5h-1.6c.1 1 .2 2.2.3 3.1.1.4.1.5.3.8.2.3.6.2.8.2h.6c0 .5.1 1 .2 1.5zm5.4-4.9c-.5-.4-1.5-.8-2-.8s-.9 0-.9.5.7.5 1.2.6c.2 0 .8.2 1.1.2 1.2.3 2.3.7 2.4 2 .2 1.7-1.3 2.4-2.9 2.4s-2.8-.5-3.9-1.6c.4-.4.8-.7 1.3-1.1.5.7 1.7 1 2.4 1.1.7 0 1.1-.1 1.1-.6s-.6-.5-1-.6-.9-.2-1.1-.2c-.7-.2-1.4-.3-1.9-.7s-.7-.8-.8-1.4c-.1-1.6 1.4-2.2 2.8-2.2s2.2.4 3.3 1.1c-.4.5-.7.9-1.1 1.3z" id="the_digital_intelligence_experts_1_"/><path class="st7" d="M701.2 655.1c5.4.2 4.4 8.7 6 12.4 3.9-3.9 4.1-16.8 5-22.4 1.7-10.5 4.2-21.4 7.4-32.1l-34.3-27.9c-12.2-.5-24.3 12.5-30.8 29s-33.5 57.5-47 70-27 39 20 37.6c27-.8 55.9-1.7 86.2-2.4-3.9-10.4-7.1-21-9.8-31.9-2.2-9-6-23.2-2.7-32.3z"/><path class="st4" d="M947.4 716.3L719.6 613c-3.2 10.7-5.7 21.6-7.4 32.1-.9 5.6-1.1 18.5-5 22.4-1.6-3.7-.7-12.2-6-12.4-3.3 9.1.5 23.2 2.8 32.4 2.7 10.9 5.9 21.5 9.8 31.9 22.5-.5 45.7-.9 69.3-1.1 55.5-.3 164.3-2 164.3-2z"/><path class="st12" d="M930.8 588.7c.7-6.3 9.8-9.7 14.7-7.7 4.6 1.9 6 10 7 14.5 1.9 8.7 2.6 19.2 3 28 .6 13.3 1.1 26.9 1.4 40.2.1 4.2 1 8.5 1.7 12.6.4 2.8 1 10.3 1.7 12.3 1.6 4.6 1.7 7.7 1.4 10.3-.6 6.2-1.7 11.3-7.3 14.8-5.2 3.3-9 2.2-14.8 1.9-29.3-1.3-107.7-2-107.7-2-18.7-.1-173.9-1.9-190.1-3-8-.5-12.1-2.9-15.6-10.6-6.6-14.5 7.3-25.8 14.6-37.5 10-16.1 19.3-33.2 28.4-49.7 2.4-4.3 4.7-9.4 7.4-13.7 3.1-4.8 6.4-9.3 8.8-14.3 3.1-6.4 10.6-14.2 18.7-9.6 4.3 2.5 3.3 7.7 3.9 11.8 0 0 50.5 1.1 120.9 2.5 70.3 1.3 67-.5 80.3-.8h21.6z"/><path class="st1" d="M870.6 714.6c2.7-4.4 4.4-9.5 5.5-14.5.6-2.8.3-5.1 2.7-7.2 2.4-2 6.7-2.3 9.5-3.2 4.6-1.4 10.7-3 13-7.9 1.2-2.7-.7-4.3-.9-6.7-.4-3.7.8-3 3.3-5.7 4.8-5.1 2.4-10.5 1.2-16 1.8-2.6 2.5-.7 4.3-.9 2.3-.3 4.2-1.2 6.6-1.4 2.3-.2 2.6.6 5-.5 2.7-1.2 2.8-3.1 6.3-2.5 1.4-2.5.3-5.3 1.4-7.8 1.2-3 3.1-2.6 4.7-4.5 1.1-1.2 1.1-3.1 2.4-4.5 1.7-1.8 4.1-2.5 6.2-3.9 3.5-2.4 7-7.6 11.2-8 .2-1 .9-2 2-2.5-.4-6.7-1.1-13.8-2.4-20.1-5.2-.1-6.9.8-9 6-2 4.8-2.2 8.6-5.8 13.4-3.5 4.8-12.1 6.7-13.1 12.5-.7 4.5-.1 7.8-3.7 11.6-2.6 2.7-6.5 4.4-10.1 5.4-3.2.9-6.5 1.5-9.9 1.3-1.6-.1-3.1-1.3-4.7-.3-2.1 1.3-2.4 9-2 11 .6 3.1 3.3 4.1.5 7.1-1.9 2-4.8 1.6-7.3 2.3-6.2 1.8-3.8 7.9-5.6 13.6-2.2 7-7 7.2-13.3 8.9-7.5 2-20.4 5.9-21.9 15.1-.6 3.5 1 6.3 1.6 9.4l22.3.5z"/><path class="st12" d="M848.4 714.1c-.6-3-2.1-5.8-1.6-9.4 1.5-9.2 14.4-13.1 21.9-15.1 6.3-1.6 11.1-1.9 13.3-8.9 1.8-5.7-.6-11.8 5.6-13.6 2.5-.7 5.4-.3 7.3-2.3 2.8-2.9.1-4-.5-7.1-.4-2.1-.1-9.7 2-11 1.6-1 3.1.2 4.7.3 3.4.2 6.7-.4 9.9-1.3 3.6-1 7.5-2.7 10.1-5.4 3.6-3.8 3-7.1 3.7-11.6.9-5.8 9.6-7.7 13.1-12.5 3.5-4.9 3.8-8.7 5.8-13.4 2.1-5.2 3.8-6.1 9-6-.1-.4-.2-.8-.2-1.2-1-4.5-2.4-12.6-7-14.5-4.9-2-14 1.3-14.7 7.7 0 0-8.3 0-21.7.2-12.6.2-10.3 1.9-69.6 1-1.7 2.1-3.2 4.5-5.1 6.3-3.7 3.3-4.5 5.5-6 10.3-1.1 3.4-.7 8.8-3.5 11.4-4 3.7-11.2 3-15.8 5.4-6.6 3.4-6 8.4-4.3 14.6 2.4 8.9-.7 14.2-7.9 19.9-6 4.7-12.4 9.5-8.9 17.6 3.4 7.9 6.7 14.3 2.2 22.5-3.2 5.8-13.1 8.7-14.4 15.3 27.3.3 49.6.6 56 .6 0-.2 6.5 0 16.6.2z"/><path class="st1" d="M711.2 645.1c3-19 10-39.3 17.1-57.4-13-.3-20.3-.4-20.3-.4-.6-4.1.4-9.3-3.9-11.8-8.1-4.6-15.5 3.2-18.7 9.6-2.5 5.1-5.8 9.6-8.8 14.3-2.8 4.3-5 9.3-7.4 13.7-9.1 16.5-18.4 33.6-28.4 49.7-7.3 11.7-21.2 22.9-14.6 37.5 3.5 7.7 7.6 10 15.6 10.6 6.5.4 35.7 1 69.5 1.5-7.9-34.3-1-61.7-.1-67.3z"/><path class="st0" d="M693.1 710.6s-46-3-48.5-4.5l31.5-71 30-51.5 1.4-2c-.3-2.5-1-4.7-3.5-6.1-8.1-4.6-15.5 3.2-18.7 9.6-2.5 5.1-5.8 9.6-8.8 14.3-2.8 4.3-5 9.3-7.4 13.7-9.1 16.5-18.4 33.6-28.4 49.7-7.3 11.7-21.2 22.9-14.6 37.5 3.5 7.7 7.6 10 15.6 10.6 6 .4 31.7.9 62.5 1.4l-11.1-1.7z"/><path class="st0" d="M704.2 712.6c-36.1-.6-57.1-1-62.5-1.4-8.5-.6-12.6-3.3-16-10.9-5.2-11.4 1.9-20.8 8.8-29.9 2-2.6 4.1-5.4 5.8-8.1 9.4-15 18.1-31 26.6-46.4l1.8-3.2c.8-1.5 1.6-3.1 2.5-4.8 1.5-3 3.1-6.1 4.9-8.9.7-1.1 1.5-2.3 2.2-3.4 2.4-3.6 4.7-7.1 6.6-10.9 2.1-4.2 6.1-9.3 11.2-10.8 2.8-.9 5.6-.5 8.2 1 2.8 1.6 3.4 4.3 3.7 6.5v.2l-1.5 2.1-30 51.5-31.3 70.5c3.9 1.1 30.3 3.1 47.9 4.3l11.1 1.6v1zm-5.1-138c-.9 0-1.8.1-2.7.4-4.8 1.5-8.7 6.5-10.6 10.3-1.9 3.9-4.3 7.5-6.7 11-.7 1.1-1.5 2.2-2.2 3.4-1.8 2.7-3.4 5.8-4.9 8.8-.9 1.7-1.7 3.3-2.5 4.8l-1.8 3.2c-8.5 15.4-17.2 31.4-26.6 46.5-1.7 2.7-3.8 5.5-5.8 8.1-6.7 8.8-13.7 18-8.7 28.8 3.3 7.2 7 9.7 15.2 10.3 4.9.3 23.3.8 54.5 1.3l-3.2-.5c-4.8-.3-46.2-3.1-48.7-4.6l-.4-.2 31.7-71.4 30-51.5 1.3-1.9c-.3-2-.9-4.2-3.2-5.5-1.6-.9-3.1-1.3-4.7-1.3z"/><path class="st12" d="M707.3 578.9c-.4-1.1-1.1-1.8-1.9-2-1.4-1.6-4.4-1.9-5.7.5-10.1 18.7-20.1 37.4-30.1 56.2-5 9.4-10.1 18.7-15 28.1-4.4 8.4-9.5 16.9-12.5 26-3.3-1.5-6.8-1.4-9.4 1.5-.3.4-.1 1 .4 1.1 4.9.5 10.1 1.1 12.2 6-.1 2.6-1 5-2.1 7.6-.3.7.5 1.3 1.1.9.1-.1.3-.2.4-.3.3.3.6.4.9.1 8.4-7.5 11.9-18 15.9-28.2 4.7-11.8 9.8-23.5 15-35.1 5-11.3 10.3-22.5 16.5-33.2 3.3-5.6 6.8-11 10.5-16.3 2.8-4 5.5-7.8 3.8-12.9z"/><path class="st1" d="M858.5 651.9c-2.1 0-4.5-.2-7.1-.6-.5-.1-.9-.6-.8-1.1.1-.5.6-.9 1.1-.8 2.5.4 4.8.5 6.8.5.6 0 1 .5 1 1 0 .6-.5 1-1 1zm3.9-.2c-.5 0-.9-.4-1-.9s.3-1.1.9-1.1c2.6-.3 4.6-1.1 6-2.2.4-.3 1.1-.2 1.4.2.3.4.2 1.1-.2 1.4-1.7 1.3-4.1 2.1-7 2.5 0 .1 0 .1-.1.1zm-14.9-1h-.2c-2.3-.4-4.2-.9-5.4-1.2-.6-.1-1.2-.3-1.4-.3-.5-.1-.9-.6-.9-1.1.1-.5.6-.9 1.1-.9.2 0 .7.1 1.6.4 1.2.3 3.1.8 5.3 1.2.5.1.9.6.8 1.2 0 .4-.4.7-.9.7zm24-4.4c-.1 0-.3 0-.4-.1-.5-.2-.7-.8-.5-1.3.5-1.1.8-2.4.8-3.9 0-.8-.1-1.6-.2-2.4-.1-.5.3-1.1.8-1.1.5-.1 1.1.3 1.1.8.1 1 .2 1.9.2 2.7 0 1.8-.3 3.3-.9 4.7-.2.4-.6.6-.9.6zm-.3-10.8c-.4 0-.8-.3-1-.7-.3-.9-.6-1.8-1-2.8-.5-1.3-1-2.6-1.4-3.7-.2-.5.1-1.1.6-1.3s1.1.1 1.3.6c.4 1.1.9 2.3 1.4 3.6.4 1 .8 2 1.1 3 .2.5-.1 1.1-.6 1.3h-.4zm-3.7-10.3c-.4 0-.9-.3-1-.8-.5-1.8-.7-3.4-.7-4.7 0-1.1.2-2.1.5-2.9.2-.5.8-.7 1.3-.5s.7.8.5 1.3-.3 1.2-.3 2.1c0 1.1.2 2.5.6 4.2.1.5-.2 1.1-.7 1.2 0 0-.1.1-.2.1zm30.9-1.9c-2.2-.2-4.5-.7-7-1.4l-.2-.1c-.5-.2-.8-.7-.7-1.3.2-.5.7-.8 1.3-.7h.2c2.3.7 4.5 1.2 6.5 1.4.5.1 1 .5.9 1.1 0 .6-.4 1-1 1zm4 0c-.5 0-.9-.4-1-.9s.3-1 .9-1.1c1.8-.2 4.1-.9 4.9-2.8.2-.5.8-.7 1.3-.5s.7.8.5 1.3c-1 2.2-3.3 3.6-6.5 4h-.1zm-14.6-2.7c-.1 0-.2 0-.3-.1-1.1-.4-2.1-.7-3.1-1.1-1.2-.4-2.4-.8-3.5-1.2-.5-.2-.8-.7-.6-1.3s.7-.8 1.3-.6c1.1.4 2.3.8 3.5 1.2 1 .4 2.1.7 3.1 1.1.5.2.8.7.6 1.3-.2.5-.6.7-1 .7zm-10.4-3.4h-.3c-2.5-.7-4.3-1.1-5.7-1h-.8c-.5.1-1-.3-1.1-.9-.1-.5.3-1 .9-1.1.3 0 .7-.1 1-.1 1.6 0 3.6.4 6.2 1.1.5.2.8.7.7 1.2-.1.5-.5.8-.9.8zm30.9-1.3c-.4 0-.9-.3-1-.7-.4-1.7-1.5-3.6-3.2-5.7-.3-.4-.3-1.1.1-1.4.4-.3 1.1-.3 1.4.1 1.9 2.3 3.1 4.4 3.6 6.4.1.5-.2 1.1-.7 1.2 0 .1-.1.1-.2.1zm-6.1-9c-.3 0-.5-.1-.7-.3-.6-.6-1.3-1.3-2.1-1.9-1.5-1.3-2.5-2.5-3-3.5-.2-.5 0-1.1.5-1.3s1.1 0 1.3.5.8 1.4 2.4 2.8c.8.7 1.5 1.3 2.1 2 .4.4.4 1 0 1.4 0 .2-.2.3-.5.3zm22.7-3.5c-1.3 0-2.6-.1-3.9-.3-.5-.1-.9-.6-.8-1.1.1-.5.6-.9 1.1-.8 1.2.2 2.4.3 3.6.3 1.1 0 2.1-.1 3-.2.5-.1 1.1.3 1.2.8.1.5-.3 1.1-.8 1.2-1.1 0-2.2.1-3.4.1zm-7.7-1.2h-.3l-.5-.1c-1.8-.6-4-1.2-6.2-1.6-.5-.1-.9-.6-.8-1.2s.6-.9 1.2-.8c2.3.5 4.6 1.1 6.4 1.7l.4.1c.5.2.8.7.7 1.2 0 .4-.4.7-.9.7zm-10.7-2.5c-3-.4-5.3-.5-6.8-.3-.5.1-1.1-.3-1.1-.8-.1-.5.3-1.1.8-1.1 1.7-.3 4.2-.2 7.3.3.5.1.9.6.8 1.1-.1.5-.5.8-1 .8zm-81.1 54c-.3 0-.6-.1-.8-.4-.4-.4-.3-1.1.1-1.4l15-12.6c.4-.4 1.1-.3 1.4.1.4.4.3 1.1-.1 1.4l-15 12.6c-.1.2-.3.3-.6.3z"/><path class="st1" d="M839 655.1c-.3 0-.6-.1-.8-.4L827 639.5c-.3-.4-.2-1.1.2-1.4.4-.3 1.1-.2 1.4.2l11.2 15.2c.3.4.2 1.1-.2 1.4-.1.1-.3.2-.6.2z"/><path class="st2" d="M795.2 697.8c4.5-8.2 1.2-14.6-2.2-22.5-3.5-8.1 2.9-12.8 8.9-17.6 7.2-5.7 10.3-11 7.9-19.9-1.7-6.2-2.3-11.2 4.3-14.6 4.6-2.4 11.9-1.7 15.8-5.4 2.8-2.6 2.4-8 3.5-11.4 1.5-4.8 2.3-7 6-10.3 2-1.8 3.5-4.2 5.1-6.3-3.4-.1-7 1.9-10.8 1.8-4.3-.1-8.5-.2-12.6-.2-1.6 1.4-3.5.9-4.5 1.5-4 2.7-6.6 3.8-7.2 8.7-.4 3.2-.1 3.3-2 5.6-2.2 2.7-4.7 4.7-6.3 8-2.8 5.6-3.3 8.2-9.2 10.7-2.6 1.1-3.7.8-4.5 4.4-.8 3.8-.2 2.6 2.4 5s6.4 10.6 2.6 13.9c-2.5 2.1-7.1-1.2-10.1-1.3-2.2 0-5.7.6-7.1 2.5-1.4 1.9.2 5.6-1.4 7.4-2.1 2.3-6.7-.2-9.4-1.1-3.4-1.3-7.5-3.9-10.9-.8-2.4 2.2-2.1 5.5-.5 8.2 1.2 2.1 2.8 3.8 4.9 5.2 2 1.4 5.5 1.8 7.2 3.1 2 1.5 2.9 5.5 1.6 8-2.1 4-8.7 3.2-12.7 4.1-6.1 1.4-9 6.5-14.8 8-6.2 1.6-12.6 2.4-18.2 5-7.8 3.6-3.4 5.9-7.5 14.5l.2-1.9c21.9.3 46-.4 67.1-.1 1.2-6.5 11.2-6.4 14.4-12.2z"/><path class="st4" d="M639.8 704.1c-.6-.6-1.7-1.5-2.5-1.8-.9-.1-1.5-.6-1.9-1.5-1.3-.8-1.3-1.5-.1-2.2 1.1-1.3 4.3-1.7 2.3.9-.4.6.1 1.3.8 1.1 2.6-.6 5.1-3.7 2.1-5.7-2.5-1.7-7.4-.6-8.8 2.1-1.3 2.5-.2 4.9 1.6 6.7 1.3 2.3 6.1 3.8 12.1 4.8 1.3-.1 9.9-1 10.8-1 6.8-.4-13.5-.2-16.4-3.4z"/><path class="st5" d="M930.8 588.7h-3.3s2.7 50.3-1.3 90c0 0-3.3 36.3-26 36.3l47.3 1 6.7-1.8-10.3-113.9-13.1-11.6z"/><path class="st9" d="M954.2 713.8c5.6-3.5 6.7-8.6 7.3-14.8.3-2.6.2-5.6-1.4-10.3-.7-1.9-1.2-9.4-1.7-12.3-.6-4.1-1.6-8.4-1.7-12.6-.3-13.4-.7-26.9-1.4-40.2-.4-8.9-1.1-19.3-3-28-1-4.5-2.4-12.6-7-14.5-2.3-.9-5.4-.7-8.2.4-.2 1.1-.2 2.2-.1 3.6l4.7 108.7-3 11.3 3 4"/><path class="st12" d="M954.8 701.9c-.6-1.5-1.9-2.8-3.4-3.4-1.7-.6-2.9-.2-4.5.5-.5.2-.4 1.2.2 1.1 1.6-.3 4 1.1 4.6 2.6.5 1.1.3 2.5-.5 3.4-1.6.4-3 .7-4.7.4-4.1-.9-6.8-3.3-4.3-7.3.2-.4.5-.8.8-1 .4-.3.9-.4 1.3-.6 2-.8 3-3 3.3-5 .1-.5 0-1-.2-1.5-.2-5-.6-10-1.1-15-1-13.8-1.8-27.6-2.8-41.4-.6-9.2-1.7-18.4-2.3-27.7-.3-4.6-.6-9.2-.9-13.9-.2-3.6-.6-8.5 2.6-11 .5-.4.5-1.2.1-1.6-4.6-.5-10.7 2.2-12.1 6.9-.1 1.6 0 3.5.3 6 1.1 11.2 3 25.4 3.5 36.7.5 11.9.7 23.9.9 35.9.1 6.8-.3 13.1-1.9 19.7-1.3 5.2-2.6 12.1 1.2 16.5.2 1.5.8 3 1.7 4.3 1.9 2.9 5.2 4.7 8.7 4.7 1.5 0 3.3-.3 4.8-1.1.2 0 .5 0 .8-.1 3.2-1.2 5.1-4.8 3.9-8.1z"/><path class="st9" d="M941.1 716.1s6.7 0 11.7-6.7l6 .3s-4.4 8-17.7 6.4z"/><path class="st5" d="M941.3 711.8l7.7-1.4-.5.2c1.2-.8 2.3-1.6 3.3-2.5.5-.5.9-1 1.2-1.5s.6-1.1.7-1.6c.2-1.1-.4-2.3-1.4-3.2s-2.3-1.7-3.5-2.2h.2c-.6.1-1.2.2-1.8.5-.6.2-1.1.5-1.6.9-.4.4-.8 1-.8 1.6-.1.6.1 1.3.3 1.9-.3-.6-.5-1.2-.5-1.9s.3-1.4.7-1.9 1-.9 1.6-1.2 1.2-.6 1.9-.7h.2c1.5.4 2.9 1.1 4.2 2 .6.5 1.2 1.1 1.7 1.8s.7 1.7.7 2.6c0 .9-.3 1.8-.7 2.6s-.8 1.5-1.4 2.1c-1 1.3-2.2 2.3-3.4 3.3-.1.1-.2.1-.3.2l-.2.1-7.5 2.4c-1.1.3-2.2-.2-2.5-1.3s.2-2.2 1.3-2.5c.2-.3.3-.3.4-.3z"/><path class="st1" d="M728.6 643.9l-26.5 66.7-1.8-.8z"/><path class="st1" d="M769.1 644.1L726 644l-43.1.1v-2l43.1.7 21.6.6 21.5.7z"/><path class="st1" d="M737.1 624.6l-8 19.5-.9-.4z"/><path class="st4" d="M928.9 744.5s-3 6.7-41.2 16.9c0 0-39.9 11.5-60.4-8-22.8-21.8 7.8-38.8 27.2-39.2 15.7-.3 74.4 30.3 74.4 30.3z"/><path class="st8" d="M931.7 725.2c.7-8.5-17.1-16.9-39.7-18.9-22.7-1.9-41.6 3.4-42.3 11.9l-1 16c-.7 8.5 16.1 16.9 38.7 18.9 22.7 1.9 41.6-3.4 42.3-11.9l2-16c-.6 6.9-13.2 11.7-30.1 12.2 16.9-.5 29.5-5.3 30.1-12.2zm-52.6 10.6c-16.9-3.1-29.2-9.8-29.5-16.7.3 6.8 12.6 13.6 29.5 16.7 1.3.2 2.6.5 4 .6-1.3-.2-2.7-.4-4-.6z"/><path class="st8" d="M889.3 737.1c-22.7-1.9-40.5-10.4-39.7-18.9l-1 16c-.7 8.5 16.1 16.9 38.7 18.9 22.7 1.9 41.6-3.4 42.3-11.9l2-16c-.6 8.5-19.6 13.8-42.3 11.9z"/><path class="st5" d="M892 706.4c-22.7-1.9-41.6 3.4-42.3 11.9s17.1 16.9 39.7 18.9c22.7 1.9 41.6-3.4 42.3-11.9.7-8.6-17.1-17-39.7-18.9zm32.8 17.4c-.6 6.6-16.3 10.6-35.1 9s-33.6-8.2-33.1-14.8c.6-6.6 16.3-10.6 35.1-9 18.9 1.6 33.7 8.2 33.1 14.8z"/><ellipse transform="rotate(-85.151 890.206 720.957) scale(.99998)" class="st0" cx="890.2" cy="721" rx="2.9" ry="8.2"/><path class="st12" d="M909 709.2c-.2.1-.4.3-.6.4 2.8 1.3 5.3 2 7.6 4.1 5.7 2.6 9.1 6.8 8.8 10-.3 3.4-4.7 6.1-11.5 7.7.4.1.8.1 1.2.3-4.2.8-8.5 1.3-12.8 1.8-1.2 0-2.4 0-3.7-.1-.1 0-.1.1 0 .2.4.1.7.1 1.1.2-.4 0-.7.1-1.1.1v.1c.8 0 1.6.1 2.4.1 3 .5 6 .5 8.9.2 2.7.3 5.1-.3 7.7.6.8.3 1.3.3.5-.1-.3-.2-.6-.3-.9-.5.1 0 .1-.1.2-.1.4.3.8.6 1.2.8.2.1.5 0 .6-.2.1.1.3.1.4.2 7.4-2.2 12.1-5.6 12.5-9.7.7-6.3-8.6-12.4-22.5-16.1z"/><path class="st5" d="M900.8 721.6l3.6-2 16.1 4.3-16.1.5zm-20.5-2.6l-3.6 2-16.1-4.3 16.1-.5z"/><path class="st4" d="M830.3 565.1l11-31.9s.1-2.8-1.2-4.9c-2.2-3.5-9.7-7.9-15.7-1.5l-18.1 30.8-1.2 5.9 25.2 1.6z"/><path class="st7" d="M840.8 542.6l-81.4-.6s-22.5 33.3-30.2 45.4c14.8.3 50.2 1.1 96 2l15.6-46.8z"/><path class="st4" d="M735.1 610.7l16.5.9s41.7.9 52-.6 16-4.7 16-4.7l5.6-17c-45.9-.9-81.2-1.6-96-2-.9 1.4-1.6 2.6-2 3.3-10 17.2 7.9 20.1 7.9 20.1z"/><path class="st1" d="M831.3 591.6l11.9-48.9s.2-4.3-1.8-7.5c-3.4-5.4-14.8-12.1-24-2.2l-22.5 47.1-2.1 9.2 38.5 2.3z"/><circle class="st5" cx="811.8" cy="588.6" r="19.5"/><circle class="st8" cx="811.8" cy="589.3" r="15"/><path class="st2" d="M841.3 535.2c-.8-1.2-1.9-2.5-3.3-3.5 0 0-14.6 7.3-12.9 37.9 0 0 3.3 1.8 6.2 7 0 0 2.7 4 2.2 10.3l3.7-13.7-2.2-2.7 8.2-27.8c-.1 0 .2-4.3-1.9-7.5z"/><path class="st4" d="M790.1 565.1l11-31.9s.1-2.8-1.2-4.9c-2.2-3.5-9.7-7.9-15.7-1.5l-18.1 30.8-1.2 5.9 25.2 1.6z"/><path class="st5" d="M785.2 591.6l16.9-48.9s.2-4.3-1.8-7.5c-3.4-5.4-14.8-12.1-24-2.2l-27.8 47.2-1.8 9.1 38.5 2.3z"/><circle class="st5" cx="766" cy="588.6" r="19.5"/><circle class="st8" cx="766" cy="589.3" r="15"/><path class="st5" d="M815.8 566.6s2 1-.3-.7-7.3-1.7-7.3-1.7l2.7-5 13.5-30.8c-2.4.7-4.8 2.1-7 4.5l-15.2 30.6-8.1 17.1-.7 2.1 3-5.5c3.1-6.1 8.2-10.4 15-10.9 2.6-.2 4.4.3 4.4.3z"/><path class="st2" d="M829.9 597.1c1-3.7 1.5-7.6.9-11.4-.3-1.9-.8-3.7-1.6-5.5-.8-1.7-1.9-3.3-3.2-4.7s-2.8-2.6-4.5-3.5-3.5-1.4-5.4-1.9c-1.9-.4-3.8-.7-5.7-.8-1.9 0-3.8.2-5.6.9l-.1-.2c1.7-1.1 3.7-1.5 5.7-1.7s4-.1 6 .3c1 .2 2 .4 2.9.6.9.3 2 .7 3 1.1 1.9.9 3.6 2.2 5 3.7 1.5 1.5 2.6 3.3 3.5 5.2.8 1.9 1.4 4 1.5 6 .2 2.1 0 4.1-.4 6-.2 1-.5 1.9-.8 2.9-.2.5-.3.9-.5 1.4l-.6 1.3-.1.3z"/><path class="st1" d="M785.2 591.7c.4-3 .1-6.1-.9-8.9-1-2.8-2.8-5.3-5-7.4-.6-.5-1.1-1-1.8-1.4-.6-.4-1.3-.8-2-1.1-1.3-.7-2.7-1.3-4.1-1.8-2.8-1-5.9-1.6-8.8-1.1v-.1c1.5-.5 3-.6 4.6-.5s3.1.4 4.6.8c1.5.4 3 1 4.4 1.6s2.9 1.5 4.1 2.6c2.4 2.1 4.3 4.9 5.2 8s.8 6.4-.1 9.3h-.2zm-6.9-23.6c1.6 1.4 4.1.9 4.9-1.1l3.1-7.5 9.6-22.6c.6-1.4.2-3.1-1.1-4.1 0-.1-17.9 9.4-16.5 35.3z"/><path class="st9" d="M785 581.5s.1 0 0 0z"/><path class="st1" d="M832.7 568s3.8 3.1 4.8 9.2l1.8-2.2c-.1 0-1.5-5.1-6.6-7zm-16.5 10.5c.9-.1 1.7.2 2.5.6 2.5 1.4 6.2 5.3 4.8 13.1-.3 1.7-2.6 2.6-3.1.5v-1.2c0-3.6.8-9.8-3.5-11.9-1.7-.7-1.4-1-.7-1.1z"/><path class="st5" d="M770.6 578.5c.9-.1 1.7.2 2.5.6 2.5 1.4 6.2 5.3 4.8 13.1-.3 1.7-2.6 2.6-3.1.5v-1.2c0-3.6.8-9.8-3.5-11.9-1.6-.7-1.4-1-.7-1.1z"/><path class="st4" d="M793.1 549.8s7.6-7.1 16.5 2l-3.2 7.4-1.8 1.3s-4.6-6.9-13.2-2l-1.4-1.7 3.1-7z"/><path class="st0" d="M794.1 546.8s7.8-6.8 16.8 2.2l-4.5 10.2s-4.8-9.2-16.8-2.2l4.5-10.2z"/><path class="st1" d="M806.3 559.2s-1.8-4.9-5-5.9c-1-.3-1.3-1.5-.8-2.5 1.5-3.1 5.3-4.2 8.4-2.7l2 1-4.6 10.1z"/></svg>