<svg width="1920" height="525" viewBox="0 0 1920 525" xmlns="http://www.w3.org/2000/svg"><g fill="none"><path d="M1798.46 338.137l-28.23-.018a46.507 46.507 0 0 0-12.93 2.903l-10.12 3.86a30.45 30.45 0 0 1-10.88 2.007h-11.55a38.58 38.58 0 0 0-4.42.257h-10.22c-8.274-.002-16.455 1.556-24 4.572l-12.69 5.068c-5.779 2.307-12.044 3.499-18.38 3.497h-19.43c-11.23 0-22 3.96-29.94 11.007H1920V0H0v323.872h554.44a2.515 2.515 0 0 1-.18-.142h174.01c-18.43-14.752-41.02-22.75-64.26-22.75h-66.35c-9.543-.014-18.982-1.756-27.74-5.121l-3.07-1.172 714.32.674c-8.885.016-17.674 1.637-25.83 4.767l-15.82 6.027c-5.364 2.06-11.145 3.126-16.99 3.134h-40.64c-14.23 0-28.07 4.9-39.36 13.935h694.87c-10.104 9.53-24.197 14.926-38.94 14.913z" fill="#0A4C6F"/><g fill="#0A223E"><path d="M1447.29 247.56h-5.11c-5.089 0-10.12-1.08-14.76-3.17l-13.55-6.09a29.909 29.909 0 0 0-12.25-2.63h-1.56a61.187 61.187 0 0 0-21.09 3.74l-12.92 4.73a40.317 40.317 0 0 1-13.88 2.46h-13.81a52.31 52.31 0 0 0-9.53.88 33.273 33.273 0 0 0-13.6-2.88l-17.46.11c-3.742.01-7.444.778-10.88 2.26l-6.66 2.86a18.157 18.157 0 0 1-7.16 1.49h-17.11a24.7 24.7 0 0 0-16.57 6.61h103.26l-.48-.41h129.16a33.966 33.966 0 0 0-24.04-9.96z"/><path d="M1774.23 253.32h-48.75a44.251 44.251 0 0 0-17.47 3.63l-10.7 4.59a29.069 29.069 0 0 1-11.49 2.39h-27.49a39.672 39.672 0 0 0-26.62 10.62H1920V0H0v286.6h398.24v-4.09c-18.27-16.48-40.67-25.41-63.71-25.41h-65.78a69.615 69.615 0 0 1-27.5-5.72l-17.61-7.56h312.34a35.652 35.652 0 0 0-25.2-10.44h-16.35a37.71 37.71 0 0 1-15.47-3.32l-14.19-6.38a31.378 31.378 0 0 0-12.83-2.75h-40.2a102.534 102.534 0 0 0-51.08-13.85h-73.27a77.607 77.607 0 0 1-30.64-6.37l-28.52-12.25c-.47-.2-.95-.39-1.42-.59h1438.38a61.456 61.456 0 0 0-13.62 7.26h-56.18a66.371 66.371 0 0 0-26.21 5.45l-16.05 6.89a43.68 43.68 0 0 1-17.25 3.59h-41.25c-14.45 0-28.49 5.6-39.95 15.93h315.22v.01c.2-.01.4-.02.6-.02h.01a13.432 13.432 0 0 1 3.72 26.34z"/></g><path d="M228.1 424.22H0V217h21.77a68.91 68.91 0 0 1 27.22 5.66l16.67 7.16a45.369 45.369 0 0 0 17.91 3.72h42.83c15 0 29.58 5.82 41.48 16.54H37.66v.02c-.24-.01-.48-.02-.73-.02a16.166 16.166 0 0 0-8.83 29.71h22.5c15.79 0 31.18 5.58 44.2 15.92.2.12 20.2 19.12 19.17 19.7h49.64a70.353 70.353 0 0 1 40.61 13.22h67.6a79.738 79.738 0 0 1 31.54 6.56l19.32 8.3a52.4 52.4 0 0 0 20.75 4.32h49.64c17.39 0 34.28 6.74 48.07 19.17H61.85v.02c-.24-.01-.48-.02-.72-.02h-.01a16.165 16.165 0 0 0-4.51 31.69h58.66c7.23.012 14.383 1.5 21.02 4.37l12.87 5.53a35.019 35.019 0 0 0 13.83 2.88h33.08c11.58-.01 22.84 4.48 32.03 12.77zm1606.85-42.39h-47.73c-3.113 0-6.191.661-9.03 1.94l-9.99 4.49a26.509 26.509 0 0 1-10.89 2.33h-11.51a25.043 25.043 0 0 0-17.73 7.35h71.46a37.249 37.249 0 0 0 22.72 7.72h23.46c3.347 0 6.667.589 9.81 1.74l9.13 3.34a43.336 43.336 0 0 0 14.91 2.64H1920v-55.73c-.45.073-.904.11-1.36.11h-28.53a68.766 68.766 0 0 0-40.99 13.55l-14.17 10.52zm85.05 78.26h-43.51a79.738 79.738 0 0 0-31.54 6.56l-19.32 8.3a52.4 52.4 0 0 1-20.75 4.32h-49.64a67.227 67.227 0 0 0-8.03.5h-71.38c-5.06 0-10.08.89-14.83 2.63l-9.08 3.32a28.513 28.513 0 0 1-9.76 1.73h-23.33a37.1 37.1 0 0 0-22.6 7.68h96.1a43.826 43.826 0 0 1-32.39 14.31h-92.27c-2.969 0-5.903.63-8.61 1.85l-9.52 4.28a25.257 25.257 0 0 1-10.38 2.23h-10.97a23.944 23.944 0 0 0-16.91 7l312.5.13c-5.8-5.23-12.91-8.49-20.22-8.49h-20.88a21.933 21.933 0 0 1-8.73-1.82l-8.12-3.49a33.47 33.47 0 0 0-13.27-2.76l167.44-.04v-48.24zM339.92 396.81l-6.66-2.86a27.445 27.445 0 0 0-10.88-2.26l-17.46-.11a33.386 33.386 0 0 0-17.41 4.86l-10.01 8.47h103.26a24.7 24.7 0 0 0-16.57-6.61h-17.11c-2.463-.003-4.9-.51-7.16-1.49zm10.22-110.71l-12.92-4.73a61.466 61.466 0 0 0-21.09-3.74h-1.56a29.909 29.909 0 0 0-12.25 2.63l-13.55 6.09a35.935 35.935 0 0 1-14.76 3.17h-5.11a34.007 34.007 0 0 0-24.05 9.96h165.11a52.778 52.778 0 0 0-32.14-10.92h-13.81a40.737 40.737 0 0 1-13.87-2.46zM1539.4 466.06l-10.95-4.92a24.133 24.133 0 0 0-9.9-2.12h-1.26a49.562 49.562 0 0 0-17.05 3.02l-10.44 3.82a32.75 32.75 0 0 1-11.22 1.99h-11.17a42.6 42.6 0 0 0-25.98 8.83h133.48a27.482 27.482 0 0 0-19.44-8.05h-4.13a29.227 29.227 0 0 1-11.94-2.57z" fill="#0A668E"/></g></svg>