<svg viewBox="0 0 1920 1800" xmlns="http://www.w3.org/2000/svg" fill-rule="evenodd" clip-rule="evenodd" stroke-linejoin="round" stroke-miterlimit="1.414"><path d="M1104 580.4l81-27.3 77.8 27.3v11.2l-12 3.944v35.059c11.877-1.357 21.06-3.775 26.2-7.103 17.3-11.2 26.3-10.9 26.3-10.9-.9-5.7 6.1-11.7 6.1-11.7-3.6 7.9 1.3 12.9 1.3 12.9 2.1-6.1 7.9-5.9 7.9-5.9-3.6 2.8 0 5.9 0 5.9 25.7 5.5 83.7 1.4 91.8-2.9 8-4.3 11.6-6.4 11.6-6.4 93.8 2.9 71.5-3.7 127.6 9.8 230.5 55.6 358.6 16.3 358.6 16.3s23.5-17.8 63.2-13.1c39.7 4.7 43.3 11.5 70.4 0 27.1-11.5 40.2-39.9 69.7-41 29.496-1.2.008 1379.01 0 1379.4H-198.2V609.7c166-16.8 193.9 50.6 240.6 21.2 70.5-44.3 107.1-44.1 107.1-44.1 49.9 12.3 212.2 93.7 237.6 86.6 113.8-31.9 62 0 94.4-13.3 32.5-13.3 73.8 10.7 99.1 18.2 25.3 7.5 54.1.5 60.6-4.1 6.4-4.6 9.2 3.4 9.2 3.4 1.6-14 14-18.8 14-18.8-6 4.9-3.2 17.4-3.2 17.4 5.6-5.4 13.2-6.2 13.2-6.2-5.6 6.9-2 11.5-2 11.5 10-3.6 14.8 1.2 14.8 1.2l6.4-.8c-.4-11.2 13.2-16.7 13.2-16.7-4.8 9 1.6 15.1 1.6 15.1 9.6-.3 24.9 3.7 24.9 3.7 4.8-11-8.4-14.1-8.4-14.1 10-7.9 17.2-.9 17.2-.9 4.8-14.4 13.2-14.3 13.2-14.3-8 10.2-3.2 19.3-3.2 19.3 3.2-4.6 7.2-4.1 7.2-4.1-1.6 5.7-1.6 9.1 7.2 4.1s17.6-5 17.6-5c6-6 3.6-6.4 11.2-9.1 7.6-2.7 12 2.1 12 2.1 4.4-4.6 10.4-10.2 13.2-5 2.8 5.2 12.8 4.4 28.5.8 14.393-3.321 41.81-3.068 45.967-3.008l.533-1.892c-1.6 5.3 0 1.9 0 1.9s-.185-.004-.533-.008l.533.008s-1.6 3.4 0-1.9 4.4-9.1 4.4-9.1l3.2 5.2s45.3 3.6 89.4-15c44.1-18.6 52.9-30.8 63.8-28 10.9 2.8 22.8 11.6 49.6 8.3 3.547-.437 6.737-.651 9.602-.694l.415-18.235L1104 591.6v-11.2z" fill="#0a223e" fill-rule="nonzero"/></svg>