<svg version="1.1" id="Ebene_1" xmlns="http://www.w3.org/2000/svg" xmlns:xlink="http://www.w3.org/1999/xlink" x="0" y="0" viewBox="0 0 1920 1800" xml:space="preserve"><style>.st1{fill:#0a223e}</style><defs><path id="SVGID_1_" d="M0 0h1920v1800H0z"/></defs><clipPath id="SVGID_2_"><use xlink:href="#SVGID_1_" overflow="visible"/></clipPath><g clip-path="url(#SVGID_2_)"><path class="st1" d="M-138.3 1047.3c47.1 23 93.5 25.7 93.5 25.7-7.2-17.6 15.5-58.1 34.4-74.8 13.9-12.2 36.4-24.8 64-39 3.8-2 9.1-4.3 13.8-1.4 4.1 2.5 6.4 3.7 9.3 7.4-11.8 2.4-26.5 13.6-30.9 16.8-3.1 2.2-9.7 8.5-12.9 10.6-5.7 3.6-11.1 9.9-15.9 14.7-1.5 1.5-3.4 2.7-3.4 4.8 1.5.2 2.6-.5 4-1.4 11-6.6 52.4-38.7 56.5-41.9 9.8-7.8 26.9-1.6 35.8 1.7 11.7 4.3 25.1 11 34.2 18.9 5.7 5 10.5 8.7 15.2 13.5l-28.2 2.7s-34 2-43.3 4.1c-9.3 2.1-25.1 1.4-50 16.5s-47.4 25.3 17.3 5.7c64.8-19.7 78.1-16.4 115.5-17 26.5 12.8 44.2 32.1 55.1 54-6-2.1-13.8-4.7-23.9-7.6-57.4-16.9-98.2-11.9-148.3-1.8-50.1 10.1-10.2 10 18.8 6.1 29-3.9 57.1-.8 107.1 11.3 20.4 4.9 36 9.7 47.8 15.1 5.4 2.5 9.2 7.5 10.2 13.3 5 28.9 2.7 60.1-4.8 83.1-1.1-9.4-3.7-19.3-9.6-27-15.6-20.5-89.8-44-112-47.2-22.2-3.1-73.1-9.8 11.1 15.1 68.8 20.3 89.5 45.7 101.5 67.9 2.1 4 2.1 8.8-.1 12.7-3.6 6.4-7.5 11.7-11.7 15.7-35.5 33.5-36.7 86.8-36.7 86.8-27.1-31.6-86.9-14.5-86.9-14.5-27.7 4.4-52.9 5.2-75.8 3.3-7.4-.6-14.1-4.8-17.6-11.3-3.6-6.7-6.6-15.1-8-25.5-5.5-39.3-10.4-71.3-14.1-119.5l-3.2-15.2s-5.1-14.7-7.4.1c-2.2 14.8-1.1 27.6-1.2 51.3-.1 21.1-16.2 80 21.2 116-32.3-6.4-59.1-18.1-80.7-31.7-4-2.5-6.2-7.2-5.7-11.9 1.2-10.9 4.3-26.6 8.7-58.3 8.5-60.2 35.1-92.9 33.6-93.1-12.8-1.8-51.6 76.6-53.9 123.9-.5 10.6.1 20.2 1.3 28.6-31-23.2-47.2-58.1-52.8-76.1-1.9-5.9.1-12.3 4.9-16.2 11.3-9.2 28.5-23.7 41.3-36.7 0 0 50.2-39.2-1.9-25.6-31.9 8.3-43.9 33.3-48.4 51.5-1-5.3-2.6-11.2-4.8-17.7-9.4-27.1-9.1-109.4 38-86.5zm2257.6-617.6c.2-1.9.2-2.9.2-2.9s-13.2-16.8-.2 2.9zM1849 1326.3c20.6 26.5 21.6 2.3 14.1-21.7-4.4-5.7-8.1-11.2-11.1-16.5 5.7 12.6 15.7 40.2-3 38.2z"/><path class="st1" d="M1849.2 1282.6c.8 1.8 1.8 3.7 2.8 5.6-2-4.6-3.5-7.2-2.8-5.6z"/><path class="st1" d="M2139.4 573.8s-15.3 1.2-17.6 6.2c0 0 20.4-58.7 18.7-84.1l-16.3 39.7s8.6-85.7-4.7-105.6l-.1-.1c-1.4 16.4-8.7 98.1-15.7 126l-7.1 18.9-1.9-1.1c2-1.7 5.1-5.7 4.9-13.3-.5-17.4-4.2-32-9.6-47.6-.2-.6-.3-1.1-.3-1.5-2.5 2.5-5.1 3.1-7 6.7 1.2-4.6 3-9.4 2.1-14.2-1-5.2-4.1-10.1-6.8-14.6-4-6.5-8.9-12.3-14.1-18.1-4.4-4.9-11-9.3-13.9-15.2-.7 7.8-4 15.9-5.7 23.4.5-8.8.2-19.4 1-27.1-3.1 1.2-13.7-5.4-16.5-6.8-8.1-4-16.8-8.4-24.5-13.1-6-3.7-12.8-9.6-19-11.9-.3 1-.6 2.1-.6 2.7-.4 4.1 2.3 14.3 3.5 19.1 1.1 4.6 1.7 8.1 3 12.4-6.6-6.1-13.4-16.1-16.4-24.5-1.1-2.9-2-5.9-3-8.7V130.5l-55.2-.4.1-6c3.6-1 7.1-2.4 10.2-4.3 6-3.7 9.3-10.3 13-16-2 5.5 0 8.9-.3 13.9.5-.4 1.2-.8 1.9-1.1 21.6-9.4 40.7-19.7 59.5-36 8.2-7.1 9.4-14.2 9.3-18l-7-21.3c-13-39.8-49.3-67.6-91.2-69.5h-1.4c-16.6 1.4-30.6 4.7-43.8 10.3-5-1.5-10.3-3-15.7-4.5 4.7-5.2 9.8-9.8 15.7-13.1-11.5 2.1-27.4-4.6-38.9-6.3-8.2-1.2-17.2-2.3-26.2-3-1.7-.9-3.4-1.7-5.2-2.6-6.1-3.3-12.9-9.5-16.8-15.3 3.2 1.5 5.7 2.3 9.1 3.7 3.5 1.4 11 4.6 14.2 4.8.5 0 1.4 0 2.2-.2-1.1-5-4.8-10.9-6.9-15.9-2.8-6.4-5.1-13.5-7.2-20.2-.8-2.3-4.5-11.2-3.3-13.4-5.9-.2-14-1.6-20.8-2.2 6-.4 12.5-2.1 18.5-1.7-4.2-2.8-6.8-8.4-10.1-12.3-3.8-4.6-7.7-9-12.2-12.8-3.1-2.6-6.5-5.5-10.4-6.9-3.6-1.3-7.5-.4-11.1 0 3-1 3.7-3 5.9-4.6-.4-.1-.7-.2-1.1-.4-11.3-5.9-22-10.4-35.2-12.7-5.8-1-9.1.9-10.7 2.2l-.6-1.6 15.2-3.3c22-2.2 85.2 1.4 97.8 2.2l-.1-.1c-13.7-12.3-80-15.4-80-15.4l32.1-8c-19.2-4.2-66.3 4.8-66.3 4.8 4-1.2 6.7-12.8 6.7-12.8-2.1 5.7-26 .5-41-3.4-.2-.2-.4-.5-.7-.7l-3.2-.3c-4.9-1.3-8.1-2.3-8.1-2.3l.6 1.6-292-28.1c-3.7-3.5-7-7.9-10.5-11.3-6-5.7-12.1-11.1-18.9-15.5-4.7-3.1-9.8-6.4-15.3-7.7-5.1-1.1-10.3.7-15.2 1.8 3.9-1.9 4.6-4.7 7.4-7.3-.5 0-1-.2-1.6-.4-16.4-6.2-31.9-10.5-50.4-11.5-8.1-.4-12.4 2.7-14.3 4.8l-1.1-2 20.3-7c29.8-6.6 116.9-12.1 134.4-13.2l-.1-.1c-20.8-14.6-112.2-7.9-112.2-7.9l42.7-16.3c-27-2.5-90 17.5-90 17.5 5.3-2.3 7-18.6 7-18.6-2 8.2-35.6 5-56.7 2.1-.3-.3-.7-.6-1-.9l-4.4.1c-6.9-1-11.5-1.8-11.5-1.8l1 2.1-598.8 14.4c-1.3-.7-2.6-1.5-3.9-2.2-8.1-5-16.3-11.1-23.8-16.9-2.7-2-13.8-8.9-14.1-12.3-6.8 4.4-16.9 9.2-24.9 13.7 6.3-5.1 12.3-12 19.3-16.3-6.9.1-14.2-4-20.8-5.9-7.9-2.2-15.7-4.1-23.6-4.8-5.6-.5-11.5-1.1-16.9.4-4.9 1.4-8.7 5.4-12.4 8.7 2.5-3.5 1.8-6.2 3-9.8-.5.2-1 .3-1.6.4-17.2 2.3-32.6 5.6-49.2 13.4-7.2 3.4-9.5 8.1-10.2 10.8l-1.9-1.3 14.4-15.5c22.9-19.6 96.2-64.9 110.9-73.9h-.2c-24.9-3-101.4 45.3-101.4 45.3l29.6-34c-24.7 10.3-70.2 57.1-70.2 57.1 3.6-4.5-2.5-19.5-2.5-19.5 1.9 7.4-23.6 18.7-43 26.1l99.8-315.9s-183.7 35.5-226.5 78.6c-3.3 3.3 11.7-19.8-5.1-25.3-2.7 12.2-15.6 52.5-10.6 20.8l-8.9 10.4s-9.7-39.3-42.3-45.2c0 0-6.7 22.1 1.1 36.5 0 0-24.3-13.8-38-5 0 0 5.7 11.9 21.9 23 0 0-16-1.9-23.1 4.8 0 0 10.8 9.4 27.3 6.8.1 0 .3 0 .4-.1.4 4.6 1.9 19.7 4.7 27.2 0 0-15.1-6.3-30.6 1.7 0 0 23.2 14.1 30 16 0 0-34.7 6.5-46.3 17.8 0 0 5.8 2.6 14.3 5.2.9.3 1.9.6 2.9.9 0 3.5.8 9.9 4.8 16.4 0 0-6.5-.9-19.3-5.6-12.9-4.8-18.9 2.1-1.5 7.3 0 0 13.1 3.8 20.8 3.4 0 0-18.5 9.9-19.7 15.7 0 0 10.1 8.3 26.5-13.8l13.8 10.1s-15.2 8.5-19.9 15.2c-.5.7-1.4 2-1.6 2.6-2.3-1.2-21.1-7.9-28.5.3-.8.9-.7 2.4.2 3.3 5.6 5.5 20.6 12 37.1 15-3.2 1.4-26.7 2.9-29.4 5-30.7 24.9 19.8 2.3 19.8 2.3S81.4-385.2 69.9-370c-32.8 12.7-24.8 17.7-5 7.8-1.5 2.9-2.4 5.7-2.3 8 .2 5.1-2.2 10.3-2.2 10.3-5.5 2.5-9.3-4-9.3-4-2.2 8.7 10.4 19 10.4 19-35.5 10.7-35.1 49.7-35.1 49.7-5.4-8-16.2-18.7-16.4-11.4-.2 7.3 11.2 26.5 11.2 26.5-8.8-5.4-43.5-30.9-40.3-22.6 3.2 8.3 45.1 30.9 45.1 30.9-11.2-3-26.7 1.1-26.7 1.1 6.5 1 17.3 7 17.3 7-8.3-.3-13.5 1.9-15.8 3.2l-67.8 1.6s23.4 40.8 53.8 85.2c-1.6 1.7-3 3.4-4 4.6-3.2 4-5.9 8.5-8.3 13.2l-39.8 22.5v463.5c1.2.6 2.5 1 3.7 1.4V1117c58.9-51 125.7-116 140.4-159.1 2.1-6.2-2.7 32 21.9 28.7-4-16.9-12.5-75.5.6-32.7l4.8-18.4s36.2 43.4 80.8 30.9c0 0-5.1-31.8-23.6-45.1 0 0 38.9 2.5 50.7-17 0 0-14.5-11.5-41.5-15.5 0 0 21.3-7.5 26-20.2 0 0-19.4-5.2-38.4 8.2-.2.1-.3.2-.5.3-3.4-5.6-14.5-23.6-22.5-31.3 0 0 22.8-1.4 37.4-20.9 0 0-37.7-3.5-47.4-1.8 0 0 39.6-29.3 47.3-50.6 0 0-8.9.3-21.1 2.2-1.3.2-2.7.4-4.1.7-2.2-4.4-7-11.9-16.1-17.7 0 0 8.7-2.9 27.7-4.8s22.4-14.2-2.5-10.1c0 0-18.7 3.2-28.2 8.5 0 0 17.2-23.7 15.1-31.8 0 0-17.7-4.2-24.8 33.5l-23.5-4.2s13.8-20 15.7-31.3c.2-1.2.6-3.4.4-4.2 3.7.1 31.2-3 35.5-17.7.5-1.7-.5-3.4-2.2-4-10.4-3.4-33.2-2.5-55.7 3.8 3.2-3.6 31.8-19.9 33.8-24.3 23.3-50.1-26.3 9.2-26.3 9.2s15.8-34.3 21-60.4c33.5-36 20.3-37.4 1.6-12.8.1-4.6-.5-8.6-2-11.4-3.4-6.3-3.6-14.3-3.6-14.3 5.4-6.5 14.1-.7 14.1-.7-2.6-12.3-24.6-17.5-24.6-17.5 38.1-35.1 13.6-83.9 13.6-83.9 11.6 6.7 31.8 13.6 27.6 4.3-4.2-9.2-30.2-26.5-30.2-26.5 14.4 1.4 73.5 12.2 64.4 3.7-9.1-8.5-75.4-11.2-75.4-11.2 15.8-3.1 32.8-17.6 32.8-17.6-8.8 2.7-26 1.8-26 1.8 14.6-6.4 18.9-15.5 18.9-15.5-6-1.9-16.5-1-16.5-1 7.4-7.5 18.8-20.5 18.8-20.5 10.9-20.7-6-6.9-12.7 4-6.7 10.9-20.3 25.6-20.3 25.6l-7-8.8c8.2-16 43.8-29.2 37.5-33.8-6.4-4.7-43.9 24.2-43.9 24.2 14.6-16.3 41.7-40.9 41.7-40.9-8.6 4.1-42.4 17.7-42.4 17.7l18.2-20.4L73.6 381c-.6-1.8-1.5-3.7-2.6-5.6.4-3.4 1-6.5 2.1-9.2 4.9-12.1 21.6-22 35.9-22.5-8.7-3.1-15.6-20.6-27.2-18.5 6.2-2.1 12-21.9 14-30.7 2-8.9 2.5-18.5 2.2-28 12.7-.6 31.5.1 50.6 6.2l8.9 2.1s5.3-26.5 1.7-37.3c0 0 9 16.5 8.7 33.2-.1 4.5 2.3 8.8 6.3 10.9 17.2 9.2 60.5 35.4 71.2 70.2 0 0 5.4-38.9-31.5-100.6 0 0 9.5 1.4 16.5 7.4 0 0-8.6-28.1-32.7-43.5 0 0 12.6-6.7 22.9-.9 0 0-22.3-35.3-58.5-37.6 0 0 12.9-8.7 34.8-1.3 0 0-7.9-7.2-22.4-15.6 41.9 16.3 38 4 9.2-4.4 4.3-1.5 7.8-3.5 9.9-5.9 4.7-5.4 12-8.4 12-8.4 7.9 2.7 5.7 12.8 5.7 12.8 10.5-6.8 7.4-29.1 7.4-29.1 46.2 22.8 82.8-17.3 82.8-17.3-2.1 13.2 19.7-10.4 19.7-10.4 2.4 8.7 3 1.4 3.1-5.2 3.1 1.5 6.6 2.9 10.4 4.1 8.5 7.5 17.6 12.4 17.6 12.4-2-2.5-3.9-6.1-5.6-9.8C370.9 102 406.6 97.4 459 74c.1 1.7.3 3.4.6 5.2 0 0 32.5-1.2 48.1-18.1 0 0-7.3 38.7 10.7 52.9 0 0 13.3-13.1 20.7-39.6 0 0 4.9 22.2 17 28.6 0 0 7.6-18.8-3.4-39.5-.1-.2-.2-.4-.3-.5 6-2.7 25.4-11.6 34.1-18.6 0 0-1.4 23 16.3 40.1 0 0 8.2-37.4 7.7-47.3 0 0 24.5 43.3 44.9 53.6 0 0 .8-8.9.4-21.4 0-1.4-.1-2.8-.2-4.2 4.7-1.7 12.8-5.5 19.7-13.9 0 0 1.8 9 1.3 28.4-.5 19.3 11.5 24.2 10.5-1.3 0 0-.9-19.1-5-29.3 0 0 21.6 20.1 30 19.1 0 0 6.4-17.2-30.5-29l7.1-23s18.3 16.3 29.4 19.6c1.2.3 3.4 1 4.1.9-.6 3.6-.9 31.6 13.4 37.8 1.6.7 3.5-.1 4.3-1.7 4.7-10 6.6-32.9 3.1-56.3 3.3 3.6 16 34.3 20.2 36.9 47.3 29.5-6-27.5-6-27.5S789.5 45.6 815 54c31.9 38 35 25 12.7 3.2 4.6.7 8.6.6 11.7-.6 6.8-2.6 14.7-1.8 14.7-1.8 5.8 6.2-1 14.2-1 14.2 12.6-1 20.5-22.5 20.5-22.5 30.4 42.5 82.3 24 82.3 24-8.2 10.8-17.5 30.2-7.7 27.1 9.8-3.1 30.3-27 30.3-27-3.1 14.2-21.3 72.1-11.7 64 9.6-8 20.6-74.2 20.6-74.2 1.1 16.3 13.6 35 13.6 35-1.6-9.2 1.4-26.2 1.4-26.2 4.6 15.5 13.2 20.9 13.2 20.9 2.7-5.7 3.1-16.4 3.1-16.4 6.6 8.3 18.2 21.3 18.2 21.3 19.4 13.5 7.6-5.2-2.5-13.3-10.1-8.1-23.2-23.5-23.2-23.5l9.7-5.9c15.1 10.2 23.8 47.5 29.3 41.7 5.5-5.8-18.8-46.9-18.8-46.9 14.5 16.6 35.8 46.9 35.8 46.9-3.1-9.1-12.5-44.6-12.5-44.6l18.2 20.8L1060 38c1.9-.4 3.9-1.1 6-1.9 3.3.8 6.4 1.8 9 3.3 11.5 6.4 19.4 24.4 18.1 38.8 4.2-8.3 22.5-13.1 21.9-24.9 1.3 6.5 20.4 14.7 29 17.9 16.6 6 36 6.6 53.6 6.6-17.2-8.9-31.7-15.6-42.4-29.1 1.6-2.2 3.4-4.8 5.1-7.9 1.7.6 3.4 1.2 5 1.7.8.3 1.7.6 2.6.9 1.5 3.8 3.7 7.7 6.8 9.9 0 0 1.3-2.4 2.4-6.5 11.6 4.3 25 9 34.9 7-10.4-2.7-23.3-6.4-34.1-12 .2-1.6.3-3.4.2-5.3 2 .5 4 .9 6 1.1-2.5-4.3-4.4-10.1-7.3-13.9.2-.1.5-.1.7-.2 4.9 1 9.5 3.1 13.8 5.5.9-3.8 1.7-7.6 2.3-11.3 3-1.3 5.8-2.6 7.9-3.9 0 0-3 16.4 8.2 30.2 0 0 9.1-26.2 9.6-33.4 0 0 10 24 21.4 36.9.2 4.4 0 8.7-.8 13 0 0 2.5-2.7 6.2-7.9.3.2.5.4.8.6 0 0 .2-.8.4-2.3 3.3-4.9 7.5-11.6 11.6-20 1.9-1.1 3.8-2.6 5.8-4.4 0 0 .5 6.7-1.5 20.5s6.2 18.4 7.7 0c0 0 1-13.8-1.1-21.5 0 0 13.8 16.4 19.9 16.3 0 0 6.1-11.8-19.4-23.5l7.1-15.9s11.7 13.3 19.5 16.6c.8.4 2.3 1 2.9 1-.7 2.6-3.4 22.7 6.3 28.3 1.1.6 2.5.2 3.2-.9 4.3-6.8 7.6-23.1 7.1-40.2 2 2.9 8.5 26.1 11.3 28.3 31.4 25.4-1.9-20.3-1.9-20.3s21.5 17.3 39.2 25.5c19.6 30.1 23 21 8.8 3.4 3.3.9 6.2 1.2 8.4.6 5.1-1.3 10.8 0 10.8 0 3.6 5-2 10.1-2 10.1 9.2.4 16.7-14.4 16.7-14.4 18.2 33.2 57.1 24.4 57.1 24.4-6.8 7.1-15.2 20.2-7.9 18.8 7.3-1.4 24.1-16.8 24.1-16.8-3.5 10-21.6 50-14 45 7.6-4.9 21.2-51.6 21.2-51.6-.6 11.8 6.7 26.4 6.7 26.4-.4-6.7 3.3-18.7 3.3-18.7 2 11.5 7.7 16.2 7.7 16.2 2.4-3.9 3.6-11.5 3.6-11.5 4 6.6 11.2 16.9 11.2 16.9 12.8 11.4 5.9-3.1-.6-9.7-6.5-6.7-14.6-18.9-14.6-18.9l7.5-3.4c9.9 8.7 13 36.2 17.4 32.5 4.4-3.7-9.5-35.4-9.5-35.4 9 13.2 21.7 36.8 21.7 36.8-1.4-6.8-5.1-33.2-5.1-33.2l11.3 16.5-6.4-24.3c1.4-.1 2.9-.4 4.5-.8 2.3.9 4.5 1.9 6.2 3.1 4 2.9 7 7.9 8.7 13.6-2.1 1.8-2.7 2.9-1.8 2.7l2.4-.3c1 4.5 1.2 9.3.3 13.5 3.3-5 14.4-7 17.2-13.4.7.1 1.4.2 2.1.2 3.6 4.5 13.1 10 17.9 12.5 11.4 5.8 25.3 7.9 38 9.4-5.7-3.9-10.9-7.3-15.6-11 11.2 4.3 18.8 8.2 18.8 8.2 3.8-8.2 25.5-21.8 25.5-21.8-5.1 6.4-14 22.7-14 22.7 12 5 49.2 30.1 49.2 30.1 5-9.9 35-18.6 35-18.6-14.2 8.3-17.4 27.1-17.6 27.8.1-.1 1.5.8 16.5 18.1 16 18.5 23.7 23.7 33.7 47.4 14.5-6.7 19-7.2 19-7.2-9.9 11.8-10.3 18.4-9.9 21-22.6-13.4-54.2-23.1-91.3-10.5 0 0 59.3 6.3 106.4 133.5-85.3-22.4-149.6 28.1-143.4 27.2 33.4-4.6 79.4 20.3 79.4 20.3 3.9-7.9 25.5-20.9 25.5-20.9-5.2 6.2-14.2 22-14.2 22 11.7 5.1 47.7 30.5 47.7 30.5 3.2-6 16-11.4 25.1-14.6.4 1 .8 2.3 1.4 3.8-7.4 8.6-9.5 19.6-9.6 20.2.1-.1 1.4.8 15.9 18.1 1.3 1.6 2.5 3 3.7 4.4-24.4-14.1-62.3-26.7-104.6-7 0 0 55.2-.2 113.6 107.8-32.1 9.9-49.8 25.3-49.8 25.3 25.3-3.9 54.9 13.6 54.9 13.6-2-9.7 10.8-2.1 13.8-.3 4.6 10.5 9.2 21.7 13.8 33.7 0 0 .4.8 1 2.3-7.7-1.9-15.3-4.2-23.1-5-11.3-1.2-21.5 0-32 2.3 2.3 4.4 4.3 9.1 5 14.1-3.5-2.9-9.2-4.9-13.3-7.5.4 6.2 3 12.9 4.7 19-10.6-11-15.9-30.8-19.3-45.5-2.9 12.7 5.8 31.9 9.5 44.2 1.8 6 4.4 13.5 8 18.2-23-10.9-30-27.9-40.4-49.5-.5 16.5-.4 34.8 4.9 50.6 2.7 8.2 10 26.3 16.1 27.7-8.6-.7-13.4 9.2-18.8 15.6-23.8 4.5-58.8-7.5-58.8-7.5s10.6 10.7 7 55.2c-3.6 44.6 27.3 48.4 45.9 43.7 18.6-4.7 32.2 9.6 17.1 20.5-15.1 10.9-55.2-9.9-55.2-9.9s2.4 27.8 22.6 54.5c0 0 12.2 17.2 38.1-8.8 25.9-26 51.1 22 7.2 25.1 0 0-24.8.9-38.3-2.3 0 0 14.5 30.5 28.6 37 0 0 3 1.5 9.3 1.2-1.4.9-2.8 1.9-4.3 2.8 0 0-20.4 6.9-21.6 18.7 0 0 7.7-6.2 13.4-.6 0 0 .5 7.5-2.1 13.8-1.2 2.8-1.3 6.6-.8 10.9-20-21.5-32.2-18.9 2.7 12 7.3 24.2 25.4 55.1 25.4 55.1s-52.3-51.4-25.6-6.3c2.3 3.9 30.9 16.7 34.2 19.8-21.9-3.9-43.4-2.7-52.9 1.5-1.5.7-2.3 2.4-1.7 4 5.4 13.5 31.8 13.9 35.2 13.5-.1.7.5 2.8.8 3.9 2.8 10.5 17.7 28.1 17.7 28.1l-21.8 6.1c-10.2-35-26.5-29.4-26.5-29.4-1.2 7.9 17.2 28.7 17.2 28.7-9.5-4.1-27.4-5.4-27.4-5.4-24-1.6-19.6 9.8-1.5 9.8 18.2 0 26.6 2 26.6 2-8.1 6.3-11.9 13.8-13.6 18.2-1.4-.1-2.7-.2-4-.3-11.7-.7-20.1-.1-20.1-.1 9.2 19.4 49.3 43.5 49.3 43.5-9.3-.7-44.6 6.1-44.6 6.1 15.6 17 37.2 16.3 37.2 16.3-6.8 8-15.7 26-18.3 31.6-.2-.1-.3-.2-.5-.3-19.2-10.9-37-4.2-37-4.2 5.7 11.5 26.4 16.6 26.4 16.6-25.2 6.3-37.7 18.5-37.7 18.5 12.9 17.3 49.4 11.4 49.4 11.4-16.3 14.3-18.2 44.8-18.2 44.8 43.2 7.8 73.4-36.6 73.4-36.6l6.2 17c13.3-21.5 28.3 1 35.5 23.8 57.5 74.4 231 180 231 180l42.1-842.8 1.9 1s-.7-4.3-1.4-10.8l.2-4.1c-.3-.3-.5-.6-.8-1-2.1-20.4-4.3-52 3.4-53.7zM119.9-471.4c-.6.8-3.1 3.9-3.1 3.9s-3.7-5.4-8.6-9.7c4.8 1 10 1.8 15.1 2.1-1.3 1.2-2.5 2.4-3.4 3.7zm-1.7 1249.2c.2-1.4 1.5-6.7 1.5-6.7s8 4.5 16.7 7c-6.7 1.6-13.6 3.8-20.2 6.6 1-2.5 1.7-4.8 2-6.9zM91 768.9s-1.1 1.4-2.3 3.8l-.4-3.6c.8 0 1.7-.1 2.7-.2zM436.6 29.3c3.6-3.7 6.5-7 7.1-7.7h.1c-.6 2.5-1.7 6.8-3.1 11.8-1.3-1.4-2.7-2.8-4.1-4.1zM137.4-458.8l-.9 2.4c-.6-.3-1.2-.5-1.8-.7 0 0 1.1-.6 2.7-1.7zM460.3 56.8c-3.8-5.3-8.8-11.7-14.7-18.3 1.4-6.3 2.6-12.3 3.4-16.9.9 0 1.9 0 2.8-.1 2.8 9.4 8.4 17.9 8.4 17.9-1.1-5.9.6-16.4 1-18.6h.2c2.4 7.6 6 11.8 8 13.6-4 6.6-7.3 14.1-9.1 22.4zm194.2-5c-.8-6.9-2.1-14.1-4.1-21.1 2.2 1.3 4.4 2.3 6.5 2.9 1.4.4 6.6 2.3 6.6 2.3s-5.4 7.4-9 15.9zm509.9-19.6c0-.1.1-.1.1-.2.2.1.4.1.6.2 0 .2.1.5.1.7-.3-.2-.5-.4-.8-.7zM1778.2 1118c8-3.1 15.1-8.1 15.1-8.1s1.7 4.9 2 6.2c.5 2 1.4 4.1 2.5 6.2-6.4-2-13.1-3.4-19.6-4.3zm259.7-532v.4h-.2c.1-.2.2-.3.2-.4zm-90.5 5.4c-1.5 2.5-1.5 5.6 4.8 7.4.6.2 1.3.4 2 .7 3.3 3.9 6.2 8 6.4 13.3-3.1-.7-5.6-1.4-8-1.9-3.6-6.3-7.4-12.7-11.2-19.2 3.3-4.7 9.9-4.4 9.9-4.4s-1.2.8-2.3 2.1h-2.9c.4.6.9 1.3 1.3 2zm29.2-45.2c-3.1-12.6 2-27 3.5-39.3 1.1 23.4 6.8 40.1 20.9 58.4l3.3 4.5c-16.5-12.8-39.5-24.8-71.1-31.3-3.4-.7-6.8-1.3-10.1-1.9.8-15.8-.3-35-5-58 .1-.2.2-.4.4-.6 1.9-3.1 5-5.3 6.4-8.9 2.2 5.3-.8 13.5-1.1 19.2-.3 6.5-.5 8.7 3.5 13.9 7.5 9.7 18.3 19.3 27.8 27 6.2 5.1 17.1 10.1 21.5 17zm-153.8 562.4c-1.4-2.2-2.5-3.4-2.5-3.4h2.6l-.1 3.4z"/></g></svg>