<svg version="1.1" id="Hintergrund_1_" xmlns="http://www.w3.org/2000/svg" x="0" y="0" viewBox="0 0 1920 1600" xml:space="preserve"><style>.st0{fill:#0a2e4b}.st1{fill:#0a223e}.st2{opacity:.5;fill:#0a2e4b;enable-background:new}.st3{fill:#0a3d5d}</style><path class="st0" d="M798.6 202.7h320v159.6h-320z"/><path class="st1" d="M884.6 317.3V197.4h148v119.8z"/><path class="st0" d="M1118 362.3H800.4l-132 131.6h2.4l10.4-10.6 14.7-15.1S835.1 484 958 484s260.6-15.8 260.6-15.8l15.3 14.5 11.8 11.1h.7L1118 362.3z"/><path class="st2" d="M884.6 317.3l23-33 104.9.8 21.8 32.1z"/><path class="st3" d="M884.6 317.3c12.3-.6 24.7-1 37-1.2l18.5-.3 18.5-.1 18.5.1c6.2.1 12.3.1 18.5.2 12.3.2 24.7.5 37 1.2-12.3.6-24.7 1-37 1.2l-18.5.3-18.5.1-18.5-.1c-6.2-.1-12.3-.1-18.5-.2-12.3-.3-24.6-.6-37-1.2z"/><path class="st1" d="M943 282s-1 .8-.6 4c.1.6.9.8 1.2.3.6-1 1.6-2 3-2 .2.7.5 1.2.7 1.6.6.9 1.9.9 2.4-.1l.8-1.7s.6.1 1.5.6c1.5 1 3.7-.4 3.2-2.2-.5-1.7-3.1-3-11.9-1.4"/><path class="st1" d="M943.2 285.8l-1 1.9v-2.1c0-.3.2-.5.5-.5s.5.2.5.5v.2zm5.8.5l-.6 2-.4-2.1c-.1-.3.1-.5.4-.6.3-.1.5.1.6.4v.3zm6.1-2.1l.7 2-1.5-1.4c-.2-.2-.2-.5 0-.7s.5-.2.7 0c0 0 .1 0 .1.1zm24.4 0s1.3.8 1.2 4.8c0 .8-1 1.1-1.5.5-.9-1.2-2.2-2.3-3.9-2.1-.2.8-.5 1.5-.7 2-.6 1.2-2.3 1.3-3 .2l-1.2-1.9s-.7.1-1.7.9c-1.8 1.4-4.5-.1-4.1-2.3.4-2.2 3.5-4.1 14.4-3.1"/><path class="st1" d="M980.9 288.5l.3 2.6-1.4-2.2c-.2-.3-.1-.7.2-.9s.7-.1.9.2v.3zm-7.1 1.5l-.3 2.6-1-2.4c-.1-.3 0-.7.4-.8.3-.1.7 0 .8.4.1 0 .2.1.1.2zm-7.8-1.1l-1.7 1.9.6-2.5c.1-.3.4-.5.8-.5.3.1.5.4.5.8-.1.1-.1.2-.2.3zm-214.6 70.3c.6.2 1.1.4 1.7.5.5.2 1.1.3 1.6.5 1.1.3 2.1.6 3.2.9 2.1.5 4.3 1 6.4 1.4 4.3.8 8.7 1.4 13.1 1.6 8.8.4 17.8-.3 26.3-3.3 4.2-1.5 8.3-3.6 11.9-6.3 3.6-2.7 6.8-5.9 9.5-9.5l1-1.4c.3-.5.6-.9.9-1.4.6-.9 1.2-1.9 1.7-2.8l.5-.9c8.2-13.9 10.1-25.9 11.8-36.6 2-13 3.6-23.3 16.5-32.1 2.7-2.1 5.7-3.8 8.9-4.5 1.6-.3 3.1-.3 4.6.3 1.4.5 2.7 1.6 3.7 2.9s1.8 2.9 2.4 4.5c.6 1.6 1.1 3.4 1.5 5.1.7 3.5 1.1 7.1 1.2 10.7.3-3.6.3-7.2-.1-10.9-.2-1.8-.5-3.6-1-5.4s-1.2-3.6-2.2-5.2-2.5-3.2-4.4-4.1-4-1.2-6-1c-4 .5-7.6 2.2-10.8 4.2-.1 0-.1.1-.2.1-14.2 9.7-16 21.3-18.1 34.7-1.5 10-3.3 21.1-10.5 33.8l-1.3 2.2c-.6.9-1.2 1.7-1.7 2.6l-.9 1.2-.9 1.2c-2.5 3.2-5.4 6-8.8 8.2-3.3 2.3-7 4-10.8 5.2-7.7 2.4-16 2.9-24.2 2.2-4.1-.4-8.2-1-12.2-1.9l-6-1.5c-1-.3-2-.6-2.9-.9-.5-.2-1-.3-1.4-.5-.5-.2-1-.3-1.4-.5h-.2c-1.8-.6-3.9.3-4.5 2.2-.7 1.8.2 3.8 2.1 4.5z"/><path class="st1" d="M849.1 274c1.4-2.2 8.1-7.9.5-19.8-1.1 2-5.8 7.3-1.2 19l.7.8zm8.7-8c1.7-1.3 8.4-3.9 5.9-15.2-1.4 1.2-6.5 4-6.2 14.3l.3.9zm7.8-3.5c2.1.5 8.4 3.9 15.4-5.3-1.8-.3-7.3-2.4-15 4.5l-.4.8zm11 4.8c1.2 1.1 4.1 5.9 12.4 2.5-1.1-.9-3.9-4.4-11.8-2.8l-.6.3zm3 7.3c2.4 6.5 6.3 7 7.4 7.4-1.2-7.7-6.1-7.6-7.5-8l.1.6zm-39.8 11.6c.8-2.9 3.8-15.9-5.1-24.3-.8 2.8-3.8 15.3 5.1 24.3zm-2.4 16.3c0-3-.6-16.3-11.4-22.1 0 2.9.4 15.7 11.4 22.1zm9.4-22.8c3.9 3.6 8.3 5 12.9 4.1 2.8-.5 4.9-1.8 5.7-2.3-6.8-4.9-14.7-3.8-18.6-1.8zm-4.6 13.9c4.8 3 9.6 3.5 14.2 1.7 2.8-1.1 4.8-2.8 5.5-3.5-8-3.8-16-1.1-19.7 1.8zm-3.4 17c5.9 1.6 11 .7 15.3-2.7 2.6-2 4-4.4 4.5-5.3-9.4-1.4-16.8 3.9-19.8 8zm-4.3 14.9c7 1.7 12.9.8 17.6-2.6 2.8-2 4.4-4.4 4.9-5.4-11.1-1.4-19.3 3.8-22.5 8zm-6.8 14.6c7 1.7 12.9.8 17.6-2.6 2.8-2 4.4-4.4 4.9-5.4-11.1-1.5-19.4 3.8-22.5 8zm-9.8 12.5c7 3.3 13.4 3.7 19 1.3 3.4-1.5 5.6-3.7 6.3-4.5-11.2-4.1-21.1-.5-25.3 3.2z"/><path class="st1" d="M839.8 286.2c.8-2.9 3.8-15.9-5.1-24.3-.8 2.8-3.8 15.3 5.1 24.3zm-10.3 44.6c0-3-.6-16.3-11.4-22.1 0 2.9.4 15.7 11.4 22.1zm-6.8 13c.1-3-.1-16.3-10.6-22.3-.1 2.9-.2 15.7 10.6 22.3zm13.5-28.5c-.6-3-4.1-15.8-15.9-19.1.6 2.9 3.7 15.3 15.9 19.1zm20.4-46.5c1.9 4 4.9 6.4 8.7 7.2 2.4.5 4.4.1 5.1 0-3.6-5.9-10.1-7.5-13.8-7.2zm12.6-4.2c-.7 4.1.3 7.5 2.9 10.2 1.6 1.6 3.3 2.4 3.9 2.7.3-6.5-3.8-11.2-6.8-12.9zm9.3 13.9c-2.3 1.2-3.7 2.9-4.1 5.2-.2 1.4 0 2.5.1 3 3.4-2.2 4.3-6 4-8.2zm246.3 59.4c.5-.5.8-.8 1.2-1.3.4-.4.8-.8 1.1-1.2.7-.8 1.5-1.7 2.2-2.5 1.4-1.7 2.7-3.4 4-5.2 2.6-3.6 5-7.3 7.1-11.1 4.2-7.7 7.4-16.2 8.3-25.2.5-4.5.3-9-.5-13.5-.8-4.4-2.4-8.7-4.5-12.7l-.8-1.5c-.3-.5-.5-1-.9-1.4l-1.8-2.7-.6-.9c-9-13.4-19.1-20.3-28-26.4-10.9-7.4-19.5-13.3-21.9-28.7-.7-3.4-1-6.8-.3-10 .4-1.5 1.1-2.9 2.2-4s2.6-1.8 4.2-2.1c1.6-.4 3.4-.4 5.1-.3 1.8.1 3.5.4 5.2.9 3.5.8 6.9 2 10.2 3.6-3.1-1.8-6.4-3.4-9.9-4.5-1.7-.6-3.5-1.1-5.3-1.4-1.8-.3-3.7-.5-5.7-.2-1.9.2-3.9.9-5.6 2.2s-2.8 3.1-3.5 5c-1.3 3.8-1.2 7.8-.8 11.5v.2c2.7 17 12.4 23.6 23.6 31.2 8.3 5.7 17.7 12 26 24l1.4 2.2c.5.9 1.1 1.8 1.6 2.7.3.4.5.9.7 1.3l.7 1.4c1.8 3.6 3.1 7.5 3.7 11.5s.6 8 .1 12c-1.1 8-4.3 15.7-8.4 22.8-2.1 3.5-4.4 6.9-7 10.2-1.3 1.6-2.6 3.2-4 4.8-.7.8-1.4 1.5-2.1 2.3l-1.1 1.1c-.3.4-.7.7-1 1 0 0-.1 0-.1.1-1.4 1.4-1.4 3.6 0 5 1.6 1.2 3.8 1.2 5.2-.2z"/><path class="st1" d="M1089.9 213c-1.4-2.2-3.7-10.7-17.7-9 1.3 1.8 4.1 8.3 16.6 9.3l1.1-.3zm-3.5-11.3c-.4-2.1.1-9.3-11.2-11.9.5 1.8.9 7.6 10.3 11.8l.9.1zm.2-8.5c1.3-1.7 7.2-5.9 1.9-16.2-1 1.5-5.2 5.5-2.4 15.4l.5.8zm9-7.9c1.5-.6 7.1-1.2 7.5-10.1-1.3.6-5.7 1.7-7.6 9.4l.1.7zm8 .4c6.9.6 9-2.7 9.9-3.5-7.4-2.2-9.5 2.2-10.4 3.3l.5.2zm-6.7 41c-2.3-2-12.7-10.2-24.1-5.9 2.1 1.9 12.1 10.1 24.1 5.9zm13.6 9.1c-2.7-1.3-15-6.5-24.8.8 2.6 1.3 14.4 6.5 24.8-.8zm-16.5-18.2c4.9-2 8-5.3 9.2-9.9.7-2.8.5-5.2.4-6.1-7.3 4-9.7 11.6-9.6 16zm10.5 10.1c4.7-3.1 7.3-7.1 7.6-12.1.2-3-.5-5.5-.8-6.4-6.8 5.5-7.8 13.9-6.8 18.5zm14 10.4c4-4.6 5.3-9.7 4.1-14.9-.7-3.2-2.3-5.6-2.9-6.4-5.2 7.8-3.6 16.8-1.2 21.3zm11.6 10.2c4.5-5.6 6.3-11.3 5.3-17-.6-3.4-2.1-5.8-2.7-6.7-6.2 9.4-5 19.1-2.6 23.7zm10.2 12.5c4.5-5.6 6.3-11.3 5.3-17-.6-3.4-2.1-5.8-2.7-6.7-6.2 9.3-5 19-2.6 23.7zm7.1 14.2c6-4.9 9.1-10.5 9.3-16.6.1-3.7-.9-6.6-1.4-7.7-8.5 8.4-9.4 18.9-7.9 24.3z"/><path class="st1" d="M1096.9 226.7c-2.3-2-12.7-10.2-24.1-5.9 2.1 1.9 12.1 10.1 24.1 5.9zm35.8 28.4c-2.7-1.3-15-6.5-24.8.8 2.6 1.3 14.3 6.5 24.8-.8zm8.8 11.8c-2.7-1.4-14.7-6.9-24.7 0 2.6 1.3 14.2 6.9 24.7 0zm-19.9-24.4c-2.9-.7-16-3.1-24.1 6.1 2.9.7 15.5 3.2 24.1-6.1zm-33.2-38.5c4.5 0 7.9-1.6 10.2-4.8 1.4-1.9 2-3.9 2.2-4.6-6.9.8-11.1 5.9-12.4 9.4zm1.6-13.1c3.4 2.4 6.9 3 10.4 1.8 2.1-.7 3.6-1.9 4.1-2.4-5.7-3.1-11.6-1.4-14.5.6zm16.6-2.5c.1 2.6 1 4.6 2.9 5.9 1.1.8 2.3 1.1 2.7 1.2-.5-4-3.5-6.4-5.6-7.1zm-199.3.7c-.5-.3-.9-.5-1.4-.8-.4-.2-.9-.5-1.3-.7-.9-.5-1.8-.9-2.7-1.4-1.8-.9-3.6-1.7-5.4-2.4-3.7-1.5-7.4-2.8-11.2-3.8-7.7-2-15.8-3-23.8-1.9-4 .5-8 1.6-11.7 3.3s-7.1 4-10.1 6.6l-1.1 1c-.4.3-.7.7-1.1 1-.7.7-1.4 1.4-2 2.1l-.6.7c-9.8 10.7-13.7 21-17.1 30.1-4.2 11.1-7.5 19.9-20.4 25.2-2.8 1.3-5.8 2.3-8.7 2.4-1.4 0-2.8-.3-4-1.1-1.2-.7-2.1-1.9-2.7-3.2-.7-1.4-1.1-2.9-1.3-4.4-.3-1.6-.4-3.2-.4-4.8 0-3.2.3-6.5.9-9.6-.9 3.1-1.6 6.3-1.9 9.6-.1 1.6-.2 3.3-.1 5 .1 1.7.4 3.4 1 5s1.6 3.2 3.1 4.4 3.3 1.8 5.1 2c3.6.3 7.1-.6 10.2-1.7.1 0 .1 0 .2-.1 14.3-6 18-15.8 22.3-27.3 3.2-8.5 6.8-18 15.4-27.9l1.6-1.7 2-2c.3-.3.7-.6 1-.9l1-.9c2.8-2.3 5.9-4.3 9.2-5.6 3.3-1.4 6.9-2.2 10.5-2.6 7.2-.7 14.6.4 21.7 2.5 3.5 1.1 7 2.4 10.4 3.9 1.7.8 3.4 1.6 5 2.5.8.4 1.6.9 2.4 1.3.4.2.8.5 1.2.7s.8.5 1.1.7c0 0 .1 0 .1.1 1.5.9 3.5.4 4.4-1.1 1.2-1.4.7-3.3-.8-4.2z"/><path class="st1" d="M805.5 246.1c-1.7 1.7-8.6 5.5-4.1 17.4 1.3-1.5 6.4-5.3 4.6-16.5l-.5-.9zm-9.1 5.5c-1.8.8-8.1 1.9-8 12.3 1.5-.8 6.4-2.4 8.1-11.5l-.1-.8zm-7.4 1.6c-1.8-.8-6.7-5-14.5 1.8 1.6.6 6 3.4 14-1.2l.5-.6zm-8.9-6.2c-.9-1.2-2.5-6-10.4-4.5.8 1 2.7 4.6 9.8 4.6l.6-.1zm-1.3-7.1c-.9-6.1-4.2-7.3-5.2-7.9-.3 7 3.9 7.8 5.1 8.4l.1-.5zm37.2-2.8c-1.3 2.4-6.2 13.3 0 22.3 1.2-2.3 6.2-12.7 0-22.3zm5.1-13.9c-.6 2.7-2.5 14.4 5.9 21.5.6-2.5 2.6-13.9-5.9-21.5zm-12.4 18.3c-2.8-3.9-6.4-5.9-10.6-6-2.6 0-4.7.7-5.4 1 5 5.5 12.1 6 16 5zm6.6-11.4c-3.7-3.5-7.8-4.9-12.2-4.1-2.7.5-4.7 1.6-5.5 2.1 6.3 4.8 13.9 3.9 17.7 2zm6-14.4c-4.9-2.5-9.6-2.6-13.9-.5-2.6 1.3-4.4 3.2-5 3.9 8.1 3 15.6-.3 18.9-3.4zm6.6-12.3c-5.9-2.7-11.2-3.1-16-1-2.9 1.3-4.7 3.1-5.3 3.8 9.5 3.4 17.8.3 21.3-2.8zm8.7-11.5c-5.9-2.7-11.2-3.1-16-1-2.9 1.3-4.7 3.1-5.3 3.8 9.5 3.4 17.8.3 21.3-2.8zm10.9-9.3c-5.5-4.2-11.1-5.8-16.5-4.6-3.3.7-5.6 2.2-6.4 2.8 9.2 5.7 18.5 4.3 22.9 1.8z"/><path class="st1" d="M816 237.1c-1.3 2.4-6.2 13.3 0 22.3 1.2-2.3 6.2-12.7 0-22.3zm17.3-37.4c-.6 2.7-2.5 14.4 5.9 21.5.6-2.5 2.6-13.9-5.9-21.5zm8.4-10.2c-.7 2.6-2.9 14.3 5.2 21.6.7-2.5 3-13.8-5.2-21.6zm-17.1 22.6c0 2.7.7 14.6 10.4 19.7 0-2.6-.4-14.1-10.4-19.7zM798 249.3c-1-3.9-3.1-6.6-6.4-7.9-2-.8-3.8-.9-4.5-.9 2.2 5.8 7.6 8.4 10.9 8.8zm-11.8 1.4c1.3-3.5 1.1-6.7-.7-9.5-1.1-1.7-2.4-2.8-3-3.1-1.4 5.6 1.3 10.5 3.7 12.6zm-5.7-14c2.2-.6 3.8-1.9 4.5-3.8.5-1.2.5-2.2.5-2.6-3.4 1.3-4.8 4.4-5 6.4z"/><path class="st3" d="M801.1 362.5h315.5l46.3 47.8s14.1 20.1-35.9 31.8-264 33.1-342-4.9c0 0-30.3-6-20.8-37.6l36.9-37.1z"/><path class="st1" d="M1142.6 277.7s-11.1-1-17.1 4.1c0 0 4.1-12.8-1.4-18.4 0 0-5.1 3.9-8.7 12.6 0 0-.7-7.7-4.6-10.4 0 0-3.4 6-.5 13.5 0 .1 0 .1.1.2-2.1.6-9.1 2.8-12.4 4.9 0 0 1.4-7.7-3.9-14.2 0 0-4.3 12.3-4.6 15.7 0 0-6.5-15.7-13-20 0 0-.6 3-1 7.2-.4 4-.5 9 .3 13.8l.2 1s1.2 6 3.6 8.2l-7.5 10.1c-3.8.9-6.6 1.9-7.7 3.3-.7.8-1.4 2.6-1.7 3.4-.6 1.6-.6 3.7-.6 5.4.1 3.9 1.4 7.8 3.7 11 .9 1.3 1.9 2.5 2.4 3.9.8 2.8-.7 5.4-.9 8.1-.2 3 .7 6.3 1.2 9.3.5 3.1 1.5 10.9 1.8 11.3 2.1 2.3 11.8 12 19.2 13h.1c1.9 1.6 11 1.8 21.1 1.8 3.3 0 6.4-.1 9.1-.4.8-.1 1.5-.2 2.3-.2.2 0 .3 0 .5-.1h.1c.2 0 .3 0 .4-.1h.1c.4-.1.9-.1 1.3-.2h.1c.1 0 .2 0 .3-.1h.2c.1 0 .2 0 .3-.1h.2c.2 0 .3-.1.5-.1h.2c.1 0 .1 0 .2-.1.1 0 .1 0 .2-.1.1 0 .1 0 .2-.1.1 0 .1 0 .2-.1.1 0 .1 0 .2-.1.1 0 .1 0 .2-.1h.1c.1 0 .2-.1.3-.1h.1c.1 0 .1-.1.2-.1h.1c.1 0 .1-.1.1-.1h.1c.3-.2.6-.4.6-.6h.1c4.2-6.4 4.1-11.7 3.3-14.6-.4-1.4-1.8-2.8-4-3.9s-4.9-2.5-6.3-3.4c-.1-.1-.2-.1-.3-.2-.1-.1-.1-.2-.2-.2-1.3-1.7.6-4.8 1-5.4 2.6-.9 3.8-1.9 3.2-3-.3-.5-.9-1-1.9-1.5-3.8-1.8 7.3-23.4 6.4-33.7 1.2-.2 2.4-.4 3.7-.6l-4.8-2.8c-.7-1-1.7-1.6-3.1-1.8l-.4-.2c-.4-.3 17.2-8.8 16.8-24.7z"/><path class="st3" d="M1129.9 323.8c2.9-1.5 4.6-3.2 4.6-5.1 0-.9-.4-1.8-1.1-2.6-3.6-4.2-15.5-7.2-29.6-7.2-17 0-30.7 4.4-30.7 9.8 0 1.8 1.5 3.5 4.2 4.9h-.2s5.1 7.4 3.5 10.3c-.9 1.6-2.8 4-4.3 5.9-1.5 1.8-2.2 4.2-1.9 6.6.7 5 3.3 14.2 10.4 25.1h.1c1 2.7 9 4.9 18.7 4.9 3.2 0 6.2-.2 8.8-.6.8-.1 1.5-.3 2.3-.4.2 0 .3-.1.5-.1h.1c.2 0 .3-.1.5-.1h.1c.5-.1.9-.2 1.3-.4h.1c.1 0 .2-.1.3-.1.1 0 .1 0 .2-.1.1 0 .2-.1.3-.1.1 0 .1 0 .2-.1.2-.1.3-.1.5-.2.1 0 .1 0 .2-.1.1 0 .2-.1.2-.1.1 0 .1-.1.2-.1s.1-.1.2-.1.1-.1.2-.1.1-.1.2-.1.2-.1.2-.1.1 0 .1-.1c.1-.1.2-.1.3-.2l.1-.1c.1 0 .1-.1.2-.1l.1-.1c.1 0 .1-.1.2-.1l.1-.1.1-.1c.4-.4.8-.7.9-1.1v-.1c7.2-10.9 9.8-20.1 10.4-25.1.3-2.4-.4-4.8-1.9-6.6-1.5-1.8-3.5-4.3-4.3-5.9-.1-.1-.1-.2-.1-.4v-.1c0-.1-.1-.3-.1-.4-.4-2.7 2.9-8 3.6-9.1z"/><path class="st2" d="M1129.9 323.8c2.9-1.5 4.6-3.2 4.6-5.1 0-.9-.4-1.8-1.1-2.6-3.6-4.2-15.5-7.2-29.6-7.2-17 0-30.7 4.4-30.7 9.8 0 1.8 1.5 3.5 4.2 4.9h-.2s5.1 7.4 3.5 10.3c-.9 1.6-2.8 4-4.3 5.9-1.5 1.8-2.2 4.2-1.9 6.6.7 5 3.3 14.2 10.4 25.1h.1c1 2.7 9 4.9 18.7 4.9 3.2 0 6.2-.2 8.8-.6.8-.1 1.5-.3 2.3-.4.2 0 .3-.1.5-.1h.1c.2 0 .3-.1.5-.1h.1c.5-.1.9-.2 1.3-.4h.1c.1 0 .2-.1.3-.1.1 0 .1 0 .2-.1.1 0 .2-.1.3-.1.1 0 .1 0 .2-.1.2-.1.3-.1.5-.2.1 0 .1 0 .2-.1.1 0 .2-.1.2-.1.1 0 .1-.1.2-.1s.1-.1.2-.1.1-.1.2-.1.1-.1.2-.1.2-.1.2-.1.1 0 .1-.1c.1-.1.2-.1.3-.2l.1-.1c.1 0 .1-.1.2-.1l.1-.1c.1 0 .1-.1.2-.1l.1-.1.1-.1c.4-.4.8-.7.9-1.1v-.1c7.2-10.9 9.8-20.1 10.4-25.1.3-2.4-.4-4.8-1.9-6.6-1.5-1.8-3.5-4.3-4.3-5.9-.1-.1-.1-.2-.1-.4v-.1c0-.1-.1-.3-.1-.4-.4-2.7 2.9-8 3.6-9.1z"/><path class="st0" d="M1083.6 301.8s.9 4.6 2.7 6.2l-6.4 8.6s15.8 5.3 47.2-.2l-6.2-3.7s13.3-6.4 13-18.4c0 0-8.4-.7-13 3.1 0 0 3.1-9.7-1.1-13.9 0 0-3.8 2.9-6.6 9.5 0 0-.5-5.8-3.5-7.8 0 0-2.6 4.6-.4 10.2 2.2 5.7.5 0 .5 0s-6.9 2-9.9 3.8c0 0 1.1-5.8-2.9-10.8 0 0-3.3 9.3-3.5 11.9 0 0-4.9-11.9-9.9-15.1 0 0-.5 2.3-.8 5.5-.3 3-.4 6.8.2 10.4l.6.7z"/><path d="M1083.6 301.8s.9 4.6 2.7 6.2l-6.4 8.6s15.8 5.3 47.2-.2l-6.2-3.7s13.3-6.4 13-18.4c0 0-8.4-.7-13 3.1 0 0 3.1-9.7-1.1-13.9 0 0-3.8 2.9-6.6 9.5 0 0-.5-5.8-3.5-7.8 0 0-2.6 4.6-.4 10.2 2.2 5.7.5 0 .5 0s-6.9 2-9.9 3.8c0 0 1.1-5.8-2.9-10.8 0 0-3.3 9.3-3.5 11.9 0 0-4.9-11.9-9.9-15.1 0 0-.5 2.3-.8 5.5-.3 3-.4 6.8.2 10.4l.6.7z" opacity=".6" fill="#0a223e"/></svg>