<svg version="1.1" id="Vordergrund_Säulen" xmlns="http://www.w3.org/2000/svg" xmlns:xlink="http://www.w3.org/1999/xlink" x="0" y="0" viewBox="0 0 1920 1600" xml:space="preserve"><style>.st1{fill:#0a4c6f}.st2{fill:#0a223e}.st3{fill:#0a2e4b}.st4{fill:#0a3d5d}.st5{fill:#0982b2}.st6{fill:#27b9ed}.st7{fill:#0a668e}.st9{fill:#0b99cc}</style><defs><path id="SVGID_1_" d="M0 0h1920v1600H0z"/></defs><clipPath id="SVGID_2_"><use xlink:href="#SVGID_1_" overflow="visible"/></clipPath><g clip-path="url(#SVGID_2_)"><path class="st1" d="M377.1 937.3s13.1-13.2 18.9-14c5.8-.8 16.2 4.1-.7 13.2-13.4 7.3-18.2.8-18.2.8zm-8.6 11.6s-22.9-10.2-25.7-19.1c0 0-.6-6.9-3.2-8.6 0 0 12.6-3.1 22.6 11.2 0-.1 6.4 8.9 6.3 16.5zm5.5-15.2s1.4-7.6 1.5-15.5c.2-8-18.7-21.7-7.5 7.1 2 4.9 6 8.4 6 8.4z"/><path class="st1" d="M357.1 1044.9s.7-95.9 30-129.4c0 0-25.7 37.8-22.4 108.7 0 0 17.3-64.7 45.6-85.3 0 0-35.4 29.5-37.4 114.1 0 0 1.1 3.2 6.9 2.6 5.8-.6 17.6.5 6.4 2-11.2 1.5-26.9 1.2-38.8 2.1-11.9.9-32.6-.3-5.1-5 27.6-4.7 21.6-7.1 9.7-5.6-12.6 1.6-8.9-3.4 5.1-4.2z"/><path class="st1" d="M466.9 1013.7s-51.6 24.3-69.3 87.5c0 0-14.1 46.3-28.7 57.9-14.6 11.5-112.8 23.2-16.6-111.3 0 0 40.8-57.9 66.9-45.8 0 0 8.6.3 13.7 5.2-.1 0 8.5-7.3 34 6.5z"/><path class="st2" d="M466.9 1013.7s-15.7 7.4-32.8 24.6c0 0 6.9 10.4 3 29.4.1.1 36.4-50.1 29.8-54zm-392-6.9c0 26.6 66.2 47.9 148.8 46.7 79.5-1.1 145.1-17.8 148.4-44.7l.4 11.9v9.5c0 26.6-66.2 47.5-148.8 47.5s-149.6-21.6-149.6-48.2l.8-22.7zm253.2-549.3c-14.9 14-56 24-104.4 24-49.6 0-91.5-10.5-105.4-25-1.7 1.1-3.6 3.1-4.9 6.5v118.3c4.7 18.4 52.2 32.8 110.3 32.8 61 0 110.4-15.9 110.4-35.6V465.9s-2.6-6.6-6-8.4z"/><path class="st3" d="M223.7 1055c65.6 0 121.3-15.1 141.5-34 2.9-2.7 5.1-5.5 6.4-8.5 1.1-2.4.5-5.3-1.7-7l-10.1-8.1-25.7-21.7c0 19.7-49.4 35.6-110.4 35.6-58.1 0-105.7-14.5-110.1-32.8h-.4L77.6 1003c-2.4 1.6-3.6 6-2.7 8.7 7.5 24.3 71.2 43.3 148.8 43.3z"/><path class="st3" d="M362.2 1106.9c-.3-.1-.5-.2-.8-.3-8.6-3.5-18.7-11.3-18.7-28.9 0-12 6.5-20.2 12.3-25.2-25.3 15-74.7 24.5-131.4 24.5-55.7 0-104.2-9.8-130-24.3 5.2 4.7 10.8 13.5 9.4 26.2-1.9 17.2-12.9 23.5-20.8 25.8-2.2 1.3-5.1 3.7-6.9 7.5v.1c9.6 23.5 72.3 41.9 148.3 42.7 94.7.9 135.1-31.1 146.2-42-2.6-3.7-6.1-5.5-7.6-6.1z"/><path class="st2" d="M370.4 1113c-11.1 10.8-51.5 42.2-146.2 41.3-76.1-.7-138.9-18.4-148.3-42-.5 1-.9 2.2-1.2 3.4v229.7c0 26.6 67 48.2 149.6 48.2s149.6-21.6 149.6-48.2V1123c-.3-4.4-1.8-7.6-3.5-10zm-41.8-258.2c-14.9 14-56 24-104.4 24-49.6 0-91.5-10.5-105.4-25-1.7 1.1-3.6 3.1-4.9 6.5v118.3c4.7 18.4 52.2 33.5 110.3 33.5 61 0 110.4-16.7 110.4-36.3V863.2s-2.6-6.6-6-8.4zm0-529.6c-14.9 14-56 24-104.4 24-49.6 0-91.5-10.5-105.4-25-1.7 1.1-3.6 3.1-4.9 6.5V449c4.7 18.4 52.2 32.8 110.3 32.8 61 0 110.4-15.9 110.4-35.6V333.5s-2.6-6.5-6-8.3z"/><path class="st2" d="M328.6 192.6c-14.9 14-56 24-104.4 24-49.6 0-91.5-10.5-105.4-25-1.7 1.1-3.6 3.1-4.9 6.5v118.3c4.7 18.4 52.2 32.8 110.3 32.8 61 0 110.4-15.9 110.4-35.6V201s-2.6-6.6-6-8.4z"/><path class="st2" d="M328.6 60.3c-14.9 14-56 24-104.4 24-49.6 0-91.5-10.5-105.4-25-1.7 1.1-3.6 3.1-4.9 6.5V184c4.7 18.4 52.2 32.8 110.3 32.8 61 0 110.4-15.9 110.4-35.6V68.6s-2.6-6.5-6-8.3z"/><path class="st3" d="M224.2 893.2c58.3 0 105.9-12.6 110.1-30.8-.8-1.8-3-6.2-5.7-7.6-14.9 14-56 24-104.4 24-49.6 0-91.5-10.5-105.4-25-1.7 1.1-3.6 3.1-4.9 6.5v2.3c4.6 18.4 52.2 30.6 110.3 30.6zm0-397.3c58.3 0 105.9-12.6 110.1-30.8-.8-1.8-3-6.2-5.7-7.6-14.9 14-56 24-104.4 24-49.6 0-91.5-10.5-105.4-25-1.7 1.1-3.6 3.1-4.9 6.5v2.3c4.6 18.3 52.2 30.6 110.3 30.6zm0-132.3c58.3 0 105.9-12.6 110.1-30.8-.8-1.8-3-6.2-5.7-7.6-14.9 14-56 24-104.4 24-49.6 0-91.5-10.5-105.4-25-1.7 1.1-3.6 3.1-4.9 6.5v2.3c4.6 18.3 52.2 30.6 110.3 30.6z"/><path class="st4" d="M328.4 457.6c3.8-3.6 5.8-7.4 5.8-11.4v-23.3c-37.5 14.7-63.2 35.4-80.7 57.4 23.4-2.1 43.7-6.6 58.1-12.6 9.9-5.7 16.8-10.1 16.8-10.1zm-35.9 148.8c-1.9-103 16.5-121.1 21.7-124.1-16.6 7-42 11.7-71.5 13.1-29.9 47.7-26.4 95.7-26.4 95.7V614H215c3 .1 6.1.1 9.2.1 25.8 0 49.5-2.9 68.3-7.7zm1.8 396.9V887.1l-.4-.9c-19 4.5-43.2 7.1-69.7 7.1-2.6 0-5.3 0-7.9-.1v118.1c2.6.1 5.2.1 7.9.1 26.6 0 51-3 70.1-8.1zm51.3 127s-.1 0 0 0c-20.7 10.9-54.4 22.3-105.9 23.7.6.1.9.2.9.2l-29.5 7.6-3.9 231.7 41.9-.7c39.7-2.2 74-9.4 96.5-19.5v-243z"/><path class="st5" d="M293.9 886.1l.4.9v116.2c24.4-6.5 40-16.2 40.3-27.2l-.4-.3V863.2s0-.1-.1-.2c-2.7 9.7-17.8 17.8-40.2 23.1z"/><path class="st4" d="M370.1 1113.2c-4.1 4-11.9 10.5-24.6 17.1v242.9c.2-.1.3-.1.5-.2 1-.5 2-.9 3-1.4l1.2-.6c.7-.4 1.4-.7 2-1.1.4-.2.8-.5 1.3-.7.6-.3 1.2-.7 1.8-1 .4-.2.8-.5 1.2-.7.5-.3 1.1-.7 1.6-1 .4-.3.8-.5 1.1-.8.5-.4 1-.7 1.5-1.1.3-.2.7-.5 1-.7l1.5-1.2c.3-.2.5-.4.8-.6.7-.6 1.4-1.2 2-1.9l.2-.2c.6-.6 1.1-1.2 1.6-1.8.2-.2.4-.4.5-.7.4-.4.7-.9 1-1.3.2-.3.4-.5.5-.8.3-.4.5-.8.8-1.2.2-.3.3-.5.5-.8l.6-1.2c.1-.3.2-.6.4-.8.2-.4.3-.8.4-1.3.1-.3.2-.5.2-.8.1-.5.2-.9.3-1.4 0-.2.1-.5.1-.7.1-.7.1-1.4.1-2.1v-222.4c0-3.9-1.4-7.1-3.1-9.5z"/><path class="st5" d="M314.2 482.3c-5.2 3-23.6 21.1-21.7 124.1 16.3-4.2 28.9-9.8 35.9-16.2-.1 0-.1-.1-.2-.1l-.1.1c4-3.7 6.1-7.6 6.1-11.7V465.9s0-.1-.1-.2c-1.7 6.3-8.8 12-19.9 16.6z"/><path class="st4" d="M326.8 1042.2c-.6-.3-1.2-.6-1.7-.8-9.3 2.6-19.8 4.8-31.1 6.6-19.5 3.3-41.5 5.3-64.9 5.5.8.5 1.3.7 1.3.7l-.7 23.4h.2c37.5-.5 71.4-5.4 96.9-13.1v-22.3z"/><path class="st5" d="M325.1 1041.4c.6.3 1.2.6 1.7.8v22.3c11-3.4 20.4-7.2 27.9-11.5 11.4-6.7 17.9-16.4 17.9-22.8v-9.5l-.3-8.9c-.1.2-.1.5-.3.7-.4.9-.9 1.8-1.5 2.6-5.6 10.9-22 19.8-45.4 26.3z"/><path class="st1" d="M229.1 1053.5c23.4-.5 45.5-2.4 65-5.5 11-1.9 21.3-4.2 30.5-6.9-23.9-12.2-30.2-37.3-30.2-37.3v-.4c-19.1 5.1-43.5 8.1-70.1 8.1-2.6 0-5.3 0-7.9-.1-.2 30.7 9.1 39.7 12.7 42.1z"/><path class="st6" d="M294.3 1003.3v.4s6.3 25.2 30.2 37.3c18.5-5.4 32.9-12.3 41.2-20.1 2-1.9 3.7-3.8 4.9-5.8.8-1.5 1.3-3 1.7-4.5l-.1-1.8c0 .2-.1.3-.1.5-.2-1.4-.9-2.8-2.1-3.7l-10.1-8.1-25.3-21.4c-.3 11-15.9 20.7-40.3 27.2z"/><path class="st1" d="M315.3 1068.4l6.9-2.4c-24.8 6.9-56.9 11.1-92.3 11.5h-.2v.8l-14.5-.7c-19.8 63.6 18.2 74.9 24.4 76.4 51.6-1.5 85.2-12.8 105.9-23.7-32.9-14.3-30.2-61.9-30.2-61.9z"/><path class="st7" d="M370 1113c-2.7-3.6-6.1-5.5-7.6-6.1-.3-.1-.5-.2-.8-.3-8.6-3.5-18.7-11.3-18.7-28.9 0-.7 0-1.4.1-2.1 0-.2 0-.4.1-.7 0-.4.1-.9.1-1.3 0-.3.1-.5.1-.8.1-.4.1-.8.2-1.1.1-.3.1-.5.2-.8.1-.3.1-.7.2-1 .1-.3.2-.6.2-.8l.3-.9c.1-.3.2-.6.3-.8.1-.3.2-.6.3-.8.1-.3.2-.6.4-.8.1-.3.2-.5.3-.8.1-.3.3-.6.4-.8.1-.2.2-.5.3-.7.2-.3.3-.6.5-.8.1-.2.2-.4.4-.6.2-.3.4-.6.5-.9.1-.2.2-.4.3-.5l.6-.9c.1-.1.2-.3.3-.4.2-.3.4-.6.7-.9.1-.1.2-.2.3-.4.2-.3.5-.6.7-.9.1-.1.2-.2.2-.3.3-.3.5-.6.8-.9l.2-.2.9-.9.1-.1c.3-.3.6-.6 1-.9-8.3 4.7-19 8.9-31.7 12.4l-6.9 2.4s-2.8 47.5 30.2 61.9c12.7-6.7 20.5-13.2 24.6-17.1 0-.4-.1-.5-.1-.5z"/><path class="st1" d="M293.9 886.1l-6.2-13.4 4.9-1.5c-18.8 4.8-42.5 7.6-68.3 7.6-2.6 0-5.3 0-7.9-.1h-.1c-3-.1-6-.2-8.9-.3l9 14.5v.3c2.6.1 5.2.1 7.9.1 26.3-.1 50.5-2.7 69.6-7.2z"/><path class="st6" d="M334.1 862.9c0-.1-.1-.2-.1-.3v-.1c-.1-.1-.1-.3-.2-.4v-.1c-.1-.1-.1-.3-.2-.4 0-.1-.1-.1-.1-.2l-.3-.6c0-.1-.1-.1-.1-.2-.2-.3-.3-.6-.5-1l-.1-.1c-.2-.3-.3-.6-.5-.9-.1-.1-.1-.2-.2-.2-.2-.3-.4-.6-.7-.9l-.2-.2c-.2-.3-.4-.5-.7-.8 0-.1-.1-.1-.1-.2l-.8-.8-.2-.2c-.2-.2-.5-.3-.7-.5-7 6.5-19.6 12.1-35.9 16.2l-4.9 1.5 6.2 13.4c22.5-5.1 37.6-13.2 40.3-23z"/><path class="st1" d="M315.6 481.7l-7.3-12.2c1.2-.7 2.3-1.3 3.4-1.9-14.4 6-34.7 10.5-58.1 12.6h-.1c-5 .4-10.1.8-15.3 1l4.7 14.3c29.4-1.4 54.9-6.1 71.5-13.1.7-.6 1.2-.7 1.2-.7z"/><path class="st6" d="M334.1 465.6c0-.1-.1-.2-.1-.3v-.1c-.1-.1-.1-.3-.2-.4v-.1c-.1-.1-.1-.3-.2-.4 0-.1-.1-.1-.1-.2l-.3-.6c0-.1-.1-.1-.1-.2-.2-.3-.3-.6-.5-1l-.1-.1c-.2-.3-.3-.6-.5-.9-.1-.1-.1-.2-.2-.2-.2-.3-.4-.6-.7-.9l-.2-.2c-.2-.3-.4-.5-.7-.8 0-.1-.1-.1-.1-.2l-.8-.8-.2-.2c-.2-.2-.4-.3-.7-.5-3.9 3.6-9.7 7-16.8 10-1.1.6-2.2 1.3-3.4 1.9l7.3 12.2s-.5.1-1.4.6c11.2-4.5 18.3-10.2 20-16.6zm-50.6 585c15.1-4.1 30.3-7.8 44.5-13.9 7.1-3 13.8-6.6 19.9-11.1 6.1-4.4 11.5-9.6 16-15.4 1.6-2 4.5-2.4 6.5-.8 2 1.6 2.4 4.5.8 6.5l-.3.3c-5.7 6-12.2 11.1-19.2 15.2s-14.5 7.2-22 9.6c-15.2 4.9-30.8 7-46.2 9.6zm-16.9-41.1c12.6-2.8 25-6.5 36.6-11.7 11.6-5.2 22.5-11.9 31.1-20.5l6.1 6.9c-5.4 4.2-11.2 7.7-17.2 10.7-6 2.9-12.2 5.3-18.4 7.3-12.5 3.8-25.3 6.1-38.2 7.3zm4.1-118.8c10.6-2.8 21-6.5 30.9-10.9 4.9-2.2 9.8-4.7 14.3-7.4s8.9-5.8 12.5-9.3c1.8-1.8 4.8-1.7 6.6.1s1.7 4.8-.1 6.6c-.2.1-.3.3-.5.4-4.9 3.5-10 6.1-15.2 8.4-5.2 2.2-10.5 4-15.9 5.6-10.9 3-21.7 5.2-32.6 6.5z"/><path class="st2" d="M244.6 347.8c-11.5 2.7-23.3 4.4-35.2 5.5-11.9 1.1-23.9 1.4-36 .7-6-.4-12.1-.9-18.1-1.8-6-.9-12.1-2.2-18.1-3.7-6-1.6-11.9-3.7-17.8-6.1-5.8-2.5-11.5-5.5-17-9l11-14.8c4.1 3.4 8.5 6.6 13.2 9.4 4.8 2.8 9.8 5.2 14.9 7.4 5.2 2.1 10.6 4 16.1 5.6 5.5 1.5 11.1 2.8 16.8 3.9 11.4 2.1 23 3.4 34.8 3.8 11.8.4 23.6.2 35.4-.9zm0 132.2c-11.5 2.7-23.3 4.4-35.2 5.5-11.9 1.1-23.9 1.4-36 .7-6-.4-12.1-.9-18.1-1.8-6-.9-12.1-2.2-18.1-3.7-6-1.6-11.9-3.7-17.8-6.1-5.8-2.5-11.5-5.5-17-9l11-14.9c4.1 3.4 8.5 6.6 13.2 9.4 4.8 2.8 9.8 5.2 14.9 7.4 5.2 2.1 10.6 4 16.1 5.6 5.5 1.5 11.1 2.8 16.8 3.9 11.4 2.1 23 3.4 34.8 3.8 11.8.5 23.6.3 35.4-.8zm83.5 110.1c-14.9 14-56 24-104.4 24-49.6 0-91.5-10.5-105.4-25-1.7 1.1-3.6 3.1-4.9 6.5v118.3c4.7 18.4 52.2 32.8 110.3 32.8 61 0 110.4-15.9 110.4-35.6V598.4s-2.6-6.5-6-8.3z"/><path class="st3" d="M224.2 628.5c58.3 0 105.9-12.6 110.1-30.8-.8-1.8-3-6.2-5.7-7.6-14.9 14-56 24-104.4 24-49.6 0-91.5-10.5-105.4-25-1.7 1.1-3.6 3.1-4.9 6.5v2.3c4.6 18.3 52.2 30.6 110.3 30.6z"/><path class="st4" d="M292.5 739l1.4-117.3-.2-.3c-19 4.5-43.2 7.1-69.6 7.1-2.7 0-5.3 0-7.9-.1v118.1c2.6.1 5.2.1 7.9.1 25.9 0 49.6-2.8 68.4-7.6z"/><path class="st5" d="M293.7 621.4l.2.3-1.4 117.3c16.3-4.2 28.9-9.8 35.9-16.2-.1 0-.1-.1-.2-.1 3.9-3.6 6-7.5 6-11.6V598.4s0-.1-.1-.2c-2.7 9.7-17.8 17.8-40.4 23.2z"/><path class="st1" d="M293.7 621.4l-6.9-13.4 5.6-1.6c-18.8 4.8-42.5 7.6-68.3 7.6-3.1 0-6.2 0-9.2-.1l-7-.1 8.4 14.6c2.6.1 5.2.1 7.9.1 26.4 0 50.6-2.6 69.5-7.1z"/><path class="st6" d="M334.1 598.2c0-.1-.1-.2-.1-.3v-.1c-.1-.1-.1-.3-.2-.4v-.1c-.1-.1-.1-.3-.2-.4 0-.1-.1-.1-.1-.2l-.3-.6c0-.1-.1-.1-.1-.2-.2-.3-.3-.6-.5-1l-.1-.1c-.2-.3-.3-.6-.5-.9-.1-.1-.1-.2-.2-.2-.2-.3-.4-.6-.7-.9l-.2-.2c-.2-.3-.4-.5-.7-.8 0-.1-.1-.1-.1-.2l-.8-.8-.2-.2c-.2-.2-.5-.3-.7-.5-7 6.5-19.6 12.1-35.9 16.2l-5.6 1.6 6.9 13.4c22.5-5.3 37.6-13.4 40.3-23.1z"/><path class="st6" d="M279 624.1c18.6-5.1 35.6-14.3 50.1-26.2 1.6-1.3 3.9-1.1 5.2.5 1.3 1.6 1.1 3.9-.5 5.2-.1.1-.2.2-.4.3-16.7 10.4-35.3 17.5-54.4 20.2z"/><path class="st2" d="M244.6 613.2c-11.6 2.5-23.4 4-35.3 4.9-11.9.9-23.9 1-36 .3-6-.4-12.1-1.1-18.1-2-6-1-12.1-2.3-18.1-3.9-6-1.7-11.9-3.7-17.7-6.2-5.8-2.6-11.5-5.6-16.9-9.1l11-14.9c4.1 3.4 8.5 6.6 13.2 9.5 4.8 2.8 9.8 5.3 14.9 7.5 5.2 2.2 10.6 4.1 16.1 5.7 5.5 1.6 11.1 3 16.8 4.1 11.4 2.2 23 3.7 34.7 4.3 11.7.7 23.6.7 35.4-.2zM328.1 722c-14.9 14-56 24-104.4 24-49.6 0-91.5-10.5-105.4-25-1.7 1.1-3.6 3.1-4.9 6.5v118.3c4.7 18.4 52.2 32.8 110.3 32.8 61 0 110.4-15.9 110.4-35.6V730.4s-2.6-6.6-6-8.4z"/><path class="st3" d="M224.2 760.4c58.3 0 105.9-12.6 110.1-30.8-.8-1.8-3-6.2-5.7-7.6-14.9 14-56 24-104.4 24-49.6 0-91.5-10.5-105.4-25-1.7 1.1-3.6 3.1-4.9 6.5v2.3c4.6 18.4 52.2 30.6 110.3 30.6z"/><path class="st4" d="M292.5 870.9l1.4-117.3-.2-.3c-19 4.5-43.2 7.1-69.6 7.1-2.7 0-5.3 0-7.9-.1v118.1c2.6.1 5.2.1 7.9.1 25.9.1 49.6-2.8 68.4-7.6z"/><path class="st5" d="M293.7 753.3l.2.3-1.4 117.3c16.3-4.2 28.9-9.8 35.9-16.2-.1 0-.1-.1-.2-.1 3.9-3.6 6-7.5 6-11.6V730.4s0-.1-.1-.2c-2.7 9.7-17.8 17.8-40.4 23.1z"/><path class="st1" d="M293.7 753.3l-6.9-13.4 5.6-1.6c-18.8 4.8-42.5 7.6-68.3 7.6-3.1 0-6.2 0-9.2-.1l-7-.1 8.4 14.6c2.6.1 5.2.1 7.9.1 26.4 0 50.6-2.6 69.5-7.1z"/><path class="st6" d="M334.1 730.1c0-.1-.1-.2-.1-.3v-.1c-.1-.1-.1-.3-.2-.4v-.1c-.1-.1-.1-.3-.2-.4 0-.1-.1-.1-.1-.2l-.3-.6c0-.1-.1-.1-.1-.2-.2-.3-.3-.6-.5-1l-.1-.1c-.2-.3-.3-.6-.5-.9-.1-.1-.1-.2-.2-.2-.2-.3-.4-.6-.7-.9l-.2-.2c-.2-.3-.4-.5-.7-.8 0-.1-.1-.1-.1-.2l-.8-.8-.2-.2c-.2-.2-.5-.3-.7-.5-7 6.5-19.6 12.1-35.9 16.2l-5.6 1.6 6.9 13.4c22.5-5.2 37.6-13.3 40.3-23.1z"/><path class="st6" d="M274.2 757.3c10.1-2.5 19.9-6.2 29.1-10.9 9.2-4.6 17.9-10.2 25.8-16.6 1.6-1.3 3.9-1 5.2.6s1 3.9-.6 5.2c-.1.1-.2.2-.3.2-9.1 5.7-18.7 10.4-28.7 14-9.9 3.6-20.1 6.2-30.5 7.5z"/><path class="st2" d="M244.6 745.1c-11.6 2.5-23.4 4-35.3 4.9-11.9.9-23.9 1-36 .3-6-.4-12.1-1.1-18.1-2-6-1-12.1-2.3-18.1-3.9-6-1.7-11.9-3.7-17.7-6.2-5.8-2.6-11.5-5.6-16.9-9.1l11-14.9c4.1 3.4 8.5 6.6 13.2 9.5 4.8 2.8 9.8 5.3 14.9 7.5 5.2 2.2 10.6 4.1 16.1 5.7 5.5 1.6 11.1 3 16.8 4.1 11.4 2.2 23 3.7 34.7 4.3 11.7.8 23.6.8 35.4-.2zm0 131.7c-11.6 2.6-23.4 4.3-35.2 5.3-11.9 1-23.9 1.3-36 .6-6-.4-12.1-1-18.1-1.9-6-.9-12.1-2.2-18.1-3.8-6-1.7-11.9-3.7-17.8-6.1-5.8-2.5-11.5-5.5-17-9.1l11-14.9c4.1 3.4 8.5 6.6 13.2 9.4 4.8 2.8 9.8 5.2 14.9 7.5 5.2 2.1 10.6 4 16.1 5.6 5.5 1.6 11.1 2.9 16.8 4 11.4 2.1 23 3.5 34.8 4 11.7.7 23.6.5 35.4-.6zm0 199.6c-14.3 2.6-28.7 4.2-43.2 5.2-14.5 1-29.2 1.3-43.9.6-14.7-.7-29.4-2.3-44.1-5.3-7.3-1.6-14.7-3.5-21.9-5.9-7.2-2.5-14.4-5.5-21.4-9.1l10.6-17.7c5.5 3.7 11.4 7.1 17.5 10 6.2 3 12.6 5.5 19.2 7.8 13.2 4.5 27.1 7.7 41.1 10 14.1 2.3 28.4 3.7 42.8 4.5 14.3.6 28.8.7 43.3-.1zm88.1-865.9c.7 0 1.3-.1 1.9-.1V201s-2.6-6.6-6-8.4c-14.9 14-56 24-104.4 24-49.6 0-91.5-10.5-105.4-25-1.7 1.1-3.6 3.1-4.9 6.5v118.3c1.8 7.2 10.3 13.8 23.5 19.2.7-.1 1.3-.2 2-.3 0 0-12-38.1 22.8-69.9 34.6-31.6 85.5-49.1 170.5-54.9zm65.4 1037s7.4-14.8 18.7 13.5c0 0 6.1 7.5 16.7 10.9 3.3 1.1 6.6-1.8 5.9-5.3-1.8-8.7-3.2-24.6 4.9-39.9 0 .1 24.3-70.9-46.2 20.8z"/><path class="st1" d="M411.8 1204.6s2.4-13.7-28.9 3.1c-31.3 16.8-137.2 44-208.7 58.7-71.5 14.7-67.4 46.6-45.2 77l28.7 21.3s-18.5-31.8 113.6-60.2 116.8-61.6 171.9-97.4c0 0 6.7-7.5 2.4 13.9 0 0 18.7-39-24.9-19.6l-8.9 3.2z"/><path class="st7" d="M1563.2 668.4c4.3 1.5 8.2 1.1 11.5-1.1 2-1.3 3.3-3 3.7-3.6-6.9-1.6-12.7 1.8-15.2 4.7z"/><path class="st3" d="M136.5 855.1c15.8 2 50-.8 113-17.8 8.8-2.5 17.5-5.4 26-8.8 8.5-3.4 16.9-7 24.9-11.2 4.1-2 8-4.3 12-6.5 2-1.1 3.9-2.3 5.9-3.5l5.8-3.6-5.9 3.3c-2 1.1-3.9 2.3-6 3.2-4.1 2-8.1 4.2-12.2 6-8.2 3.9-16.7 7.2-25.2 10.2-8.5 3-17.3 5.6-26.1 7.7-67.8 13.2-91 14.7-112.9 11.6-3.1-.4-5.3 3.2-4.2 6.1.7 2.2 2.8 3 4.9 3.3z"/><path class="st6" d="M319.8 806.1s.6-11.4 5.4-19.8c2.2-3.9-1.3-5-1.4-5.6 0 0 8.9-1.7 8.6 5.8.1-.1-.5 18.1-12.6 19.6z"/><path class="st7" d="M291.4 820.8s-.4-13.3-9.7-20.5c-9.4-7.2-13.2 7.7-7 13.3 4.9 4.5 16.7 7.2 16.7 7.2zm-3 2.6s5.2 12.3-.4 22.6c-5.6 10.3-15.2-1.8-11.9-9.4 2.7-6.1 12.3-13.2 12.3-13.2z"/><path class="st9" d="M297.5 818.7s21.5 2.4 26.4 7 7.9 17.3-12.5 8.7c-16.3-6.9-13.9-15.7-13.9-15.7zm4-3.4s-4.1-26.3 2.4-33.9c0 0 6-4.5 6-7.7 0 0 10.2 9.4 3 26.5 0 0-4.4 10.8-11.4 15.1z"/><path class="st6" d="M323.1 806.2s7.2-1.4 14.6-1.7c7.6-.3 20.8 16.9-6.5 7-4.7-1.6-8.1-5.3-8.1-5.3z"/><path class="st2" d="M312.3 979.9c-21.2 0-43.7-7.2-67.3-14.7-20.4-6.5-41.5-13.3-62.7-15.6-50.6-5.5-65.4 21.4-65.6 21.7-7.4-3.7-8.7-13.5-2.5-18.8 11.3-9.7 32.7-21 69.7-17 22.7 2.5 44.5 9.5 65.6 16.2 27.6 8.8 53.6 17.1 75.5 12.9 6-1.2 8-2.2 10.6-5.5.3-.4.3-.8.2-1-.2-.3-.8-.4-1.4-.4v-14.2c6.4 0 11.8 3.1 14.5 8.3 2.6 5.2 2 11.3-1.6 15.9-5.4 7-11.2 9.3-19.3 10.9-5.3.8-10.4 1.3-15.7 1.3z"/><path class="st2" d="M312.3 979.9c-21.2 0-43.7-7.2-67.3-14.7-20.4-6.5-41.5-13.3-62.7-15.6-50.6-5.5-65.4 21.4-65.6 21.7-7.4-3.7-8.7-13.5-2.5-18.8 11.3-9.7 32.7-21 69.7-17 22.7 2.5 44.5 9.5 65.6 16.2 27.6 8.8 53.6 17.1 75.5 12.9 6-1.2 8-2.2 10.6-5.5.3-.4.3-.8.2-1-.2-.3-.8-.4-1.4-.4v-14.2c6.4 0 11.8 3.1 14.5 8.3 2.6 5.2 2 11.3-1.6 15.9-5.4 7-11.2 9.3-19.3 10.9-5.3.8-10.4 1.3-15.7 1.3z"/><path class="st2" d="M319.9 979.6s-8.2 8.6-75.3-8.3c-33.6-8.5-48.3-14.8-68.3-12.6-23.1 2.5-32.1-2.8-62.6 19.9-40.8 30.4 2.2-19.1 2.2-19.1l42.8-13.4 40.4-3.3 99 30.3 21.8 6.5z"/><path class="st2" d="M308.1 979.8h1.4v-.5c-.5.2-.9.3-1.4.5z"/><path class="st3" d="M309.5 979.3c.4-.1.9-.3 1.3-.5 13.8-4.9 2.3-13.2 2.3-13.2-19.2.2-40.9-6.7-63.6-14-9.9-3.2-19.9-6.3-30.1-9.1 0 .1 4.1 7.7-.9 14.5 8.9 2.5 17.8 5.3 26.5 8.1 21.7 6.9 42.5 13.6 62.2 14.6 1.2-.5 2.3-.9 2.3-.9v.5z"/><path class="st2" d="M309.5 978.8s-1.1.4-2.3.9c.3 0 .6 0 .9.1.4-.1.9-.3 1.4-.5v-.5z"/><path class="st1" d="M327.8 978.4c8.1-1.6 13.9-3.9 19.3-10.9 3.6-4.7 4.3-10.8 1.6-15.9-2.7-5.2-8.1-8.3-14.5-8.3v14.2c.6 0 1.3.1 1.4.4.1.2.1.6-.2 1-2.5 3.3-4.5 4.3-10.6 5.5-3.8.7-20.9.1-24.9.2 0 0 2.5.5 2.5 8.1 0 3.3-4 5.9-4.4 6l11.4 1c.9 0 1.8.1 2.8.1 5.4.1 10.5-.4 15.6-1.4z"/><path class="st2" d="M219.4 942.5c-11.6-3.2-23.4-5.8-35.5-7.1-37-4.1-58.4 7.2-69.7 17-6.2 5.4-4.9 15.1 2.5 18.8.1-.3 14.9-27.2 65.6-21.7 12.1 1.3 24.3 4.1 36.2 7.5 5-6.8 1-14.4.9-14.5z"/><path class="st5" d="M327.8 978.3c2.2-1 4.4-1.9 6.5-3 1-.5 2-1.1 2.9-1.7.9-.6 1.8-1.2 2.6-1.9 1.6-1.4 3.2-2.9 4.5-4.7.7-.9 1.3-1.7 1.7-2.5.5-.9.8-1.8 1.1-2.7.6-1.8.7-3.8.4-5.7-.2-1.9-1.1-3.8-2.1-5.5-2.2-3.3-6.4-5.5-11.1-6.5v-.3c2.4 0 4.8.3 7.1 1.2 2.3.8 4.3 2.2 5.9 4.1 3.1 3.7 4.2 9 2.8 13.7-.4 1.2-.8 2.3-1.4 3.3-.6 1-1.4 2-2.1 2.9-1.5 1.8-3.3 3.5-5.3 4.8-2 1.4-4.2 2.4-6.4 3.2-2.3.8-4.6 1.3-6.9 1.8l-.2-.5z"/><path class="st4" d="M227.2 945.1c-.5-.9-2 .1-1.3.9 2.2 2.8 1.7 6.1.2 9-.1.2.2.4.4.2 2.9-2.6 2.5-7 .7-10.1zm8.1.6c-.7-1.4-2.8-.3-1.9 1 2.2 3.1 2 6.7.5 10-.2.4.4.9.7.5 2.7-3.4 2.6-7.9.7-11.5zM246 948c-.2-1-1.7-.6-1.4.3 1.5 4.4.5 8.5-1.9 12.3 0 .1.1.1.1.1 3.3-3.3 4.2-8.3 3.2-12.7zm7.5 3.3c-.3-1.3-2.6-.6-2.1.7 1.3 3.7.4 7-1.8 10.1-.2.2.1.6.4.4 3.4-2.5 4.5-7.2 3.5-11.2zm10.1 2.8c-.2-1.5-2.5-1-2.1.5 1.2 4.3-.1 8.2-2.6 11.7-.2.3.1.8.5.5 3.7-3.1 4.9-8.2 4.2-12.7zm11.8-3.6c-.1-1.5-2.6-1.3-2.4.2.7 6.7-1.5 11.6-4.2 17.6-.1.3.2.5.5.3 4.9-4.3 6.4-11.8 6.1-18.1zm6.6 4.6c-.1 2.6-.5 5.1-1.4 7.5-.9 2.2-2.4 4-3.3 6.2-.2.4.3.9.8.6 4.1-2.8 5.9-9.3 6.2-13.9.1-1.5-2.2-1.9-2.3-.4zm6.3 5.8c0 3.6-.9 6.7-2.2 10.1-.1.2.1.3.3.2 2.3-2.9 3.5-6.6 3.9-10.2.2-1.4-2-1.5-2-.1zm6.4 4.6c.3 2.5.3 5-.1 7.5-.1.4.5.4.6.1.7-2.5 1.1-5.1 1.1-7.7 0-1-1.7-.9-1.6.1z"/><path class="st2" d="M110.3 845.4s13.9 8.4 61.7 5.9c44.2-2.4-10.4 13.3-10.4 13.3l-45.8-1.6c0-.1-33.3-11.1-5.5-17.6z"/><path class="st7" d="M155.2 1343.3c-8.6 15.9 3.8 50.3 19.5 60.5l-.6-31.1c12.4-11.5 48.8-29.6 50.5-45.5 4.7 11 7.3 28.4 3.6 39.5 6.8-12.9 18.1-24.7 25.8-37.8 5.7-9.7 11.1-18.4 18.1-27 18.4-22.7 25.9-43.4 27.8-72.8 1.7 15.5 7.9 33.6 3.7 49.4 5.7-8.6 19.7-14.7 27.9-20.9 12.3-9.4 26.2-21.3 35.9-33.3 5.3-6.5 5.1-9.3 4.8-17.4-.3-7.2-4-17.5-1.1-24.1 1.6 4.5 5.5 7.3 7.9 11.3 3.5 5.7 2.1 12.9 9.3 7.7 5.8-4.2 9.9-11.7 14.9-16.8 5.5-5.6 11.6-10.5 17.1-16 11.4-11.5 22.4-30.4 27.8-45.4-6.2 5.2-15.3 5.2-20.2 8.6 6.3-8 17.3-11.4 22.8-20.4 5.5-9 5.9-20.1 8.3-30.4 1.3-5.8.9-11.5 1.9-17.3-17 16.8-38.2 27.5-62.3 30.2-3.2.4-11 .7-12.6 1.5-3.6 5.6-5.5 13.1-9.9 18.9-5.8 7.7-13.9 14.8-20.7 21.6 3.9-5.1 6.1-12.6 8.2-18.7 1.9-5.8 1.8-12.5 3-15.5-4.1 1-14.3 1.8-20.6 3.8-9.8 3.1-20.5 4.8-30.2 8.2-.3.8-2.5 5.8-3.3 8-1.3 3.4-2.5 7.2-3.9 10.8-4.1 10.5-12.8 22.9-21.4 30.4 1.8-5.4 2.6-9.8 4.1-15.5 1.6-5.9 5.2-18.8 4.8-23.9-.1-.9-.3-2.2-.7-3.5-8 2.8-16.8 10.1-24.5 14.6-9.9 5.8-21.1 11.1-31.5 16-3.7 1.7-17.3 9.7-21.2 8.2.9 9.6.4 23 .8 34-2-9.5-6.1-19.7-6.8-29.5-3.8 7.4-12.2 12.8-18 18.8-6.8 7.1-13.1 14.4-18.3 22.4-3.6 5.6-7.6 11.6-9 18.2-1.3 6 .9 12.2 2.4 17.9-2.3-4.6-5.7-5.4-8.8-8.6 0 .6-.2 1.2-.5 1.9-7.2 19.4-12.2 37.7-13.2 59.6-.6 14.3 8.3 18.5 8.2 18.2 0 0-10.4 16.5-5.3 26.6 1.3 3.3 5.5 4.6 5.5 4.6z"/><path class="st4" d="M237.3 1224.8c31.6-25 64.3-39.1 99.6-59.1 71-43.3 116.1-95.7 119.5-99.7.1-.1.1-.2.2-.3-17 16.8-38.2 27.5-62.3 30.2-3.2.4-11 .7-12.6 1.5-3.6 5.6-5.5 13.1-9.9 18.9-5.8 7.7-13.9 14.8-20.7 21.6 3.9-5.1 6.1-12.6 8.2-18.7 1.9-5.8 1.8-12.5 3-15.5-4.1 1-14.3 1.8-20.6 3.8-9.8 3.1-20.5 4.8-30.2 8.2-.3.8-2.5 5.8-3.3 8-1.3 3.4-2.5 7.2-3.9 10.8-4.1 10.5-12.8 22.9-21.4 30.4 1.8-5.4 2.6-9.8 4.1-15.5 1.6-5.9 5.2-18.8 4.8-23.9-.1-.9-.3-2.2-.7-3.5-8 2.8-16.8 10.1-24.5 14.6-9.9 5.8-21.1 11.1-31.5 16-3.7 1.7-17.3 9.7-21.2 8.2.9 9.6.4 23 .8 34-2-9.5-6.1-19.7-6.8-29.5-3.8 7.4-12.2 12.8-18 18.8-6.8 7.1-13.1 14.4-18.3 22.4-3.6 5.6-7.6 11.6-9 18.2-1.3 6 .9 12.2 2.4 17.9-2.3-4.6-5.7-5.4-8.8-8.6 0 .6-.2 1.2-.5 1.9-7.2 19.4-12.2 37.7-13.2 59.6-.6 14.3 8.3 18.5 8.2 18.2-.2.1 22.1-37.9 86.6-88.9z"/><path class="st1" d="M184.2 1321c23-30.1 22.2-53.2 141.3-133.8 4.8-3.3 124.3-94.1 134.2-119.4-34 41.8-117.4 96-117.4 96H341c-35.3 19.9-66.8 34.1-98.3 59-64.5 51-86.7 88.9-86.7 88.9s-9.4 15-6 25.1c2.4 4.4 6.5 6.3 6.5 6.3s4.6 8 27.7-22.1z"/><path class="st3" d="M170.8 1310.2c24.4-29.1 24.5-52.2 147.1-127.5 5-3.1 128.4-88.6 139.4-113.5-35.9 40.2-123.9 93.5-123.9 93.5-43.1 20.7-121.2 57.9-155.5 82.6-66.7 48.1-35 54.5-35 54.5s-10 14.5-7.1 24.8c2.2 4.5 6.2 6.6 6.2 6.6s4.4 8.1 28.8-21z"/><path class="st7" d="M178.9 1322c23.1-29.8 16.6-57.7 137.3-138.6 4.9-3.3 131.1-88.6 140.7-113.4-34.2 41.3-117.6 94.6-117.6 94.6l-2.4 1.3c-35.8 20.1-67.9 34.5-99.8 59.5-65.2 50.9-87.4 88.4-87.4 88.4s-9.4 14.7-5.7 24.6c2.5 4.3 6.8 6 6.8 6s5 7.4 28.1-22.4z"/><path class="st4" d="M217.7 1275.3c-.1-2.1-.1-4.2.3-6.2-.1 0-.2 2.4-.3 6.2z"/><path class="st1" d="M486.8 1318.9s-13.5 1.3-42.5-29c-28.9-30.3-49.4-9.7-56.9 7.1-7.4 16.8-25.3 18-24.1.1 1.1-17.9 38.8-34.9 38.8-34.9s-20.8-15.4-51-17c0 0-19-1.6-15.9 33.8 3.2 35.4-44.8 24.4-21.6-10.2 0 0 13.7-19 23.7-27 0 0-29.6-8.1-42.2-1.6 0 0-14.6 6.9-17 46.7-2.4 39.7-32.2 14.7-24.2.3 0 0 3.4-31.2 23.7-48 0 0-29.3-17.4-61.2-3.3-31.9 14.1-15 23.3-13.3 44.3 1.7 21-25.9 47.2-25.9 10.5 0-36.6 15.5-40.9 15.5-40.9s-30.7 3.3-31.9 4.6c-55.4 58.6 16.8 75.7 16.8 75.7l-27.4 18.5c-16.7 13-48.7 62.3-26.7 71.9 34.7 15.1 60.3-5.3 60.3-5.3 3.9-9.7-8-52.5 29.4-59.4 30.3-5.5 3.6 13.7-6 38.3-3.8 9.7-5.6 16.5-6.4 21.2-.9 5.3 2.5 10.4 7.5 11.1 24.7 3.5 62.5-4.2 62.5-4.2-15.3-26.5-15.8-51.2.5-52.9 16.3-1.6 14.6 19.2 14.6 19.2s-12.2 22.5 3.3 32.3c15.5 9.8 61-2.6 61-2.6-29.8-11.1-32.6-35-32.6-35-.9-48.7 18.5-27 18.7-22.1.2 4.8 0 44 25.5 51.5 17.7 5.2 63.9-27 63.9-27s-9.1 4.5-34.2-10.5-5.4-40.1 5.7-20.6c11 19.5 40 27 49.7 5.7 9.4-21.4 39.9-41.3 39.9-41.3zm-133.3 72.9c-13.2-15.1-8-27.4-8-27.4 6.5-2.8 6.9 9.8 12.6 14.5 15.2 12.7 8.6 28-4.6 12.9zm54.9-90.8c-4.3 4.2-9.7 5.4-12.1 2.7-2.3-2.7-.7-8.4 3.7-12.6 4.3-4.2 9.7-5.4 12.1-2.7 2.2 2.7.6 8.4-3.7 12.6z"/><path class="st4" d="M393 1325.7s-235.6-40.6-309.1 43.7c0 0-22.7 20.4-18.9 32.1 4.3 13.4 3 5.3 22.1-14.2 46.9-47.9 93.9-75 305.9-61.6z"/><path class="st1" d="M218.5 1326l46.9-3.2 11 9.5z"/><path class="st3" d="M154.7 1319.6c4.7 3.3 9.7 5.8 13.9 7.4 46.1-9.7 113.8-11.1 224.4-1.3 0 0-136.9-26.5-238.3-6.1z"/><path class="st2" d="M372 1217.2s-60.2-22-171.9 14.2c0 0 5.6-14.4 17.7-23.3 0 0-47.9 3.7-81.2 36 0 0-6.2-22.1 6.8-36.1 0 0-64.3 22.5-80.8 78.5 0 0-9.4-23.2 10.3-54.9 0 0-173.6 119.5-96.9 365.2l35.7 73.4s16 14.2 9.1-6.6c-5.5-16.7-35.6-46.9-44-81.2 0 0 17.3 28.6 37.5 47.7 8.1 7.6 18.1 12.8 29.1 15.1 0 0 17-30.4 41.3-56 17-18 8.2-21.9 0-26.4s-27.4-15.9-42-53.8c0 0 36.6 50.5 67.6 45.5 0 0 17.7-40.4 49.8-74.4 0 0 10.8-9-12.9-26.4s-34.4-15.6-35.5-21.7c0 0 27.3 4.6 58.3 9.7l10.6 1.5s1.9-53.4 30.9-102.3l6.5-13.2s-40.5-17.6-59-15.6c0 0 29.6-8.3 56.1-2 7.2 1.7 14.8-.6 19.7-6.1 20.6-23.5 77.7-82.1 137.2-86.8z"/><path class="st2" d="M-15.7 1222.1h96.4v145.8h-96.4z"/><path class="st5" d="M450.3 1111.5c2.1-3.5 3.5-7.4 4.4-11.3 1-4 1.6-8 2.3-12 .3-2 .7-4 1.2-6s.8-4 1-6c.5-4 .8-8.1 1-12.2l.8.4c-5 4.9-10.3 9.4-16.1 13.3-5.8 3.9-12 7.2-18.4 9.8-6.5 2.6-13.2 4.7-20 5.9-1.7.3-3.4.6-5.2.8-1.7.2-3.5.5-5.2.6l-5.2.4c-.9.1-1.7.2-2.6.3-.8.1-1.7.2-2.5.5l-.2-.5c.8-.5 1.7-.7 2.6-1 .9-.3 1.7-.5 2.6-.7 1.7-.4 3.4-.8 5.1-1.1.9-.2 1.7-.3 2.5-.5l2.5-.6c1.7-.4 3.3-.9 4.9-1.3 3.3-.9 6.5-2 9.6-3.1 1.6-.6 3.1-1.2 4.7-1.9.8-.3 1.5-.7 2.3-1 .8-.3 1.5-.7 2.3-1 3-1.4 6-3 8.9-4.6 1.4-.8 2.9-1.7 4.3-2.6 1.4-.9 2.8-1.7 4.2-2.7 5.5-3.8 10.7-7.9 15.6-12.5l8.5-7.9-1.1 11.2c-.4 4.2-.8 8.3-1.6 12.5-.2 1-.4 2.1-.7 3.2-.2 1-.6 2.3-.8 3.1-.6 1.9-1 3.8-1.5 5.8-1.1 3.9-2 8-3.5 12-1.4 4-3.5 7.8-6.2 11l-.5-.3zm-91.3 7.7c.8-2.5 1.2-5.1 1.5-7.7l.5-3.9c.2-1.3.4-2.6.9-4l.5.6c-2.2.5-4.3.8-6.5 1.1-2.2.3-4.3.6-6.4 1-2.1.4-4.3.8-6.3 1.3l-6.3 1.8c-4.2 1.1-8.5 2.1-12.7 3.1-4.2 1-8.4 2.1-12.6 3.5l-.2-.5c3.7-2.8 7.8-4.7 11.9-6.4 4.1-1.7 8.3-3.1 12.3-4.4l3-1c.5-.2 1-.3 1.5-.5l1.7-.5c1.2-.3 2.3-.6 3.5-.8 1.1-.2 2.3-.4 3.4-.6 2.2-.3 4.4-.5 6.6-.7l3.2-.2c1 0 2.1-.1 3-.2l8.3-.7-4.2 5.5c-.4.5-.8 1.7-1.2 2.9-.4 1.2-.7 2.5-1.2 3.8-.5 1.3-.9 2.6-1.5 3.9-.6 1.3-1.3 2.5-2.1 3.6h-.6z"/><path class="st2" d="M1831.9 1006.8c0 26.6-66.2 47.9-148.8 46.7-79.5-1.1-145.1-17.8-148.4-44.7l-.4 11.9v9.5c0 26.6 66.2 47.5 148.8 47.5 82.6 0 149.6-21.6 149.6-48.2l-.8-22.7zM1578.7 458c14.9 13.9 56 23.8 104.4 23.8 49.6 0 91.5-10.5 105.4-24.9 1.7 1.1 3.6 3 4.9 6.5v117.4c-4.7 18.2-52.2 32.6-110.3 32.6-61 0-110.4-15.8-110.4-35.3V466.3s2.6-6.5 6-8.3z"/><path class="st3" d="M1683.1 1055c-65.6 0-121.3-15.1-141.5-34-2.9-2.7-5.1-5.5-6.4-8.5-1.1-2.4-.5-5.3 1.7-7l10.1-8.1 25.7-21.7c0 19.7 49.4 35.6 110.4 35.6 58.1 0 105.7-14.5 110.1-32.8h.4l35.6 24.4c2.4 1.6 3.6 6 2.7 8.7-7.5 24.4-71.3 43.4-148.8 43.4z"/><path class="st3" d="M1544.5 1106.9c.3-.1.5-.2.8-.3 8.6-3.5 18.7-11.3 18.7-28.9 0-12-6.5-20.2-12.3-25.2 25.3 15 74.7 24.5 131.4 24.5 55.7 0 104.2-9.8 130-24.3-5.2 4.7-10.8 13.5-9.4 26.2 1.9 17.2 12.9 23.5 20.8 25.8 2.2 1.3 5.1 3.7 6.9 7.5v.1c-9.6 23.5-72.3 41.9-148.3 42.7-94.7.9-135.1-31.1-146.2-42 2.7-3.7 6.1-5.5 7.6-6.1z"/><path class="st2" d="M1536.4 1113c11.1 10.8 51.5 42.2 146.2 41.3 76.1-.7 138.9-18.4 148.3-42 .5 1 .9 2.2 1.2 3.4v229.7c0 26.6-67 48.2-149.6 48.2s-149.6-21.6-149.6-48.2V1123c.3-4.4 1.7-7.6 3.5-10zm41.7-258.2s.1 0 0 0c14.9 14 56 24 104.4 24 49.6 0 91.5-10.5 105.4-25 1.7 1.1 3.6 3.1 4.9 6.5v118.3c-4.7 18.4-52.2 33.5-110.3 33.5-61 0-110.4-16.7-110.4-36.3V863.2s2.6-6.6 6-8.4zm0-529.1s.1 0 0 0c14.9 14 56 24 104.4 24 49.6 0 91.5-10.5 105.4-25 1.7 1.1 3.6 3.1 4.9 6.5v118.3c-4.7 18.4-52.2 32.8-110.3 32.8-61 0-110.4-15.9-110.4-35.6V334.1s2.6-6.6 6-8.4z"/><path class="st2" d="M1578.1 193.1s.1 0 0 0c14.9 14 56 24 104.4 24 49.6 0 91.5-10.5 105.4-25 1.7 1.1 3.6 3.1 4.9 6.5v118.3c-4.7 18.4-52.2 32.8-110.3 32.8-61 0-110.4-15.9-110.4-35.6V201.5s2.6-6.6 6-8.4z"/><path class="st2" d="M1578.1 47.8s.1 0 0 0c14.9 14 56 24 104.4 24 49.6 0 91.5-10.5 105.4-25 1.7 1.1 3.6 3.1 4.9 6.5v131.3c-4.7 18.4-52.2 32.8-110.3 32.8-61 0-110.4-15.9-110.4-35.6V56.1s2.6-6.6 6-8.3z"/><path class="st3" d="M1682.6 893.2c-58.3 0-105.9-12.6-110.1-30.8.8-1.8 3-6.2 5.7-7.6 14.9 14 56 24 104.4 24 49.6 0 91.5-10.5 105.4-25 1.7 1.1 3.6 3.1 4.9 6.5v2.3c-4.6 18.4-52.2 30.6-110.3 30.6zm0-396.8c-58.3 0-105.9-12.6-110.1-30.8.8-1.8 3-6.2 5.7-7.6 14.9 14 56 24 104.4 24 49.6 0 91.5-10.5 105.4-25 1.7 1.1 3.6 3.1 4.9 6.5v2.3c-4.6 18.3-52.2 30.6-110.3 30.6zm0-132.3c-58.3 0-105.9-12.6-110.1-30.8.8-1.8 3-6.2 5.7-7.6 14.9 14 56 24 104.4 24 49.6 0 91.5-10.5 105.4-25 1.7 1.1 3.6 3.1 4.9 6.5v2.3c-4.6 18.3-52.2 30.6-110.3 30.6z"/><path class="st4" d="M1578.4 458.1c-3.8-3.6-5.8-7.4-5.8-11.4v-23.3c37.5 14.7 63.2 35.4 80.7 57.4-23.4-2.1-43.7-6.6-58.1-12.6-10-5.7-16.8-10.1-16.8-10.1zm35.8 148.8c1.9-103-16.5-121.1-21.7-124.1 16.6 7 42 11.7 71.5 13.1 29.9 47.7 26.4 95.7 26.4 95.7v22.8h1.3c-3 .1-6.1.1-9.2.1-25.7.1-49.5-2.8-68.3-7.6zm-1.7 396.4V887.1l.4-.9c19 4.5 43.2 7.1 69.7 7.1 2.6 0 5.3 0 7.9-.1v118.1c-2.6.1-5.2.1-7.9.1-26.6 0-51.1-3-70.1-8.1z"/><path class="st1" d="M1561.2 1130.3c20.7 10.9 54.4 22.3 105.9 23.7-.6.1-.9.2-.9.2l29.5 7.6 3.9 231.7-41.9-.7c-39.7-2.2-74-9.4-96.5-19.5v-243z"/><path class="st5" d="M1612.4 886.1l-.4.9v116.2c-24.4-6.5-40-16.2-40.3-27.2l.4-.3V863.2s0-.1.1-.2c2.6 9.7 17.7 17.8 40.2 23.1z"/><path class="st7" d="M1536.6 1113.2c4.1 4 11.9 10.5 24.6 17.1v242.9c-.2-.1-.3-.1-.5-.2-1-.5-2-.9-3-1.4l-1.2-.6c-.7-.4-1.4-.7-2-1.1-.4-.2-.8-.5-1.3-.7-.6-.3-1.2-.7-1.8-1-.4-.2-.8-.5-1.2-.7-.5-.3-1.1-.7-1.6-1-.4-.3-.8-.5-1.1-.8-.5-.4-1-.7-1.5-1.1-.3-.2-.7-.5-1-.7l-1.5-1.2c-.3-.2-.5-.4-.8-.6-.7-.6-1.4-1.2-2-1.9l-.2-.2c-.6-.6-1.1-1.2-1.6-1.8-.2-.2-.4-.4-.5-.7-.4-.4-.7-.9-1-1.3-.2-.3-.4-.5-.5-.8-.3-.4-.5-.8-.8-1.2-.2-.3-.3-.5-.5-.8l-.6-1.2c-.1-.3-.2-.6-.4-.8-.2-.4-.3-.8-.4-1.3-.1-.3-.2-.5-.2-.8-.1-.5-.2-.9-.3-1.4 0-.2-.1-.5-.1-.7-.1-.7-.1-1.4-.1-2.1v-222.4c.1-3.9 1.4-7.1 3.1-9.5z"/><path class="st5" d="M1592.5 482.8c5.2 3 23.6 21.1 21.7 124.1-16.3-4.2-28.9-9.8-35.9-16.2.1 0 .1-.1.2-.1l.1.1c-4-3.7-6.1-7.6-6.1-11.7V466.4s0-.1.1-.2c1.8 6.3 8.9 12 19.9 16.6z"/><path class="st4" d="M1579.9 1042.2c.6-.3 1.2-.6 1.7-.8 9.3 2.6 19.8 4.8 31.1 6.6 19.5 3.3 41.5 5.3 64.9 5.5-.8.5-1.3.7-1.3.7l.7 23.4h-.2c-37.5-.5-71.4-5.4-96.9-13.1v-22.3z"/><path class="st5" d="M1581.7 1041.4c-.6.3-1.2.6-1.7.8v22.3c-11-3.4-20.4-7.2-27.9-11.5-11.4-6.7-17.9-16.4-17.9-22.8v-9.5l.3-8.9c.1.2.1.5.3.7.4.9.9 1.8 1.5 2.6 5.5 10.9 22 19.8 45.4 26.3z"/><path class="st1" d="M1677.7 1053.5c-23.4-.5-45.5-2.4-65-5.5-11-1.9-21.3-4.2-30.5-6.9 23.9-12.2 30.2-37.3 30.2-37.3v-.4c19.1 5.1 43.5 8.1 70.1 8.1 2.6 0 5.3 0 7.9-.1.1 30.7-9.1 39.7-12.7 42.1z"/><path class="st6" d="M1612.5 1003.3v.4s-6.3 25.2-30.2 37.3c-18.5-5.4-32.9-12.3-41.2-20.1-2-1.9-3.7-3.8-4.9-5.8-.8-1.5-1.3-3-1.7-4.5l.1-1.8c0 .2.1.3.1.5.2-1.4.9-2.8 2.1-3.7l10.1-8.1 25.3-21.4c.2 11 15.9 20.7 40.3 27.2z"/><path class="st1" d="M1591.4 1068.4l-6.9-2.4c24.8 6.9 56.9 11.1 92.3 11.5h.2v.8l14.5-.7c19.8 63.6-18.2 74.9-24.4 76.4-51.6-1.5-85.2-12.8-105.9-23.7 33-14.3 30.2-61.9 30.2-61.9z"/><path class="st7" d="M1536.8 1113c2.7-3.6 6.1-5.5 7.6-6.1.3-.1.5-.2.8-.3 8.6-3.5 18.7-11.3 18.7-28.9 0-.7 0-1.4-.1-2.1 0-.2 0-.4-.1-.7 0-.4-.1-.9-.1-1.3 0-.3-.1-.5-.1-.8-.1-.4-.1-.8-.2-1.1-.1-.3-.1-.5-.2-.8-.1-.3-.1-.7-.2-1-.1-.3-.2-.6-.2-.8l-.3-.9c-.1-.3-.2-.6-.3-.8-.1-.3-.2-.6-.3-.8-.1-.3-.2-.6-.4-.8-.1-.3-.2-.5-.3-.8-.1-.3-.3-.6-.4-.8-.1-.2-.2-.5-.3-.7-.2-.3-.3-.6-.5-.8-.1-.2-.2-.4-.4-.6-.2-.3-.4-.6-.5-.9-.1-.2-.2-.4-.3-.5l-.6-.9c-.1-.1-.2-.3-.3-.4-.2-.3-.4-.6-.7-.9-.1-.1-.2-.2-.3-.4-.2-.3-.5-.6-.7-.9-.1-.1-.2-.2-.2-.3-.3-.3-.5-.6-.8-.9l-.2-.2-.9-.9-.1-.1c-.3-.3-.6-.6-1-.9 8.3 4.7 19 8.9 31.7 12.4l6.9 2.4s2.8 47.5-30.2 61.9c-12.7-6.7-20.5-13.2-24.6-17.1 0-.4 0-.5.1-.5z"/><path class="st1" d="M1612.9 886.1l6.2-13.4-4.9-1.5c18.8 4.8 42.5 7.6 68.3 7.6 2.6 0 5.3 0 7.9-.1h.1c3-.1 6-.2 8.9-.3l-9 14.5v.3c-2.6.1-5.2.1-7.9.1-26.4-.1-50.6-2.7-69.6-7.2z"/><path class="st6" d="M1572.1 862.9c0-.1.1-.2.1-.3v-.1c.1-.1.1-.3.2-.4v-.1c.1-.1.1-.3.2-.4 0-.1.1-.1.1-.2l.3-.6c0-.1.1-.1.1-.2.2-.3.3-.6.5-1l.1-.1c.2-.3.3-.6.5-.9.1-.1.1-.2.2-.2.2-.3.4-.6.7-.9l.2-.2c.2-.3.4-.5.7-.8 0-.1.1-.1.1-.2l.8-.8.2-.2c.2-.2.5-.3.7-.5 7 6.5 19.6 12.1 35.9 16.2l4.9 1.5-6.2 13.4c-22.5-5.1-37.6-13.2-40.3-23z"/><path class="st1" d="M1591.2 482.2l7.3-12.2c-1.2-.7-2.3-1.3-3.4-1.9 14.4 6 34.7 10.5 58.1 12.6h.1c5 .4 10.1.8 15.3 1L1664 496c-29.4-1.4-54.9-6.1-71.5-13.1-.8-.6-1.3-.7-1.3-.7z"/><path class="st6" d="M1572.6 466.1c0-.1.1-.2.1-.3v-.1c.1-.1.1-.3.2-.4v-.1c.1-.1.1-.3.2-.4 0-.1.1-.1.1-.2l.3-.6c0-.1.1-.1.1-.2.2-.3.3-.6.5-1l.1-.1c.2-.3.3-.6.5-.9.1-.1.1-.2.2-.2.2-.3.4-.6.7-.9l.2-.2c.2-.3.4-.5.7-.8 0-.1.1-.1.1-.2l.8-.8.2-.2c.2-.2.4-.3.7-.5 3.9 3.6 9.7 7 16.8 10 1.1.6 2.2 1.3 3.4 1.9l-7.3 12.2s.5.1 1.4.6c-11.1-4.5-18.2-10.2-20-16.6z"/><path class="st5" d="M1614.3 1146.9c-14.1-2.3-28.1-5.6-41.7-10.3-6.8-2.4-13.5-5.2-20.1-8.4-6.5-3.3-12.9-7.1-18.8-11.6l6-7.1c4.9 4.7 10.5 8.9 16.3 12.6 5.8 3.8 12 7.2 18.4 10.2 12.7 6 26.2 10.8 39.9 14.6z"/><path class="st6" d="M1623.2 1050.6c-15.4-2.6-30.9-4.8-46.1-9.6-7.6-2.4-15-5.5-22-9.6s-13.6-9.2-19.2-15.2c-1.8-1.9-1.7-4.8.2-6.5 1.9-1.8 4.8-1.7 6.5.2l.3.3c4.5 5.8 9.9 11 16 15.4s12.8 8 19.9 11.1c14.1 6.1 29.4 9.8 44.4 13.9zm17-41.1c-12.9-1.2-25.7-3.5-38.3-7.4-6.3-2-12.5-4.3-18.4-7.3-6-2.9-11.8-6.4-17.2-10.7l6.1-6.9c8.7 8.6 19.5 15.3 31.1 20.5 11.6 5.3 24 9.1 36.7 11.8zm-2.5-118.8c-10.9-1.3-21.8-3.5-32.5-6.6-5.3-1.6-10.7-3.4-15.9-5.6-5.2-2.2-10.4-4.8-15.2-8.4-2.1-1.5-2.5-4.4-1-6.5 1.5-2.1 4.4-2.5 6.5-1 .2.1.3.3.5.4 3.6 3.5 7.9 6.5 12.5 9.3 4.6 2.8 9.4 5.2 14.3 7.4 9.8 4.5 20.1 8.2 30.8 11z"/><path class="st2" d="M1662.2 348.3c11.8 1.2 23.6 1.3 35.3.9 11.7-.5 23.4-1.7 34.8-3.8 5.7-1.1 11.3-2.4 16.8-3.9 5.5-1.6 10.9-3.4 16.1-5.6 5.2-2.2 10.2-4.7 14.9-7.4 4.7-2.8 9.1-6 13.2-9.4l11 14.9c-5.5 3.5-11.2 6.5-17 9-5.9 2.4-11.8 4.5-17.8 6.1-6 1.6-12 2.8-18.1 3.7-6.1.9-12.1 1.5-18.1 1.8-12.1.6-24.1.3-36-.7-11.8-1.2-23.6-2.9-35.1-5.6zm-21.4 130.5c6.8.6 13.5 1 20.3 1.2 6.8.2 13.5.3 20.3.2 13.5-.2 27-1.1 40.2-2.9 6.6-.9 13.2-2 19.7-3.4s12.8-3.1 19-5.2c3.1-1 6.1-2.2 9.1-3.4l4.4-1.9c1.5-.6 2.8-1.4 4.3-2.1 5.6-2.9 10.8-6.3 15.4-10.1l11 14.8c-6.4 4.2-13.1 7.4-19.9 10-1.7.6-3.4 1.3-5.1 1.8l-5.2 1.6c-3.5.9-6.9 1.9-10.4 2.6-6.9 1.5-13.9 2.5-20.8 3.2-6.9.7-13.9 1.1-20.8 1.2-13.8.3-27.5-.4-41.1-1.7-6.8-.7-13.6-1.5-20.3-2.5-6.7-.9-13.5-2-20.1-3.4zm-62.1 112.3c14.9 13.8 56 23.6 104.4 23.6 49.6 0 91.5-10.4 105.4-24.7 1.7 1.1 3.6 3 4.9 6.4V713c-4.7 18.1-52.2 32.3-110.3 32.3-61 0-110.4-15.7-110.4-35.1V599.3s2.6-6.5 6-8.2z"/><path class="st3" d="M1682.6 629c-58.3 0-105.9-12.6-110.1-30.8.8-1.8 3-6.2 5.7-7.6 14.9 14 56 24 104.4 24 49.6 0 91.5-10.5 105.4-25 1.7 1.1 3.6 3.1 4.9 6.5v2.3c-4.6 18.3-52.2 30.6-110.3 30.6z"/><path class="st4" d="M1614.2 739.5l-1.4-117.3.2-.3c19 4.5 43.2 7.1 69.6 7.1 2.7 0 5.3 0 7.9-.1V747c-2.6.1-5.2.1-7.9.1-25.8 0-49.6-2.8-68.4-7.6z"/><path class="st5" d="M1613 621.9l-.2.3 1.4 117.3c-16.3-4.2-28.9-9.8-35.9-16.2.1 0 .1-.1.2-.1-3.9-3.6-6-7.5-6-11.6V598.9s0-.1.1-.2c2.7 9.7 17.9 17.8 40.4 23.2z"/><path class="st1" d="M1613 621.9l6.9-13.4-5.6-1.6c18.8 4.8 42.5 7.6 68.3 7.6 3.1 0 6.2 0 9.2-.1l7-.1-8.4 14.6c-2.6.1-5.2.1-7.9.1-26.3 0-50.5-2.6-69.5-7.1z"/><path class="st6" d="M1572.6 598.7c0-.1.1-.2.1-.3v-.1c.1-.1.1-.3.2-.4v-.1c.1-.1.1-.3.2-.4 0-.1.1-.1.1-.2l.3-.6c0-.1.1-.1.1-.2.2-.3.3-.6.5-1l.1-.1c.2-.3.3-.6.5-.9.1-.1.1-.2.2-.2.2-.3.4-.6.7-.9l.2-.2c.2-.3.4-.5.7-.8 0-.1.1-.1.1-.2l.8-.8.2-.2c.2-.2.5-.3.7-.5 7 6.5 19.6 12.1 35.9 16.2l5.6 1.6-6.9 13.4c-22.4-5.3-37.6-13.4-40.3-23.1z"/><path class="st6" d="M1628.2 624.6c-19.1-2.7-37.7-9.7-54.4-20.1-1.7-1.1-2.3-3.4-1.2-5.1 1.1-1.7 3.4-2.3 5.1-1.2.1.1.3.2.4.3 14.5 11.7 31.6 21 50.1 26.1z"/><path class="st2" d="M1662.2 613.7c11.8 1 23.6.9 35.4.3 11.7-.6 23.4-2.1 34.7-4.3 5.7-1.2 11.3-2.5 16.8-4.1 5.5-1.7 10.9-3.6 16.1-5.7 5.2-2.2 10.2-4.7 14.9-7.5 4.7-2.9 9.1-6 13.2-9.5l11 14.8c-5.5 3.5-11.1 6.5-16.9 9.1-5.8 2.5-11.8 4.5-17.7 6.2-6 1.6-12 2.9-18.1 3.9-6 .9-12.1 1.6-18.1 2-12.1.8-24.1.7-36-.3-11.9-.9-23.7-2.4-35.3-4.9zm-83 108.8c14.9 13.8 56 23.8 104.4 23.8 49.6 0 91.5-10.4 105.4-24.8 1.7 1.1 3.6 3 4.9 6.4v117.2c-4.7 18.2-52.2 33-110.3 33-61 0-110.4-16.3-110.4-35.8V730.8s2.6-6.5 6-8.3z"/><path class="st3" d="M1682.6 760.4c-58.3 0-105.9-12.6-110.1-30.8.8-1.8 3-6.2 5.7-7.6 14.9 14 56 24 104.4 24 49.6 0 91.5-10.5 105.4-25 1.7 1.1 3.6 3.1 4.9 6.5v2.3c-4.6 18.4-52.2 30.6-110.3 30.6z"/><path class="st4" d="M1614.2 870.9l-1.4-117.3.2-.3c19 4.5 43.2 7.1 69.6 7.1 2.7 0 5.3 0 7.9-.1v118.1c-2.6.1-5.2.1-7.9.1-25.8.1-49.6-2.8-68.4-7.6z"/><path class="st5" d="M1613 753.3l-.2.3 1.4 117.3c-16.3-4.2-28.9-9.8-35.9-16.2.1 0 .1-.1.2-.1-3.9-3.6-6-7.5-6-11.6V730.4s0-.1.1-.2c2.7 9.7 17.9 17.8 40.4 23.1z"/><path class="st1" d="M1613 753.3l6.9-13.4-5.6-1.6c18.8 4.8 42.5 7.6 68.3 7.6 3.1 0 6.2 0 9.2-.1l7-.1-8.4 14.6c-2.6.1-5.2.1-7.9.1-26.3 0-50.5-2.6-69.5-7.1z"/><path class="st6" d="M1572.6 730.1c0-.1.1-.2.1-.3v-.1c.1-.1.1-.3.2-.4v-.1c.1-.1.1-.3.2-.4 0-.1.1-.1.1-.2l.3-.6c0-.1.1-.1.1-.2.2-.3.3-.6.5-1l.1-.1c.2-.3.3-.6.5-.9.1-.1.1-.2.2-.2.2-.3.4-.6.7-.9l.2-.2c.2-.3.4-.5.7-.8 0-.1.1-.1.1-.2l.8-.8.2-.2c.2-.2.5-.3.7-.5 7 6.5 19.6 12.1 35.9 16.2l5.6 1.6-6.9 13.4c-22.4-5.2-37.6-13.3-40.3-23.1z"/><path class="st6" d="M1633.6 757.3c-10.4-1.3-20.6-3.8-30.6-7.4-9.9-3.6-19.6-8.2-28.7-14-1.7-1.1-2.3-3.4-1.2-5.1 1.1-1.7 3.4-2.3 5.1-1.2.1.1.3.2.4.3 7.9 6.4 16.6 12 25.8 16.6 9.3 4.5 19.1 8.3 29.2 10.8z"/><path class="st2" d="M1662.2 744.1c11.8 1.1 23.6 1.2 35.3.7 11.7-.5 23.4-1.8 34.8-4 5.7-1.1 11.3-2.4 16.8-4s10.9-3.5 16.1-5.6c5.2-2.2 10.2-4.7 14.9-7.5 4.7-2.9 9.1-6 13.2-9.4l11 14.9c-5.5 3.5-11.2 6.5-17 9.1-5.8 2.5-11.8 4.5-17.8 6.1-6 1.6-12 2.8-18.1 3.8-6 .9-12.1 1.5-18.1 1.9-12.1.7-24.1.4-36-.6-11.7-1.1-23.5-2.8-35.1-5.4zm.1 133.4c11.8 1 23.6 1 35.3.3 11.7-.6 23.4-2.1 34.7-4.3 5.7-1.2 11.3-2.5 16.8-4.2 5.5-1.7 10.8-3.6 16-5.8 5.2-2.3 10.1-4.8 14.9-7.6 4.7-2.9 9.1-6.1 13.1-9.6l11.2 14.7c-5.4 3.6-11.1 6.6-16.9 9.2-5.8 2.5-11.7 4.6-17.7 6.3-6 1.6-12 2.9-18 4-6 1-12.1 1.6-18.1 2.1-12.1.8-24.1.7-36-.2-11.9-.8-23.7-2.3-35.3-4.9zm-.1 198.9c14.5.9 28.9.8 43.3.1 14.4-.7 28.7-2.2 42.8-4.5 14.1-2.3 27.9-5.5 41.1-10 6.6-2.3 13.1-4.8 19.2-7.8s12-6.3 17.5-10l10.6 17.7c-7 3.6-14.1 6.6-21.4 9.1-7.2 2.5-14.6 4.4-21.9 5.9-14.7 3.1-29.4 4.7-44.1 5.3-14.7.6-29.3.4-43.9-.6-14.5-1-28.9-2.7-43.2-5.2zM1574.1 211c-.7 0-1.3-.1-1.9-.1v-9.4s2.6-6.6 6-8.4c14.9 14 56 24 104.4 24 49.6 0 91.5-10.5 105.4-25 1.7 1.1 3.6 3.1 4.9 6.5v118.3c-1.8 7.2-10.3 13.8-23.5 19.2-.7-.1-1.3-.2-2-.3 0 0 12-38.1-22.8-69.9-34.7-31.6-85.5-49.1-170.5-54.9z"/><path class="st5" d="M401.9 1262.3c-4.5-1.4-8.7-2.8-12.9-4.3-4.2-1.4-8.3-2.9-12.5-4.2-1-.4-2.1-.7-3.1-1-1-.3-2.1-.7-3.1-1-1-.3-2.1-.6-3.1-1-.5-.2-1-.3-1.6-.5l-1.6-.5c-4.2-1.4-8.5-2.6-12.9-4.3v-.4l3.4.2c1.1.1 2.3.1 3.4.3 2.3.3 4.5.6 6.7 1 4.5.8 8.9 2 13.2 3.4 4.3 1.4 8.5 3.2 12.6 5.2 2 1 4.1 2.1 6 3.2 2 1.2 3.9 2.4 5.7 3.7l-.2.2zm84.9 56.8c-2.7.3-5.4-.2-7.9-1-2.6-.8-5-1.8-7.4-2.9-4.8-2.4-9.3-5.2-13.5-8.4-4.3-3.1-8.2-6.7-12-10.2-1-.9-1.9-1.8-2.8-2.8l-2.7-2.7-1.3-1.3-1.4-1.2c-.9-.8-1.9-1.6-2.8-2.4-3.7-3.1-7.8-5.6-12.2-7.2-4.3-1.6-8.9-1.8-13.3-.7s-8.6 3.7-12.2 7c-3.7 3.3-6.8 7.3-9.6 11.7l-.4-.2c2.1-4.7 4.9-9.2 8.4-13 3.5-3.8 7.8-7 12.8-8.6 5-1.6 10.5-1.5 15.4.1 5 1.6 9.5 4.4 13.5 7.6 4.1 3.3 7.6 7.1 11.2 10.8 1.8 1.9 3.7 3.6 5.6 5.4.9.9 1.9 1.7 2.9 2.6 1 .8 1.9 1.7 2.9 2.5 3.9 3.3 8.1 6.4 12.5 9 2.2 1.3 4.5 2.5 6.9 3.5.6.2 1.2.5 1.8.7l1.8.6c1.2.3 2.5.6 3.7.6l.1.5z"/><path class="st7" d="M1658.9 1309.8c-2.4-6-44.9-118.4-78.3-136.9 0 0 27.2-5.2 54.6 2.4 27.4 7.6 39.3 91.9 52.7 151.2 13.3 59.2-29-16.7-29-16.7z"/><path class="st3" d="M1580.6 1172.8s3.1 23.7-1.7 43 24.8-10.1 25.6-17.7c0 0-15.7-23.3-23.9-25.3z"/><path class="st7" d="M1689.2 1329.8s-.7-184.6-5-210.7c0 0 21.4 7.6 49.4 11.9 27.9 4.3 5.3 31.1-.2 73s-22.3 139-22.3 139l-21.9-13.2z"/><path class="st3" d="M1684.1 1119s-7.2-4.4-21.1 59.5c0 0 17.3-22.6 23.6-21.3 0 .1-.6-24.3-2.5-38.2zM1554 1244.4l14.3 33.7 15.6-19.2z"/><path class="st7" d="M1587 1233.9l-33 10.4s58.7 19.8 80.7 62.7l26.3-1.2c-.1.1-28.3-53.1-74-71.9z"/><path class="st4" d="M1706.9 1326s52-135.3 88.5-145.9l18 11.9s-26.2 13.7-57.9 77.7c-38.9 78.6-48.6 56.3-48.6 56.3z"/><path class="st3" d="M1813.4 1192s-18.8 25.5-16.9 33.5l-5.9-12.1c0 .1 16.2-20.9 22.8-21.4zm-266.5 125.2s1.2 4.5 3.7 9.6c3.5.6 7.1 1.1 10.7 1.4 0 0-7.2-23.4-3.6-31.2 0 0 12.9 28.2 37 34.7l80.4 13.3s-14.9-27.5-13.7-34.9c0 0 27.6 43.3 50.5 45.9l56.5 18.4-2.3-18.7 11.3 22.1 29.6 9.5c-8.7-.8-23.9 5.7-23.9 5.7l-10-11.9 2.9 13.3c-35.9-6.5-70.6-13.7-70.6-13.7-12.8-7.1-15.1-24.4-15.1-24.4-4.4 5.7-1.2 21-1.2 21-36.3-9.6-78-8.4-78-8.4-13.8-10.2-23.9-23.4-23.9-23.4-5.9 6.5 6.6 23.3 6.6 23.3-36.6-12.2-87.3-47.6-117.7-70.2 16.6 9.9 41.2 21.8 70.1 27.3-.2-2.5-.1-5.6.7-8.7z"/><path class="st7" d="M1570.1 951.2c-.1 0-.1-.1 0 0 .1-.1.1 0 0 0zm-46.1-26s35-25.5 45.7-29.3c10.7-3.8 18.9 10.1 37.9 17.8 19.1 7.7 39.4 6 3.8 20.1-35.6 14.1-28.8-1.3-44-1.3s-5.6-8.3-23.7-3.9c-18 4.3-19.7-3.4-19.7-3.4z"/><path class="st1" d="M1611.5 933.8c-35.6 14.1-28.8-1.3-44-1.3-15.2-.1-5.6-8.3-23.7-3.9-9.2 2.2-14.1 1.3-16.8-.1 6.3 6.7 21.2 21.9 30.6 24.4 12.2 3.3 3.1-3.3 12.2 3.3 7.7 5.6 30.2-12.6 50.6-26.1-2.6 1.1-5.5 2.3-8.9 3.7zm19.3-10.2z"/><path class="st4" d="M1554.4 927.8v3.1c.1 1.1.2 2.3.4 3.4.4 2.3 1 4.6 1.7 6.8.2.6.4 1.1.6 1.7.2.6.4 1.1.7 1.7l.8 1.6.9 1.6c.5 1.1 1.2 2.1 1.9 3.2l2.1 3c-.9-.8-1.9-1.6-2.9-2.4-.9-.9-1.9-1.7-2.7-2.6l-1.3-1.4-1.2-1.5-1.2-1.5c-.4-.5-.8-1-1.1-1.6-1.5-2.1-2.8-4.4-3.9-6.9-.6-1.2-1-2.5-1.5-3.8-.2-.7-.4-1.3-.6-2-.1-.3-.2-.7-.2-1.1 0-.2-.1-.4-.1-.6 0-.2-.1-.4-.1-.7h7.7zm21.4 8.2c-.2.1-.4.6-.6.9-.2.4-.4.7-.7 1.1l-1.2 2.4c-.7 1.6-1.2 3.4-1.6 5.2-.2.9-.3 1.8-.4 2.7 0 .9-.1 1.9 0 2.8 0 1.9.4 3.8.9 5.7-1.1-1.6-2.1-3.4-2.9-5.3-.4-.9-.7-1.9-1-2.9-.2-1-.5-2-.6-3.1-.3-2.1-.4-4.2-.3-6.4.1-1.1.2-2.2.4-3.3.1-.5.2-1.1.3-1.6.1-.6.2-1.1.5-1.8l7.2 3.6z"/><path class="st5" d="M1528.2 927.3c5.4 6 11.1 11.8 17.3 16.9 3.1 2.5 6.3 5 9.8 6.7.9.5 1.8.7 2.7 1.1 1 .3 1.9.5 2.9.7.9.2 1.9.3 2.7.3h.2c.1 0 .2 0 .2-.1 0 0 .1 0 .1-.1l.2-.2c.1 0 .1-.1.2-.1.1-.1.2-.1.3-.1.3-.1.4 0 .6 0 .2 0 .3.1.4.1.1.1.3.2.4.2.2.2.5.3.7.5.8.6 1.7 1.2 2.5 1.8.8.6 1.5 1.2 2.4 1.6 1.7.8 3.7.7 5.5.3 1.9-.4 3.7-1.3 5.5-2.2 1.8-.9 3.5-2 5.2-3 6.9-4.3 13.5-9 20.4-13.4-6.7 4.6-13.2 9.5-19.9 14.1-1.7 1.1-3.4 2.2-5.2 3.2-1.8 1-3.7 1.9-5.7 2.5-1 .3-2.1.5-3.2.5s-2.2-.2-3.2-.6c-1-.4-2-1.1-2.8-1.6-.8-.6-1.7-1.2-2.5-1.7-.2-.1-.4-.3-.6-.4l-.2-.1c-.1 0 0 0 0 0h.2c.1 0 .1 0 .2-.1l-.1.1c-.1.1-.3.3-.5.4-.3.2-.7.3-1 .3-1.3.2-2.3 0-3.3-.2s-2.1-.4-3.1-.6c-1-.3-2.1-.6-3-1.1-3.9-1.7-7.3-4.1-10.5-6.6-6.5-5.1-12.4-10.7-18.1-16.6l2.3-2.5z"/><path class="st6" d="M1543.8 928.5c-.8.4-1.7.7-2.6 1-.9.3-1.8.6-2.6.8-1.8.5-3.6.8-5.6 1-1.9.1-3.9 0-6-.7l-.8-.3c-.3-.1-.5-.3-.8-.4-.5-.2-1-.6-1.5-1s-.9-.8-1.3-1.3c-.2-.3-.4-.5-.5-.8-.2-.3-.3-.5-.5-1.2l-.4-1.4 1.3-1c3.5-2.9 7.2-5.6 10.9-8.3 3.7-2.6 7.5-5.2 11.4-7.6 3.9-2.4 7.8-4.7 11.9-6.7 2.1-1 4.1-2 6.3-2.8 2.1-.9 4.4-1.6 6.6-2-3.9 2.4-7.4 5.2-11.1 7.9-3.6 2.7-7.2 5.4-10.9 8-7.3 5.3-14.8 10.4-22.3 15.3l.9-2.4c-.1-.2 0 0 0 .1s.1.2.1.3c.1.2.3.5.5.7.4.4.9.9 1.6 1.2 1.3.7 2.9 1.1 4.6 1.4.8.1 1.7.2 2.6.3.9 0 1.8.1 2.6.1 1.9 0 3.7-.1 5.6-.2z"/><ellipse class="st5" cx="1564.3" cy="917.6" rx="5.7" ry="5.6"/><ellipse class="st5" cx="1579.1" cy="917.6" rx="3.1" ry="3.1"/><path class="st3" d="M1412.1 1453.4s87.8-97.9 266.2-82.5c178.4 15.3 229.8 124.7 229.8 124.7l17 55s-37.8-19-86.9-32.7c-1.2-.3-2.5-.7-3.7-1l-1.1-31.2-7.1 21.3s-72.6-32-95.9-35.7-4.9-19.7-4.9-19.7-15.7.7-18.7 13.3l-61.9-.4s-38.4-29.3-37.1-46.6c0 0-3.9 31.7 17.2 44.6 0 0-16-2-30.8-1s-32.1 8.4-51.9-1.6c0 0-17.1-33.1-15.6-51.3 0 0-18.3 35.4-11.2 53.9-.1-.1-57.4-20.8-103.4-9.1z"/><path class="st2" d="M1914 1510.6s-54.6-15.7-81.7-11.9l-2.3-11.6-2.4 9.7c-58.2.4-46.8-2.8-75.3 2.8 0 0 .1-16.8-10.4-26 0 0-2.7 25.8-3.5 30.4-8.6-1.6-84.6 3.7-101.6 19.5l-1.6-25.2s-12.2 17.4-14.4 28.2c0 0-79.4-7.9-118.2 14.7 0 0 71.1-74.5 75.2-74.5 4.1 0 78-41.6 78-41.6l45-8.7s93.2-.5 98 1.8c4.8 2.3 33.4 13.1 33.4 13.1l81.8 79.3z"/><path class="st4" d="M1506.5 1522s7.7-44.2 107-92.3c99.3-48.1 198.6-22.8 198.6-22.8 98 32.4 106.5 109.3 102.1 105-22.6-22.3-80.6-32.3-80.6-32.3 3.7-7.5-2.2-28.6-2.2-28.6-1.2 7.1-7.6 22.8-7.6 22.8-13.7-3.3-64.2-7.3-64.2-7.3 4.2-9.4-12.5-31.8-12.5-31.8 4.4 13.4-8.6 27.6-9.1 28.2 0-.1-1.8-.3-28.2 2.9-28.1 3.4-38.7 2.6-66.3 12.8-6-12.5 6.7-40.6 6.7-40.6-10.1 10.5-15.9 25.3-15.9 25.3-2.6 17.6-10.8 20-10.8 20-6 .9-12.4 2.3-18.8 4 1.8-6.6 4.3-11.5 4.3-11.5-5.9 4.2-9.7 9.8-11.8 13.7-29.4 9.1-59.3 24.3-70.1 30.3-14.1 7.8-24.7 20.1-24.7 20.1.4-10.3 4.1-17.9 4.1-17.9z"/><path class="st2" d="M1882.2 1448.5c-15.6-15.7-38-31-70.1-41.6 0 0-99.2-25.3-198.6 22.8-6.4 3.1-12.5 6.2-18.1 9.3 11.9 6.4 23.3 10.6 23.3 10.6l28.3-8c1-1.2 2-2.4 3.1-3.6 0 0-.5 1.1-1.3 3l30.6-8.7c-.7-12.9 14.4-18.1 14.4-18.1s-13.3 20.6 10.6 17.6 104.6 7.2 104.6 7.2l.6-22.5 10.4 29.7c1.3 0 2.6-.1 3.9-.1 21.9-.2 42.2 1 58.3 2.4zm-298-3.3c-15.1 8.8-27.2 17.2-37.1 25.2 7.6-3.1 14.4-7 21-9.4 14.2-5.1 30.4-7.7 30.4-7.7-5.7-1.5-10.4-4.5-14.3-8.1z"/><path class="st1" d="M1411.3 1453.9s67.2-108.6 233.1-125.2 231.1 81.7 231.1 81.7l26.1 45.2s-15.9-27.1-54.9-33.6c-1.2-.2-13.5-3.1-14.7-3.2l-26.5-4.7-3.9 9s-70.9-5.3-92.8-4.8c-22 .5-7.7-18.5-7.7-18.5s-14.2 3.5-15 16.4l-56.8 10.6s-40-22-41.6-39.3c0 0 1.7 31.9 23.1 40.8 0 0-15 .9-28.3 4.5s-28 13.9-47.8 7.7c0 0-21.1-29.5-22.7-47.7 0 0-11 38.1-1.4 54.9-.2 0-59.1-13.5-99.3 6.2z"/><path class="st3" d="M1862.1 1394.6l-98.2 25.8c20.2 1.3 37.6 2.6 37.6 2.6l3.9-9 26.5 4.7c1.2.1 13.6 2.9 14.7 3.2 26.5 6.5 48.2 22.2 55.4 31.8l-26.6-43.3c.1-.1-4.2-6.5-13.3-15.8z"/><path class="st1" d="M1577.3 1341.4c-117.2 33.6-166 112.5-166 112.5 40.2-19.7 99.1-6.2 99.1-6.2-9.6-16.9 1.4-54.9 1.4-54.9 1.6 18.1 22.7 47.7 22.7 47.7 19.8 6.2 34.5-4.1 47.8-7.7 13.4-3.6 28.3-4.5 28.3-4.5-21.4-8.9-23.1-40.8-23.1-40.8 1.6 17.3 41.6 39.3 41.6 39.3 66-61.7-40.1-82.1-51.8-85.4z"/><path class="st3" d="M1644.4 1328.6c-24.5 2.5-46.8 6.9-67.1 12.8 11.6 3.3 117.8 23.7 51.8 85.3l56.8-10.6c.7-12.9 15-16.4 15-16.4s-14.3 19 7.7 18.5c11.1-.3 34.7 1 55.3 2.2l98.2-25.8c-26.5-27-94.1-78.4-217.7-66z"/><path class="st7" d="M1411 1453.7c4-6.2 8.4-11.9 13.2-17.5 4.7-5.5 9.7-10.9 14.9-16.1 10.4-10.3 21.5-19.8 33.3-28.5 11.7-8.7 24.3-16.3 37.1-23.3 12.8-7.1 26.2-13 39.9-18.1l.2.6c-12.8 7.4-25.4 14.4-37.6 22.1-1.5.9-3.1 1.9-4.6 2.8l-4.5 2.9-4.5 2.9c-1.5 1-3 1.9-4.5 3-2.9 2.1-5.9 4-8.9 6l-8.7 6.3-2.2 1.5-2.1 1.6-4.3 3.2c-1.4 1.1-2.9 2.1-4.2 3.3-1.4 1.1-2.7 2.3-4.2 3.4l-4.2 3.3-4.1 3.5c-2.7 2.3-5.5 4.6-8.2 7-5.4 4.7-10.7 9.6-15.9 14.6-5.3 5-10.3 10.2-15.3 15.6l-.6-.1zm171.4-20.8c-4 1.1-7.8 2.7-11.6 4.2s-7.7 2.9-11.8 4c-4 1-8.2 1.7-12.3 1.6-4.2 0-8.3-.7-12.3-1.9h-.2l-.1-.1c-2.6-3.6-5-7.4-7.3-11.2-2.3-3.8-4.5-7.7-6.5-11.6-2-4-3.9-8-5.5-12.2-1.5-4.2-2.9-8.5-3.2-13h.5c1.4 4.3 3.2 8.2 5.3 12 1 1.9 2.1 3.8 3.2 5.7 1.1 1.9 2.2 3.8 3.4 5.6l3.5 5.5c1.2 1.8 2.4 3.7 3.6 5.5 2.3 3.7 4.8 7.3 7.2 10.8l-2.3-1.7 2.7.8c.9.3 1.8.4 2.7.6.9.2 1.8.3 2.7.4.5 0 .9.1 1.4.2l1.4.1c3.7.2 7.5-.2 11.3-.8 3.8-.7 7.8-1.6 11.8-2.7 4-.9 8.2-2 12.4-2.2v.4z"/><path class="st4" d="M1583.6 1283c10.8-.6 24.8 0 40.3 1.6 40 4.2 89.7 15.3 117.8 31 39 21.7 65.3 71.7 65.3 71.7l-29.6-9.5-11.3-22.1 2.3 18.7-56.5-18.4c-22.8-2.6-50.5-45.9-50.5-45.9-1.1 7.4 13.7 34.9 13.7 34.9l-80.4-13.3c-24.1-6.5-37-34.7-37-34.7-3.6 7.8 3.6 31.2 3.6 31.2-3.6-.4-7.2-.9-10.7-1.4-2.5-5.1-3.7-9.6-3.7-9.6-.8 3.1-.9 6.2-.7 8.8-54-10.3-93.1-43.1-93.1-43.1s91.9 2.3 130.5.1z"/><path class="st2" d="M2038.7 1320.5c-42.6 21.1-84.8 24.2-84.8 24.2 6.3-15.8-14.9-51.6-32.3-66.2-12.8-10.7-33.5-21.6-58.8-34-3.5-1.7-8.4-3.7-12.6-1.1-3.7 2.3-5.8 3.4-8.4 6.7 10.8 2 24.3 11.8 28.4 14.5 2.9 1.9 8.9 7.5 11.9 9.3 5.3 3.1 10.3 8.6 14.7 12.9 1.4 1.3 3.1 2.3 3.1 4.2-1.4.2-2.4-.4-3.7-1.2-10.1-5.7-48.2-33.8-52-36.7-9-6.8-24.5-1.1-32.5 1.9-10.6 4-22.7 10.1-30.9 17.3-5.2 4.5-9.5 7.9-13.7 12.2l25.7 2.1s31 1.3 39.5 3.1 22.9.9 45.8 14.1 43.5 22-15.7 5.3-71.3-13.6-105.4-13.6c-23.9 11.8-39.8 29.2-49.5 48.9 5.4-2 12.5-4.3 21.7-7.1 52-15.8 89.3-11.9 135-3.5 45.8 8.3 9.4 8.8-17 5.7-26.5-3.1-52 0-97.3 11.4-18.5 4.7-32.6 9.2-43.3 14.1-4.9 2.3-8.3 6.8-9.1 12-4.2 25.8-1.6 53.6 5.5 74.1.8-8.4 3.2-17.2 8.4-24.2 13.9-18.5 81.2-40.4 101.4-43.5 20.2-3.1 66.4-9.7-9.9 13.6-62.3 19-80.9 41.9-91.5 61.8-1.9 3.6-1.8 7.9.3 11.3 3.3 5.6 7 10.3 10.9 13.8 32.7 29.4 34.5 76.9 34.5 76.9 24.2-28.6 79-14.1 79-14.1 25.3 3.6 48.2 3.9 69.1 2 6.7-.6 12.8-4.4 15.9-10.3 3.2-6.1 5.8-13.6 7-22.9 4.5-35.2 8.5-63.7 11.2-106.8l2.7-13.6s4.5-13.2 6.7 0 1.3 24.6 1.8 45.7c.4 18.8 15.8 71.1-17.8 103.8 29.3-6.1 53.6-16.9 73.1-29.3 3.6-2.3 5.6-6.5 5-10.7-1.2-9.7-4.2-23.7-8.7-51.9-8.5-53.6-33.2-82.4-31.8-82.6 11.7-1.8 48 67.7 50.7 109.8.6 9.5.2 18.1-.8 25.5 27.9-21.1 42.2-52.4 47.1-68.5 1.6-5.3-.2-11-4.6-14.4-10.4-8.1-26.3-20.8-38-32.2 0 0-46.2-34.3 1.3-22.8 29.1 7 40.4 29.2 44.8 45.3.9-4.8 2.2-10 4.1-15.8 7.8-24.2 6.4-97.6-36.2-76.5z"/><path class="st2" d="M1757 1560.9c5.8-11.1 12-22 18.2-32.9 6.3-10.8 12.7-21.6 19.4-32.2 13.3-21.3 27.3-42.1 42.4-62.3 3.8-5 7.6-10 11.6-14.9 3.9-4.9 8-9.8 12.1-14.6 4.1-4.8 8.4-9.5 12.7-14.1 4.4-4.6 8.8-9.1 13.5-13.4 9.3-8.6 19.2-16.8 30.4-23.4 5.6-3.3 11.4-6.2 17.7-8.3 6.2-2.1 12.9-3.5 19.7-3.4 1.7 0 3 1.4 3 3s-1.4 3-3.1 2.9h-.1c-5.9-.2-11.9.9-17.7 2.7-5.8 1.9-11.4 4.5-16.8 7.5-10.8 6.2-20.6 13.9-30 22.2-4.7 4.2-9.2 8.5-13.6 13-4.4 4.4-8.7 9-12.9 13.7-4.2 4.7-8.3 9.4-12.3 14.2-4 4.8-8 9.7-11.8 14.6-15.5 19.7-29.8 40.3-43.6 61.3-6.8 10.5-13.5 21.1-20 31.8-6.4 10.8-12.8 21.6-18.8 32.6z"/><path class="st2" d="M1794.6 1495.8c13.3-21.3 27.3-42.1 42.4-62.3 3.8-5 7.6-10 11.6-14.9 3.9-4.9 8-9.8 12.1-14.6 4.1-4.8 8.4-9.5 12.7-14.1 4.4-4.6 8.8-9.1 13.5-13.4 9.3-8.6 19.2-16.8 30.4-23.4 5.6-3.3 11.4-6.2 17.7-8.3 6.2-2.1 12.9-3.5 19.7-3.4h.1c2.7-17-16.9-49.3-33.2-63-12.8-10.7-33.5-21.6-58.8-34-3.5-1.7-8.4-3.7-12.6-1.1-3.7 2.3-5.8 3.4-8.4 6.7 10.8 2 24.3 11.8 28.4 14.5 2.9 1.9 8.9 7.5 11.9 9.3 5.3 3.1 10.3 8.6 14.7 12.9 1.4 1.3 3.1 2.3 3.1 4.2-1.4.2-2.4-.4-3.7-1.2-10.1-5.7-48.2-33.8-52-36.7-9-6.8-24.5-1.1-32.5 1.9-10.6 4-22.7 10.1-30.9 17.3-5.2 4.5-9.5 7.9-13.7 12.2l25.7 2.1s31 1.3 39.5 3.1 22.9.9 45.8 14.1 43.5 22-15.7 5.3-71.3-13.6-105.4-13.6c-23.9 11.8-39.8 29.2-49.5 48.9 5.4-2 12.5-4.3 21.7-7.1 52-15.8 89.3-11.9 135-3.5 45.8 8.3 9.4 8.8-17 5.7-26.5-3.1-52 0-97.3 11.4-18.5 4.7-32.6 9.2-43.3 14.1-4.9 2.3-8.3 6.8-9.1 12-4.2 25.8-1.6 53.6 5.5 74.1.8-8.4 3.2-17.2 8.4-24.2 13.9-18.5 81.2-40.4 101.4-43.5 20.2-3.1 66.4-9.7-9.9 13.6-62.3 19-80.9 41.9-91.5 61.8-1.9 3.6-1.8 7.9.3 11.3 3.3 5.6 7 10.3 10.9 13.8 32.7 29.4 34.5 76.9 34.5 76.9 5.8-11.1 12-22 18.2-32.9 6.2-10.6 12.7-21.4 19.3-32z"/><path class="st2" d="M2038.7 1320.5c-35.1 17.4-69.8 22.5-81 23.8v.1c0 1.6-1.4 3-3.1 2.9h-.1c-5.9-.2-11.9.9-17.7 2.7-5.8 1.9-11.4 4.5-16.8 7.5-10.8 6.2-20.6 13.9-30 22.2-4.7 4.2-9.2 8.5-13.6 13-4.4 4.4-8.7 9-12.9 13.7-4.2 4.7-8.3 9.4-12.3 14.2-4 4.8-8 9.7-11.8 14.6-15.5 19.7-29.8 40.3-43.6 61.3-6.8 10.5-13.5 21.1-20 31.8s-12.8 21.5-18.9 32.5c24.2-28.6 79-14.1 79-14.1 25.3 3.6 48.2 3.9 69.1 2 6.7-.6 12.8-4.4 15.9-10.3 3.2-6.1 5.8-13.6 7-22.9 4.5-35.2 8.5-63.7 11.2-106.8l2.7-13.6s4.5-13.2 6.7 0 1.3 24.6 1.8 45.7c.4 18.8 15.8 71.1-17.8 103.8 29.3-6.1 53.6-16.9 73.1-29.3 3.6-2.3 5.6-6.5 5-10.7-1.2-9.7-4.2-23.7-8.7-51.9-8.5-53.6-33.2-82.4-31.8-82.6 11.7-1.8 48 67.7 50.7 109.8.6 9.5.2 18.1-.8 25.5 27.9-21.1 42.2-52.4 47.1-68.5 1.6-5.3-.2-11-4.6-14.4-10.4-8.1-26.3-20.8-38-32.2 0 0-46.2-34.3 1.3-22.8 29.1 7 40.4 29.2 44.8 45.3.9-4.8 2.2-10 4.1-15.8 8-24.2 6.6-97.6-36-76.5zm-280.5 238.2s65.3-130.5 147.4-197.7m-155.8-10.2c-18.5 4.7-32.6 9.2-43.3 14.1-4.9 2.3-8.3 6.8-9.1 12-4.2 25.8-1.6 53.6 5.5 74.1m54.1-155.5c-23.9 11.8-39.8 29.2-49.5 48.9m95.2 52.6c-62.3 19-80.9 41.9-91.5 61.8-1.9 3.6-1.8 7.9.3 11.3 3.3 5.6 7 10.3 10.9 13.8m219.2-183c-6-9.3-13.1-17.7-19.4-23-12.6-10.5-32.7-21.2-58.9-34.1-4.2-2-9-3.8-13.4-1l-1.4.9c-2.8 1.7-4.9 3-7.2 6l-.5.7c-9.5-3.4-22.5 1.5-29.2 4-12.6 4.8-23.9 11.1-31.2 17.4-1.4 1.3-2.8 2.4-4.1 3.6-3.4 2.9-6.5 5.6-9.6 8.7l-1.2 1.2 27.4 2.2c.3 0 31 1.3 39.3 3.1 1.8.4 3.8.6 6.1.9 8.5 1.1 21.4 2.7 39.4 13.1 3.3 1.9 6.5 3.7 9.4 5.3 5.8 3.2 10.8 6 12.6 7.6l.9.7.4-1c.4-1 10.4-24 38.6-13.9l.5.2 1.8-2-.3-.6zm-73.2-36.5c.6.4 1.1.7 1.5 1 1.3.8 3.1 2.4 5.1 4.1 2.5 2.1 5.1 4.2 6.8 5.2 4 2.4 7.9 6.2 11.6 9.8 1 1 2 2 3 2.9.3.3.6.5.9.8.8.7 1.5 1.3 1.8 2.1-.7-.1-1.3-.5-2.2-1l-.1-.1c-10.2-5.8-48.9-34.4-51.9-36.6-.8-.6-1.6-1.1-2.5-1.5 9.4 1.9 20.9 9.8 26 13.3z"/><path class="st2" d="M1902.1 1292.1l25.9 15.6s-6.7 3.5-8.4 2.8c-1.6-.8-17.5-18.4-17.5-18.4z"/><path class="st9" d="M1567.1 1276c-3.5-4.5-6.4-9.3-9-14.2-1.4-2.4-2.5-4.9-3.8-7.4-.6-1.2-1.1-2.5-1.7-3.8-.1-.1-.2-.4-.3-.7l-.3-.9c-.1-.6-.2-1.2-.2-1.9 0-1.3.3-2.5.9-3.6.6-1.1 1.4-2.1 2.4-2.8.5-.4 1-.7 1.6-.9l.9-.3.5-.2c1.3-.4 2.6-.8 4-1.1 2.7-.7 5.4-1.4 8.1-1.9 5.4-1.2 10.9-2.1 16.6-2.4l.1.4c-5.3 1.7-10.5 3.5-15.8 5.1l-7.9 2.5-4 1.3c-1.3.3-2.4 1.1-2.9 2.3-.6 1.1-.6 2.5-.1 3.7l1.6 3.8 3.2 7.7 3.2 7.7 3.1 7.7-.2-.1zm13.1-105.2c4.7-.6 9.3-.9 14-1 4.6-.1 9.3 0 13.9.4 2.3.1 4.6.4 6.9.7l3.4.5 1.7.3 1.7.3c4.5.8 9 2 13.4 3.3-4.5-1-9-1.9-13.5-2.3l-1.7-.2-1.7-.1-3.4-.2c-2.3-.1-4.6-.2-6.8-.2-4.6 0-9.1.2-13.6.6-4.5.4-9.1 1.1-13.4 2l-.9-4.1z"/><path class="st9" d="M1604.4 1198.2c-2.2-2-4.3-4.1-6.4-6.2l-6.2-6.1c-1-1-2.1-2-3.1-2.9-1-1-2.1-1.9-3.1-2.8-1-.9-2.1-1.7-3.2-2.4-1-.7-2.1-1.2-2.6-1.4l4.5-4c.6 3.8.7 7.4.8 11.1.1 1.8 0 3.7-.1 5.5 0 .9-.1 1.8-.1 2.8-.1.9-.1 1.8-.2 2.8-.2 1.8-.4 3.7-.7 5.5-.1.9-.3 1.8-.5 2.7l-.6 2.7c-.9 3.6-2.1 7.1-3.7 10.5l-.4-.1c.8-3.5 1.4-7 1.8-10.6.4-3.6.6-7.2.7-10.8.2-7.2-.2-14.4-1-21.5l-.1-.6.5.1c1.5.4 2.8 1.2 4 2.1 1.2.9 2.3 1.9 3.4 2.9 2.1 2 4.1 4.2 6 6.5 3.8 4.5 7.3 9.2 10.6 14.1l-.3.1z"/><path class="st5" d="M1453.1 1280.8c21.7.8 43.5 1.5 65.2 2 10.9.2 21.7.4 32.6.5 10.9.1 21.8.1 32.6-.4-10.9.8-21.7 1.1-32.6 1.4-10.9.3-21.8.4-32.6.5-21.8.2-43.5.2-65.3.1l.1-4.1z"/><path class="st1" d="M1603.4 706.7c-.2-9.2-3.7-16.3-10.5-21-4.1-2.9-8.3-4-9.8-4.4 1.9 14.3 12.9 22.9 20.3 25.4z"/><path class="st7" d="M1577.5 707.4c2.8-7.2 2.3-13.7-1.5-19.5-2.3-3.5-5.2-5.6-6.3-6.4-2.9 11.7 2.9 21.6 7.8 25.9z"/><path class="st3" d="M1820.8 731.2c-.5-1-.9-1.8-1.3-2.7-.4-.9-.9-1.7-1.3-2.6-.9-1.7-1.8-3.4-2.8-5-1.9-3.3-3.9-6.6-6-9.7-4.2-6.4-8.9-12.5-13.9-18.3-10.1-11.5-22.1-21.9-36.3-28.9-7.1-3.5-14.7-6.1-22.5-7.4-7.8-1.4-15.9-1.5-23.7-.5l-2.9.4c-1 .1-2 .3-2.9.5-1.9.4-3.8.8-5.6 1.2l-1.9.5c-27.8 6.3-45.3 18.3-61 29-19.1 13-34.2 23.3-61 17.6-6-1-11.9-2.6-16.6-5.7-2.3-1.6-4.1-3.6-5.2-6-1.1-2.4-1.3-5.3-.8-8.1.4-2.9 1.5-5.7 2.8-8.4 1.3-2.7 2.9-5.4 4.7-7.9 3.6-5.1 5.6-9.9 10.2-14.2-5 3.9-7.5 8.3-11.6 13.1-2.1 2.4-4 5-5.7 7.8-1.7 2.8-3.1 5.7-4 9-.8 3.2-1 6.9.1 10.3 1.1 3.5 3.4 6.5 6.1 8.7 5.5 4.4 12 6.8 18.4 8.4.1 0 .2.1.3.1 29.7 6.1 46.6-5.4 66.3-18.8 14.6-10 30.9-21.1 55.9-27.2l4.5-1 5.4-.9c.9-.2 1.8-.3 2.7-.4l2.7-.3c7.1-.7 14.2-.3 21.2 1.1 6.9 1.4 13.6 4 19.8 7.3 12.5 6.7 23.2 16.6 32.2 27.6 4.5 5.6 8.6 11.4 12.4 17.5 1.9 3.1 3.7 6.2 5.3 9.3.8 1.6 1.7 3.2 2.4 4.8.4.8.8 1.6 1.1 2.4.4.8.7 1.6 1 2.3v.1c0 .1 0 .1.1.2 1.4 3.1 5.1 4.4 8.2 3 3.2-1.5 4.6-5.1 3.2-8.2z"/><path class="st7" d="M1593.2 710.5c-4.6.8-19.9-.6-26 23 3.8-1 16.3-1.5 25.7-21.1l.3-1.9z"/><path class="st5" d="M1572.4 709.3c-3.8-.6-15.2-5.9-26.6 10.7 3.2.3 13 3.3 25.8-9.3l.8-1.4z"/><path class="st9" d="M1558.6 703.7c-2-3.2-5.2-15.2-25.5-13 1.9 2.6 5.8 11.9 23.9 13.3l1.6-.3zm-7.5-19.4c0-2.9 2.6-12.1-11.9-18.4.2 2.5-.8 10.2 10.7 18l1.2.4z"/><path class="st5" d="M1556.9 671.7c5.4-10.7 1.3-16.1.4-18.1-8.3 10.6-2.3 16.6-1.1 18.8l.7-.7z"/><path class="st2" d="M1620.1 707.7c-4.7 2.5-24.8 14.2-24.8 35.3 4.5-2.3 24.1-13.4 24.8-35.3z"/><path class="st3" d="M1643.7 691.3c-3.9 3.6-20.1 20.1-14.3 40.5 3.8-3.4 19.7-19.2 14.3-40.5zm-17.1 4.7c-2.1-9.5-7.2-16.2-15.2-19.8-4.9-2.2-9.4-2.5-11.1-2.6 5 14.4 18.1 21.2 26.3 22.4zm25.9-16.2c-5.2-9.2-12.6-14.6-22-15.9-5.7-.8-10.6.2-12.4.7 9.7 13.4 25.5 16.4 34.4 15.2zm24.1-12.4c-6.4-10.7-14.7-17.1-24.7-19-6.1-1.1-11-.2-12.8.3 11.7 15.7 28.4 19.8 37.5 18.7zm26.9-8.8c-6.4-10.7-14.7-17.1-24.7-19-6.1-1.1-11-.2-12.8.3 11.7 15.7 28.4 19.8 37.5 18.7zm27.9-2.7c-4.3-12.7-11.5-21.2-21.5-25.3-6.1-2.5-11.5-2.6-13.5-2.5 8.6 19 25.2 26.9 35 27.8z"/><path class="st4" d="M1620.1 707.7c-4.7 2.5-24.8 14.2-24.8 35.3 4.5-2.3 24.1-13.4 24.8-35.3z"/><path class="st3" d="M1689.5 667.4c-3.9 3.6-20.1 20.1-14.3 40.5 3.7-3.3 19.6-19.1 14.3-40.5zm24.9-7c-4 3.5-20.7 19.5-15.6 39.8 3.9-3.2 20.3-18.5 15.6-39.8zm-52.7 17.1c-3 4.3-15.2 23.9-5.1 42.6 2.9-4.1 15-22.9 5.1-42.6z"/><path class="st5" d="M1556.8 696.7c6-4.1 9.2-9.4 9.5-15.7.1-3.9-.9-7-1.3-8.2-8.7 7.4-9.6 18.1-8.2 23.9z"/><path class="st2" d="M1752.8 671.2s29.8 6.1-4.2-12.2 60.9 27.1 60.9 27.1 25.6 48.1 23.5 48.8-13.1 12.9-15.9 12.9c-2.8 0-31.1-23.7-31.1-23.7l-33.2-52.9z"/><path class="st5" d="M352.2 1046.7c3.9-6 8.2-11.8 12.8-17.3 2.3-2.8 4.7-5.5 7.2-8.1 2.5-2.6 5-5.2 7.7-7.6 5.4-4.8 11.2-9.3 17.8-12.5 3.3-1.6 6.9-2.9 10.7-3.3 3.8-.5 7.8 0 11.3 1.7l-.6-.1c1.4.1 2.6.3 3.9.6 1.3.3 2.5.6 3.8 1.1 1.2.4 2.4 1 3.6 1.7 1.2.7 2.2 1.5 3.2 2.5H432c.5-.4.8-.5 1.2-.7.4-.2.8-.4 1.2-.5.8-.3 1.6-.4 2.4-.6.8-.1 1.6-.2 2.4-.2h2.4c3.1.2 6.1.8 9.1 1.7 1.5.5 2.9 1 4.3 1.5l4.2 1.8c1.3.7 2.7 1.3 4 2.1l3.9 2.3-4.1-1.8c-1.4-.6-2.8-1.1-4.2-1.7-1.4-.6-2.8-1-4.2-1.5-1.4-.4-2.9-.8-4.3-1.2-2.9-.7-5.8-1.1-8.7-1.2h-1.1l-1.1.1c-.7 0-1.4.2-2.1.3-.7.2-1.4.3-2 .6-.3.1-.6.3-.9.4-.3.1-.6.3-.7.4l-.8.7-.8-.7c-1.7-1.5-3.8-2.6-6-3.4-1.1-.4-2.3-.7-3.4-.9-1.2-.2-2.4-.4-3.5-.4h-.3l-.3-.1c-3-1.4-6.4-1.8-9.7-1.3-3.3.4-6.6 1.6-9.7 3.1-3.1 1.5-6.1 3.3-9 5.3-2.9 2-5.7 4.2-8.4 6.5-5.4 4.6-10.5 9.6-15.3 14.8-5.1 5-9.8 10.4-14.3 15.9z"/></g></svg>