<svg version="1.1" id="Ebene_1" xmlns="http://www.w3.org/2000/svg" xmlns:xlink="http://www.w3.org/1999/xlink" x="0" y="0" viewBox="0 0 1920 1680" xml:space="preserve"><style>.st0{clip-path:url(#SVGID_2_);fill:#0a223e}.st1{fill:#0a2e4b}.st1,.st2{clip-path:url(#SVGID_2_)}.st3{fill:#0a223e}.st4{fill:#0982b2}.st5{fill:#0a3d5d}.st6{fill:#0a4c6f}.st8{fill:#0a2e4b}</style><defs><path id="SVGID_1_" d="M0 0h1920v1680H0z"/></defs><clipPath id="SVGID_2_"><use xlink:href="#SVGID_1_" overflow="visible"/></clipPath><path class="st0" d="M1914.8 2459.6l-1927.5-10.4v-1482c-34.5-52.8-27.7-99.6-27.7-99.6 133.5-27.5 508.9.7 768.5-27l520-2c33-24 99.3-39.1 120.4-39.9 144.3-5.4 58.6 16.7 122 16.7 107.7 0 154.6 24.5 426 20.1 59.9-.9-1.7 1624.1-1.7 1624.1z"/><path class="st1" d="M1235.2 1066.6c4 1.1 40.3 16.4 93.8 43.2l-11.6-41.8c-46-18.3-84.3-32.6-98.6-38.4-34.4-14-1.6-15 56.4-5s18.8-6.4 18.8-6.4c-139.2-44.4-309.7-66.6-383.7-65.6s-202 28-245.9 42c-43.9 14-71.1 24-59.1 11.3s49-31.3 26.2-25.3-63.3 18.9-245.2 102c-175 79.9-376.9 214.2-401.9 230.6l-11 113c35.9 6.5-4.2 105-8.7 115.7 12.3-24.3 232.6-183.4 247.9-196.7 59.8-52 116.9-85.3 178.1-135.1 23.4-19 60.8-44 87.2-58.3 30.7-16.5 61.1-35.5 92.8-49.6 47-21 96.4-37.8 145.4-53.5 28.1-9 58.4-16.4 87.9-18.2 5.3-.3 12.9-1.1 16.3 3.1-5.3 6.7-16.2 6.9-20 15.9 15.8 3.5 37.2-1.7 53.4-2.9 14.1-1 28.4-1.6 42.4-2.9 34-3.1 66-3.1 100.1-3.1 44.2 0 138.8 15 188 30 9.3 2.8 18.9 7.1 28.8 5.8-3.7-14.2-28.8-13.5-38-21.8 12-10 47.1 8.4 60.2 12zm-664.1 25.7c-.4.2-.8.4-1.1.5l-.3.1-8.8 3.5-8.8 3.6c-5.9 2.4-11.8 4.9-17.6 7.4-11.7 5-23.5 10-35.1 15.2-23.4 10.4-46.6 21-69.7 32.1-23.1 11.1-46 22.4-68.8 34.2-22.8 11.7-45.3 23.9-67.8 36.3 21.3-14.4 42.6-28.6 64.3-42.3 21.6-13.8 43.6-27.3 65.7-40.4 22.1-13.2 44.4-26 66.9-38.5 11.2-6.3 22.6-12.4 33.9-18.5 5.7-3 11.4-6.1 17.1-9l8.6-4.5 8.7-4.4c6.9-3.5 15.3-.7 18.8 6.2 3.7 6.5.9 15-6 18.5zm197.2-69c-11.8 3.2-23.3 5.8-35.2 7.7-7.5 1.2-23.5 9-31 4 12.9-6.3 26.6-12.9 40.2-18 9.5-3.5 33.8-13 42.8-5.7 9.5 7.7-9.7 10.1-16.8 12zm340.3 10.5c-74.4-20-137.5-16.7-137.5-16.7-76.5 1.3 33.5-18.3 134.5 3.3 24.7 5.3 77.4 33.4 3 13.4zm-701 190.1c7.8-5.1 18.4-14 27.9-13.8-9.4 14.3-22.7 23-35.8 34.2-26.6 22.6-179.6 163.5-241.6 230.8-135.2 146.8-169.3 206.5-174 212v-120c-.1.9 44.7-40.3 48.2-43.8 25.1-24.8 52.6-45.6 79.5-68.5 20.2-17.1 42.1-36.5 64-51.9 2-1.4 6.5-4.5 7.4-5.3 48.2-38.9 98.6-76.9 145.8-117.2 24.7-21.1 51.5-38.7 78.6-56.5zm-443.5 319c.1-.3.2-.6.4-1-.2.6-.4 1-.4 1zm1809.6-162.4c-5.7-4.7-13.3-12.6-20.8-13.3 6.2 12 15.9 20 25.2 29.9 16.7 17.7 102.5 115.9 152.1 179l-.9 32.4-193.2-220.9c-113.2-114.5-273.5-208.9-382.1-265l-1.4-40.3c56.8 23.5 118.4 51.2 158.5 76.3 83 52-34-34-44-37s-39-35 53 16c72.7 40.3 129.6 72.7 154.3 86.7 6.7 3.8 67.9 44.6 74.3 49l149.5 103.5 36 55.1-2.7 100.8c-33.4-33.5-68.4-66.6-100.8-101.1-17.7-18.6-37.3-34.7-57-51.1z"/><g class="st2"><path class="st3" d="M111.1 1019.3s44.2-37 68.9-40l-10.9-32.6 17.4 21.8s-11.5-35.4-13.9-44.6c0 0 24.3 31.1 38.2 48.6 0 0-22.2-42.2-16-47.5s12.4 32 27.4 43.2l10.7-5.1s-12.5-16.1-22.4-24.8c-9.9-8.7-20.8-27.9-1.5-13.2 0 0 11.1 13.7 17.3 22.3 0 0 1.3-10.4 4.6-15.8 0 0 8.6 6 12.2 21.5 0 0 4.6-16.5 3.6-25.6 0 0 11.6 19.4 11.5 35.4 0 0 16.8-64.1 27.5-71.3 10.8-7.2-13 48.2-17.4 62 0 0 23.4-21.9 33.9-24.2s-.9 16-10.3 26c0 0 19.4-16.5 34.3-17.2 0 0 1.3-23.7 18.7-30.5 0 0-2 24.3-7.8 35.2 0 0 23.3 8.8 39.3 42.3 0 0 10-20.5 23.3-20.5 0 0-7.8 7.3-2.2 13.9 0 0 9.1-4.5 15.6-.7s32.6.8 32.6.8 108.1 27.7 56 34.7c-36.1 4.9-70.8 21.1-110.8 26.5-31.7 4.3 11.6-40.5-105.6 14.2l-145.2-32.5-29-2.3z"/><path class="st3" d="M367.1 994.5s25.7-78.3 43.3-88c17.6-9.6-44.7 80.9-47.8 110.8l4.5-22.8zm-52.4-38.8s-13.3-28.5-1.5-26.6c11.8 2 10.3 15.1 9.7 27-.1 0-.3 25.8-8.2-.4z"/><path class="st3" d="M363 977s20.2-54.5 18.6-78.1l-16.2 36.8s9.5-76.4-8.5-101.4c0 0 2.5 19.4 1.3 46.2-.6 13.8-3.4 26.7-4.1 29.3-2.7 10.5-4.3 22.8-10.8 42.3l-5.6 17.2-11-3.6-3.4 6.4 56.2 14.2s-10.3-12.8.9-15c-.1 0-15.1 1.1-17.4 5.7z"/></g><path class="st1" d="M1098 962.3c.6-.4 1.1-.8 1.7-1.3l1.4 1.6c17.1 1.7 31.2 3 39.7 3.5-.2-2.1-.4-3.9-.7-5.1 0 0 13.7 2.7 22.3-4.8.4-.3.3-.9-.1-1.2-2.6-1.8-11.9-7.2-22.5-3.3l9.7-10s-12.8-3.2-23.9 4.7c0 0 32.4-39 16.3-35.1-14.1 3.5-24.8 25.5-24.8 25.5s-6.7-.5-11.8 3.6c0 0 3.8-10.4-1.1-21.2 0 0 1.9 17.4-4.8 22.5 0 0-1.7-6.4-5.8-7.9-3.5-1.3-3.7 3.5-.9 7.9-13.2-1.6-21.3 7.6-21.3 7.6s10.6-14.2 23.3-33.1c12.7-18.9 11.4-30.8-5.9-15.7-15.9 13.8-34.7 50.9-37.6 56.7 16.4 1.8 32.5 3.6 46.8 5.1zm-48.9-20c1.8-30.7-7.5-53.6-7.5-53.6-5.1 14.2-2.4 46-2.4 46l-2.7-12.9c-3.5-21.2-9.8 4.4-12.5 17.6 8.2 1 16.7 1.9 25.1 2.9z"/><g class="st2"><path class="st4" d="M1258.8 1061.3c3.1-8.5 6.9-16.4 11.1-24.2 4.2-7.8 8.7-15.4 13.6-22.7 5-7.3 10.1-14.5 15.8-21.2 2.7-3.5 5.7-6.7 8.6-10 1.4-1.7 3-3.2 4.5-4.8l4.6-4.8-4.4 4.9c-1.4 1.7-3 3.3-4.3 5-2.8 3.4-5.6 6.8-8.2 10.3-5.4 6.9-10.2 14.3-14.8 21.7-4.6 7.4-8.8 15.2-12.6 23-3.8 7.8-7.3 15.9-9.9 24.1l-4-1.3z"/><path class="st5" d="M1315 977.8s8.6-1.5 19.8.7c11.2 2.2 13.3-8.3 6-9.6 0 0-21.9-7.7-25.8 8.9z"/><path class="st4" d="M1291.2 1003.5s11.1 7 12.6 18.4c1.5 11.4-13 7.1-14.7-.9-1.5-6.4 2.1-17.5 2.1-17.5zm5.9-7.4s-10.8-7.4-21.8-4.2c-11 3.1-1.3 14.7 6.6 13.1 6.4-1.3 15.2-8.9 15.2-8.9z"/><path class="st6" d="M1301.9 991.4s2-20.8-1.5-26.3-15.1-10.9-10.8 10.1c3.3 16.7 12.3 16.2 12.3 16.2z"/><path class="st6" d="M1300.4 992.3s24.5 9.1 33.1 4.6c0 0 5.5-4.7 8.6-4.1 0 0-7.1-11.5-24.9-8.2 0 .1-11.4 2-16.8 7.7z"/><path class="st5" d="M1314.4 974s2.8-6.5 4.5-13.4c1.8-7.1-12.1-23-8.1 4.7.7 4.7 3.6 8.7 3.6 8.7z"/><path class="st4" d="M1300.4 992.3s24.5 9.1 33.1 4.6c0 0 5.5-4.7 8.6-4.1"/><path class="st3" d="M1258.8 1061.3l-48.6 19.2c-3.1 1.2-7 2.7-9.5 4.9-5 4.4-4.8 8.6 49.7-16.8 6.3-2.9 12.3-6.1 12.3-6.1l-3.9-1.2"/></g><g class="st2"><path class="st5" d="M1096.5 1111.4c.5 2.2 1.1 4.2 1.7 5.8l-1.7-5.8z"/><path class="st5" d="M1104.2 997.5c-5.6 5.9-9.2 33.5-11.2 52.6 0-27.6.2-50.7-4.7-43-9.5 14.9 3.8 89.6 3.8 89.6l4.4 14.8c-2.4-10.6-3.2-27.1-3.4-43.9 4.5-30.8 18-77.5 11.1-70.1z"/></g><g class="st2"><path class="st5" d="M1209.1 1083.1s14-25.5 14.9-37.3l-10.7 17s10.3-37.1 3.2-50.8c0 0-.2 9.8-2.7 23-1.3 6.8-3.6 12.9-4.1 14.2-2.1 5-3.8 11-8.4 20.1l-4 8.1-5.2-2.6-2.1 2.9 12 2.9s10.7 1.1 16.3.8c-.2.2-7.8-.4-9.2 1.7z"/><path class="st4" d="M1216.5 1009.5c1.1 3.9 1.7 7.8 2.2 11.8.4 4 .5 8 .3 12 0 2-.3 4-.4 6-.3 2-.5 4-1.1 5.9-.3 1-.5 2-.8 2.9-.3 1-.7 1.9-1 2.8-.2.5-.3.9-.5 1.4l-.7 1.4c-.5.9-.9 1.8-1.4 2.7l-.2-.1c.9-3.9 2-7.7 2.7-11.6.2-1 .4-1.9.5-2.9l.5-2.9c.3-1.9.6-3.9.8-5.9.4-3.9.5-7.9.3-11.8-.2-4-.6-7.9-1.4-11.8l.2.1zm9.7 20.8c.4 2.7.4 5.4.2 8.1-.2 2.7-.6 5.4-1.3 8.1-.3 1.3-.7 2.6-1.1 4-.5 1.3-1 2.6-1.7 3.8-1.3 2.4-3 4.6-5 6.5l-.2-.1c1.1-2.5 2.4-4.8 3.4-7.2 1-2.4 2.2-4.8 3-7.3.8-2.5 1.5-5.1 1.8-7.7.4-2.6.7-5.3.6-8l.3-.2z"/></g><path class="st0" d="M1090.5 1094.1s-13.3-16.9-35.9-5.6c0 0-4.8 1.6-10.5 2.4 0 0 23 27 44.4 30.2l72.6 2.4s2.8-90.7-10.1-12.1c0 0-10.1-76.6-18.5-36.7l-4.8 18.6s6-46.1-.4-67c0 0-15.3 33.1-14.5 78.2 0 0-20.6-47.6-38.7-64.9-18.1-17.3-20.2-4.4-7.3 16.9 12.8 21.5 23.7 37.6 23.7 37.6z"/><path d="M1089.9 1005.7c.8 1.9 1.3 3.7 1.7 5.6.4 1.9.7 3.8.9 5.6.2 1.9.2 3.8.1 5.7-.1 1.9-.3 3.8-.4 5.7l-.3 5.7-.4 5.7c-.3 3.8-.6 7.5-1.1 11.3 0 .1-.1.2-.3.2-.1 0-.2-.1-.2-.2-.3-3.8-.5-7.5-.9-11.3l-.9-11.3c-.1-1.9-.4-3.8-.6-5.6-.2-1.9-.3-3.8-.2-5.6.1-1.9.3-3.8.6-5.7.3-1.9.7-3.8 1.3-5.7 0-.1.2-.2.3-.2.3-.1.4 0 .4.1zm15.8-7.5c-.2 3.8-.7 7.5-1.4 11.2-.6 3.7-1.8 7.2-2.7 10.9-.9 3.6-1.7 7.3-2.4 10.9-.8 3.7-1.4 7.3-1.8 11.1 0 .1-.1.1-.2.1s-.1-.1-.1-.1c-.1-3.8.2-7.5.6-11.3.4-3.7 1-7.5 1.6-11.2.6-3.7 1.1-7.5 2.1-11.1.5-1.8 1.1-3.6 1.8-5.4.7-1.8 1.4-3.5 2.3-5.2 0-.1.1-.1.2-.1-.1.1 0 .1 0 .2z" clip-path="url(#SVGID_2_)" fill="#0982b2"/><path class="st0" d="M1166.9 1134.8c-2.9-5.4-.3-30.2 2.1-37.4 0 0-11.7 4.8-18-.5-.3-.2-.2-.7.2-1.1 2.4-2.1 10.7-8.6 19.1-6.8l-6.9-7.4s15.4-11.5 23.7-6.3c0 0-26.7-23.2-13.8-22.4 11.3.7 17.7 18.7 17.7 18.7s5.6-1.6 9.4 1.2c0 0-1.9-8.8 3.4-19.3 0 0-3.6 16 1.4 19.5 0 0 2.1-6 5.7-8.1s2.4 4.3-1.9 9.3l19.2.8-61.3 59.8z"/><g class="st2"><path class="st8" d="M682.1 1002.1s27.4-22.9 42.7-24.8l-6.7-20.2 10.8 13.5s-7.1-22-8.6-27.7c0 0 15.1 19.3 23.7 30.1 0 0-13.8-26.2-9.9-29.5 3.9-3.3 7.7 19.8 17 26.8l6.6-3.1s-7.7-10-13.9-15.4-12.9-17.3-.9-8.2c0 0 6.9 8.5 10.8 13.8 0 0 .8-6.5 2.8-9.8 0 0 5.3 3.7 7.6 13.3 0 0 2.8-10.3 2.2-15.9 0 0 7.2 12 7.1 22 0 0 10.4-39.8 17.1-44.2s-8 29.9-10.8 38.4c0 0 14.5-13.6 21-15 6.5-1.4-.5 9.9-6.4 16.1 0 0 12-10.3 21.3-10.7 0 0 .8-14.7 11.6-18.9 0 0-1.3 15.1-4.8 21.8 0 0 14.4 5.4 24.4 26.3 0 0 6.2-12.7 14.5-12.7 0 0-4.8 4.5-1.4 8.6 0 0 5.7-2.8 9.7-.4s20.2.5 20.2.5 67 17.2 34.7 21.6c-22.4 3-43.9 13.1-68.7 16.5-19.6 2.7 1.2-48.7-71.4-14.8l-84.1 3.4-18.2-1.4z"/><path class="st8" d="M840.9 986.6s15.9-48.6 26.8-54.6-27.8 50.2-29.7 68.7l2.9-14.1zm-32.5-24s-8.3-17.7-1-16.5c7.3 1.2 6.4 9.4 6 16.7 0 0-.1 16-5-.2z"/><path class="st8" d="M838.3 975.8s12.5-33.8 11.6-48.5l-10 22.8s5.9-47.4-5.3-62.9c0 0 1.5 12 .8 28.7-.4 8.5-2.1 16.5-2.5 18.2-1.7 6.5-2.7 14.2-6.7 26.2l-3.5 10.7-6.8-2.2-2.1 4 34.9 8.8s-6.4-7.9.6-9.3c-.2 0-9.5.6-11 3.5z"/></g><g class="st2"><path class="st3" d="M346.1 969.4s31.4-48.3 54.1-58.5l-20-28 23 15.7s-21.4-30.5-26.4-38.6c0 0 32.4 22.6 50.8 35.2 0 0-33.6-33.8-29.2-40.7s21.2 26.9 38.8 33.2l8.7-8s-16.7-11.7-28.7-17.1-28-20.6-5.3-12.2c0 0 14.7 9.8 23.1 16.2 0 0-1.8-10.3-.3-16.5 0 0 10 3.2 18 17 0 0-.5-17.1-4.1-25.6 0 0 16.8 15.1 21.4 30.5 0 0-2.8-66.2 5.4-76.2s1.8 49.9 1.6 64.3c0 0 16-27.8 25.3-33.1s3.9 15.6-2.2 27.9c0 0 13.7-21.5 27.7-26.5 0 0-5.7-23 8.9-34.7 0 0 5.2 23.9 2.9 36 0 0 24.8 1.6 50 28.9 0 0 3.5-22.5 16.3-26.5 0 0-5.3 9.3 1.9 13.9 0 0 7.4-6.9 14.7-5.2 7.3 1.7 31.4-8.8 31.4-8.8s75.3 9.7 74.3 31.6C726.3 903.7 656 890 619.4 907c-29 13.4-.8-42.1-96.8 44.5l-148.3 11.6-28.2 6.3z"/><path class="st3" d="M583.5 870.5s1.6-82.4 15.5-96.8c14-14.4-19 90.5-13.2 119.9l-2.3-23.1zM522 848.8s-21.1-23.4-9.3-25c11.8-1.6 14.3 11.4 17.2 22.9 0 .1 7.4 24.8-7.9 2.1z"/><path class="st3" d="M574.4 855s3.3-58-5.1-80.1l-4.7 39.9s-.6-56.1-25.2-74.7c0 0-4.6-1.9 2.1 24.1 3.5 13.4 4.6 26.5 4.7 29.2.5 10.8 2.6 23.1 2 43.6l-.2 18-11.6-.2-1.3 7.1L593 859s-13.6-9.2-3.6-14.6c-.1 0-14.1 5.5-15 10.6z"/></g><g class="st2"><path class="st5" d="M1033.3 1043.4c-1.2-9.7-3.4-19-5.9-28.3-2.5-9.3-5.4-18.4-8.9-27.4-3.5-8.9-7.2-17.8-11.5-26.3-2-4.3-4.4-8.5-6.7-12.7-1.1-2.1-2.4-4.1-3.6-6.2l-3.7-6.1 3.4 6.3c1.1 2.1 2.3 4.2 3.3 6.3 2.1 4.3 4.3 8.5 6.2 12.9 4 8.7 7.3 17.6 10.4 26.6 3.1 9 5.6 18.2 7.8 27.4 2.1 9.2 3.8 18.7 4.7 27.9l4.5-.4z"/><path class="st8" d="M994.1 941.4s-8.8-3.7-21.1-4.1c-12.4-.4-12-12-4-11.6 0 0 25-2.8 25.1 15.7z"/><path class="st5" d="M1013 974.4s-13.4 4.7-17.8 16.4 12 10.6 15.8 2.6c3.1-6.4 2-19 2-19zm-4.4-9.3s13.2-5.2 24.1.8c10.9 6-2.2 15.9-10.2 12.3-6.5-2.9-13.9-13.1-13.9-13.1zm-3.9-6.1s3-22.5 8-27.5 18.6-7.9 9 13.3c-7.6 16.9-17 14.2-17 14.2z"/><path class="st5" d="M1006 960.3s-28.1 3.7-36.1-3.2c0 0-4.6-6.3-8.1-6.4 0 0 10.3-10.4 28.4-2.6-.1 0 11.4 4.8 15.8 12.2z"/><path class="st8" d="M995.6 937.5s-1.4-7.5-1.5-15.3c-.2-7.9 18.4-21.4 7.4 7-1.9 4.8-5.9 8.3-5.9 8.3z"/><path class="st5" d="M1034.9 976.9c0 8-2.3 12.3-2.3 12.3 7.5 10.6 16.6 7.6 15.7 2-.9-5.6-12.5-14.3-12.5-14.3"/><path class="st5" d="M1036.3 977.2c-1.6 1.7-2.7 3.9-3.7 6-.5 1.1-.9 2.2-1.3 3.3-.4 1.1-.7 2.3-1 3.4-1.2 4.6-2 9.3-2.4 14-.2 2.4-.3 4.7-.5 7.1 0 2.4-.1 4.8-.1 7.1.1 2.4.1 4.8.2 7.1l.4 7.1 4.4-.5-1-6.9c-.3-2.3-.5-4.6-.7-7-.2-2.3-.3-4.7-.5-7 0-2.3-.1-4.7-.1-7 .1-4.7.4-9.3 1.3-13.9.2-1.2.4-2.3.7-3.4.3-1.1.6-2.2 1-3.4.9-1.9 1.8-4.2 3.3-6z"/></g></svg>