<svg width="208" height="32" viewBox="0 0 208 32" fill="none" xmlns="http://www.w3.org/2000/svg">
<path d="M0.181818 24.6023V7.14775H5.02273V24.6023H0.181818ZM2.61364 4.89775C1.89394 4.89775 1.27652 4.65911 0.761364 4.18184C0.253788 3.69699 0 3.11745 0 2.4432C0 1.77654 0.253788 1.20457 0.761364 0.727295C1.27652 0.242446 1.89394 2.09808e-05 2.61364 2.09808e-05C3.33333 2.09808e-05 3.94697 0.242446 4.45455 0.727295C4.9697 1.20457 5.22727 1.77654 5.22727 2.4432C5.22727 3.11745 4.9697 3.69699 4.45455 4.18184C3.94697 4.65911 3.33333 4.89775 2.61364 4.89775ZM29.5256 9.47729H24.5483C24.4574 8.83335 24.2718 8.26138 23.9915 7.76138C23.7112 7.25381 23.3513 6.82199 22.9119 6.46593C22.4725 6.10987 21.965 5.83714 21.3892 5.64775C20.821 5.45836 20.2036 5.36366 19.5369 5.36366C18.3324 5.36366 17.2831 5.6629 16.3892 6.26138C15.4953 6.85229 14.8021 7.71593 14.3097 8.85229C13.8172 9.98108 13.571 11.3523 13.571 12.9659C13.571 14.625 13.8172 16.019 14.3097 17.1477C14.8097 18.2765 15.5066 19.1288 16.4006 19.7046C17.2945 20.2803 18.3286 20.5682 19.5028 20.5682C20.1619 20.5682 20.7718 20.4811 21.3324 20.3068C21.9006 20.1326 22.4044 19.8788 22.8438 19.5455C23.2831 19.2046 23.6468 18.7917 23.9347 18.3068C24.2301 17.822 24.4347 17.269 24.5483 16.6477L29.5256 16.6705C29.3968 17.7387 29.0748 18.769 28.5597 19.7614C28.0521 20.7462 27.3665 21.6288 26.5028 22.4091C25.6468 23.1818 24.6241 23.7955 23.4347 24.25C22.2528 24.697 20.9157 24.9205 19.4233 24.9205C17.3475 24.9205 15.4915 24.4508 13.8551 23.5114C12.2263 22.572 10.9384 21.2121 9.99148 19.4318C9.05208 17.6515 8.58239 15.4962 8.58239 12.9659C8.58239 10.4281 9.05966 8.26896 10.0142 6.48866C10.9688 4.70835 12.2642 3.35229 13.9006 2.42048C15.5369 1.48108 17.3778 1.01138 19.4233 1.01138C20.7718 1.01138 22.0218 1.20078 23.1733 1.57957C24.3324 1.95835 25.3589 2.51138 26.2528 3.23866C27.1468 3.95835 27.8741 4.84093 28.4347 5.88638C29.0028 6.93184 29.3665 8.12881 29.5256 9.47729ZM40.8494 24.9432C39.0843 24.9432 37.5578 24.5682 36.2699 23.8182C34.9896 23.0606 34.0009 22.0076 33.304 20.6591C32.607 19.3031 32.2585 17.7311 32.2585 15.9432C32.2585 14.1402 32.607 12.5644 33.304 11.2159C34.0009 9.85987 34.9896 8.80684 36.2699 8.05684C37.5578 7.29926 39.0843 6.92048 40.8494 6.92048C42.6146 6.92048 44.1373 7.29926 45.4176 8.05684C46.7055 8.80684 47.6979 9.85987 48.3949 11.2159C49.0919 12.5644 49.4403 14.1402 49.4403 15.9432C49.4403 17.7311 49.0919 19.3031 48.3949 20.6591C47.6979 22.0076 46.7055 23.0606 45.4176 23.8182C44.1373 24.5682 42.6146 24.9432 40.8494 24.9432ZM40.8722 21.1932C41.6752 21.1932 42.3456 20.9659 42.8835 20.5114C43.4214 20.0493 43.8267 19.4205 44.0994 18.625C44.3797 17.8296 44.5199 16.9243 44.5199 15.9091C44.5199 14.894 44.3797 13.9887 44.0994 13.1932C43.8267 12.3977 43.4214 11.769 42.8835 11.3068C42.3456 10.8447 41.6752 10.6137 40.8722 10.6137C40.0616 10.6137 39.3797 10.8447 38.8267 11.3068C38.2813 11.769 37.8684 12.3977 37.5881 13.1932C37.3153 13.9887 37.179 14.894 37.179 15.9091C37.179 16.9243 37.3153 17.8296 37.5881 18.625C37.8684 19.4205 38.2813 20.0493 38.8267 20.5114C39.3797 20.9659 40.0616 21.1932 40.8722 21.1932ZM52.5881 24.6023V7.14775H57.2017V10.2273H57.4062C57.7699 9.20457 58.3759 8.39775 59.2244 7.80684C60.0729 7.21593 61.0881 6.92048 62.2699 6.92048C63.4669 6.92048 64.4858 7.21972 65.3267 7.8182C66.1676 8.40911 66.7282 9.21214 67.0085 10.2273H67.1903C67.5464 9.22729 68.1903 8.42805 69.1222 7.82957C70.0616 7.22351 71.1714 6.92048 72.4517 6.92048C74.0805 6.92048 75.4025 7.43942 76.4176 8.47729C77.4403 9.5076 77.9517 10.9697 77.9517 12.8637V24.6023H73.1222V13.8182C73.1222 12.8485 72.8646 12.1212 72.3494 11.6364C71.8343 11.1515 71.1903 10.9091 70.4176 10.9091C69.5388 10.9091 68.8532 11.1894 68.3608 11.75C67.8684 12.3031 67.6222 13.0341 67.6222 13.9432V24.6023H62.929V13.7159C62.929 12.8599 62.6828 12.1781 62.1903 11.6705C61.7055 11.1629 61.0653 10.9091 60.2699 10.9091C59.732 10.9091 59.2472 11.0455 58.8153 11.3182C58.3911 11.5834 58.054 11.9584 57.804 12.4432C57.554 12.9205 57.429 13.4811 57.429 14.125V24.6023H52.5881ZM81.7756 31.1477V7.14775H86.5483V10.0796H86.7642C86.9763 9.60987 87.2831 9.1326 87.6847 8.64775C88.0938 8.15532 88.6241 7.74623 89.2756 7.42048C89.9347 7.08714 90.7528 6.92048 91.7301 6.92048C93.0028 6.92048 94.1771 7.25381 95.2528 7.92048C96.3286 8.57957 97.1884 9.57578 97.8324 10.9091C98.4763 12.2349 98.7983 13.8977 98.7983 15.8977C98.7983 17.8447 98.4839 19.4887 97.8551 20.8296C97.2339 22.1629 96.3854 23.1743 95.3097 23.8637C94.2415 24.5455 93.0445 24.8864 91.7188 24.8864C90.7794 24.8864 89.9801 24.7311 89.321 24.4205C88.6695 24.1099 88.1354 23.7197 87.7188 23.25C87.3021 22.7727 86.9839 22.2917 86.7642 21.8068H86.6165V31.1477H81.7756ZM86.5142 15.875C86.5142 16.9129 86.6581 17.8182 86.946 18.5909C87.2339 19.3637 87.6506 19.9659 88.196 20.3977C88.7415 20.822 89.4044 21.0341 90.1847 21.0341C90.9725 21.0341 91.6392 20.8182 92.1847 20.3864C92.7301 19.947 93.143 19.3409 93.4233 18.5682C93.7112 17.7879 93.8551 16.8902 93.8551 15.875C93.8551 14.8674 93.715 13.9811 93.4347 13.2159C93.1544 12.4508 92.7415 11.8523 92.196 11.4205C91.6506 10.9887 90.9801 10.7727 90.1847 10.7727C89.3968 10.7727 88.7301 10.9811 88.1847 11.3977C87.6468 11.8144 87.2339 12.4053 86.946 13.1705C86.6581 13.9356 86.5142 14.8371 86.5142 15.875ZM109.98 24.9432C108.185 24.9432 106.639 24.5796 105.344 23.8523C104.056 23.1174 103.063 22.0796 102.366 20.7387C101.67 19.3902 101.321 17.7955 101.321 15.9546C101.321 14.1591 101.67 12.5834 102.366 11.2273C103.063 9.87123 104.045 8.81442 105.31 8.05684C106.582 7.29926 108.075 6.92048 109.787 6.92048C110.938 6.92048 112.01 7.10608 113.003 7.47729C114.003 7.84093 114.874 8.39017 115.616 9.12502C116.366 9.85987 116.95 10.7841 117.366 11.8977C117.783 13.0038 117.991 14.2993 117.991 15.7841V17.1137H103.253V14.1137H113.435C113.435 13.4167 113.283 12.7993 112.98 12.2614C112.677 11.7235 112.257 11.3031 111.719 11C111.188 10.6894 110.571 10.5341 109.866 10.5341C109.132 10.5341 108.48 10.7046 107.912 11.0455C107.351 11.3788 106.912 11.8296 106.594 12.3977C106.276 12.9584 106.113 13.5834 106.105 14.2727V17.125C106.105 17.9887 106.264 18.7349 106.582 19.3637C106.908 19.9924 107.366 20.4773 107.957 20.8182C108.548 21.1591 109.249 21.3296 110.06 21.3296C110.598 21.3296 111.09 21.2538 111.537 21.1023C111.984 20.9508 112.366 20.7235 112.685 20.4205C113.003 20.1174 113.245 19.7462 113.412 19.3068L117.889 19.6023C117.662 20.6781 117.196 21.6174 116.491 22.4205C115.795 23.2159 114.893 23.8371 113.787 24.2841C112.688 24.7235 111.42 24.9432 109.98 24.9432ZM130.435 7.14775V10.7841H119.923V7.14775H130.435ZM122.31 2.96593H127.151V19.2387C127.151 19.6856 127.219 20.0341 127.355 20.2841C127.491 20.5265 127.681 20.697 127.923 20.7955C128.173 20.894 128.461 20.9432 128.787 20.9432C129.014 20.9432 129.241 20.9243 129.469 20.8864C129.696 20.8409 129.87 20.8068 129.991 20.7841L130.753 24.3864C130.51 24.4621 130.17 24.5493 129.73 24.6477C129.291 24.7538 128.757 24.8182 128.128 24.8409C126.961 24.8864 125.938 24.7311 125.06 24.375C124.188 24.019 123.51 23.4659 123.026 22.7159C122.541 21.9659 122.302 21.019 122.31 19.875V2.96593ZM141.355 24.9432C139.56 24.9432 138.014 24.5796 136.719 23.8523C135.431 23.1174 134.438 22.0796 133.741 20.7387C133.045 19.3902 132.696 17.7955 132.696 15.9546C132.696 14.1591 133.045 12.5834 133.741 11.2273C134.438 9.87123 135.42 8.81442 136.685 8.05684C137.957 7.29926 139.45 6.92048 141.162 6.92048C142.313 6.92048 143.385 7.10608 144.378 7.47729C145.378 7.84093 146.249 8.39017 146.991 9.12502C147.741 9.85987 148.325 10.7841 148.741 11.8977C149.158 13.0038 149.366 14.2993 149.366 15.7841V17.1137H134.628V14.1137H144.81C144.81 13.4167 144.658 12.7993 144.355 12.2614C144.052 11.7235 143.632 11.3031 143.094 11C142.563 10.6894 141.946 10.5341 141.241 10.5341C140.507 10.5341 139.855 10.7046 139.287 11.0455C138.726 11.3788 138.287 11.8296 137.969 12.3977C137.651 12.9584 137.488 13.5834 137.48 14.2727V17.125C137.48 17.9887 137.639 18.7349 137.957 19.3637C138.283 19.9924 138.741 20.4773 139.332 20.8182C139.923 21.1591 140.624 21.3296 141.435 21.3296C141.973 21.3296 142.465 21.2538 142.912 21.1023C143.359 20.9508 143.741 20.7235 144.06 20.4205C144.378 20.1174 144.62 19.7462 144.787 19.3068L149.264 19.6023C149.037 20.6781 148.571 21.6174 147.866 22.4205C147.17 23.2159 146.268 23.8371 145.162 24.2841C144.063 24.7235 142.795 24.9432 141.355 24.9432ZM157.366 14.5114V24.6023H152.526V7.14775H157.139V10.2273H157.344C157.73 9.21214 158.378 8.40911 159.287 7.8182C160.196 7.21972 161.298 6.92048 162.594 6.92048C163.806 6.92048 164.863 7.18563 165.764 7.71593C166.666 8.24623 167.366 9.00381 167.866 9.98866C168.366 10.9659 168.616 12.1326 168.616 13.4887V24.6023H163.776V14.3523C163.783 13.2841 163.51 12.4508 162.957 11.8523C162.404 11.2462 161.643 10.9432 160.673 10.9432C160.022 10.9432 159.446 11.0834 158.946 11.3637C158.454 11.644 158.067 12.0531 157.787 12.5909C157.514 13.1212 157.374 13.7614 157.366 14.5114ZM180.318 24.9432C178.53 24.9432 176.992 24.5644 175.705 23.8068C174.424 23.0417 173.439 21.9811 172.75 20.625C172.068 19.269 171.727 17.7084 171.727 15.9432C171.727 14.1553 172.072 12.5871 172.761 11.2387C173.458 9.8826 174.447 8.82578 175.727 8.0682C177.008 7.30305 178.53 6.92048 180.295 6.92048C181.818 6.92048 183.152 7.19699 184.295 7.75002C185.439 8.30305 186.345 9.07957 187.011 10.0796C187.678 11.0796 188.045 12.2538 188.114 13.6023H183.545C183.417 12.7311 183.076 12.0303 182.523 11.5C181.977 10.9621 181.261 10.6932 180.375 10.6932C179.625 10.6932 178.97 10.8977 178.409 11.3068C177.856 11.7084 177.424 12.2955 177.114 13.0682C176.803 13.8409 176.648 14.7765 176.648 15.875C176.648 16.9887 176.799 17.9356 177.102 18.7159C177.413 19.4962 177.848 20.0909 178.409 20.5C178.97 20.9091 179.625 21.1137 180.375 21.1137C180.928 21.1137 181.424 21 181.864 20.7727C182.311 20.5455 182.678 20.2159 182.966 19.7841C183.261 19.3447 183.455 18.8182 183.545 18.2046H188.114C188.038 19.5379 187.674 20.7121 187.023 21.7273C186.379 22.7349 185.489 23.5227 184.352 24.0909C183.216 24.6591 181.871 24.9432 180.318 24.9432ZM199.168 24.9432C197.372 24.9432 195.827 24.5796 194.531 23.8523C193.243 23.1174 192.251 22.0796 191.554 20.7387C190.857 19.3902 190.509 17.7955 190.509 15.9546C190.509 14.1591 190.857 12.5834 191.554 11.2273C192.251 9.87123 193.232 8.81442 194.497 8.05684C195.77 7.29926 197.262 6.92048 198.974 6.92048C200.126 6.92048 201.198 7.10608 202.19 7.47729C203.19 7.84093 204.062 8.39017 204.804 9.12502C205.554 9.85987 206.137 10.7841 206.554 11.8977C206.971 13.0038 207.179 14.2993 207.179 15.7841V17.1137H192.44V14.1137H202.622C202.622 13.4167 202.471 12.7993 202.168 12.2614C201.865 11.7235 201.444 11.3031 200.906 11C200.376 10.6894 199.759 10.5341 199.054 10.5341C198.319 10.5341 197.668 10.7046 197.099 11.0455C196.539 11.3788 196.099 11.8296 195.781 12.3977C195.463 12.9584 195.3 13.5834 195.293 14.2727V17.125C195.293 17.9887 195.452 18.7349 195.77 19.3637C196.096 19.9924 196.554 20.4773 197.145 20.8182C197.736 21.1591 198.437 21.3296 199.247 21.3296C199.785 21.3296 200.277 21.2538 200.724 21.1023C201.171 20.9508 201.554 20.7235 201.872 20.4205C202.19 20.1174 202.433 19.7462 202.599 19.3068L207.077 19.6023C206.849 20.6781 206.384 21.6174 205.679 22.4205C204.982 23.2159 204.08 23.8371 202.974 24.2841C201.876 24.7235 200.607 24.9432 199.168 24.9432Z" fill="#FCFCFC"/>
</svg>
