<?xml version="1.0" encoding="UTF-8"?><svg id="Ebene_1" xmlns="http://www.w3.org/2000/svg" xmlns:xlink="http://www.w3.org/1999/xlink" viewBox="0 0 3000 1024"><defs><style>.cls-1{fill:none;}.cls-2{clip-path:url(#clippath);}</style><clipPath id="clippath"><rect class="cls-1" width="3000" height="1024"/></clipPath></defs><g class="cls-2"><path d="M2810.35,652.55c14.14-5.8,25.95-13.93,35.42-24.39,9.47-10.46,15.76-22.55,18.88-36.27l-50.27-4.67c-2.26,6.51-5.73,12.13-10.39,16.86-4.67,4.74-10.39,8.35-17.18,10.82-6.79,2.48-14.42,3.71-22.91,3.71-12.3,0-22.91-2.65-31.82-7.95-8.91-5.3-15.77-12.94-20.57-22.91-4.81-9.97-7.21-21.88-7.21-35.74v-24.39c0-12.16,2.26-22.94,6.79-32.35,4.52-9.4,10.99-16.76,19.41-22.06,8.41-5.3,18.42-7.95,30.01-7.95s21.74,2.65,30.01,7.95c8.27,5.3,14.6,12.73,18.98,22.27,4.38,9.54,6.58,20.82,6.58,33.83l24.6-10.39h-166.5v37.12h193.66v-15.7c0-18.8-2.69-35.53-8.06-50.16-5.38-14.64-12.94-26.97-22.7-37.01-9.76-10.04-21.18-17.67-34.25-22.91-13.08-5.23-27.4-7.85-42.95-7.85-21.64,0-40.62,5.09-56.95,15.27-16.33,10.18-29.1,24.29-38.29,42.32-9.19,18.03-13.79,38.78-13.79,62.25s4.52,44.37,13.57,62.25c9.05,17.89,21.95,31.82,38.71,41.79,16.76,9.97,36.66,14.95,59.71,14.95,17.53,0,33.37-2.9,47.51-8.7M2556.45,655.41c11.73-3.89,22.09-9.44,31.07-16.65,8.98-7.21,16.3-15.8,21.95-25.77,5.65-9.97,9.26-20.96,10.82-32.98l-52.18-4.88c-1.27,6.22-3.29,11.92-6.05,17.08-2.76,5.16-6.19,9.54-10.29,13.15-4.1,3.61-8.91,6.4-14.42,8.38-5.52,1.98-11.74,2.97-18.67,2.97-12.16,0-22.45-3.18-30.86-9.54-8.42-6.36-14.81-15.13-19.2-26.3-4.39-11.17-6.58-24.11-6.58-38.82s2.19-27.89,6.58-39.13c4.38-11.24,10.78-20.04,19.2-26.41,8.41-6.36,18.7-9.54,30.86-9.54,6.79,0,12.94.99,18.45,2.97,5.51,1.98,10.36,4.77,14.53,8.38,4.17,3.61,7.64,7.88,10.39,12.83,2.76,4.95,4.7,10.47,5.83,16.54l52.18-4.88c-1.84-12.02-5.59-22.98-11.24-32.88-5.66-9.9-12.94-18.38-21.85-25.45-8.91-7.07-19.2-12.51-30.86-16.33-11.67-3.82-24.29-5.73-37.86-5.73-22.34,0-41.86,5.02-58.54,15.06-16.69,10.04-29.66,24.07-38.92,42.1-9.26,18.03-13.89,38.85-13.89,62.47s4.63,44.37,13.89,62.25c9.26,17.89,22.23,31.85,38.92,41.89,16.68,10.04,36.2,15.06,58.54,15.06,13.71,0,26.44-1.94,38.18-5.83M2221.85,493.79c4.31-8.13,10.21-14.17,17.71-18.14,7.49-3.96,16.05-5.94,25.67-5.94,14.42,0,25.63,4.35,33.62,13.04,7.99,8.7,11.98,21.18,11.98,37.44v136.17h54.3v-144.66c0-19.23-3.39-35.46-10.18-48.68-6.79-13.22-16.19-23.26-28.21-30.12-12.02-6.86-26.02-10.29-42-10.29-19.37,0-35.56,5.23-48.57,15.7-13.01,10.47-22.98,25.81-29.91,46.03h7.64l-.21-57.91h-52.6v229.93h54.3v-132.14c0-12.16,2.15-22.3,6.47-30.44M2062.45,652.55c14.14-5.8,25.95-13.93,35.42-24.39,9.47-10.46,15.76-22.55,18.88-36.27l-50.27-4.67c-2.26,6.51-5.73,12.13-10.39,16.86-4.67,4.74-10.39,8.35-17.18,10.82-6.79,2.48-14.42,3.71-22.91,3.71-12.3,0-22.91-2.65-31.82-7.95-8.91-5.3-15.77-12.94-20.58-22.91-4.81-9.97-7.21-21.88-7.21-35.74v-24.39c0-12.16,2.26-22.94,6.79-32.35,4.52-9.4,10.99-16.76,19.41-22.06,8.41-5.3,18.42-7.95,30.01-7.95s21.74,2.65,30.01,7.95c8.27,5.3,14.6,12.73,18.98,22.27,4.38,9.54,6.58,20.82,6.58,33.83l24.6-10.39h-166.51v37.12h193.65v-15.7c0-18.8-2.69-35.53-8.06-50.16-5.38-14.64-12.94-26.97-22.7-37.01-9.76-10.04-21.18-17.67-34.26-22.91-13.08-5.23-27.4-7.85-42.95-7.85-21.64,0-40.62,5.09-56.95,15.27-16.33,10.18-29.1,24.29-38.29,42.32-9.19,18.03-13.79,38.78-13.79,62.25s4.52,44.37,13.57,62.25c9.05,17.89,21.95,31.82,38.71,41.79,16.76,9.97,36.66,14.95,59.71,14.95,17.53,0,33.37-2.9,47.51-8.7M1779.07,597.4c0,19.94,5.73,35,17.18,45.18s28.64,15.27,51.54,15.27c5.8,0,11.77-.18,17.92-.53,6.15-.35,11.63-.95,16.44-1.8l-4.03-42.85c-2.69.29-6.19.57-10.5.85-4.31.29-8.03.42-11.14.42-8.48,0-14.46-1.77-17.92-5.3-3.47-3.53-5.2-9.4-5.2-17.6v-223.56h-54.3v229.93ZM1742.38,469.71h136.81v-43.27h-136.81v43.27ZM1666.02,652.55c14.14-5.8,25.95-13.93,35.42-24.39,9.47-10.46,15.77-22.55,18.88-36.27l-50.27-4.67c-2.26,6.51-5.73,12.13-10.39,16.86-4.67,4.74-10.39,8.35-17.18,10.82-6.79,2.48-14.42,3.71-22.91,3.71-12.3,0-22.91-2.65-31.82-7.95-8.91-5.3-15.77-12.94-20.57-22.91-4.81-9.97-7.21-21.88-7.21-35.74v-24.39c0-12.16,2.26-22.94,6.79-32.35,4.52-9.4,10.99-16.76,19.41-22.06,8.41-5.3,18.42-7.95,30.01-7.95s21.74,2.65,30.01,7.95c8.27,5.3,14.6,12.73,18.98,22.27,4.38,9.54,6.58,20.82,6.58,33.83l24.6-10.39h-166.51v37.12h193.66v-15.7c0-18.8-2.69-35.53-8.06-50.16-5.38-14.64-12.94-26.97-22.7-37.01-9.76-10.04-21.18-17.67-34.26-22.91-13.08-5.23-27.4-7.85-42.95-7.85-21.64,0-40.62,5.09-56.95,15.27-16.33,10.18-29.1,24.29-38.29,42.32-9.19,18.03-13.79,38.78-13.79,62.25s4.52,44.37,13.58,62.25c9.05,17.89,21.95,31.82,38.71,41.79,16.76,9.97,36.66,14.95,59.71,14.95,17.53,0,33.37-2.9,47.51-8.7M1333.54,606.52c-8.56-6.22-15.13-14.92-19.73-26.09-4.6-11.17-6.89-24.18-6.89-39.03s2.3-28,6.89-39.03c4.59-11.03,11.17-19.58,19.73-25.66,8.55-6.08,18.7-9.12,30.44-9.12s21.74,3.01,30.01,9.02c8.27,6.01,14.64,14.53,19.09,25.56,4.45,11.03,6.68,24.11,6.68,39.24s-2.23,28.28-6.68,39.45c-4.45,11.17-10.82,19.8-19.09,25.88-8.27,6.08-18.28,9.12-30.01,9.12s-21.88-3.11-30.44-9.33M1309.04,745.03v-124.08h1.48c3.82,7.21,8.77,13.86,14.85,19.94,6.08,6.08,13.47,10.92,22.17,14.53,8.7,3.61,18.77,5.41,30.22,5.41,19.23,0,36.13-4.84,50.69-14.53,14.56-9.68,25.98-23.44,34.26-41.25,8.27-17.82,12.41-38.96,12.41-63.42s-4.21-45.6-12.62-63.42c-8.42-17.82-19.91-31.53-34.47-41.15-14.57-9.61-31.25-14.42-50.06-14.42-11.6,0-21.78,1.8-30.54,5.41-8.77,3.61-16.23,8.34-22.38,14.21-6.15,5.87-11.14,12.27-14.95,19.2h-1.91v-35h-53.45v318.59h54.3ZM925.55,656.37v-138.93c0-10.61,2.02-19.55,6.05-26.83,4.03-7.28,9.44-12.8,16.23-16.54,6.79-3.75,14.21-5.62,22.27-5.62,11.88,0,21.56,3.68,29.06,11.03,7.49,7.35,11.24,17.11,11.24,29.27v147.63h52.82v-142.54c0-8.91,1.8-16.76,5.41-23.54,3.61-6.79,8.66-12.12,15.17-16.01,6.5-3.89,14.21-5.83,23.12-5.83,11.31,0,21.03,3.43,29.16,10.29,8.13,6.86,12.2,17.64,12.2,32.35v145.3h54.3v-153.14c0-17.67-3.33-32.48-9.97-44.44-6.65-11.95-15.63-21-26.94-27.15-11.32-6.15-24.11-9.23-38.39-9.23-12.3,0-23.72,2.26-34.26,6.79-10.53,4.53-19.51,11.1-26.94,19.73-7.42,8.63-12.69,19.09-15.8,31.39h6.79c-3.54-18.1-11.1-32.27-22.7-42.53-11.6-10.25-25.95-15.38-43.06-15.38-10.47,0-20.44,2.05-29.91,6.15-9.48,4.1-17.78,10.32-24.92,18.67-7.14,8.34-12.62,18.95-16.44,31.82h4.03l-.85-52.6h-51.97v229.93h54.3ZM686.71,607.05c-8.48-6.29-14.92-15.02-19.3-26.2-4.39-11.17-6.58-24.11-6.58-38.82s2.19-27.89,6.58-39.13c4.38-11.24,10.82-20.01,19.3-26.3,8.48-6.29,18.74-9.44,30.76-9.44s22.45,3.18,30.86,9.55c8.41,6.36,14.85,15.13,19.3,26.3,4.45,11.17,6.68,24.18,6.68,39.03s-2.23,27.47-6.68,38.71-10.89,20.01-19.3,26.3c-8.41,6.29-18.7,9.44-30.86,9.44s-22.27-3.15-30.76-9.44M776.33,646.29c16.76-9.97,29.77-23.9,39.03-41.79,9.26-17.89,13.89-38.71,13.89-62.47s-4.63-44.61-13.89-62.57c-9.26-17.96-22.27-31.95-39.03-42-16.76-10.04-36.38-15.06-58.86-15.06s-41.93,5.02-58.75,15.06c-16.83,10.04-29.87,24.04-39.13,42-9.26,17.96-13.89,38.82-13.89,62.57s4.63,44.58,13.89,62.47c9.26,17.89,22.3,31.82,39.13,41.79,16.83,9.97,36.41,14.95,58.75,14.95s42.1-4.98,58.86-14.95M488.39,652.87c15.41-5.44,29.02-13.15,40.83-23.12,11.8-9.97,21.46-21.74,28.95-35.32,7.49-13.58,12.44-28.49,14.85-44.76h-57.06c-1.98,9.62-5.3,18.21-9.97,25.77-4.67,7.57-10.36,13.97-17.08,19.2-6.72,5.23-14.32,9.19-22.8,11.88-8.49,2.69-17.61,4.03-27.36,4.03-18.38,0-34.4-4.49-48.04-13.47-13.65-8.98-24.22-21.81-31.71-38.5-7.5-16.68-11.24-36.7-11.24-60.03s3.75-43.38,11.24-60.13c7.49-16.76,18.06-29.66,31.71-38.71,13.64-9.05,29.66-13.58,48.04-13.58,9.76,0,18.91,1.35,27.47,4.03,8.55,2.69,16.19,6.65,22.91,11.88,6.71,5.23,12.37,11.63,16.97,19.19,4.59,7.57,7.88,16.23,9.86,25.98h56.84c-2.54-17.25-7.67-32.77-15.38-46.56-7.71-13.79-17.5-25.52-29.38-35.21-11.88-9.68-25.45-17.08-40.73-22.16-15.27-5.09-31.68-7.64-49.21-7.64-28.42,0-53.7,6.57-75.83,19.73-22.13,13.15-39.52,31.92-52.18,56.32-12.66,24.39-18.98,53.35-18.98,86.86s6.33,62.22,18.98,86.54c12.65,24.32,30.05,43.06,52.18,56.21,22.13,13.15,47.41,19.73,75.83,19.73,18.1,0,34.86-2.72,50.27-8.17"/><path d="M126.83,394.97s-.03,51.88,0,52.11h39.76s.02,161.4.02,161.4v6.01c0,23.25,17.34,42.4,39.78,45.35l1.56.11,50.24.04v-50.06h-39.79v-163.55s0-6.01,0-6.01c0-23.25-17.34-42.4-39.78-45.35l-51.8-.06ZM218.9,334.17c0-20.53-16.64-37.17-37.17-37.17s-37.17,16.64-37.17,37.17,16.64,37.17,37.17,37.17,37.17-16.64,37.17-37.17"/></g></svg>