<?xml version="1.0" encoding="utf-8"?>
<!-- Generator: Adobe Illustrator 28.0.0, SVG Export Plug-In . SVG Version: 6.00 Build 0)  -->
<svg version="1.1" id="Ebene_2" xmlns="http://www.w3.org/2000/svg" xmlns:xlink="http://www.w3.org/1999/xlink" x="0px" y="0px"
	 viewBox="0 0 396.8504028 136.3464508" style="enable-background:new 0 0 396.8504028 136.3464508;" xml:space="preserve">
<style type="text/css">
	.st0{fill:#004388;}
	.st1{fill:url(#SVGID_1_);}
	.st2{fill:url(#SVGID_00000176723232504947674520000008930211040342203547_);}
	.st3{fill:url(#SVGID_00000011737752794579315410000005513203551609228219_);}
</style>
<g>
	<g>
		<path class="st0" d="M308.952179,48.9504013c2.4751892,0,4.1392517,0.5874519,4.1392517,3.019516
			c0,2.7024155-2.0264587,3.3295097-3.8702698,3.3295097h-2.339386v-6.3490257H308.952179z M309.4907837,45.3950424h-5.8960266
			c-0.9456482,0-1.3101501,0.6270981-1.3101501,1.5296173v20.2179184c0,0.6780472,0.9038086,0.7658234,2.3017273,0.7658234
			c1.3951111,0,2.2954407-0.0877762,2.2954407-0.7658234v-8.4639893h1.3497925c2.3860474,0,3.1526794,1.9323158,3.8292847,3.5602875
			l2.0675659,4.9037018c0.31427,0.7219772,1.1274719,0.7658234,2.3916931,0.7658234
			c1.7567444,0,2.5183716-0.0877762,2.5183716-0.6766739c0-0.2250519-0.1373596-0.6270981-0.536499-1.5755692l-1.8027954-4.2313042
			c-0.9512939-2.2097702-1.4432983-3.0166893-3.2007751-4.0090103c3.3323975-1.0801697,4.3658142-3.2871132,4.3658142-5.8083267
			C317.8642273,47.9580078,315.7060852,45.3950424,309.4907837,45.3950424z M245.1924438,67.1425781l-0.0459595-14.2312927
			l-0.0927734-2.5240402l0.944931,2.1659164l0.9924011,1.9818916l5.6270447,10.5846138
			c0.6766663,1.3065948,1.3512421,2.7887344,3.3352356,2.7887344h1.9818878c0.8075867,0,1.7058105-0.4020462,1.7058105-1.6689987
			V46.1559372c0-0.671669-0.8982239-0.7608948-2.0674744-0.7608948c-1.1707764,0-2.0711212,0.0892258-2.0711212,0.7608948
			c0,11.2146072,0,12.1559753,0.0460205,13.0152245c0.0856781,2.3867645-0.0460205,0.2704239,0.0856781,2.4759865h-0.0453033
			l-0.6300049-1.3476906l-6.5719604-12.5651245c-0.8578796-1.666893-1.3512573-2.3392906-3.1944122-2.3392906h-2.4780273
			c-1.0822601,0-1.6711578,0.7191467-1.6711578,1.6640701v20.0834656c0,0.6780472,0.9024506,0.7658234,2.0710297,0.7658234
			C244.2892609,67.9084015,245.1924438,67.8206253,245.1924438,67.1425781z M196.1955719,46.1559372
			c0-0.671669-0.9028168-0.7608948-2.2985687-0.7608948c-1.3950958,0-2.2922363,0.0892258-2.2922363,0.7608948v13.0591469
			c0,2.6571159-1.0366211,5.3128548-4.5961761,5.3128548c-3.5564423,0-4.6355286-2.6557388-4.6355286-5.3128548V46.1559372
			c0-0.671669-0.9031067-0.7608948-2.2982635-0.7608948c-1.3964691,0-2.2957306,0.0892258-2.2957306,0.7608948v13.5078697
			c0,6.4411507,4.1873779,8.6041679,9.2295227,8.6041679c4.999588,0,9.1869812-2.1630173,9.1869812-8.6041679V46.1559372z
			 M297.3320312,64.3042679h-7.8779602v-6.3504791h6.5720215c0.8586121,0,0.9513245-0.4926453,0.9513245-1.7525635
			c0-1.2612991-0.0927124-1.755394-0.9513245-1.755394h-6.5720215v-5.4487495h7.8326721
			c0.8585205,0,0.9477539-0.4968529,0.9477539-1.8020706c0-1.3080444-0.0892334-1.7999687-0.9477539-1.7999687h-11.0730591
			c-0.9505615,0-1.3497925,0.6723976-1.3497925,1.5296173V66.51548c0,0.9399185,0.4480896,1.3929214,1.3497925,1.3929214h11.1183472
			c0.858551,0,0.9442139-0.4968491,0.9442139-1.8034439C298.2762451,64.7982864,298.1905823,64.3042679,297.3320312,64.3042679z
			 M236.2733459,64.3042679h-7.881546v-6.3504791h6.5756073c0.8543243,0,0.9413605-0.4926453,0.9413605-1.7525635
			c0-1.2612991-0.0870361-1.755394-0.9413605-1.755394h-6.5756073v-5.4487495h7.8368988
			c0.8578796,0,0.9442749-0.4968529,0.9442749-1.8020706c0-1.3080444-0.0863953-1.7999687-0.9442749-1.7999687h-11.0821838
			c-0.9406433,0-1.3512421,0.6723976-1.3512421,1.5296173V66.51548c0,0.9399185,0.4523468,1.3929214,1.3512421,1.3929214h11.1268311
			c0.8550415,0,0.9456482-0.4968491,0.9456482-1.8034439C237.2189941,64.7982864,237.1283875,64.3042679,236.2733459,64.3042679z
			 M173.3643799,64.3042679h-7.8807373v-6.3504791h6.5748749c0.8582306,0,0.9477386-0.4926453,0.9477386-1.7525635
			c0-1.2612991-0.0895081-1.755394-0.9477386-1.755394h-6.5748749v-5.4487495h7.8361664
			c0.8582306,0,0.9474487-0.4968529,0.9474487-1.8020706c0-1.3080444-0.0892181-1.7999687-0.9474487-1.7999687h-11.0761719
			c-0.9459991,0-1.3508759,0.6723976-1.3508759,1.5296173V66.51548c0,0.9399185,0.4501801,1.3929214,1.3508759,1.3929214h11.1207428
			c0.8582458,0,0.9478302-0.4968491,0.9478302-1.8034439C174.3122101,64.7982864,174.2226257,64.3042679,173.3643799,64.3042679z
			 M135.6316833,58.9022598c0.8546906,0,0.945282-0.4940948,0.945282-1.8431625c0-1.3576241-0.0905914-1.8488197-0.945282-1.8488197
			h-6.6651001v-6.0348244h7.0699768c0.8543243,0,0.9456482-0.4940224,0.9456482-1.8905678
			c0-1.3979187-0.0913239-1.889843-0.9456482-1.889843h-10.1762543c-1.0362473,0-1.4870758,0.5379486-1.4870758,1.5296173
			v20.2179184c0,0.6780472,0.8992615,0.7658234,2.2964554,0.7658234c1.3961868,0,2.2968979-0.0877762,2.2968979-0.7658234
			v-8.2403183H135.6316833z M332.9957886,45.033371c-5.9888,0-11.7071533,3.4215584-11.7071533,11.7043495
			c0,6.1735535,3.1950684,11.5302544,11.5769348,11.5302544c2.519104,0,4.4075623-0.4926453,5.8968201-1.0362473
			c1.3497925-0.492569,1.3950806-0.6723938,1.3950806-1.8459167v-7.341423c0-0.8522186-0.72052-0.9414406-2.2508545-0.9414406
			c-1.2648621,0-2.2954407,0-2.2954407,0.8961411v5.9031296c-0.6752319,0.40205-1.5741272,0.5817986-2.615387,0.5817986
			c-5.2200623,0-7.0235901-4.2298584-7.0235901-7.9685211c0-5.1797791,3.4230042-7.7477417,7.3860168-7.7477417
			c2.7010193,0,4.4585266,1.1735954,5.3099976,1.6676178c0.3631287,0.2251244,0.5896301,0.3157234,0.7198792,0.3157234
			c0.4551086,0,0.6830444-0.6313744,0.6830444-1.9337654c0-0.7658958,0.0410461-1.3052177-0.5040283-1.8473701
			C338.6682129,46.0221405,336.2425537,45.033371,332.9957886,45.033371z M271.5754395,48.9051018
			c2.3435669,0,3.5574646,0.6327515,3.5574646,2.7491646c0,2.2932663-1.4382324,2.9699402-3.3338013,2.9699402h-2.4256897
			v-5.7191048H271.5754395z M271.7991028,45.3950424h-5.7162781c-0.8996277,0-1.3065796,0.5379486-1.3065796,1.5296173V66.51548
			c0,0.9399185,0.4069519,1.3929214,1.3065796,1.3929214h6.0376587c6.4333191,0,8.9594727-3.0577087,8.9594727-6.707222
			c0-3.5149879-2.3471375-5.0877304-4.5038452-5.4062767c1.5777283-0.6737747,3.1972351-1.9365196,3.1972351-4.6828575
			C279.7733459,47.5121117,277.0220642,45.3950424,271.7991028,45.3950424z M271.9364624,58.0443878
			c3.2884827,0,4.3643799,1.0814743,4.3643799,3.1114922c0,2.6571159-1.8884583,3.2828331-3.7330322,3.2828331h-3.194397v-6.3943253
			H271.9364624z M208.1264801,45.3950424h-5.8033905c-0.8996124,0-1.3511658,0.6270981-1.3511658,1.5296173V66.51548
			c0,0.9399185,0.4515533,1.3929214,1.3511658,1.3929214h5.4473724c8.9601898,0,11.9308624-4.6332817,11.9308624-11.3490524
			C219.7013245,49.941349,216.7752228,45.3950424,208.1264801,45.3950424z M207.8567963,48.9970818
			c4.3700256,0,7.1163635,2.069664,7.1163635,7.6514893c0,5.4091034-2.5700684,7.6556969-7.0229492,7.6556969h-2.388855V48.9970818
			H207.8567963z M147.3838043,48.9504013c2.477005,0,4.1431732,0.5874519,4.1431732,3.019516
			c0,2.7024155-2.026474,3.3295097-3.8734741,3.3295097h-2.3403778v-6.3490257H147.3838043z M147.9235535,45.3950424h-5.8996429
			c-0.9438324,0-1.3041382,0.6270981-1.3041382,1.5296173v20.2179184c0,0.6780472,0.8996277,0.7658234,2.2965393,0.7658234
			c1.3957367,0,2.296814-0.0877762,2.296814-0.7658234v-8.4639893h1.4414825c2.2939911,0,3.0608978,1.9323158,3.7358246,3.5602875
			l2.0735168,4.9037018c0.3135376,0.7219772,1.123291,0.7658234,2.3853149,0.7658234
			c1.7553864,0,2.5215759-0.0877762,2.5215759-0.6766739c0-0.2250519-0.1344604-0.6270981-0.5407715-1.5755692l-1.8006287-4.2313042
			c-0.9474487-2.2097702-1.4421997-3.0166893-3.1957855-4.0090103c3.330246-1.0801697,4.3661194-3.2871132,4.3661194-5.8083267
			C156.2997742,47.9580078,154.1374054,45.3950424,147.9235535,45.3950424z"/>
		<g>
			<linearGradient id="SVGID_1_" gradientUnits="userSpaceOnUse" x1="81.6129303" y1="51.1396294" x2="101.1083298" y2="70.635025">
				<stop  offset="0.0552147" style="stop-color:#004388"/>
				<stop  offset="0.638037" style="stop-color:#00A6E2"/>
			</linearGradient>
			<path class="st1" d="M84.0247345,52.3450737c-3.2537689,0-5.0622864,1.4881592-5.3768463,1.759594v0.0452995
				c1.1314087-0.3167343,2.2603607-0.4501724,3.1624451-0.4501724c4.2015839,0,7.4090424,2.9767532,9.4422531,5.3740997
				l4.879631,5.6454659c2.2123108,2.530777,3.9758148,3.2110062,6.0532379,3.2110062
				c0.7675629,0,1.6247864-0.0951691,1.806633-0.1791v-0.05233c-0.2264938-0.0895844-1.9418793-0.6278229-4.4259109-3.5634766
				l-3.6611786-4.3870659C92.9233932,56.1852798,89.3103409,52.3450737,84.0247345,52.3450737z"/>
			
				<linearGradient id="SVGID_00000101096572789826101180000001141704927210509461_" gradientUnits="userSpaceOnUse" x1="80.9727554" y1="53.9916725" x2="96.3338623" y2="69.3527832">
				<stop  offset="0.0552147" style="stop-color:#004388"/>
				<stop  offset="0.638037" style="stop-color:#00A6E2"/>
			</linearGradient>
			<path style="fill:url(#SVGID_00000101096572789826101180000001141704927210509461_);" d="M81.4054565,55.1897659
				c-0.8135834,0-1.6714554,0.1787376-1.9913864,0.3605881v0.0456619c2.5757217,0.3578339,4.5218811,1.3590012,7.0491104,4.2946548
				l4.5639191,5.3298111c1.4000931,1.6700821,3.3419724,2.7098846,5.5110779,2.7098846
				c0.4530029,0,1.0408173-0.0438538,1.357193-0.1390915v-0.0400085c-1.2209244-0.3662415-2.6203003-0.949852-4.0681534-2.665596
				l-4.7433777-5.5173912C87.2757568,57.4476624,84.3408203,55.1897659,81.4054565,55.1897659z"/>
			
				<linearGradient id="SVGID_00000116914237734231960860000001206013206475536789_" gradientUnits="userSpaceOnUse" x1="65.9091492" y1="37.4388733" x2="104.1449051" y2="75.6746292">
				<stop  offset="0" style="stop-color:#BCDCF5"/>
				<stop  offset="0.1380439" style="stop-color:#5CC0EB"/>
				<stop  offset="0.276074" style="stop-color:#00A6E2"/>
				<stop  offset="0.2993366" style="stop-color:#009DDA"/>
				<stop  offset="0.4794794" style="stop-color:#005C9F"/>
				<stop  offset="0.564417" style="stop-color:#004388"/>
			</linearGradient>
			<path style="fill:url(#SVGID_00000116914237734231960860000001206013206475536789_);" d="M110.8586197,45.3412628H59.2240562
				c-1.4927216,0-2.5311432,0.7669106-2.5311432,2.5753593v17.4404869c0,1.4443054,1.0384216,2.5732574,2.4844666,2.5732574
				h1.671463c3.7506905,0,6.4612923-3.9297943,10.0746346-8.1819725c3.9308777-4.6482124,8.1324005-8.9842529,14.0500946-8.9842529
				c5.8267365,0,10.1659622,4.2465286,14.1856308,8.9842529c3.8384628,4.5222359,6.234726,8.1819725,9.8937988,8.1819725h1.4456863
				c1.8962173,0,2.8875275-1.1817169,2.8875275-2.5732574V47.9166222
				C113.3862152,46.062149,112.3050308,45.3412628,110.8586197,45.3412628z"/>
		</g>
	</g>
</g>
<g>
	<path class="st0" d="M124.9864502,89.1827698c0.5576172,0.3779297,1.3779297,0.7382812,2.3623047,0.7382812
		c1.0825195,0,2.0668945-0.4267578,2.0668945-1.5908203c0-2.4443359-4.7241211-2.1494141-4.7241211-5.3964844
		c0-1.5585938,1.1972656-2.8378906,3.2802734-2.8378906c1.0170898,0,1.9194336,0.2626953,2.4443359,0.5244141v1.3291016
		c-0.7382812-0.3935547-1.574707-0.6074219-2.3950195-0.6074219c-0.9023438,0-1.8041992,0.3779297-1.8041992,1.4443359
		c0,2.2958984,4.7402344,2.0498047,4.7402344,5.4287109c0,1.8378906-1.4926758,2.953125-3.5922852,2.953125
		c-1.246582,0-2.2797852-0.3769531-2.9853516-0.8525391L124.9864502,89.1827698z"/>
	<path class="st0" d="M133.2027588,80.1944885h5.4624023l-0.4267578,1.1972656h-3.5756836v3.4775391h3.5263672v1.2138672h-3.5263672
		v3.7236328h4.0678711v1.1972656h-5.527832V80.1944885z"/>
	<path class="st0" d="M144.0269775,80.1612854h1.0498047l4.1992188,10.8427734h-1.5581055l-1.0664062-2.8378906h-4.1826172
		l-1.0498047,2.8378906H139.90979L144.0269775,80.1612854z M146.1925049,86.9689026l-1.0009766-2.8212891
		c-0.3115234-0.9189453-0.4755859-1.4111328-0.6064453-1.8046875h-0.0332031
		c-0.1147461,0.3935547-0.2949219,0.9023438-0.6230469,1.8203125l-1.0170898,2.8056641H146.1925049z"/>
	<path class="st0" d="M150.881958,80.1944885h1.4599609v9.6123047h3.953125v1.1972656h-5.4130859V80.1944885z"/>
	<path class="st0" d="M158.0318604,80.1944885h1.4599609v10.8095703h-1.4599609V80.1944885z"/>
	<path class="st0" d="M162.2467041,80.1944885h1.4106445l4.8881836,6.3642578
		c0.6396484,0.8203125,1.0991211,1.4765625,1.4599609,2.0175781h0.0327148
		c-0.0327148-0.5908203-0.0327148-1.1152344-0.0327148-1.8867188v-6.4951172h1.4433594v10.8095703h-1.2631836l-5.0683594-6.6103516
		c-0.6069336-0.7880859-1.0498047-1.4111328-1.4272461-1.9521484h-0.0327148
		c0.0327148,0.5078125,0.0493164,1.0332031,0.0493164,1.8037109v6.7587891h-1.4599609V80.1944885z"/>
	<path class="st0" d="M182.7974854,90.3312073c-0.8037109,0.4101562-2.1650391,0.8369141-3.6577148,0.8369141
		c-3.3300781,0-5.4462891-2.2470703-5.4462891-5.3964844c0-3.3134766,2.2802734-5.6757812,5.7084961-5.6757812
		c1.246582,0,2.3129883,0.2949219,3.0019531,0.5742188v1.3613281c-0.7875977-0.3935547-1.7553711-0.6894531-2.9199219-0.6894531
		c-2.7392578,0-4.2485352,1.7714844-4.2485352,4.2978516c0,2.625,1.5585938,4.28125,4.0351562,4.28125
		c0.8530273,0,1.6079102-0.1640625,2.0834961-0.3935547v-3.6738281h1.4433594V90.3312073z"/>
	<path class="st0" d="M190.1104736,81.3917542h-3.1166992v-1.1972656h7.9882812l-0.4101562,1.1972656h-3.0019531v9.6123047
		h-1.4594727V81.3917542z"/>
	<path class="st0" d="M196.4239502,80.1944885h5.4624023l-0.4267578,1.1972656h-3.5756836v3.4775391h3.5263672v1.2138672h-3.5263672
		v3.7236328h4.0678711v1.1972656h-5.527832V80.1944885z"/>
	<path class="st0" d="M212.1851807,90.381012c-1.0825195,0.5742188-2.1489258,0.7871094-3.1660156,0.7871094
		c-3.3129883,0-5.2490234-2.2802734-5.2490234-5.4462891c0-3.1328125,2.1982422-5.6259766,5.4790039-5.6259766
		c1.1645508,0,2.1489258,0.2626953,2.7226562,0.5742188v1.3613281c-0.7709961-0.4101562-1.6074219-0.6894531-2.6899414-0.6894531
		c-2.4931641,0-3.9697266,1.9033203-3.9697266,4.3144531c0,2.5097656,1.4926758,4.2646484,3.8710938,4.2646484
		c1.0170898,0,1.8374023-0.2949219,2.5917969-0.7050781L212.1851807,90.381012z"/>
	<path class="st0" d="M214.1514893,80.1944885h1.4599609v4.6582031h5.7246094v-4.6582031h1.4433594v10.8095703h-1.4433594
		v-4.9052734h-5.7246094v4.9052734h-1.4599609V80.1944885z"/>
	<path class="st0" d="M225.5333252,80.1944885h1.4106445l4.8881836,6.3642578
		c0.6396484,0.8203125,1.0991211,1.4765625,1.4599609,2.0175781h0.0327148
		c-0.0327148-0.5908203-0.0327148-1.1152344-0.0327148-1.8867188v-6.4951172h1.4433594v10.8095703H233.47229l-5.0683594-6.6103516
		c-0.6069336-0.7880859-1.0498047-1.4111328-1.4272461-1.9521484h-0.0327148
		c0.0327148,0.5078125,0.0493164,1.0332031,0.0493164,1.8037109v6.7587891h-1.4599609V80.1944885z"/>
	<path class="st0" d="M236.9796143,85.639801c0-3.2802734,2.2475586-5.5439453,5.3310547-5.5439453
		c3.1166992,0,5.3149414,2.3125,5.3149414,5.5439453c0,3.3632812-2.2963867,5.5283203-5.3149414,5.5283203
		C239.2432861,91.1681213,236.9796143,88.9864807,236.9796143,85.639801z M246.0836182,85.639801
		c0-2.4765625-1.3779297-4.2978516-3.7729492-4.2978516c-2.2797852,0-3.7890625,1.7060547-3.7890625,4.2978516
		c0,2.6083984,1.5092773,4.28125,3.7890625,4.28125C244.5743408,89.921051,246.0836182,88.2481995,246.0836182,85.639801z"/>
	<path class="st0" d="M249.8868408,80.1944885h1.4599609v9.6123047h3.953125v1.1972656h-5.4130859V80.1944885z"/>
	<path class="st0" d="M256.0362549,85.639801c0-3.2802734,2.2475586-5.5439453,5.3310547-5.5439453
		c3.1166992,0,5.3149414,2.3125,5.3149414,5.5439453c0,3.3632812-2.2963867,5.5283203-5.3149414,5.5283203
		C258.2999268,91.1681213,256.0362549,88.9864807,256.0362549,85.639801z M265.1402588,85.639801
		c0-2.4765625-1.3779297-4.2978516-3.7729492-4.2978516c-2.2797852,0-3.7890625,1.7060547-3.7890625,4.2978516
		c0,2.6083984,1.5092773,4.28125,3.7890625,4.28125C263.6309814,89.921051,265.1402588,88.2481995,265.1402588,85.639801z"/>
	<path class="st0" d="M277.5386963,90.3312073c-0.8037109,0.4101562-2.1650391,0.8369141-3.6577148,0.8369141
		c-3.3300781,0-5.4462891-2.2470703-5.4462891-5.3964844c0-3.3134766,2.2802734-5.6757812,5.7084961-5.6757812
		c1.246582,0,2.3129883,0.2949219,3.0019531,0.5742188v1.3613281c-0.7875977-0.3935547-1.7553711-0.6894531-2.9199219-0.6894531
		c-2.7392578,0-4.2485352,1.7714844-4.2485352,4.2978516c0,2.625,1.5585938,4.28125,4.0351562,4.28125
		c0.8530273,0,1.6079102-0.1640625,2.0834961-0.3935547v-3.6738281h1.4433594V90.3312073z"/>
	<path class="st0" d="M280.1607666,80.1944885h1.4599609v10.8095703h-1.4599609V80.1944885z"/>
	<path class="st0" d="M284.3756104,80.1944885h5.4624023l-0.4267578,1.1972656h-3.5756836v3.4775391h3.5263672v1.2138672h-3.5263672
		v3.7236328h4.0678711v1.1972656h-5.527832V80.1944885z"/>
	<path class="st0" d="M292.2960205,89.1827698c0.5576172,0.3779297,1.3779297,0.7382812,2.3623047,0.7382812
		c1.0825195,0,2.0668945-0.4267578,2.0668945-1.5908203c0-2.4443359-4.7241211-2.1494141-4.7241211-5.3964844
		c0-1.5585938,1.1972656-2.8378906,3.2802734-2.8378906c1.0170898,0,1.9194336,0.2626953,2.4443359,0.5244141v1.3291016
		c-0.7382812-0.3935547-1.574707-0.6074219-2.3950195-0.6074219c-0.9023438,0-1.8041992,0.3779297-1.8041992,1.4443359
		c0,2.2958984,4.7402344,2.0498047,4.7402344,5.4287109c0,1.8378906-1.4926758,2.953125-3.5922852,2.953125
		c-1.246582,0-2.2797852-0.3769531-2.9853516-0.8525391L292.2960205,89.1827698z"/>
</g>
</svg>
