<?xml version="1.0" encoding="utf-8"?>
<!-- Generator: Adobe Illustrator 21.0.0, SVG Export Plug-In . SVG Version: 6.00 Build 0)  -->
<svg version="1.1" id="Ebene_1" xmlns="http://www.w3.org/2000/svg" xmlns:xlink="http://www.w3.org/1999/xlink" x="0px" y="0px"
	 viewBox="0 0 855.5 452.5" style="enable-background:new 0 0 855.5 452.5;" xml:space="preserve">
<style type="text/css">
	.st0{fill:#706F6F;}
	.st1{fill:#95C11F;}
</style>
<path class="st0" d="M415.5,205.7c-8.6,6.9-19.5,10.7-30.7,10.7c-15,0-28.1-5-37-14.2c-9.3-9.5-13.2-19.5-13.2-33.4
	c0-12.5,4.4-23.2,13-31.8c9.5-9.4,21.6-14,36.9-14c10.6,0,21,3.3,29.2,9.3c2.2,1.6,5.2,1.1,6.8-1c1.6-2.2,1.1-5.2-1-6.8
	c-9.8-7.2-22.2-11.2-35-11.2c-18.1,0-32.4,5.5-43.8,16.9c-10.6,10.5-15.9,23.5-15.9,38.7c0,16.5,4.9,28.9,16,40.3
	c10.7,11,26.4,17.1,44,17.1c13.4,0,26.5-4.6,36.9-12.9c2.1-1.7,2.4-4.8,0.7-6.9C420.7,204.3,417.6,204,415.5,205.7"/>
<path class="st0" d="M526.8,167.5c-0.7-0.3-1.4-0.6-2.2-0.6h-38.8c-2.7,0-4.9,2.2-4.9,4.9s2.2,4.9,4.9,4.9H520
	c-2,18.1-15.4,28.8-15.6,28.9c-8.6,6.9-19.5,10.8-30.7,10.8c-15,0-28.1-5-37-14.2c-9.3-9.5-13.2-19.5-13.2-33.4
	c0-12.5,4.4-23.2,13-31.8c9.5-9.4,21.6-14,36.9-14c10.6,0,21,3.3,29.2,9.3c2.2,1.6,5.2,1.1,6.8-1c1.6-2.2,1.1-5.2-1-6.8
	c-9.8-7.2-22.2-11.2-35-11.2c-18,0-32.4,5.5-43.8,16.9c-10.6,10.5-15.9,23.5-15.9,38.7c0,16.5,4.9,28.9,16,40.3
	c10.7,11,26.3,17.1,44,17.1c13.4,0,26.5-4.6,36.8-12.8c0.8-0.6,19.7-15.4,19.6-41.3C530,170,528.7,168.2,526.8,167.5"/>
<path class="st0" d="M137.2,255.4c9.9,0,14.9,5.2,14.9,5.2l-2.2,2.9c0,0-4.8-4.5-12.6-4.5c-9.7,0-16.6,7.3-16.6,16.8
	c0,9.6,6.9,17.4,16.8,17.4c8.3,0,13.4-5.4,13.4-5.4l2.4,2.8c0,0-5.6,6.2-15.8,6.2c-12.2,0-20.9-9.3-20.9-21
	C116.5,264.3,125.4,255.4,137.2,255.4"/>
<path class="st0" d="M188.7,293.3c9.3,0,16.8-7.5,16.8-17.4c0-9.6-7.5-16.8-16.8-16.8c-9.3,0-16.8,7.3-16.8,16.8
	C171.9,285.7,179.3,293.3,188.7,293.3 M188.7,255.4c11.7,0,21,9,21,20.5c0,11.8-9.3,21-21,21c-11.7,0-21-9.3-21-21
	C167.6,264.4,177,255.4,188.7,255.4"/>
<path class="st0" d="M241.6,275.8c5,0,8.2-3.1,8.2-8.2c0-3.3-1.4-5.8-3.8-7c-1.2-0.6-2.7-1-5.9-1h-8.3v16.2H241.6z M227.7,256.1
	h12.2c4.2,0,6.1,0.4,7.8,1.1c3.9,1.7,6.2,5.5,6.2,10.3c0,5.4-3.2,9.6-7.8,10.8v0.1c0,0,0.4,0.5,1.1,1.6l9,16.2h-4.6l-9.3-16.9h-10.4
	v16.9h-4.1V256.1z"/>
<path class="st0" d="M286.3,292.7c10.2,0,16.9-5.8,16.9-16.6c0-10.7-6.8-16.5-16.9-16.5h-8.9v33.1H286.3z M273.4,256.1h13.3
	c12.4,0,20.7,7.4,20.7,20c0,12.8-8.3,20.1-20.7,20.1h-13.3V256.1z"/>
<polygon class="st0" points="325.7,256.1 349,256.1 349,259.6 329.8,259.6 329.8,274.3 345.5,274.3 345.5,277.8 329.8,277.8 
	329.8,292.7 350,292.7 350,296.3 325.7,296.3 "/>
<g>
	<path class="st0" d="M599.7,260.3c0,0-0.9,3.3-1.6,5.2l-5.5,14.6h14.2l-5.4-14.6c-0.7-1.9-1.6-5.2-1.6-5.2H599.7z M608,283.5h-16.6
		l-4.7,12.8h-4.3l15.2-40.2h4.3l15.2,40.2h-4.3L608,283.5z"/>
</g>
<polygon class="st0" points="632.6,256.1 655.9,256.1 655.9,259.6 636.7,259.6 636.7,274.3 652.4,274.3 652.4,277.8 636.7,277.8 
	636.7,292.7 657,292.7 657,296.3 632.6,296.3 "/>
<polygon class="st0" points="675,256.1 696.7,256.1 696.7,259.6 679,259.6 679,274.7 694.2,274.7 694.2,278.3 679,278.3 679,296.3 
	675,296.3 "/>
<polygon class="st0" points="714,256.1 714,296.3 738.3,296.3 738.3,292.7 718.1,292.7 718.1,277.8 733.7,277.8 733.7,274.3 
	718.1,274.3 718.1,259.6 737.3,259.6 737.3,256.1 "/>
<g>
	<path class="st1" d="M341.5,328.4c2,1.1,4.3,2.3,4.3,5.4c0,3.8-3.1,5.6-7.3,5.6c-2.4,0-4.5-0.6-5.1-0.8v-3c1.2,0.7,3.1,1.5,5.4,1.5
		c1.9,0,3.8-0.8,3.8-2.9c0-2.1-1.7-2.9-3.3-3.8l-1.9-1.1c-1.9-1.1-4.4-2.2-4.4-5.2c0-3.5,2.9-5.1,6.7-5.1c1.9,0,3.9,0.4,4.6,0.6v2.7
		c-0.4-0.1-2.7-1-4.8-1c-2,0-3.3,0.9-3.3,2.6c0,1.5,1.8,2.5,3.3,3.3L341.5,328.4z"/>
</g>
<polygon class="st1" points="357.6,319.4 357.6,339.1 369.1,339.1 369.1,336.8 360.6,336.8 360.6,330 368.4,330 368.4,327.7 
	360.6,327.7 360.6,321.7 368.8,321.7 368.8,319.4 "/>
<rect x="381.1" y="319.4" class="st1" width="2.9" height="19.7"/>
<polygon class="st1" points="395.2,319.4 395.2,321.7 400.2,321.7 400.2,339.1 403.2,339.1 403.2,321.7 408.2,321.7 408.2,319.4 "/>
<polygon class="st1" points="442.3,321 438.1,323.3 438.1,325.7 441.8,323.6 441.8,339.1 444.8,339.1 444.8,321 "/>
<g>
	<path class="st1" d="M466.6,329.9c2.1,0,3.3-1.4,3.3-3.6c0-1.9-1-3.7-3.1-3.7c-2.6,0-3.3,1.7-3.3,3.6
		C463.4,328.3,464.2,329.9,466.6,329.9 M470.2,330.1c-0.8,0.9-1.9,1.8-4.5,1.8c-3.6,0-5.2-2.4-5.2-5.7c0-3.5,2.4-5.6,6.1-5.6
		c5.6,0,6.5,4.1,6.5,9.6c0,4.7-1,9.1-6.5,9.1c-4.6,0-5.6-2.7-5.7-4.2h3.3c0,0.7,0.5,2.2,2.4,2.2c2,0,3.6-1.4,3.6-6.3V330.1z"/>
	<path class="st1" d="M485.3,337c2.4-1.9,8.9-7.8,8.9-11.6c0-1.5-0.9-2.7-2.9-2.7c-2,0-2.8,1.2-2.8,2.5h-3.2c0.2-1.9,1.3-4.5,6-4.5
		c3.2,0,5.8,1.7,5.8,4.9c0,5.1-5.2,8.8-8.3,11.5h8.5v2h-12V337z"/>
</g>
<polygon class="st1" points="515,321 510.8,323.3 510.8,325.7 514.5,323.6 514.5,339.1 517.5,339.1 517.5,321 "/>
<path class="st0" d="M435.8,293.2c5.8,0,9.6-3.1,9.6-10.8v-5.8h-8.7c-7.2,0-10.7,3.3-10.7,8.3C426,289.5,429.7,293.2,435.8,293.2
	 M429.4,274.6v-0.1c0,0-5.8-1.8-5.8-8.9c0-6.2,4.9-10.2,12.4-10.2c2,0,4.7,0.6,4.7,0.6l-1.2,3.3c0,0-1.9-0.4-3.4-0.4
	c-4.6,0-8.3,2.6-8.3,6.9c0,2.7,1.2,7.3,8.9,7.3h8.7v-5.7h4.1v5.7h5.6v3.5h-5.6v5.9c0,9.6-5.4,14.5-13.7,14.5
	c-8.3,0-13.9-5.1-13.9-11.8C421.8,280.5,424.5,276,429.4,274.6"/>
<path class="st0" d="M367.4,288.8c0,0,4.3,4.4,10.8,4.4c4.5,0,8.2-2.6,8.2-7c0-10.1-20.6-7.5-20.6-20c0-5.8,5.2-10.8,12.9-10.8
	c7.2,0,11,3.9,11,3.9l-2,3.3c0,0-3.6-3.4-9.1-3.4c-5.3,0-8.7,3.4-8.7,6.9c0,9.5,20.6,6.8,20.6,20c0,6-4.8,10.8-12.5,10.8
	c-8.5,0-13.1-5.1-13.1-5.1L367.4,288.8z"/>
<path class="st0" d="M506.6,255.4c9.6,0,14.7,4.7,14.7,4.7l-2.2,3c0,0-4.8-4-12.3-4c-10,0-16.8,7.5-16.8,17c0,9.9,7,17.2,16.4,17.2
	c8.1,0,13-5.9,13-5.9v-6.8h-7.1v-3.5h10.9v19.2h-3.8v-3c0-0.9,0.1-1.7,0.1-1.7h-0.1c0,0-4.8,5.4-13.5,5.4
	c-11.3,0-20.2-8.9-20.2-20.8C485.8,264.6,494.7,255.4,506.6,255.4"/>
<path class="st0" d="M555.8,275.8c5,0,8.2-3.1,8.2-8.2c0-3.3-1.3-5.8-3.8-7c-1.2-0.6-2.7-1-5.9-1h-8.3v16.2H555.8z M541.9,256.1
	h12.2c4.2,0,6.1,0.4,7.8,1.1c3.9,1.7,6.2,5.5,6.2,10.3c0,5.4-3.2,9.6-7.8,10.8v0.1c0,0,0.4,0.5,1.1,1.6l9,16.2h-4.6l-9.3-16.9h-10.4
	v16.9h-4.1V256.1z"/>
</svg>
