<svg enable-background="new 0 0 2048.5 351" viewBox="0 0 2048.5 351" xmlns="http://www.w3.org/2000/svg"><path d="m748.3 168.9v111.5h-50.4v-104.7c0-24.5-12.4-37.6-36.3-37.6-27.9 0-45 17.8-45 46.7v95.7h-50.4v-245.2h50.4v105.1h1c8.7-27.5 32.2-43 65.2-43 42.3 0 65.5 25.5 65.5 71.5zm216.8 30.6h-142c2.7 31.6 19.1 47.7 48.7 47.7 19.8 0 35.4-7.1 44.7-20l39.8 14.7c-17.1 27.4-47.7 42.6-87.5 42.6-58.1 0-95.4-35.6-95.4-91 0-57.4 38.6-96 96.7-96 59.7-.1 95 37.9 95 102zm-51.7-29.9c-5-23.8-19.8-35.9-43.3-35.9-24.5 0-40 12.4-45.3 35.9zm263 74.9c5.4 0 12.4-1.7 16.8-4.4v36.6c-9.1 4-24.8 7-35.9 7-27.2 0-44.7-15.8-44.7-40.3v-3.7h-1.3c-13.4 27.9-38.9 44.7-70.8 44.7-33.6 0-58.4-20.5-58.4-48 0-24.9 15.8-41 48-49.7l81.3-21.8v-2.4c0-20.1-11.8-30.2-34.6-30.2-23.8 0-40.6 13.4-50.4 40.6l-40.6-15.1c14.8-40 46-60.1 93-60.1 50.4 0 82.3 24.5 82.3 63.8v62.8c-.1 13.8 4.9 20.2 15.3 20.2zm-65.1-53.1-58.4 20.1c-16.8 5.7-21.5 9.7-21.5 17.5 0 10.4 9.7 17.5 23.5 17.5 23.5 0 48.7-17.5 56.4-37.6zm240.1-156.1h50.4v245.1h-50.4v-38.9h-1c-11.8 27.9-35.3 43-66.8 43-48.3 0-82.3-38.3-82.3-93 0-56.1 33.6-94 83.3-94 30.6 0 55.1 15.4 65.8 41.3h1zm.3 151.1c0-29.6-21.5-51.7-50.4-51.7s-48.4 22.8-48.4 56.8c0 33.2 19.5 55.7 48.4 55.7 28.2 0 50.4-22.5 50.4-51.7zm269.8 58.1c5.4 0 12.4-1.7 16.8-4.4v36.6c-9.1 4-24.8 7-35.9 7-27.2 0-44.7-15.8-44.7-40.3v-3.7h-1.3c-13.4 27.9-38.9 44.7-70.8 44.7-33.6 0-58.4-20.5-58.4-48 0-24.9 15.8-41 48-49.7l81.3-21.8v-2.4c0-20.1-11.8-30.2-34.6-30.2-23.8 0-40.6 13.4-50.4 40.6l-40.6-15.1c14.8-40 46-60.1 93-60.1 50.4 0 82.3 24.5 82.3 63.8v62.8c-.2 13.8 4.9 20.2 15.3 20.2zm-65.2-53.1-58.4 20.1c-16.8 5.7-21.5 9.7-21.5 17.5 0 10.4 9.7 17.5 23.5 17.5 23.5 0 48.7-17.5 56.4-37.6zm439.8-90-46.7 135.3h-1.7l-49.4-135.3h-53.7l64.8 156.1c5.7 13.8 9.4 25.9 9.4 35.3 0 7.4-2 13.1-7.1 17.1s-12.1 6-24.2 6c-11.8 0-22.5-1.3-35.9-5.4v34.6c9.1 3.4 23.2 5.7 38.6 5.7 41 0 64.5-15.8 78.9-52l79.3-197.4zm-249.3 145.8c-31.6 0-48.7-19.5-48.7-55.7 0-35.6 17.8-56.8 48-56.8 23.3 0 40 12.2 48.1 34.8l41.4-12.1c-11.4-38.1-44.2-60-90.6-60-57.4 0-98.7 40-98.7 96 0 54.7 38.3 91 96.4 91 53.3 0 88.3-25.5 99-71.5l-44-7.6c-6.3 27.1-24 41.9-50.9 41.9z" fill="#111827"/><path d="m400.3 143.6c-23.3-23.3-55.3-32.8-85.6-28.5 4.3-30.3-5.2-62.3-28.5-85.6-19.1-19-44.4-29.5-71.3-29.5s-52.3 10.5-71.3 29.5c-19.1 19-29.5 44.4-29.5 71.3 0 4.8.3 9.6 1 14.3-30.3-4.3-62.3 5.2-85.6 28.5-39.3 39.3-39.3 103.3 0 142.6 19.7 19.7 45.5 29.5 71.3 29.5s51.6-9.8 71.3-29.5l9.1-9.1 24.2-23.9c5.3-5.2 13.9-5.2 19.2.1l30.9 30.8 2.2 2.2c19.7 19.7 45.5 29.5 71.3 29.5s51.6-9.8 71.3-29.5c39.3-39.4 39.3-103.4 0-142.7zm-245.9-42.8c0-16.2 6.3-31.3 17.7-42.8 11.4-11.4 26.6-17.7 42.8-17.7s31.4 6.3 42.8 17.7c23.6 23.6 23.6 62 0 85.6l-29.1 29.1c-7.5 7.5-19.8 7.5-27.3 0l-29.1-29.1c-11.5-11.4-17.8-26.6-17.8-42.8zm-96.4 156.9c-23.6-23.6-23.6-62 0-85.6 11.8-11.8 27.3-17.7 42.8-17.7s31 5.9 42.8 17.7l29.1 29.1c7.5 7.5 7.5 19.8 0 27.3l-29.1 29.1c-23.6 23.7-62 23.7-85.6.1zm313.7 0c-23.6 23.6-62 23.6-85.6 0l-29.1-29.1c-7.5-7.5-7.5-19.8 0-27.3l29.1-29.1c23.6-23.6 62-23.6 85.6 0 23.6 23.5 23.6 61.9 0 85.5z" fill="#faa98f"/></svg>