<?xml version="1.0" encoding="UTF-8" standalone="no"?>
<!-- Created with Inkscape (http://www.inkscape.org/) -->
<svg
   xmlns:svg="http://www.w3.org/2000/svg"
   xmlns="http://www.w3.org/2000/svg"
   version="1.0"
   width="602.36218"
   height="327.01181"
   id="svg3140">
  <defs
     id="defs3142" />
  <g
     transform="translate(-640.84965,-109.82757)"
     id="layer1">
    <g
       id="g3200">
      <path
         d="M 942.03072,419.11721 L 1225.4953,419.11721 L 1225.4953,127.54974 L 942.03072,127.54974 L 942.03072,419.11721 z"
         id="path2636"
         style="fill:#ff0000;fill-opacity:1;fill-rule:nonzero;stroke:none" />
      <path
         d="M 17.71875,17.71875 L 17.71875,309.28125 L 301.1875,309.28125 L 301.1875,17.71875 L 17.71875,17.71875 z M 409.53125,133.0625 L 396.25,135.34375 L 396.25,230.34375 L 409.53125,230.34375 L 409.53125,133.0625 z M 322.8125,136.78125 L 322.8125,230.34375 L 336.53125,230.34375 L 336.53125,187.34375 C 336.53124,186.57802 336.4804,185.67518 336.40625,185.34375 C 336.53197,185.65232 336.98138,186.42148 337.25,186.78125 L 369.96875,230.34375 L 387.6875,230.34375 L 387.6875,229.5 L 387.40625,229.5 L 349.96875,181.34375 L 385.8125,137.34375 L 386.25,137.34375 L 386.25,136.78125 L 369.53125,136.78125 L 337.25,177.625 C 336.75857,178.23071 336.52049,178.84509 336.40625,179.1875 C 336.45197,178.8451 336.53129,178.30626 336.53125,177.90625 L 336.53125,136.78125 L 322.8125,136.78125 z M 509.96875,145.625 L 496.96875,147.90625 L 496.8125,163.625 L 485.40625,163.625 L 485.40625,173.5 L 496.8125,173.5 L 496.8125,210.5 C 496.81251,224.63128 501.27665,231.0625 512.09375,231.0625 C 518.11667,231.06251 520.9898,230.19716 526.8125,227.5 L 526.8125,216.78125 C 523.3211,218.17006 520.5505,219.34375 516.6875,219.34375 C 511.67598,219.34375 509.6876,216.88344 509.6875,208.90625 L 509.6875,173.5 L 536.6875,173.5 L 536.6875,210.5 C 536.68752,224.6258 541.02505,231.0625 552.09375,231.0625 C 557.89946,231.06251 561.48875,229.76185 566.96875,227.21875 L 566.96875,216.78125 C 563.14012,218.3072 560.31485,219.34375 556.40625,219.34375 C 551.40056,219.34375 549.40615,216.88344 549.40625,208.90625 L 549.40625,173.5 L 567.8125,173.5 L 567.8125,163.625 L 549.40625,163.625 L 549.96875,145.625 L 536.96875,147.90625 L 536.6875,163.625 L 509.6875,163.625 L 509.96875,145.625 z M 452.96875,161.5 C 433.63726,161.49999 422.6875,174.86191 422.6875,196.0625 C 422.68749,217.26811 434.07475,231.625 453.40625,231.625 C 459.24054,231.62499 464.94025,230.22627 469.96875,227.90625 C 472.16876,226.89504 475.5584,224.9746 477.25,223.90625 L 473.40625,213.5 C 468.54335,216.3288 465.58265,218.01436 460.53125,218.90625 C 458.35405,219.28889 456.6303,219.34375 454.6875,219.34375 C 446.49321,219.34375 441.12645,215.97456 438.40625,209.5 C 437.18916,206.60306 436.88615,204.79888 436.40625,199.78125 L 479.8125,199.78125 L 479.8125,196.625 C 479.81251,188.62495 479.2303,177.6663 472.6875,169.90625 C 468.06459,164.42051 462.05455,161.5 452.96875,161.5 z M 451.96875,171.34375 C 457.87166,171.34375 461.4044,174.1236 463.25,176.90625 C 465.48431,180.26078 465.90915,182.7347 466.40625,189.5 L 436.40625,189.5 C 436.70916,186.08878 437.1987,183.1127 438.25,180.78125 C 439.79289,177.35815 442.1554,174.75018 444.8125,173.21875 C 447.18969,171.84137 449.87715,171.34375 451.96875,171.34375 z"
         transform="translate(640.84965,109.82757)"
         id="path2634"
         style="fill:#ffffff;fill-opacity:1;fill-rule:nonzero;stroke:none" />
      <path
         d="M 817.52714,147.60135 C 817.52714,147.60135 788.09843,186.6985 788.09839,212.60174 C 788.09839,252.09318 798.13264,351.16852 803.66991,393.17426 L 813.52711,381.17419 C 809.74995,340.43109 806.24145,259.35082 806.24135,212.31603 C 806.24135,192.19019 806.73288,178.12144 808.24137,174.60151 C 810.00138,175.85866 811.27576,176.893 812.52711,181.17298 C 816.05284,193.99591 817.52727,235.13308 817.52714,265.31657 C 817.52714,272.85902 817.38437,279.49906 817.38428,285.03052 C 817.38428,290.06507 818.34433,298.52226 824.38432,300.03084 C 825.64147,285.94527 836.66426,262.8937 860.81311,261.88798 C 862.57312,264.15085 864.38461,269.84186 864.38456,276.88784 C 864.38456,318.63667 831.40713,324.7455 822.09859,324.7455 C 818.83,324.7455 817.09861,324.17362 817.09856,324.17407 C 817.09856,324.17407 822.57846,361.00858 855.52737,376.60273 L 876.38464,355.17403 C 876.38464,355.17403 853.31026,346.00872 846.38445,327.17386 C 846.26445,326.87077 846.23008,326.79077 845.95588,326.60243 C 846.26445,326.751 846.27008,326.81957 846.67017,326.74506 C 864.38456,323.81933 891.09896,308.86518 891.09901,272.17376 C 891.09901,254.81914 887.52761,246.45932 887.52756,246.45932 C 874.18462,246.45932 848.22442,249.68768 831.81294,271.03089 C 831.39008,271.57947 831.03584,271.99044 830.81293,272.45902 C 830.81293,272.45902 830.97869,271.87067 831.09865,271.17352 C 832.00722,265.84229 835.95573,241.07048 835.95582,210.60173 C 835.95582,175.13866 831.15012,161.19567 828.38435,157.17284 C 823.0986,149.3785 817.52718,147.6013 817.52714,147.60135 z M 712.81222,246.45932 C 712.81222,246.45932 709.24086,253.31056 709.24077,272.17376 C 709.24077,306.74494 736.46393,325.45911 752.81246,325.45957 C 758.09249,325.45957 761.08693,324.1855 763.09824,322.1736 C 758.06963,321.41977 736.24098,313.6707 736.24093,279.45929 C 736.24093,264.61897 739.38372,261.88753 739.38381,261.88798 C 739.38381,261.88798 773.66973,261.32158 773.66973,301.31679 C 773.66973,348.0997 724.38372,355.17403 724.38372,355.17403 L 744.95527,375.74558 C 744.95527,375.74558 788.66973,364.30506 788.66982,319.17381 C 788.66982,250.25911 724.88658,246.71075 712.81222,246.45932 z"
         id="path2664"
         style="fill:#003366;fill-opacity:1;fill-rule:nonzero;stroke:none" />
    </g>
  </g>
</svg>
