<?xml version="1.0" encoding="UTF-8"?>
<svg version="1.1" width="543" height="90" viewBox="0 0 543 90" xmlns="http://www.w3.org/2000/svg" xmlns:xlink="http://www.w3.org/1999/xlink">
  <g fill="none" fill-rule="evenodd">
    <path fill="#FFF" d="M474.8789,0 L472.4949,2.85 L472.4209,2.938 C471.8449,3.623 470.4629,5.527 470.3339,8.11 C470.2709,9.482 470.4999,10.794 470.6429,11.454 L470.6769,11.608 L470.9489,12.839 L442.4549,12.839 L441.9999,12.839 L6.4549,12.839 L0.4549,12.839 L0.4549,18.839 L0.4549,83.839 L0.4549,89.839 L6.4549,89.839 L441.9999,89.839 L442.4549,89.839 L536.2049,89.839 L542.2049,89.839 L542.2049,83.839 L542.2049,18.839 L542.2049,12.839 L536.2049,12.839 L518.6979,12.839 L474.8789,0 Z M506.9069,18.839 L502.2099,17.123 L497.4829,15.587 L494.5099,17.839 L494.2479,18.839 L506.9069,18.839 Z M480.2259,7.447 C480.4119,7.46 480.5669,7.486 480.6869,7.524 C480.7549,7.546 480.8459,7.58 480.9469,7.618 L484.8449,8.57 L486.2029,9.753 L495.4409,12.529 L504.7079,15.195 L506.5339,14.93 L506.5779,14.944 L514.0189,17.556 L514.0319,17.671 C514.0359,17.701 514.1009,18.261 513.9599,18.839 L536.2049,18.839 L536.2049,83.839 L442.4549,83.839 L441.9999,83.839 L6.4549,83.839 L6.4549,18.839 L441.9999,18.839 L442.4549,18.839 L491.5229,18.839 L491.4759,16.972 L494.5779,14.656 L489.4909,13.315 L484.7289,12.156 L476.5339,10.31 L476.5089,10.194 C476.4999,10.153 476.2899,9.196 476.3269,8.409 C476.3679,7.589 476.9959,6.82 477.0229,6.788 L477.0979,6.699 L480.2259,7.447 Z"/>
    <polygon fill="#1D1D1B" points="2.999 86.839 438.999 86.839 438.999 15.839 2.999 15.839"/>
    <path fill="#FFF" d="M442,12.8388 L436,12.8388 L6,12.8388 L0,12.8388 L0,18.8388 L0,83.8388 L0,89.8388 L6,89.8388 L436,89.8388 L442,89.8388 L442,83.8388 L442,18.8388 L442,12.8388 Z M6,83.8388 L436,83.8388 L436,18.8388 L6,18.8388 L6,83.8388 Z"/>
    <polygon fill="#FFF" points="34.338 33 34.338 61.649 53.455 61.649 53.455 70.358 23.62 70.358 23.62 33"/>
    <polygon fill="#FFED00" points="442 83.839 536.205 83.839 536.205 18.839 442 18.839"/>
    <path fill="#1D1D1B" d="M522.8164,54.0957 C521.5904,64.5037 513.4114,72.1917 504.5434,71.2677 C495.6744,70.3467 489.4794,61.1617 490.7044,50.7517 C491.2924,45.7537 493.5464,41.3237 496.6494,38.2307 L500.9944,52.1797 L505.7114,51.9747 L499.9624,35.6267 C500.2344,35.4897 500.7564,35.2117 500.7564,35.2117 C503.2814,33.8917 506.0924,33.2757 508.9784,33.5747 C517.8414,34.4997 524.0414,43.6857 522.8164,54.0957 L522.8164,54.0957 Z M476.0744,49.7347 L473.7724,37.0557 L491.1364,25.2227 L476.0744,49.7347 Z M468.7474,57.0207 C467.3154,64.0957 462.5234,68.8727 458.0434,67.6887 C453.5614,66.5057 451.0894,59.8117 452.5214,52.7347 C453.9524,45.6597 458.7454,40.8817 463.2254,42.0657 C463.8404,42.2287 464.4134,42.5027 464.9484,42.8607 L465.0634,42.9737 L458.9834,52.4607 L459.8714,53.8147 L466.8404,44.7367 C468.8824,47.5817 469.7214,52.2087 468.7474,57.0207 L468.7474,57.0207 Z M510.1614,29.3197 C506.5174,28.9397 502.9704,29.6207 499.7644,31.1247 C499.3414,31.3157 499.0184,31.4837 498.5874,31.7177 L494.1674,19.1497 L494.5094,17.8387 L497.4824,15.5867 L502.2104,17.1227 L512.5364,20.8957 L512.6204,20.8127 C512.6494,20.7827 513.3434,20.0927 513.7394,19.4097 C514.1504,18.6977 514.0374,17.7117 514.0324,17.6707 L514.0184,17.5557 L506.5784,14.9447 L506.5344,14.9297 L504.7084,15.1957 L495.4414,12.5297 L486.2034,9.7527 L484.8444,8.5707 L480.9474,7.6177 C480.8454,7.5797 480.7544,7.5457 480.6864,7.5247 C480.5674,7.4867 480.4124,7.4597 480.2254,7.4477 L477.0974,6.6997 L477.0224,6.7877 C476.9964,6.8207 476.3684,7.5887 476.3274,8.4087 C476.2904,9.1967 476.5004,10.1537 476.5084,10.1947 L476.5344,10.3097 L484.7284,12.1567 L489.4914,13.3157 L494.5784,14.6567 L491.4754,16.9717 L491.5964,21.7787 L472.9634,32.6007 L471.8284,26.3437 L475.8664,22.8847 L475.1984,21.4447 L465.0044,23.5507 C463.8964,23.7807 463.1704,24.8507 463.3704,25.9657 L463.3814,26.0317 L469.9904,26.8097 L470.9884,33.7547 L466.7344,40.3667 C466.7254,40.3957 466.5474,40.3207 466.5474,40.3207 C465.8094,39.8247 465.0174,39.4407 464.1644,39.2147 C458.2644,37.6557 452.0254,43.5897 450.2264,52.4637 C448.4314,61.3427 451.7574,69.7987 457.6594,71.3567 C463.5594,72.9157 469.7984,66.9827 471.5934,58.1057 C472.8514,51.8917 471.5854,45.8997 468.6954,42.3207 L471.6604,38.4327 L474.4834,58.0827 L493.3374,27.4087 L495.3454,33.9057 C495.2564,33.9557 495.0924,34.0917 495.0924,34.0917 C490.3984,37.9767 487.0474,43.8877 486.2394,50.7597 C484.7054,63.8177 492.9254,75.3877 504.5974,76.6027 C516.2744,77.8197 526.9844,68.2177 528.5194,55.1587 C530.0584,42.1037 521.8374,30.5327 510.1614,29.3197 L510.1614,29.3197 Z"/>
    <path fill="#FFF" d="M99.1582,32.833 L99.1582,54.919 C99.1582,64.246 91.9962,70.944 79.5772,70.944 C67.1592,70.944 59.9452,64.555 59.9452,55.537 L59.9452,32.879 L71.1272,32.879 L71.1272,55.537 C71.1272,60.02 74.6822,62.236 79.5772,62.236 C85.0402,62.236 88.0282,59.866 88.0282,55.537 L88.0282,32.833 L99.1582,32.833 Z"/>
    <polygon fill="#FFF" points="180.875 70.237 168.508 55.706 164.024 59.57 164.024 70.237 152.895 70.237 152.895 32.879 164.024 32.879 164.024 49.264 164.128 49.264 179.123 32.879 192.211 32.879 175.619 49.522 193.447 70.237"/>
    <polygon fill="#FFF" points="222.974 58.437 222.974 70.237 211.792 70.237 211.792 58.437 194.994 32.879 207.67 32.879 217.306 50.657 217.409 50.657 227.148 32.879 239.721 32.879"/>
    <path fill="#FFF" d="M272.5556,62.4042 L280.9036,62.4042 C285.3866,62.4042 287.3446,61.0642 287.3446,58.5402 C287.3446,56.2722 285.6436,54.9322 280.8516,54.9322 L272.5556,54.9322 L272.5556,62.4042 Z M272.5556,47.7702 L279.7696,47.7702 C284.1496,47.7702 285.9016,46.5342 285.9016,44.2662 C285.9016,42.0502 284.3046,40.9682 279.7696,40.9682 L272.5556,40.9682 L272.5556,47.7702 Z M289.9726,50.7082 L289.9726,50.8102 C295.9506,52.2022 298.4226,55.5512 298.4226,59.4672 C298.4226,65.9602 293.3726,70.2372 281.7796,70.2372 L261.6316,70.2372 L261.6316,32.8792 L279.5116,32.8792 C291.2086,32.8792 295.9506,37.5672 295.9506,42.5142 C295.9506,46.1212 294.4546,49.0072 289.9726,50.7082 L289.9726,50.7082 Z"/>
    <polygon fill="#FFF" points="309.502 70.236 320.633 70.236 320.633 32.878 309.502 32.878"/>
    <polygon fill="#FFF" points="362.681 70.237 350.314 55.706 345.831 59.57 345.831 70.237 334.701 70.237 334.701 32.879 345.831 32.879 345.831 49.264 345.934 49.264 360.929 32.879 374.017 32.879 357.425 49.522 375.254 70.237"/>
    <polygon fill="#FFF" points="416.064 32.879 416.064 41.381 394.885 41.381 394.885 47.667 410.448 47.667 410.448 55.088 394.885 55.088 394.885 61.89 416.682 61.89 416.682 70.237 383.704 70.237 383.704 32.879"/>
    <path fill="#FFF" d="M135.5595,58.7187 C133.9695,60.7677 131.7405,62.2357 127.8205,62.2357 C122.9245,62.2357 119.3185,60.0187 119.3185,55.5357 L119.3185,46.9367 C119.3185,42.6087 122.3065,40.1047 127.7685,40.1047 C131.4145,40.1047 134.2665,41.7357 135.5935,43.8167 L144.1395,40.4527 C141.1945,35.5867 136.3555,31.5287 127.7685,31.5287 C115.3505,31.5287 108.1875,38.2277 108.1875,47.5537 L108.1875,55.5357 C108.1875,64.5537 115.4015,70.9447 127.8205,70.9447 C136.1635,70.9447 141.1215,66.9107 144.1415,62.0977 L135.5595,58.7187 Z"/>
  </g>
</svg>
