<?xml version="1.0" encoding="utf-8"?>
<!-- Generator: Adobe Illustrator 19.2.1, SVG Export Plug-In . SVG Version: 6.00 Build 0)  -->
<svg version="1.1" id="layer" xmlns="http://www.w3.org/2000/svg" xmlns:xlink="http://www.w3.org/1999/xlink" x="0px" y="0px"
	 viewBox="0 0 652 652" style="enable-background:new 0 0 652 652;" xml:space="preserve">
<style type="text/css">
	.st0{fill:#231815;}
	.st1{fill:#0068B7;}
</style>
<path class="st0" d="M294.9,163c0,0,6.2-10.6,9.4-22.1c4.4-15.9,4.7-28.8,4.7-28.8s-6.1-3.9-11.8-7.2c-5.1-2.9-10-5.2-10-5.2
	s-12.8,8.6-22.5,19.6c-10.6,12-18.1,26.5-18.1,26.5s-6.1-2-11.8-3.5c-5.1-1.3-9.9-2-9.9-2s0.5-17.5-2.9-33
	c-3.2-14.8-10.4-27.7-10.4-27.7s-6.8-0.3-13.6-0.1c-5.6,0.1-11.5,0.6-11.5,0.6s-7.2,15.1-10.3,30.2c-3.1,15.1-2.1,30.4-2.1,30.4
	s-5.2,1-10.2,2.3c-5.4,1.5-10.7,3.5-10.7,3.5s-6.2-12.3-15.1-22.1c-14.3-15.8-26.5-23.5-26.5-23.5s-6.1,3-11.7,6.3
	c-5.1,3-9.7,6.2-9.7,6.2s-1,12.1,4.7,29.1c5.1,15.3,14.6,29.7,14.6,29.7s-4.8,4-8.9,8.2c-3.7,3.8-6.9,7.9-6.9,7.9
	s-12.7-8.8-27.3-13.4c-16.8-5.2-31.3-5.2-31.3-5.2s-3.3,4.9-6.3,10.1c-3.1,5.5-6,11.5-6,11.5s6.6,12,19.8,23.4
	c11.9,10.3,26.4,17.4,26.4,17.4s-2,5.5-3.4,11c-1.3,5.1-1.9,10.4-1.9,10.4s-16.4-0.7-31.8,2.4C14,259.6,3.2,266.3,3.2,266.3
	s-0.6,6.6-0.5,13.1c0,6.1,0.6,12,0.6,12s11.1,6.8,27.5,9.9c16.1,3,33.1,2,33.1,2s0.9,5.5,2.3,11c1.4,5.5,3.4,11,3.4,11
	s-14.6,7.3-26.7,18.7c-12.8,12.1-18.4,22.7-18.4,22.7s3,5.9,6.2,11.5c3.2,5.5,6.5,10.4,6.5,10.4s12.3,0.3,27.7-4.9
	c15.6-5.3,30.6-14.8,30.6-14.8s3.7,4.1,7.8,8c4.1,3.9,8.7,7.7,8.7,7.7s-8.3,12.9-13.3,27.4c-5.8,16.6-6.2,30.7-6.2,30.7l22.5,12.7
	c0,0,10.6-7,23.9-21.8c9.6-10.7,15.9-24.4,15.9-24.4s5,1.6,10.2,3c5.7,1.4,11.7,2.6,11.7,2.6s-0.8,16.6,2.4,31.8
	c3.1,14.8,10.1,28.1,10.1,28.1s6.2,0.6,12.9,0.6c6.7,0,13.8-0.8,13.8-0.8s4.8-5.8,8.8-28.7c2.7-15.4,2-31.7,2-31.7s5.5-0.8,10.7-2.3
	c5.2-1.5,10-3.6,10-3.6s7.6,13.5,17.5,25.1c12.8,14.8,23.7,21,23.7,21s5.7-2.6,11-5.7c5.8-3.4,11.3-7.3,11.3-7.3s0-13-6.2-30.8
	c-5-14.4-13.6-27.4-13.6-27.4s3.3-2.8,6.9-6.4c4.2-4.2,8.8-9.3,8.8-9.3s11.3,7.6,23.4,11.9c23.1,8.1,35,7.4,35,7.4s3.4-4.9,6.4-10.1
	c3.5-6.1,6.7-12.6,6.7-12.6s-7.7-12.8-25-26.4c-10.2-8.1-21.4-13.7-21.4-13.7s3-8.5,4.4-14c1.4-5.6,1.1-8.2,1.1-8.2l-54.2,18.9
	c0,0-21.6,49.6-81.8,50.9c-5.1,0.1-10.4-0.5-16.1-1.2c-10.1-1.2-22.3-6.7-30.6-10.9c-38.5-19.8-45.8-60.7-45.8-60.7
	S94.6,251,133.6,211c6-6.1,13.8-11.3,20.2-15.1c35.7-21.1,72.6-8.7,72.6-8.7"/>
<polyline class="st0" points="183.2,214.9 215.6,203.7 257.8,258.6 257.8,188.9 290.5,177.6 290.5,303.5 257.8,314.8 215.8,260.3 
	215.8,329.5 183.2,340.8 "/>
<path class="st0" d="M294.8,228.9c0-19.6,5.3-35.8,15.9-48.6c10.6-12.8,25.6-23,44.5-26.4c19.4-3.4,34.2,1.5,44.7,10.4
	c10.5,8.9,15.7,23,15.7,42.4c0,14.1-2.3,26-6.9,35.8c-4.6,9.8-11.2,18-19.9,24.5c-8.7,6.5-19.7,12.5-32.6,14.8
	c-13.1,2.3-23.8,0.5-32.4-2.3c-8.6-2.8-15.6-8.4-21-16.8C297.5,254.2,294.8,243,294.8,228.9 M326,224.2c-0.3,33.1,21.7,30,29.2,28.4
	c6.3-1.3,26.3-8,28.6-38c2.5-32.7-19.9-35.2-30.2-31.7C346.7,185.2,326.3,194.5,326,224.2"/>
<path class="st0" d="M419.6,258.6V132.7l57.8-20.1c10.7-3.7,18.9-5.5,24.6-5.5c5.7,0.1,10.2,2.3,13.7,6.7c3.5,4.4,6.2,10.7,6.2,18.7
	c0,7-1.8,18-4.6,23.9c-7.7,16.5-19.2,23-19.2,23s-0.7-0.4,2.4,0.3c2.9,0.6,8.4,2.6,12.6,9.8l16.8,30.6l-39.2,13.6l-13.9-30.5
	c-2.1-3.9-5.2-12.9-15-9.5c-2.4,1-7.5,2.7-7.5,2.7v49.9 M454.3,173.5l14.6-5.1c1.6-0.5,11.4-4.6,14.8-10.8c1.5-2.6,2.2-5.3,2.2-8.1
	c0-4.1-1.1-6.8-3.4-8.2c-2.3-1.4-6.6-1-12.9,1.2l-15.2,5.3V173.5z"/>
<g>
	<path class="st0" d="M533.7,93l51.5-17.9c10.2-3.5,51.9-11,51.7,42.6c-0.2,64.8-17,70.6-45.5,80.7l-57.7,20.5 M586.5,103.2
		c-10.1,3.5-18.1,6.3-18.1,6.3v66.8c0,0,13.7-4.7,21.1-7.4c17.7-6.4,18.3-29.5,17-49.1C606.2,114.8,605.2,96.7,586.5,103.2"/>
</g>
<path class="st1" d="M5.6,571.6h18.8c20,0,34.4-11.8,34.4-36c0-23.8-12-36-34.4-36H5.6 M18.8,509.7h4.4c14.8,0,21.6,10.1,21.6,25.9
	c0,15.8-6.7,25.9-21.6,25.9h-4.4V509.7z M69.6,571.6h13.2v-30.9h3c4.9,0,8.3,1.9,10,7.5l7.1,23.4h14l-9.4-27.4
	c-2.3-6.7-5.3-7.9-7.9-8.4v-0.3c8-1.2,13.9-7.5,13.9-16.9c0-13.2-8.7-19-21.5-19H69.6V571.6z M82.8,530.9v-21.2h5.4
	c7.4,0,11.8,2.1,11.8,10.3c0,7.3-4.7,10.9-11.8,10.9H82.8z M126.6,571.6h13.2v-72h-13.2V571.6z M169,571.6h13.9l22-72h-13.6
	l-14.9,55.5h-0.2l-14.5-55.5h-14.2L169,571.6z M212.3,571.6h38.9v-10.5h-25.7v-21.3h23.3v-10.5h-23.3v-19.2h24.6v-10.5h-37.9V571.6z
	 M261.2,569.4c3.6,2.2,9.2,3.2,16.4,3.2c13.7,0,24.1-7,24.1-21.7c0-10.1-4-14.6-12.5-19.4l-7.7-4.3c-4-2.3-7.6-4.3-7.6-9.7
	c0-4.9,3.4-8.5,10-8.5c6.1,0,10.3,1.9,13.5,3.1l0.6-11c-2.1-0.6-7.4-2.6-15.1-2.6c-12.1,0-22.7,6.7-22.7,19.6
	c0,9.3,4.6,15,11.8,18.9l6.7,3.7c6.4,3.5,9.4,5.8,9.4,10.9c0,7.2-5.2,10.4-10.9,10.4c-7,0-12.7-2.8-15.3-4.4L261.2,569.4z
	 M327.8,571.6H341V543l21.2-43.4H348l-13.2,28.8l-14-28.8h-14.2l21.2,43.1V571.6z M364.3,569.4c3.6,2.2,9.2,3.2,16.4,3.2
	c13.7,0,24.1-7,24.1-21.7c0-10.1-4-14.6-12.5-19.4l-7.7-4.3c-4-2.3-7.6-4.3-7.6-9.7c0-4.9,3.4-8.5,10-8.5c6.1,0,10.3,1.9,13.5,3.1
	l0.6-11c-2.1-0.6-7.4-2.6-15.1-2.6c-12.1,0-22.7,6.7-22.7,19.6c0,9.3,4.6,15,11.8,18.9l6.7,3.7c6.4,3.5,9.4,5.8,9.4,10.9
	c0,7.2-5.2,10.4-10.9,10.4c-7,0-12.7-2.8-15.3-4.4L364.3,569.4z M427.1,571.6h13.2v-61.5h16v-10.5H411v10.5h16.1V571.6z M465,571.6
	h38.9v-10.5h-25.7v-21.3h23.3v-10.5h-23.3v-19.2h24.6v-10.5H465V571.6z M572.5,571.6h12v-72h-19.1l-15.2,53.7H550l-14.9-53.7h-19.7
	v72h12v-60h0.2l17.2,60h9.4l18.1-60h0.2V571.6z M596.9,569.4c3.6,2.2,9.2,3.2,16.4,3.2c13.7,0,24.1-7,24.1-21.7
	c0-10.1-4-14.6-12.5-19.4l-7.7-4.3c-4-2.3-7.6-4.3-7.6-9.7c0-4.9,3.4-8.5,10-8.5c6.1,0,10.3,1.9,13.5,3.1l0.6-11
	c-2.1-0.6-7.4-2.6-15.1-2.6c-12.1,0-22.7,6.7-22.7,19.6c0,9.3,4.6,15,11.8,18.9l6.7,3.7c6.4,3.5,9.4,5.8,9.4,10.9
	c0,7.2-5.2,10.4-10.9,10.4c-7,0-12.7-2.8-15.3-4.4L596.9,569.4z"/>
</svg>
