<?xml version="1.0" encoding="UTF-8"?><svg id="Layer_1" xmlns="http://www.w3.org/2000/svg" viewBox="0 0 567.93 143.95"><defs><style>.cls-1{fill:#ff6200;}.cls-2{fill:#727272;}.cls-3{fill:#009af9;fill-rule:evenodd;}</style></defs><path class="cls-2" d="M349.29,28.64c-3.71-3.71-9.79-3.71-13.51,0l-22.23,22.23-22.23-22.23c-3.71-3.71-9.79-3.71-13.51,0-3.71,3.71-3.71,9.79,0,13.5l22.23,22.23-22.23,22.23c-3.71,3.71-3.71,9.79,0,13.5,3.71,3.71,9.79,3.71,13.51,0l22.23-22.23,22.23,22.23c3.71,3.71,9.79,3.71,13.51,0,3.71-3.71,3.71-9.79,0-13.5l-22.23-22.23,22.23-22.23c3.71-3.71,3.71-9.79,0-13.5Z"/><path class="cls-2" d="M187.35,25.06c-21.37,0-38.95,17.58-38.95,38.94v70.4c0,5.24,4.31,9.55,9.55,9.55s9.55-4.31,9.55-9.55v-36.9c5.81,3.45,12.6,5.44,19.85,5.44,21.51,0,38.96-17.43,38.96-38.94s-17.58-38.94-38.96-38.94Zm0,58.44c-10.77,0-19.5-8.73-19.5-19.5s8.73-19.5,19.5-19.5,19.5,8.73,19.5,19.5-8.73,19.5-19.5,19.5Z"/><path class="cls-2" d="M424.05,25.43c-5.25,0-9.55,4.3-9.55,9.55v34.68c0,8.71-7.13,15.84-15.85,15.84s-15.85-7.13-15.85-15.84V34.97c0-5.25-4.3-9.55-9.55-9.55s-9.55,4.3-9.55,9.55v33.39c0,19.22,15.73,34.94,34.95,34.94s34.95-15.72,34.95-34.94V34.97c0-5.25-4.3-9.55-9.55-9.55Z"/><path class="cls-2" d="M567.93,60.94c0-17.65-12.89-32.97-30.41-35.22-11.78-1.52-22.61,2.96-29.95,10.76h0c-6.39-6.78-15.41-11.05-25.4-11.05h0c-19.22,0-34.95,15.72-34.95,34.94v33.07c0,4.77,3.36,9.04,8.07,9.76,5.9,.9,11.03-3.7,11.03-9.44V59.08c0-8.71,7.13-15.84,15.85-15.84h0c8.72,0,15.85,7.13,15.85,15.84v34.7c0,3.8,2.2,7.36,5.74,8.77,6.81,2.72,13.37-2.31,13.37-8.79V59.44c0-7.5,6.02-14.91,13.44-16.02,9.77-1.46,18.26,6.16,18.26,15.66v34.68c0,5.25,4.3,9.55,9.55,9.55h0c5.25,0,9.55-4.3,9.55-9.55V60.94Z"/><path class="cls-2" d="M247.11,57.11c-2.16,0-4.22-.39-6.15-1.06v37.34c0,5.25,4.3,9.55,9.55,9.55s9.55-4.3,9.55-9.55V51.84c-3.35,3.26-7.91,5.27-12.95,5.27Z"/><ellipse class="cls-1" cx="250.66" cy="34.74" rx="11.74" ry="11.74"/><path class="cls-3" d="M119.99,55.99h-16.71c-3.21,0-5.95-2.27-7.21-5.23-1.28-3.01-.94-6.55,1.37-8.86l11.82-11.82c3.13-3.13,3.13-8.2,0-11.33-3.13-3.13-8.2-3.13-11.33,0l-12.35,12.35c-2.16,2.16-5.45,2.55-8.3,1.43-2.97-1.16-5.27-3.85-5.27-7.04V8.01c0-4.43-3.59-8.01-8.01-8.01s-8.01,3.59-8.01,8.01V26.52c0,2.89-1.99,5.38-4.64,6.55-2.76,1.22-6.04,.9-8.17-1.23l-13.1-13.1c-3.13-3.13-8.2-3.13-11.33,0-3.13,3.13-3.13,8.2,0,11.33l13.61,13.61c1.99,1.99,2.35,5.02,1.29,7.63-1.07,2.65-3.52,4.67-6.38,4.67H8.01c-4.43,0-8.01,3.59-8.01,8.01s3.59,8.01,8.01,8.01H27.27c2.86,0,5.31,2.01,6.38,4.67,1.06,2.61,.7,5.64-1.29,7.63l-13.61,13.61c-3.13,3.13-3.13,8.2,0,11.33,3.13,3.13,8.2,3.13,11.33,0l13.1-13.1c2.13-2.13,5.41-2.45,8.17-1.23,2.65,1.17,4.64,3.66,4.64,6.55v18.51c0,4.43,3.59,8.01,8.01,8.01s8.01-3.59,8.01-8.01v-17.47c0-3.19,2.3-5.88,5.27-7.04,2.85-1.11,6.14-.73,8.3,1.43l12.35,12.35c3.13,3.13,8.2,3.13,11.33,0,3.13-3.13,3.13-8.2,0-11.33l-11.82-11.82c-2.31-2.31-2.65-5.86-1.37-8.86,1.26-2.95,4-5.22,7.21-5.22h16.71c4.43,0,8.01-3.59,8.01-8.01s-3.59-8.01-8.01-8.01Zm-36.49,8.01c0,10.77-8.73,19.5-19.5,19.5s-19.5-8.73-19.5-19.5,8.73-19.5,19.5-19.5,19.5,8.73,19.5,19.5Z"/></svg>