<?xml version="1.0" encoding="UTF-8"?>
<svg id="logo" xmlns="http://www.w3.org/2000/svg" viewBox="0 0 377.95 73.53">
  <defs>
    <style>
      .cls-1 {
        fill: #009d3b;
      }

      .cls-1, .cls-2 {
        stroke-width: 0px;
      }
    </style>
  </defs>
  <g id="rameder_logotype">
    <g id="logotype">
      <path class="cls-2" d="M0,17.47h17.57v8.69h.2c2.02-6.56,6.87-10.1,12.22-10.1h2.93v16.97c-1.62-.3-3.03-.4-4.54-.4-6.46,0-10.2,2.52-10.2,9.7v29.79H0V17.47Z"/>
      <path class="cls-2" d="M62.72,72.11c-.61-1.92-.81-3.94-1.11-6.16h-.2c-2.02,4.85-6.87,7.57-12.32,7.57-10.91,0-15.15-6.67-15.15-16.06,0-10.1,3.53-14.85,15.15-17.57l7.17-1.72c3.94-.91,5.35-2.63,5.35-5.96s-1.51-5.05-4.65-5.05c-3.43,0-5.05,1.51-5.15,7.27h-15.75c0-15.65,12.62-18.38,20.91-18.38,12.73,0,21.61,3.33,21.61,17.57v26.66c0,5.05.2,8.99,1.72,11.82h-17.57ZM61.61,52.32v-6.56h-.2c-1.01,1.41-3.53,1.31-6.16,2.52-2.83,1.31-3.74,3.43-3.74,7.07s1.72,5.96,4.44,5.96c4.04,0,5.66-3.03,5.66-8.99Z"/>
      <path class="cls-2" d="M113.32,36.06c0-4.54-1.21-6.46-4.44-6.46s-4.44,1.92-4.44,6.46v36.06h-18.18V17.47h17.57v6.67h.2c2.32-5.35,6.97-8.08,13.23-8.08,7.47,0,11.11,2.83,13.33,8.38,2.83-6.16,8.18-8.38,13.74-8.38,7.98,0,14.24,3.13,14.24,14.85v41.21h-18.18v-36.06c0-4.54-1.21-6.46-4.44-6.46s-4.44,1.92-4.44,6.46v36.06h-18.18v-36.06Z"/>
      <path class="cls-2" d="M182,47.87v7.17c0,5.86,2.42,7.37,4.95,7.37,3.23,0,5.15-2.02,5.15-9.49h16.36c-.1,6.56-1.72,11.72-5.15,15.25-3.43,3.54-8.69,5.35-16.26,5.35-17.57,0-23.23-7.88-23.23-28.68s6.87-28.78,23.23-28.78c14.54,0,21.92,6.46,21.92,26.26v5.56h-26.97ZM192,35.55c0-5.76-1.21-8.38-5.05-8.38s-4.95,2.63-4.95,8.38v2.42h10v-2.42Z"/>
      <path class="cls-2" d="M240.88,0h18.18v72.11h-17.57v-7.47h-.2c-2.22,6.06-5.96,8.89-12.42,8.89-12.22,0-16.36-9.7-16.36-29.9s6.67-27.57,16.77-27.57c5.15,0,9.6,2.02,11.41,7.57h.2V0ZM235.83,59.99c4.14,0,5.05-3.43,5.05-15.15s-.91-15.25-5.05-15.25-5.15,3.43-5.15,15.25.91,15.15,5.15,15.15Z"/>
      <path class="cls-2" d="M283.3,47.87v7.17c0,5.86,2.42,7.37,4.95,7.37,3.23,0,5.15-2.02,5.15-9.49h16.36c-.1,6.56-1.72,11.72-5.15,15.25-3.43,3.54-8.69,5.35-16.26,5.35-17.57,0-23.23-7.88-23.23-28.68s6.87-28.78,23.23-28.78c14.54,0,21.92,6.46,21.92,26.26v5.56h-26.97ZM293.3,35.55c0-5.76-1.21-8.38-5.05-8.38s-4.95,2.63-4.95,8.38v2.42h10v-2.42Z"/>
      <path class="cls-2" d="M314.91,17.47h17.57v8.69h.2c2.02-6.56,6.87-10.1,12.22-10.1h2.93v16.97c-1.62-.3-3.03-.4-4.54-.4-6.46,0-10.2,2.52-10.2,9.7v29.79h-18.18V17.47Z"/>
    </g>
    <path id="Symbol" class="cls-1" d="M353.95,48.11h13.74c5.66,0,10.26,4.42,10.26,9.88v14.12h-24v-24Z"/>
  </g>
</svg>