<?xml version="1.0" encoding="UTF-8" standalone="no"?>
<!-- Created with Inkscape (http://www.inkscape.org/) by Marsupilami -->
<svg
   xmlns:svg="http://www.w3.org/2000/svg"
   xmlns="http://www.w3.org/2000/svg"
   version="1.0"
   width="1024"
   height="114"
   viewBox="0 0 73.802742 8.1912498"
   id="svg2328">
  <defs
     id="defs2330" />
  <g
     transform="translate(-283.09863,-545.40941)"
     id="layer1">
    <path
       d="M 29.84375,0 L 29.84375,6.125 C 29.84375,7.32625 29.73375,7.6487498 29.28125,7.75 L 29.28125,7.90625 C 29.915,7.88375 30.183749,7.8749998 30.5,7.875 C 30.82875,7.875 31.09375,7.8837502 31.75,7.90625 L 31.75,7.75 C 31.275,7.6825 31.15625,7.3600002 31.15625,6.125 L 31.15625,3.03125 L 36.0625,8.1875 L 36.21875,8.1875 L 36.21875,2.125 C 36.21875,0.92375 36.350002,0.57999999 36.78125,0.5 L 36.78125,0.34375 L 36.21875,0.34375 L 35.5625,0.375 L 34.9375,0.34375 L 34.34375,0.34375 L 34.34375,0.5 C 34.82,0.535 34.937501,0.8787499 34.9375,2.125 L 34.9375,5.1875 L 30,0 L 29.84375,0 z M 54.1875,0 L 54.1875,6.125 C 54.1875,7.32625 54.077498,7.6487498 53.625,7.75 L 53.625,7.90625 C 54.26,7.88375 54.496252,7.8749998 54.8125,7.875 C 55.14125,7.875 55.436251,7.8837502 56.09375,7.90625 L 56.09375,7.75 C 55.6175,7.6825 55.500001,7.3600002 55.5,6.125 L 55.5,3.03125 L 60.40625,8.1875 L 60.5625,8.1875 L 60.5625,2.125 C 60.5625,0.92375 60.693748,0.57999999 61.125,0.5 L 61.125,0.34375 L 60.53125,0.34375 L 59.90625,0.375 L 59.25,0.34375 L 58.65625,0.34375 L 58.65625,0.5 C 59.1325,0.535 59.25,0.8787499 59.25,2.125 L 59.25,5.1875 L 54.34375,0 L 54.1875,0 z M 11.53125,0.15625 C 9.10625,0.15625 7.46875,1.7362498 7.46875,4.09375 C 7.46875,6.45 9.1612504,8.0937501 11.5625,8.09375 C 13.90875,8.09375 15.53125,6.4612498 15.53125,4.09375 C 15.53125,1.76 13.91125,0.15625 11.53125,0.15625 z M 40.5625,0.15625 C 39.19125,0.15625 38.21875,1.0262499 38.21875,2.25 C 38.21875,2.53375 38.272501,2.7937499 38.375,3.03125 C 38.64625,3.6425 39.032499,3.9787501 40.3125,4.625 C 41.10625,5.02125 41.374999,5.3462502 41.375,5.84375 C 41.375,6.50125 40.8125,6.9687498 40.03125,6.96875 C 39.28375,6.96875 38.646251,6.7087501 38.25,6.1875 L 38.09375,6.1875 L 38.25,7.71875 C 38.93,7.96875 39.493749,8.0937501 40.09375,8.09375 C 41.7375,8.09375 42.812498,7.1862498 42.8125,5.78125 C 42.8125,5.4875 42.74625,5.1987502 42.65625,4.9375 C 42.4525,4.3375 42.04,3.95375 41.15625,3.5 C 39.7975,2.81 39.625001,2.6425001 39.625,2.15625 C 39.625,1.635 40.103751,1.25 40.75,1.25 C 41.4175,1.25 41.962502,1.52375 42.3125,2 L 42.5,2 L 42.5,0.34375 L 42.3125,0.34375 C 42.2225,0.4 42.192501,0.40625 42.125,0.40625 C 42.05625,0.40625 41.924998,0.37750001 41.8125,0.34375 C 41.2575,0.19625 40.958749,0.15625 40.5625,0.15625 z M 48.25,0.15625 C 45.825,0.15625 44.187499,1.7362498 44.1875,4.09375 C 44.1875,6.45 45.878748,8.0937501 48.28125,8.09375 C 50.62625,8.09375 52.249998,6.4612498 52.25,4.09375 C 52.25,1.76 50.628751,0.15625 48.25,0.15625 z M 71.25,0.15625 C 69.855,0.0425 68.445002,1.4049999 68.625,2.875 C 68.84875,4.7225 70.092503,4.9825001 70.8125,5.3125 C 71.135,5.46 71.606248,5.9462501 71.71875,6.5625 C 71.85875,7.33375 71.445002,7.6774998 71.40625,7.71875 C 71.3225,7.80375 71.398752,7.9150001 71.46875,7.875 C 72.57,7.255 73.795002,5.46875 73.8125,3.46875 C 73.82875,1.54375 73.039998,0.30375 71.25,0.15625 z M 0,0.34375 L 0,0.5 C 0.4425,0.58 0.5625,0.9237499 0.5625,2.125 L 0.5625,6.125 C 0.5625,7.32625 0.45375,7.6487498 0,7.75 L 0,7.90625 C 0.6575,7.88375 0.90749998,7.8749998 1.28125,7.875 C 1.64375,7.875 1.925,7.8837502 2.59375,7.90625 L 2.59375,7.75 C 2.14125,7.64875 2.0312501,7.3037502 2.03125,6.125 L 2.03125,1.4375 C 2.325,1.3925 2.435,1.40625 2.71875,1.40625 C 3.75,1.40625 4.3437499,1.8424999 4.34375,2.625 C 4.34375,3.36125 3.7100001,3.84375 2.78125,3.84375 C 2.65625,3.84375 2.585,3.8349999 2.4375,3.8125 L 2.375,3.90625 L 4.34375,7.125 C 4.75125,7.80375 5.0387501,7.9687498 5.71875,7.96875 C 5.99,7.96875 6.35375,7.9512502 6.75,7.90625 L 6.75,7.78125 C 6.49,7.7025 6.3574998,7.5574998 6.0625,7.09375 L 4.34375,4.46875 C 5.30625,4.14 5.8125,3.4624999 5.8125,2.5 C 5.8125,1.695 5.45,1.05 4.78125,0.6875 C 4.27125,0.415 3.7762501,0.34375 2.8125,0.34375 L 0,0.34375 z M 16.9375,0.34375 L 16.9375,0.5 C 17.38,0.58 17.500001,0.9349999 17.5,2.125 L 17.5,6.125 C 17.5,7.315 17.39125,7.6487498 16.9375,7.75 L 16.9375,7.90625 L 19.78125,7.90625 C 20.7675,7.90625 21.177499,7.8212498 21.6875,7.59375 C 22.40125,7.2775 22.8125,6.6312498 22.8125,5.78125 C 22.8125,4.705 22.22625,4.0325 21.09375,3.75 C 21.955,3.5 22.40625,2.97 22.40625,2.1875 C 22.40625,1.54125 22.075,0.95124998 21.53125,0.65625 C 21.04375,0.4075 20.616251,0.34375 19.5625,0.34375 L 16.9375,0.34375 z M 24.75,0.34375 L 24.75,0.5 C 25.1925,0.58 25.312499,0.9237499 25.3125,2.125 L 25.3125,6.125 C 25.3125,7.32625 25.203751,7.6487498 24.75,7.75 L 24.75,7.90625 C 25.3275,7.88375 25.558751,7.8749998 26,7.875 C 26.47625,7.875 26.72,7.8837502 27.34375,7.90625 L 27.34375,7.75 C 26.89,7.64875 26.781251,7.3037502 26.78125,6.125 L 26.78125,2.125 C 26.78125,0.94625 26.90125,0.57999999 27.34375,0.5 L 27.34375,0.34375 L 26.75,0.34375 C 26.51125,0.355 26.2775,0.37499999 26.0625,0.375 C 25.835,0.375 25.584999,0.35500001 25.3125,0.34375 L 24.75,0.34375 z M 65.21875,0.34375 C 64.59125,0.34375 64.093749,0.84124994 64.09375,1.46875 C 64.09375,2.09625 64.591252,2.5937499 65.21875,2.59375 C 65.84625,2.59375 66.343749,2.0962499 66.34375,1.46875 C 66.34375,0.84125 65.846252,0.34374999 65.21875,0.34375 z M 65.21875,0.625 C 65.6825,0.625 66.062498,1.0049999 66.0625,1.46875 C 66.0625,1.9325 65.682502,2.3125 65.21875,2.3125 C 64.75375,2.3125 64.375,1.9324999 64.375,1.46875 C 64.375,1.005 64.753752,0.62499998 65.21875,0.625 z M 65.21875,0.96875 C 64.942502,0.96875 64.71875,1.1925 64.71875,1.46875 C 64.718752,1.7449999 64.9425,1.96875 65.21875,1.96875 C 65.493752,1.9687499 65.71875,1.745 65.71875,1.46875 C 65.718754,1.1924999 65.49375,0.96875 65.21875,0.96875 z M 11.53125,1.3125 C 13.01625,1.3125 14.03125,2.4699998 14.03125,4.125 C 14.03125,5.79 12.995,6.9374998 11.5,6.9375 C 10.01625,6.9375 8.9687504,5.7875002 8.96875,4.15625 C 8.96875,2.48 10.025,1.3125 11.53125,1.3125 z M 48.25,1.3125 C 49.73375,1.3125 50.750002,2.4699998 50.75,4.125 C 50.75,5.79 49.71375,6.9374998 48.21875,6.9375 C 46.73375,6.9375 45.6875,5.7875002 45.6875,4.15625 C 45.6875,2.48 46.742501,1.3125 48.25,1.3125 z M 19.625,1.34375 C 20.475,1.34375 20.9375,1.6775 20.9375,2.3125 C 20.9375,3.00375 20.335,3.375 19.28125,3.375 C 19.15625,3.375 19.07875,3.3975 18.875,3.375 L 18.875,1.40625 C 19.25,1.36 19.41,1.3437501 19.625,1.34375 z M 68.09375,4 C 68.076094,3.9878125 68.063127,3.9762499 68.03125,4.03125 C 67.8525,4.34625 67.76625,5.4525002 68.03125,6.46875 C 68.38,7.80625 69.457497,8.4150001 70.3125,7.8125 C 70.745,7.50625 70.895002,6.7112498 70.40625,6.15625 C 69.9575,5.6475 69.487498,5.7837501 68.78125,5.25 C 68.39125,4.955 68.099996,4.2724999 68.125,4.03125 C 68.12625,4.01625 68.111406,4.0121875 68.09375,4 z M 19.5625,4.375 C 20.74125,4.375 21.3125,4.815 21.3125,5.6875 C 21.3125,6.4575 20.769999,6.8437498 19.75,6.84375 C 19.025,6.84375 18.875,6.6849998 18.875,5.8125 L 18.875,4.40625 C 19.20375,4.38375 19.3475,4.3750001 19.5625,4.375 z "
       transform="translate(283.09863,545.40941)"
       style="fill:#231f20;fill-opacity:1;fill-rule:nonzero;stroke:none"
       id="path14125" />
  </g>
</svg>
