<?xml version="1.0" encoding="UTF-8"?>
<svg id="Ebene_1" xmlns="http://www.w3.org/2000/svg" version="1.1" viewBox="0 0 1365.5 1573.1">
  <!-- Generator: Adobe Illustrator 29.8.2, SVG Export Plug-In . SVG Version: 2.1.1 Build 3)  -->
  <defs>
    <style>
      .st0 {
        fill: #0b2231;
      }
    </style>
  </defs>
  <path class="st0" d="M694.8,495.5L854.5,43.9c7.4-25.4,26.4-42.3,57.1-42.3s59.2,28.6,59.2,60.3-1.1,11.6-3.2,18l-214.7,602.8c-7.4,23.3-27.5,40.2-59.2,40.2s-48.6-14.8-57.1-39.1l-151.2-456.9-151.2,456.9c-8.5,24.3-29.6,39.1-57.1,39.1s-51.8-16.9-59.2-40.2L3.2,79.8c-2.1-6.3-3.2-12.7-3.2-18C0,30.1,20.1,1.6,59.2,1.6s49.7,16.9,57.1,42.3l159.7,451.6L428.3,42.8c8.5-24.3,26.4-41.2,57.1-41.2s48.6,16.9,57.1,41.2l152.3,452.6Z"/>
  <path class="st0" d="M515.2,1395.4c13.7-9.5,27.5-14.8,42.3-14.8,36,0,58.2,27.5,58.2,59.2s-7.4,30.7-20.1,43.4c-60.3,62.4-153.4,89.9-235.8,89.9C152.5,1573.1.2,1429.2.2,1208.2s152.3-364.9,359.6-364.9,175.6,27.5,235.8,89.9c12.7,12.7,20.1,26.4,20.1,43.4,0,31.7-22.2,59.2-58.2,59.2s-28.6-5.3-42.3-14.8c-40.2-30.7-83.5-58.2-155.5-58.2-138.5,0-229.5,104.7-229.5,245.4s90.9,245.4,229.5,245.4,115.3-27.5,155.5-58.2Z"/>
  <path class="st0" d="M1350.7,1446.2c-68.7,85.7-183,126.9-288.7,126.9-225.3,0-361.7-165-361.7-364.9s154.4-364.9,359.6-364.9,175.6,27.5,235.8,89.9c12.7,12.7,20.1,26.4,20.1,43.4,0,31.7-22.2,59.2-58.2,59.2s-28.6-5.3-42.3-14.8c-40.2-30.7-83.6-58.2-155.5-58.2-138.5,0-229.5,104.7-229.5,245.4s84.6,251.7,231.6,251.7,135.4-25.4,176.6-63.5v-108.9h-137.5c-31.7,0-59.2-25.4-59.2-58.2s27.5-58.2,59.2-58.2h198.8c37,0,65.6,29.6,65.6,65.6v168.2c0,18-4.2,27.5-14.8,41.2Z"/>
  <path class="st0" d="M1078.7,720.4c-19.1,0-34.5,1.8-34.5-17.2v-27.8c0-41.5,16.8-75,41.4-107.3,24.8-32.6,36.3-47.1,39.4-80.8,3.9-42.6-32.8-78.7-51.8-107.8-21.5-33-34.5-82.5-34.5-125,0-73,26.4-110.2,56.1-142.3,23.7-25.6,34.6-43.3,34.6-67.3v-27.5c0-19.1,15.4-17.3,34.5-17.3s34.5-1.8,34.5,17.3v17.2c1.9,48.5-6,59.7-46.8,105.1-25.4,28.3-48.2,64.5-48.2,110.5s10.3,73.3,29.4,103c22.4,34.9,61.2,63.7,61.2,125.5s-24,83.8-53.5,122.5c-18.5,24.3-27.3,55.9-27.3,74.2v27.8c0,19-15.4,17.2-34.5,17.2Z"/>
  <path class="st0" d="M1194.8,720.4c-19.1,0-34.5,1.8-34.5-17.2v-19.8c0-39.7,23-69.5,45.2-98.4,27.1-35.2,45.7-63.5,40.1-119.2-3.7-35.8-14.6-63.2-35.3-89.1-25.7-32-54.8-59.6-54.8-121s32.2-91,58.1-120.1c25.2-28.3,32-55.7,32-82.9V17.3c0-19.1,15.4-17.3,34.5-17.3s34.5-1.8,34.5,17.3v35.5c0,54.8-23.6,91-49.5,120.1-25.2,28.3-40.6,47.1-40.6,74.2s15.8,62.1,38.4,89.3c20.3,24.4,43.1,73.3,47.4,116.4,8.3,83.1-20.7,127.5-50.1,165.6-17.2,22.4-30.9,48.7-30.9,64.9v19.8c0,19-15.4,17.2-34.5,17.2Z"/>
</svg>